G04 #@! TF.GenerationSoftware,KiCad,Pcbnew,6.0.11+dfsg-1*
G04 #@! TF.ProjectId,project,70726f6a-6563-4742-9e6b-696361645f70,rev?*
G04 #@! TF.SameCoordinates,Original*
G04 #@! TF.FileFunction,Copper,L4,Bot*
G04 #@! TF.FilePolarity,Positive*
%FSLAX46Y46*%
G04 Gerber Fmt 4.6, Leading zero omitted, Abs format (unit mm)*
%MOMM*%
%LPD*%
G01*
G04 APERTURE LIST*
G04 #@! TA.AperFunction,Profile*
%ADD10C,0.100000*%
G04 #@! TD*
G04 #@! TA.AperFunction,ComponentPad*
%ADD11O,3.600000X1.800000*%
G04 #@! TD*
G04 #@! TA.AperFunction,ComponentPad*
%ADD12C,6.400000*%
G04 #@! TD*
G04 #@! TA.AperFunction,ComponentPad*
%ADD13C,0.900000*%
G04 #@! TD*
G04 #@! TA.AperFunction,ComponentPad*
%ADD14R,1.700000X1.700000*%
G04 #@! TD*
G04 #@! TA.AperFunction,ComponentPad*
%ADD15O,1.700000X1.700000*%
G04 #@! TD*
G04 #@! TA.AperFunction,ViaPad*
%ADD16C,0.700000*%
G04 #@! TD*
G04 #@! TA.AperFunction,Conductor*
%ADD17C,0.300000*%
G04 #@! TD*
G04 #@! TA.AperFunction,Conductor*
%ADD18C,0.500000*%
G04 #@! TD*
G04 #@! TA.AperFunction,Conductor*
%ADD19C,1.500000*%
G04 #@! TD*
G04 APERTURE END LIST*
D10*
X122262500Y-119537500D02*
X119262500Y-119537500D01*
X174262500Y-79537500D02*
X177262500Y-79537500D01*
X152262500Y-116037500D02*
G75*
G03*
X152262500Y-112037500I0J2000000D01*
G01*
X119262500Y-79537500D02*
X118262500Y-79037500D01*
X107762500Y-79037500D02*
X118262500Y-79037500D01*
X190262500Y-103537500D02*
G75*
G03*
X189762500Y-103037500I-500000J0D01*
G01*
X188762500Y-102037500D02*
X188762500Y-97037500D01*
X174262500Y-79537500D02*
X173262500Y-79037500D01*
X189762500Y-96037500D02*
G75*
G03*
X190262500Y-95537500I0J500000D01*
G01*
X118262500Y-120037500D02*
X107762500Y-120037500D01*
X188762500Y-120037500D02*
X178262500Y-120037500D01*
X119262500Y-119537500D02*
X118262500Y-120037500D01*
X177262500Y-119537500D02*
X174262500Y-119537500D01*
X188762500Y-120037500D02*
G75*
G03*
X190262500Y-118537500I0J1500000D01*
G01*
X177262500Y-119537500D02*
X178262500Y-120037500D01*
X122262500Y-119537500D02*
X123262500Y-120037500D01*
X106262500Y-118537500D02*
X106262500Y-80537500D01*
X190262500Y-80537500D02*
X190262500Y-95537500D01*
X107762500Y-79037500D02*
G75*
G03*
X106262500Y-80537500I0J-1500000D01*
G01*
X177262500Y-79537500D02*
X178262500Y-79037500D01*
X188762500Y-102037500D02*
G75*
G03*
X189762500Y-103037500I1000000J0D01*
G01*
X178262500Y-79037500D02*
X188762500Y-79037500D01*
X119262500Y-79537500D02*
X122262500Y-79537500D01*
X173262500Y-79037500D02*
X123262500Y-79037500D01*
X152262500Y-116037500D02*
X134262500Y-116037500D01*
X123262500Y-120037500D02*
X173262500Y-120037500D01*
X106262500Y-118537500D02*
G75*
G03*
X107762500Y-120037500I1500000J0D01*
G01*
X134262500Y-112037500D02*
X152262500Y-112037500D01*
X122262500Y-79537500D02*
X123262500Y-79037500D01*
X174262500Y-119537500D02*
X173262500Y-120037500D01*
X189762500Y-96037500D02*
G75*
G03*
X188762500Y-97037500I0J-1000000D01*
G01*
X190262500Y-103537500D02*
X190262500Y-118537500D01*
X134262500Y-112037500D02*
G75*
G03*
X134262500Y-116037500I0J-2000000D01*
G01*
X190262500Y-80537500D02*
G75*
G03*
X188762500Y-79037500I-1500000J0D01*
G01*
G04 #@! TA.AperFunction,ComponentPad*
G36*
G01*
X153287500Y-80977500D02*
X153287500Y-82237500D01*
G75*
G02*
X153217500Y-82307500I-70000J0D01*
G01*
X151757500Y-82307500D01*
G75*
G02*
X151687500Y-82237500I0J70000D01*
G01*
X151687500Y-80977500D01*
G75*
G02*
X151757500Y-80907500I70000J0D01*
G01*
X153217500Y-80907500D01*
G75*
G02*
X153287500Y-80977500I0J-70000D01*
G01*
G37*
G04 #@! TD.AperFunction*
G04 #@! TA.AperFunction,ComponentPad*
G36*
G01*
X144862500Y-80952500D02*
X144862500Y-82122500D01*
G75*
G02*
X144797500Y-82187500I-65000J0D01*
G01*
X142227500Y-82187500D01*
G75*
G02*
X142162500Y-82122500I0J65000D01*
G01*
X142162500Y-80952500D01*
G75*
G02*
X142227500Y-80887500I65000J0D01*
G01*
X144797500Y-80887500D01*
G75*
G02*
X144862500Y-80952500I0J-65000D01*
G01*
G37*
G04 #@! TD.AperFunction*
G04 #@! TA.AperFunction,ComponentPad*
G36*
G01*
X154362500Y-83952500D02*
X154362500Y-85122500D01*
G75*
G02*
X154297500Y-85187500I-65000J0D01*
G01*
X151727500Y-85187500D01*
G75*
G02*
X151662500Y-85122500I0J65000D01*
G01*
X151662500Y-83952500D01*
G75*
G02*
X151727500Y-83887500I65000J0D01*
G01*
X154297500Y-83887500D01*
G75*
G02*
X154362500Y-83952500I0J-65000D01*
G01*
G37*
G04 #@! TD.AperFunction*
G04 #@! TA.AperFunction,ComponentPad*
G36*
G01*
X144837500Y-83837500D02*
X144837500Y-85097500D01*
G75*
G02*
X144767500Y-85167500I-70000J0D01*
G01*
X143307500Y-85167500D01*
G75*
G02*
X143237500Y-85097500I0J70000D01*
G01*
X143237500Y-83837500D01*
G75*
G02*
X143307500Y-83767500I70000J0D01*
G01*
X144767500Y-83767500D01*
G75*
G02*
X144837500Y-83837500I0J-70000D01*
G01*
G37*
G04 #@! TD.AperFunction*
G04 #@! TA.AperFunction,ComponentPad*
G36*
G01*
X186955000Y-105670000D02*
X183855000Y-105670000D01*
G75*
G02*
X183605000Y-105420000I0J250000D01*
G01*
X183605000Y-104120000D01*
G75*
G02*
X183855000Y-103870000I250000J0D01*
G01*
X186955000Y-103870000D01*
G75*
G02*
X187205000Y-104120000I0J-250000D01*
G01*
X187205000Y-105420000D01*
G75*
G02*
X186955000Y-105670000I-250000J0D01*
G01*
G37*
G04 #@! TD.AperFunction*
D11*
X185405000Y-101270000D03*
X185405000Y-97770000D03*
X185405000Y-94270000D03*
D12*
X133262500Y-100537500D03*
D13*
X131565444Y-98840444D03*
X130862500Y-100537500D03*
X133262500Y-98137500D03*
X133262500Y-102937500D03*
X134959556Y-98840444D03*
X134959556Y-102234556D03*
X135662500Y-100537500D03*
X131565444Y-102234556D03*
X163262500Y-102937500D03*
X161565444Y-98840444D03*
X160862500Y-100537500D03*
X163262500Y-98137500D03*
X165662500Y-100537500D03*
X164959556Y-98840444D03*
X164959556Y-102234556D03*
X161565444Y-102234556D03*
D12*
X163262500Y-100537500D03*
G04 #@! TA.AperFunction,ComponentPad*
G36*
G01*
X109570000Y-93405000D02*
X112670000Y-93405000D01*
G75*
G02*
X112920000Y-93655000I0J-250000D01*
G01*
X112920000Y-94955000D01*
G75*
G02*
X112670000Y-95205000I-250000J0D01*
G01*
X109570000Y-95205000D01*
G75*
G02*
X109320000Y-94955000I0J250000D01*
G01*
X109320000Y-93655000D01*
G75*
G02*
X109570000Y-93405000I250000J0D01*
G01*
G37*
G04 #@! TD.AperFunction*
D11*
X111120000Y-97805000D03*
X111120000Y-101305000D03*
X111120000Y-104805000D03*
D14*
X168400000Y-104575000D03*
D15*
X168400000Y-107115000D03*
X168400000Y-109655000D03*
D14*
X155600000Y-108575000D03*
D15*
X155600000Y-111115000D03*
X155600000Y-113655000D03*
D14*
X125037500Y-109960000D03*
D15*
X125037500Y-112500000D03*
X125037500Y-115040000D03*
D14*
X175200000Y-98360000D03*
D15*
X175200000Y-100900000D03*
X175200000Y-103440000D03*
D16*
X126462500Y-92137500D03*
X119248958Y-88950500D03*
X123050500Y-93537500D03*
X118118500Y-90893500D03*
X155262500Y-88337500D03*
X168600000Y-111300000D03*
X170600000Y-112900000D03*
X120000000Y-111500000D03*
X124762500Y-90537500D03*
X154462500Y-87137500D03*
X117100000Y-86500000D03*
X120262500Y-116037500D03*
X145262500Y-106737500D03*
X125262500Y-91037500D03*
X126937500Y-111962500D03*
X173000000Y-115500000D03*
X142662500Y-104537500D03*
X157262500Y-80337500D03*
X137762500Y-97037500D03*
X148262500Y-87837500D03*
X163262500Y-80337500D03*
X142662500Y-106737500D03*
X126232500Y-101537500D03*
X163262500Y-81137500D03*
X170775000Y-114875000D03*
X122762500Y-89037500D03*
X126772452Y-81542654D03*
X189262500Y-91037500D03*
X183662500Y-114537500D03*
X117262500Y-81737500D03*
X121462500Y-94337500D03*
X162600000Y-114500000D03*
X140262500Y-89737500D03*
X123762500Y-90537500D03*
X122262500Y-83037500D03*
X139262500Y-80537500D03*
X144262500Y-87737500D03*
X133262500Y-80337500D03*
X110262500Y-115037500D03*
X108262500Y-80037500D03*
X166800000Y-111300000D03*
X154462500Y-86537500D03*
X121462500Y-94937500D03*
X139262500Y-81137500D03*
X158100000Y-115000000D03*
X168600000Y-112700000D03*
X150462500Y-106737500D03*
X161100000Y-109500000D03*
X116200000Y-87400000D03*
X144262500Y-86137500D03*
X123762500Y-89037500D03*
X157262500Y-81137500D03*
X120262500Y-81737500D03*
X163600000Y-106500000D03*
X135000000Y-107500000D03*
X123262500Y-88537500D03*
X133262500Y-81137500D03*
X179262500Y-80037500D03*
X122861604Y-81037318D03*
X158100000Y-116075000D03*
X136262500Y-80037500D03*
X178100000Y-110500000D03*
X155262500Y-86737500D03*
X130862500Y-87737500D03*
X141262500Y-89737500D03*
X145262500Y-104537500D03*
X129000000Y-107500000D03*
X123262500Y-91037500D03*
X178100000Y-108500000D03*
X128937500Y-111962500D03*
X109262500Y-90037500D03*
X127937500Y-112962500D03*
X107262500Y-90037500D03*
X126834776Y-80018140D03*
X119262500Y-81737500D03*
X118000000Y-109500000D03*
X162100000Y-109500000D03*
X148662500Y-106737500D03*
X122861589Y-82038152D03*
X164600000Y-106500000D03*
X120000000Y-113500000D03*
X157100000Y-115000000D03*
X118262500Y-81737500D03*
X177100000Y-108500000D03*
X122996588Y-85782344D03*
X141062500Y-106737500D03*
X137262500Y-82037500D03*
X150462500Y-104537500D03*
X157100000Y-116075000D03*
X124762500Y-89037500D03*
X177862500Y-114537500D03*
X175000000Y-115500000D03*
X117962500Y-87437500D03*
X170972500Y-85402500D03*
X165600000Y-106075000D03*
X125432500Y-101537500D03*
X127462500Y-89137500D03*
X129062500Y-87937500D03*
X135262500Y-89537500D03*
X162600000Y-106575000D03*
X166800000Y-112300000D03*
X124262500Y-91037500D03*
X177100000Y-110500000D03*
X120000000Y-106500000D03*
X107262500Y-81037500D03*
X116000000Y-107500000D03*
X110262500Y-107037500D03*
X175937500Y-84237500D03*
X122762500Y-90537500D03*
X178100000Y-112500000D03*
X189262500Y-83037500D03*
X121000000Y-107500000D03*
X124262500Y-88537500D03*
X148662500Y-104537500D03*
X171262500Y-82037500D03*
X129462500Y-89137500D03*
X111262500Y-116037500D03*
X117100000Y-88500000D03*
X127937500Y-111962500D03*
X177000000Y-115500000D03*
X143662500Y-104537500D03*
X141062500Y-104537500D03*
X143662500Y-106737500D03*
X125262500Y-88537500D03*
X122437500Y-108962500D03*
X181262500Y-83037500D03*
X156462500Y-103137500D03*
X151262500Y-102737500D03*
X120648673Y-91349500D03*
X128574500Y-92849500D03*
X125710403Y-93589597D03*
X127661780Y-92526024D03*
X150762500Y-82937500D03*
X145762500Y-82937500D03*
X151062500Y-109537500D03*
X133262500Y-108537500D03*
X159262500Y-102537500D03*
X115963000Y-101537500D03*
X158262500Y-102137500D03*
X115797168Y-102602832D03*
X149597168Y-109802832D03*
X132060230Y-108542039D03*
X134262500Y-89737500D03*
X136862500Y-98237000D03*
X135862500Y-96537500D03*
X140112250Y-96987250D03*
X136662500Y-89737500D03*
X138662500Y-92737500D03*
X146817878Y-82992878D03*
X145800000Y-85902832D03*
X148862500Y-85637500D03*
X147762500Y-83037500D03*
X148762500Y-83037500D03*
X147867878Y-85642878D03*
X159600000Y-111000000D03*
X158600000Y-110000000D03*
X159557894Y-110009265D03*
D17*
X118118500Y-90893500D02*
X118118500Y-90181500D01*
X118118500Y-90181500D02*
X119248958Y-89051042D01*
X119248958Y-89051042D02*
X119248958Y-88950500D01*
X118118500Y-90893500D02*
X118118500Y-92393500D01*
X118118500Y-92393500D02*
X119262500Y-93537500D01*
X124450500Y-92137500D02*
X126462500Y-92137500D01*
X119262500Y-93537500D02*
X123050500Y-93537500D01*
X123050500Y-93537500D02*
X124450500Y-92137500D01*
X151662500Y-103137500D02*
X151262500Y-102737500D01*
X156462500Y-103137500D02*
X151662500Y-103137500D01*
X125862500Y-89737500D02*
X122260673Y-89737500D01*
X122260673Y-89737500D02*
X120648673Y-91349500D01*
X128574500Y-92849500D02*
X128574500Y-92449500D01*
X128574500Y-92449500D02*
X125862500Y-89737500D01*
X127661780Y-92538220D02*
X126610403Y-93589597D01*
X126610403Y-93589597D02*
X125710403Y-93589597D01*
X127661780Y-92526024D02*
X127661780Y-92538220D01*
D18*
X150762500Y-82662500D02*
X150200000Y-82100000D01*
X150200000Y-82100000D02*
X146389692Y-82100000D01*
X150762500Y-82937500D02*
X150762500Y-82662500D01*
X145762500Y-82727192D02*
X145762500Y-82937500D01*
X146389692Y-82100000D02*
X145762500Y-82727192D01*
X133262500Y-108537500D02*
X128662500Y-103937500D01*
X115963000Y-101638000D02*
X115963000Y-101537500D01*
X151062500Y-109537500D02*
X155662500Y-104937500D01*
X128662500Y-103937500D02*
X118262500Y-103937500D01*
X118262500Y-103937500D02*
X115963000Y-101638000D01*
X156862500Y-104937500D02*
X159262500Y-102537500D01*
X155662500Y-104937500D02*
X156862500Y-104937500D01*
X155462500Y-103937500D02*
X156793871Y-103937500D01*
X156793871Y-103937500D02*
X158262500Y-102468871D01*
X117962500Y-104637500D02*
X128155691Y-104637500D01*
X115797168Y-102602832D02*
X115927832Y-102602832D01*
X149597168Y-109802832D02*
X155462500Y-103937500D01*
X115927832Y-102602832D02*
X117962500Y-104637500D01*
X158262500Y-102468871D02*
X158262500Y-102137500D01*
X128155691Y-104637500D02*
X132060230Y-108542039D01*
D17*
X135862500Y-96537500D02*
X134262500Y-94937500D01*
X135862500Y-96537500D02*
X136862500Y-97537500D01*
X134262500Y-94937500D02*
X134262500Y-89737500D01*
X136862500Y-97537500D02*
X136862500Y-98237000D01*
X138662500Y-95537500D02*
X138662500Y-92737500D01*
X138662500Y-91737500D02*
X138662500Y-92737500D01*
X140112250Y-96987250D02*
X138662500Y-95537500D01*
X136662500Y-89737500D02*
X138662500Y-91737500D01*
D18*
X145800000Y-85902832D02*
X146317878Y-85384954D01*
X146317878Y-85384954D02*
X146317878Y-83582122D01*
X146317878Y-83582122D02*
X146817878Y-83082122D01*
X146817878Y-83082122D02*
X146817878Y-82992878D01*
D17*
X147907122Y-86592878D02*
X148862500Y-85637500D01*
X146917878Y-83882122D02*
X146917878Y-86182828D01*
X146917878Y-86182828D02*
X147327928Y-86592878D01*
X147762500Y-83037500D02*
X146917878Y-83882122D01*
X147327928Y-86592878D02*
X147907122Y-86592878D01*
X147631128Y-84889677D02*
X147913970Y-85172519D01*
X149762500Y-83537500D02*
X149762500Y-84537500D01*
X147913970Y-85596783D02*
X147913971Y-85596784D01*
X148762500Y-83037500D02*
X149262500Y-83037500D01*
X148338234Y-84748256D02*
X148338235Y-84748256D01*
X149262500Y-83037500D02*
X149762500Y-83537500D01*
X147913971Y-85596784D02*
X147867878Y-85642878D01*
X149762500Y-84537500D02*
X149518902Y-84781098D01*
X148338235Y-84748256D02*
X148055392Y-84465413D01*
X149518902Y-84781098D02*
X148728352Y-84781098D01*
X147631173Y-84889632D02*
G75*
G02*
X147631128Y-84465413I212127J212132D01*
G01*
X148338220Y-84748270D02*
G75*
G03*
X148728352Y-84781098I214780J217870D01*
G01*
X147631129Y-84465414D02*
G75*
G02*
X148055391Y-84465414I212131J-212131D01*
G01*
X147914019Y-85596832D02*
G75*
G03*
X147913970Y-85172519I-212219J212132D01*
G01*
D19*
X155600000Y-113655000D02*
X155945000Y-113655000D01*
X155945000Y-113655000D02*
X159100000Y-110500000D01*
G04 #@! TA.AperFunction,Conductor*
G36*
X118233580Y-79359009D02*
G01*
X118670065Y-79577252D01*
X119089255Y-79786847D01*
X119089587Y-79787034D01*
X119099146Y-79795901D01*
X119116208Y-79802708D01*
X119116211Y-79802710D01*
X119132040Y-79809025D01*
X119142811Y-79813856D01*
X119144909Y-79814674D01*
X119153110Y-79818774D01*
X119161925Y-79821304D01*
X119169313Y-79824183D01*
X119174374Y-79825914D01*
X119190075Y-79832178D01*
X119190077Y-79832178D01*
X119203122Y-79837383D01*
X119209415Y-79838000D01*
X119219324Y-79838000D01*
X119220244Y-79838044D01*
X119233385Y-79841816D01*
X119251682Y-79840188D01*
X119251684Y-79840188D01*
X119267470Y-79838783D01*
X119285108Y-79838000D01*
X122219055Y-79838000D01*
X122219438Y-79838019D01*
X122231952Y-79841675D01*
X122250258Y-79840133D01*
X122250260Y-79840133D01*
X122267244Y-79838702D01*
X122279062Y-79838205D01*
X122281283Y-79838000D01*
X122290448Y-79838000D01*
X122299455Y-79836323D01*
X122307309Y-79835598D01*
X122312640Y-79834878D01*
X122343502Y-79832278D01*
X122349407Y-79830016D01*
X122353753Y-79827843D01*
X122353762Y-79827839D01*
X122358289Y-79825576D01*
X122359113Y-79825212D01*
X122372553Y-79822709D01*
X122388194Y-79813068D01*
X122388196Y-79813067D01*
X122401670Y-79804761D01*
X122417095Y-79796172D01*
X123291421Y-79359009D01*
X123380417Y-79338000D01*
X173144584Y-79338000D01*
X173233580Y-79359009D01*
X173670065Y-79577252D01*
X174089255Y-79786847D01*
X174089587Y-79787034D01*
X174099146Y-79795901D01*
X174116208Y-79802708D01*
X174116211Y-79802710D01*
X174132040Y-79809025D01*
X174142811Y-79813856D01*
X174144909Y-79814674D01*
X174153110Y-79818774D01*
X174161925Y-79821304D01*
X174169313Y-79824183D01*
X174174374Y-79825914D01*
X174190075Y-79832178D01*
X174190077Y-79832178D01*
X174203122Y-79837383D01*
X174209415Y-79838000D01*
X174219324Y-79838000D01*
X174220244Y-79838044D01*
X174233385Y-79841816D01*
X174251682Y-79840188D01*
X174251684Y-79840188D01*
X174267470Y-79838783D01*
X174285108Y-79838000D01*
X177219055Y-79838000D01*
X177219438Y-79838019D01*
X177231952Y-79841675D01*
X177250258Y-79840133D01*
X177250260Y-79840133D01*
X177267244Y-79838702D01*
X177279062Y-79838205D01*
X177281283Y-79838000D01*
X177290448Y-79838000D01*
X177299455Y-79836323D01*
X177307309Y-79835598D01*
X177312640Y-79834878D01*
X177343502Y-79832278D01*
X177349407Y-79830016D01*
X177353753Y-79827843D01*
X177353762Y-79827839D01*
X177358289Y-79825576D01*
X177359113Y-79825212D01*
X177372553Y-79822709D01*
X177388194Y-79813068D01*
X177388196Y-79813067D01*
X177401670Y-79804761D01*
X177417095Y-79796172D01*
X178291421Y-79359009D01*
X178380417Y-79338000D01*
X188718796Y-79338000D01*
X188737234Y-79339613D01*
X188745356Y-79339613D01*
X188762500Y-79342636D01*
X188778830Y-79339757D01*
X188790779Y-79340226D01*
X188934531Y-79351539D01*
X188965372Y-79356425D01*
X189117940Y-79393054D01*
X189147638Y-79402703D01*
X189292595Y-79462746D01*
X189320417Y-79476922D01*
X189454198Y-79558903D01*
X189479449Y-79577249D01*
X189598772Y-79679159D01*
X189620841Y-79701228D01*
X189722751Y-79820551D01*
X189741097Y-79845802D01*
X189819146Y-79973166D01*
X189823078Y-79979583D01*
X189837254Y-80007405D01*
X189897297Y-80152362D01*
X189906946Y-80182060D01*
X189943575Y-80334628D01*
X189948461Y-80365471D01*
X189959774Y-80509220D01*
X189960243Y-80521170D01*
X189957364Y-80537500D01*
X189960387Y-80554644D01*
X189960387Y-80562766D01*
X189962000Y-80581204D01*
X189962000Y-95493796D01*
X189960387Y-95512234D01*
X189960387Y-95520356D01*
X189957364Y-95537500D01*
X189959155Y-95547661D01*
X189957934Y-95563172D01*
X189957337Y-95566939D01*
X189924358Y-95649133D01*
X189858982Y-95708878D01*
X189791939Y-95732337D01*
X189789567Y-95732713D01*
X189788170Y-95732934D01*
X189772661Y-95734155D01*
X189762500Y-95732364D01*
X189756199Y-95733475D01*
X189558428Y-95749040D01*
X189359381Y-95796827D01*
X189170260Y-95875163D01*
X188995722Y-95982120D01*
X188989779Y-95987196D01*
X188989776Y-95987198D01*
X188850351Y-96106278D01*
X188840064Y-96115064D01*
X188834989Y-96121006D01*
X188738559Y-96233912D01*
X188707120Y-96270722D01*
X188600163Y-96445260D01*
X188521827Y-96634381D01*
X188474040Y-96833428D01*
X188464416Y-96955719D01*
X188462943Y-96974431D01*
X188462617Y-96978122D01*
X188462000Y-96984415D01*
X188462000Y-96984421D01*
X188461354Y-96984358D01*
X188460805Y-96986317D01*
X188462000Y-96986411D01*
X188458475Y-97031200D01*
X188457364Y-97037500D01*
X188460387Y-97054645D01*
X188460387Y-97062768D01*
X188462000Y-97081204D01*
X188462000Y-101993796D01*
X188460387Y-102012232D01*
X188460387Y-102020355D01*
X188457364Y-102037500D01*
X188458475Y-102043800D01*
X188474040Y-102241572D01*
X188475863Y-102249165D01*
X188475864Y-102249172D01*
X188485136Y-102287792D01*
X188486129Y-102376350D01*
X188448600Y-102456569D01*
X188379982Y-102512560D01*
X188293866Y-102533234D01*
X188281553Y-102532991D01*
X188264524Y-102532127D01*
X188264476Y-102532126D01*
X188261996Y-102532000D01*
X184311575Y-102532000D01*
X184310357Y-102532030D01*
X184310349Y-102532030D01*
X184305894Y-102532139D01*
X184286768Y-102532609D01*
X184285534Y-102532670D01*
X184285524Y-102532670D01*
X184190085Y-102537359D01*
X184190055Y-102537361D01*
X184188851Y-102537420D01*
X184187654Y-102537508D01*
X184187626Y-102537510D01*
X184168396Y-102538929D01*
X184164118Y-102539244D01*
X184136487Y-102541965D01*
X184120500Y-102543539D01*
X184120484Y-102543541D01*
X184118523Y-102543734D01*
X184116557Y-102544007D01*
X184116545Y-102544008D01*
X184086692Y-102548147D01*
X184078883Y-102549230D01*
X183923352Y-102577106D01*
X183919042Y-102578288D01*
X183919032Y-102578290D01*
X183865295Y-102593024D01*
X183835472Y-102601201D01*
X183831254Y-102602778D01*
X183831252Y-102602779D01*
X183804428Y-102612810D01*
X183646143Y-102672002D01*
X183641630Y-102674233D01*
X183641624Y-102674236D01*
X183595609Y-102696988D01*
X183554456Y-102717336D01*
X183480539Y-102763734D01*
X183392836Y-102818786D01*
X183383255Y-102824800D01*
X183302574Y-102887661D01*
X183156509Y-103027387D01*
X183153244Y-103031214D01*
X183153238Y-103031221D01*
X183093402Y-103101369D01*
X183093395Y-103101378D01*
X183090129Y-103105207D01*
X182975182Y-103271476D01*
X182925830Y-103361058D01*
X182923863Y-103365682D01*
X182923862Y-103365684D01*
X182851676Y-103535375D01*
X182846704Y-103547062D01*
X182843624Y-103556988D01*
X182821464Y-103628408D01*
X182816393Y-103644750D01*
X182776330Y-103842872D01*
X182768735Y-103893515D01*
X182768489Y-103896009D01*
X182768487Y-103896028D01*
X182765096Y-103930457D01*
X182764245Y-103939102D01*
X182762420Y-103963845D01*
X182757609Y-104061770D01*
X182757000Y-104086575D01*
X182757000Y-106988425D01*
X182757609Y-107013230D01*
X182762420Y-107111155D01*
X182762507Y-107112341D01*
X182762509Y-107112366D01*
X182762704Y-107115000D01*
X182764245Y-107135901D01*
X182768735Y-107181486D01*
X182774230Y-107221114D01*
X182802106Y-107376647D01*
X182826201Y-107464528D01*
X182827773Y-107468732D01*
X182827777Y-107468744D01*
X182839724Y-107500690D01*
X182897002Y-107653857D01*
X182899233Y-107658370D01*
X182899236Y-107658376D01*
X182940098Y-107741018D01*
X182942336Y-107745544D01*
X183049800Y-107916745D01*
X183112661Y-107997426D01*
X183252387Y-108143491D01*
X183256214Y-108146756D01*
X183256221Y-108146762D01*
X183326369Y-108206598D01*
X183326378Y-108206605D01*
X183330207Y-108209871D01*
X183496476Y-108324818D01*
X183586058Y-108374170D01*
X183590682Y-108376137D01*
X183590684Y-108376138D01*
X183746249Y-108442315D01*
X183772062Y-108453296D01*
X183816693Y-108467144D01*
X183864937Y-108482114D01*
X183864944Y-108482116D01*
X183869750Y-108483607D01*
X184067872Y-108523670D01*
X184118523Y-108531266D01*
X184164118Y-108535756D01*
X184168396Y-108536071D01*
X184187626Y-108537490D01*
X184187654Y-108537492D01*
X184188851Y-108537580D01*
X184190055Y-108537639D01*
X184190085Y-108537641D01*
X184285524Y-108542330D01*
X184285534Y-108542330D01*
X184286768Y-108542391D01*
X184305894Y-108542861D01*
X184310349Y-108542970D01*
X184310357Y-108542970D01*
X184311575Y-108543000D01*
X186227885Y-108543000D01*
X186247390Y-108543958D01*
X186338992Y-108552980D01*
X186377252Y-108560591D01*
X186406817Y-108569559D01*
X186432049Y-108577213D01*
X186468092Y-108592143D01*
X186518587Y-108619134D01*
X186551020Y-108640805D01*
X186595283Y-108677130D01*
X186622870Y-108704717D01*
X186659195Y-108748980D01*
X186680866Y-108781413D01*
X186707857Y-108831908D01*
X186722787Y-108867951D01*
X186739409Y-108922746D01*
X186747020Y-108961008D01*
X186756042Y-109052610D01*
X186757000Y-109072115D01*
X186757000Y-116002885D01*
X186756042Y-116022390D01*
X186747020Y-116113992D01*
X186739409Y-116152252D01*
X186726792Y-116193846D01*
X186722787Y-116207049D01*
X186707857Y-116243092D01*
X186680866Y-116293587D01*
X186659195Y-116326020D01*
X186622870Y-116370283D01*
X186595283Y-116397870D01*
X186551020Y-116434195D01*
X186518587Y-116455866D01*
X186468092Y-116482857D01*
X186432049Y-116497787D01*
X186377252Y-116514409D01*
X186338992Y-116522020D01*
X186247390Y-116531042D01*
X186227885Y-116532000D01*
X177250648Y-116532000D01*
X177249788Y-116532014D01*
X177249783Y-116532014D01*
X177248971Y-116532027D01*
X177243722Y-116532003D01*
X177243665Y-116532000D01*
X153254726Y-116532000D01*
X153168383Y-116512293D01*
X153099142Y-116457074D01*
X153060715Y-116377282D01*
X153060715Y-116288718D01*
X153099142Y-116208926D01*
X153169996Y-116152939D01*
X153367309Y-116060091D01*
X153367315Y-116060088D01*
X153372965Y-116057429D01*
X153617373Y-115902323D01*
X153840414Y-115717808D01*
X153844687Y-115713258D01*
X153844691Y-115713254D01*
X154034289Y-115511352D01*
X154034290Y-115511350D01*
X154038570Y-115506793D01*
X154042246Y-115501734D01*
X154205044Y-115277661D01*
X154205049Y-115277654D01*
X154208716Y-115272606D01*
X154211721Y-115267139D01*
X154211726Y-115267132D01*
X154345162Y-115024414D01*
X154345164Y-115024410D01*
X154348170Y-115018942D01*
X154431359Y-114808830D01*
X154452431Y-114755609D01*
X154452433Y-114755604D01*
X154454731Y-114749799D01*
X154493363Y-114599335D01*
X154533923Y-114520607D01*
X154604626Y-114467273D01*
X154691469Y-114449897D01*
X154777250Y-114471922D01*
X154824971Y-114506281D01*
X154856542Y-114537036D01*
X154872865Y-114552937D01*
X154880450Y-114558005D01*
X154880451Y-114558006D01*
X154999886Y-114637810D01*
X155048677Y-114670411D01*
X155057056Y-114674011D01*
X155057058Y-114674012D01*
X155100254Y-114692570D01*
X155242953Y-114753878D01*
X155251842Y-114755889D01*
X155251847Y-114755891D01*
X155440289Y-114798531D01*
X155440291Y-114798531D01*
X155449186Y-114800544D01*
X155660470Y-114808846D01*
X155869730Y-114778504D01*
X155878372Y-114775571D01*
X155878374Y-114775570D01*
X156061312Y-114713471D01*
X156061313Y-114713471D01*
X156069955Y-114710537D01*
X156073184Y-114708729D01*
X156120175Y-114696578D01*
X156119919Y-114695208D01*
X156129486Y-114693418D01*
X156139176Y-114692570D01*
X156144505Y-114691022D01*
X156150030Y-114690480D01*
X156242334Y-114662612D01*
X156244285Y-114662033D01*
X156327661Y-114637810D01*
X156327660Y-114637810D01*
X156337010Y-114635094D01*
X156341940Y-114632538D01*
X156347251Y-114630935D01*
X156432411Y-114585655D01*
X156434246Y-114584693D01*
X156511271Y-114544766D01*
X156511278Y-114544762D01*
X156519912Y-114540286D01*
X156524247Y-114536826D01*
X156529151Y-114534218D01*
X156536686Y-114528073D01*
X156536690Y-114528070D01*
X156603999Y-114473173D01*
X156605550Y-114471922D01*
X156646000Y-114439631D01*
X156648969Y-114436662D01*
X156653272Y-114432987D01*
X156681257Y-114410163D01*
X156688800Y-114404011D01*
X156717206Y-114369674D01*
X156729824Y-114355807D01*
X159377986Y-111707645D01*
X159452974Y-111660526D01*
X159521826Y-111649384D01*
X159526892Y-111649464D01*
X159668495Y-111651688D01*
X159680191Y-111649009D01*
X159680194Y-111649009D01*
X159810268Y-111619218D01*
X159810271Y-111619217D01*
X159821968Y-111616538D01*
X159962625Y-111545795D01*
X160045076Y-111475375D01*
X160073225Y-111451334D01*
X160073226Y-111451333D01*
X160082348Y-111443542D01*
X160117936Y-111394017D01*
X160167225Y-111325423D01*
X160174224Y-111315683D01*
X160232950Y-111169598D01*
X160240721Y-111115000D01*
X160254216Y-111020173D01*
X160255134Y-111013723D01*
X160255278Y-111000000D01*
X160236363Y-110843694D01*
X160232123Y-110832473D01*
X160232122Y-110832469D01*
X160184952Y-110707638D01*
X160180710Y-110696412D01*
X160173914Y-110686523D01*
X160170669Y-110680317D01*
X160148132Y-110594669D01*
X160149043Y-110568012D01*
X160154593Y-110513373D01*
X160154593Y-110513372D01*
X160155577Y-110503685D01*
X160141980Y-110359842D01*
X160155458Y-110266890D01*
X160186371Y-110189992D01*
X160186373Y-110189986D01*
X160190844Y-110178863D01*
X160213028Y-110022988D01*
X160213172Y-110009265D01*
X160211221Y-109993138D01*
X160195698Y-109864868D01*
X160194257Y-109852959D01*
X160190017Y-109841738D01*
X160190016Y-109841734D01*
X160142844Y-109716898D01*
X160138604Y-109705677D01*
X160082987Y-109624754D01*
X167244967Y-109624754D01*
X167247333Y-109660854D01*
X167256971Y-109807897D01*
X167258796Y-109835749D01*
X167261040Y-109844586D01*
X167261041Y-109844590D01*
X167303186Y-110010532D01*
X167310845Y-110040690D01*
X167399369Y-110232714D01*
X167404632Y-110240161D01*
X167516137Y-110397938D01*
X167516141Y-110397943D01*
X167521405Y-110405391D01*
X167672865Y-110552937D01*
X167680450Y-110558005D01*
X167680451Y-110558006D01*
X167840208Y-110664752D01*
X167848677Y-110670411D01*
X167857056Y-110674011D01*
X167857058Y-110674012D01*
X167900687Y-110692756D01*
X168042953Y-110753878D01*
X168051842Y-110755889D01*
X168051847Y-110755891D01*
X168240289Y-110798531D01*
X168240291Y-110798531D01*
X168249186Y-110800544D01*
X168460470Y-110808846D01*
X168669730Y-110778504D01*
X168678372Y-110775571D01*
X168678374Y-110775570D01*
X168861316Y-110713470D01*
X168861320Y-110713468D01*
X168869955Y-110710537D01*
X168895177Y-110696412D01*
X169046488Y-110611674D01*
X169046492Y-110611671D01*
X169054442Y-110607219D01*
X169217012Y-110472012D01*
X169352219Y-110309442D01*
X169356671Y-110301492D01*
X169356674Y-110301488D01*
X169451081Y-110132912D01*
X169451082Y-110132911D01*
X169455537Y-110124955D01*
X169460519Y-110110281D01*
X169520570Y-109933374D01*
X169520571Y-109933372D01*
X169523504Y-109924730D01*
X169553846Y-109715470D01*
X169555429Y-109655000D01*
X169548163Y-109575922D01*
X169536916Y-109453525D01*
X169536916Y-109453523D01*
X169536081Y-109444440D01*
X169509397Y-109349826D01*
X169481161Y-109249706D01*
X169481160Y-109249704D01*
X169478686Y-109240931D01*
X169385165Y-109051290D01*
X169258651Y-108881867D01*
X169251955Y-108875677D01*
X169251952Y-108875674D01*
X169149980Y-108781413D01*
X169103381Y-108738337D01*
X168924554Y-108625505D01*
X168840931Y-108592143D01*
X168784324Y-108569559D01*
X168711430Y-108519260D01*
X168667579Y-108442315D01*
X168661456Y-108353964D01*
X168694274Y-108271705D01*
X168759532Y-108211832D01*
X168794098Y-108196287D01*
X168861316Y-108173470D01*
X168861320Y-108173468D01*
X168869955Y-108170537D01*
X168877912Y-108166081D01*
X169046488Y-108071674D01*
X169046492Y-108071671D01*
X169054442Y-108067219D01*
X169217012Y-107932012D01*
X169352219Y-107769442D01*
X169356671Y-107761492D01*
X169356674Y-107761488D01*
X169451081Y-107592912D01*
X169451082Y-107592911D01*
X169455537Y-107584955D01*
X169487143Y-107491848D01*
X169520570Y-107393374D01*
X169520571Y-107393372D01*
X169523504Y-107384730D01*
X169537726Y-107286646D01*
X169553007Y-107181259D01*
X169553008Y-107181253D01*
X169553846Y-107175470D01*
X169555429Y-107115000D01*
X169536081Y-106904440D01*
X169478686Y-106700931D01*
X169385165Y-106511290D01*
X169258651Y-106341867D01*
X169251955Y-106335677D01*
X169251952Y-106335674D01*
X169190130Y-106278527D01*
X169103381Y-106198337D01*
X168924554Y-106085505D01*
X168916077Y-106082123D01*
X168916075Y-106082122D01*
X168785890Y-106030184D01*
X168728160Y-106007152D01*
X168520775Y-105965901D01*
X168412405Y-105964482D01*
X168318471Y-105963252D01*
X168318466Y-105963252D01*
X168309346Y-105963133D01*
X168300356Y-105964678D01*
X168300353Y-105964678D01*
X168199113Y-105982074D01*
X168100953Y-105998941D01*
X168092402Y-106002096D01*
X168092397Y-106002097D01*
X167911134Y-106068969D01*
X167911130Y-106068971D01*
X167902575Y-106072127D01*
X167894737Y-106076790D01*
X167894733Y-106076792D01*
X167787767Y-106140430D01*
X167720856Y-106180238D01*
X167713997Y-106186253D01*
X167713993Y-106186256D01*
X167568742Y-106313638D01*
X167561881Y-106319655D01*
X167556231Y-106326822D01*
X167556230Y-106326823D01*
X167538611Y-106349173D01*
X167430976Y-106485708D01*
X167332523Y-106672836D01*
X167329816Y-106681552D01*
X167329815Y-106681556D01*
X167290267Y-106808923D01*
X167269820Y-106874773D01*
X167244967Y-107084754D01*
X167258796Y-107295749D01*
X167261040Y-107304586D01*
X167261041Y-107304590D01*
X167302732Y-107468744D01*
X167310845Y-107500690D01*
X167399369Y-107692714D01*
X167404632Y-107700161D01*
X167516137Y-107857938D01*
X167516141Y-107857943D01*
X167521405Y-107865391D01*
X167672865Y-108012937D01*
X167680450Y-108018005D01*
X167680451Y-108018006D01*
X167760771Y-108071674D01*
X167848677Y-108130411D01*
X167857057Y-108134011D01*
X167857062Y-108134014D01*
X167942073Y-108170537D01*
X168018522Y-108203382D01*
X168090073Y-108255571D01*
X168131895Y-108333637D01*
X168135703Y-108422119D01*
X168100744Y-108503490D01*
X168033941Y-108561635D01*
X168008846Y-108572921D01*
X167911135Y-108608969D01*
X167902575Y-108612127D01*
X167894737Y-108616790D01*
X167894733Y-108616792D01*
X167793314Y-108677130D01*
X167720856Y-108720238D01*
X167713997Y-108726253D01*
X167713993Y-108726256D01*
X167593520Y-108831908D01*
X167561881Y-108859655D01*
X167556231Y-108866822D01*
X167556230Y-108866823D01*
X167538611Y-108889173D01*
X167430976Y-109025708D01*
X167426726Y-109033786D01*
X167342352Y-109194155D01*
X167332523Y-109212836D01*
X167329816Y-109221552D01*
X167329815Y-109221556D01*
X167319318Y-109255363D01*
X167269820Y-109414773D01*
X167268748Y-109423830D01*
X167264794Y-109457241D01*
X167244967Y-109624754D01*
X160082987Y-109624754D01*
X160049425Y-109575922D01*
X159931870Y-109471184D01*
X159792725Y-109397510D01*
X159781095Y-109394589D01*
X159781093Y-109394588D01*
X159716374Y-109378332D01*
X159640022Y-109359154D01*
X159628028Y-109359091D01*
X159628026Y-109359091D01*
X159563621Y-109358754D01*
X159482578Y-109358330D01*
X159470920Y-109361129D01*
X159470918Y-109361129D01*
X159401608Y-109377769D01*
X159329482Y-109395085D01*
X159265668Y-109428022D01*
X159179905Y-109450110D01*
X159152912Y-109449022D01*
X159111054Y-109444475D01*
X159023674Y-109452120D01*
X158935943Y-109440013D01*
X158913221Y-109429751D01*
X158834831Y-109388245D01*
X158823201Y-109385324D01*
X158823199Y-109385323D01*
X158739760Y-109364365D01*
X158682128Y-109349889D01*
X158670134Y-109349826D01*
X158670132Y-109349826D01*
X158605727Y-109349489D01*
X158524684Y-109349065D01*
X158513026Y-109351864D01*
X158513024Y-109351864D01*
X158470489Y-109362076D01*
X158371588Y-109385820D01*
X158360926Y-109391323D01*
X158289825Y-109428021D01*
X158231679Y-109458032D01*
X158222643Y-109465915D01*
X158222641Y-109465916D01*
X158207455Y-109479164D01*
X158113034Y-109561533D01*
X158022501Y-109690348D01*
X157965309Y-109837039D01*
X157961645Y-109864868D01*
X157948360Y-109965782D01*
X157944758Y-109993138D01*
X157950923Y-110048974D01*
X157951818Y-110057083D01*
X157941705Y-110145067D01*
X157894734Y-110219635D01*
X157076009Y-111038360D01*
X157001021Y-111085479D01*
X156913014Y-111095395D01*
X156829421Y-111066144D01*
X156766797Y-111003520D01*
X156739329Y-110922355D01*
X156738578Y-110922494D01*
X156737612Y-110917281D01*
X156737130Y-110915857D01*
X156736916Y-110913524D01*
X156736915Y-110913521D01*
X156736081Y-110904440D01*
X156694186Y-110755891D01*
X156681161Y-110709706D01*
X156681160Y-110709704D01*
X156678686Y-110700931D01*
X156585165Y-110511290D01*
X156458651Y-110341867D01*
X156451955Y-110335677D01*
X156451952Y-110335674D01*
X156377541Y-110266890D01*
X156303381Y-110198337D01*
X156124554Y-110085505D01*
X156116077Y-110082123D01*
X156116075Y-110082122D01*
X155967853Y-110022988D01*
X155928160Y-110007152D01*
X155720775Y-109965901D01*
X155612405Y-109964482D01*
X155518471Y-109963252D01*
X155518466Y-109963252D01*
X155509346Y-109963133D01*
X155500356Y-109964678D01*
X155500353Y-109964678D01*
X155405120Y-109981042D01*
X155300953Y-109998941D01*
X155292402Y-110002096D01*
X155292397Y-110002097D01*
X155111134Y-110068969D01*
X155111130Y-110068971D01*
X155102575Y-110072127D01*
X155094737Y-110076790D01*
X155094733Y-110076792D01*
X155024603Y-110118515D01*
X154920856Y-110180238D01*
X154913997Y-110186253D01*
X154913993Y-110186256D01*
X154773527Y-110309442D01*
X154761881Y-110319655D01*
X154756231Y-110326822D01*
X154756230Y-110326823D01*
X154730200Y-110359842D01*
X154630976Y-110485708D01*
X154532523Y-110672836D01*
X154529816Y-110681552D01*
X154529815Y-110681556D01*
X154490697Y-110807538D01*
X154469820Y-110874773D01*
X154468748Y-110883830D01*
X154447170Y-111066144D01*
X154444967Y-111084754D01*
X154458796Y-111295749D01*
X154461040Y-111304586D01*
X154461041Y-111304590D01*
X154504416Y-111475375D01*
X154510845Y-111500690D01*
X154599369Y-111692714D01*
X154604632Y-111700161D01*
X154716137Y-111857938D01*
X154716141Y-111857943D01*
X154721405Y-111865391D01*
X154872865Y-112012937D01*
X155048677Y-112130411D01*
X155057057Y-112134011D01*
X155057062Y-112134014D01*
X155139245Y-112169322D01*
X155218522Y-112203382D01*
X155290073Y-112255571D01*
X155331895Y-112333637D01*
X155335703Y-112422119D01*
X155300744Y-112503490D01*
X155233941Y-112561635D01*
X155208846Y-112572921D01*
X155111135Y-112608969D01*
X155102575Y-112612127D01*
X155094737Y-112616790D01*
X155094733Y-112616792D01*
X155066974Y-112633307D01*
X154920856Y-112720238D01*
X154913997Y-112726253D01*
X154913993Y-112726256D01*
X154820933Y-112807868D01*
X154761881Y-112859655D01*
X154674928Y-112969955D01*
X154640489Y-113013641D01*
X154571558Y-113069247D01*
X154485327Y-113089438D01*
X154398875Y-113070215D01*
X154329325Y-113015386D01*
X154309826Y-112986311D01*
X154211726Y-112807868D01*
X154211721Y-112807861D01*
X154208716Y-112802394D01*
X154205049Y-112797346D01*
X154205044Y-112797339D01*
X154042246Y-112573266D01*
X154042242Y-112573262D01*
X154038570Y-112568207D01*
X154034289Y-112563648D01*
X153844691Y-112361746D01*
X153844687Y-112361742D01*
X153840414Y-112357192D01*
X153717575Y-112255571D01*
X153622201Y-112176671D01*
X153622200Y-112176671D01*
X153617373Y-112172677D01*
X153372965Y-112017571D01*
X153367315Y-112014912D01*
X153367309Y-112014909D01*
X153116705Y-111896984D01*
X153116700Y-111896982D01*
X153111045Y-111894321D01*
X153105093Y-111892387D01*
X152841689Y-111806801D01*
X152841684Y-111806800D01*
X152835742Y-111804869D01*
X152829602Y-111803698D01*
X152829599Y-111803697D01*
X152557545Y-111751800D01*
X152557539Y-111751799D01*
X152551399Y-111750628D01*
X152545154Y-111750235D01*
X152545153Y-111750235D01*
X152524283Y-111748922D01*
X152263276Y-111732501D01*
X152262500Y-111732364D01*
X152245344Y-111735389D01*
X152237220Y-111735388D01*
X152218796Y-111737000D01*
X134306204Y-111737000D01*
X134287780Y-111735388D01*
X134279656Y-111735389D01*
X134262500Y-111732364D01*
X134261724Y-111732501D01*
X134242136Y-111733733D01*
X134242135Y-111733733D01*
X133979847Y-111750235D01*
X133979846Y-111750235D01*
X133973601Y-111750628D01*
X133967461Y-111751799D01*
X133967455Y-111751800D01*
X133695401Y-111803697D01*
X133695398Y-111803698D01*
X133689258Y-111804869D01*
X133683316Y-111806800D01*
X133683311Y-111806801D01*
X133419907Y-111892387D01*
X133413955Y-111894321D01*
X133408300Y-111896982D01*
X133408295Y-111896984D01*
X133157691Y-112014909D01*
X133157685Y-112014912D01*
X133152035Y-112017571D01*
X132907627Y-112172677D01*
X132902800Y-112176671D01*
X132902799Y-112176671D01*
X132807425Y-112255571D01*
X132684586Y-112357192D01*
X132680313Y-112361742D01*
X132680309Y-112361746D01*
X132490711Y-112563648D01*
X132486430Y-112568207D01*
X132482758Y-112573262D01*
X132482754Y-112573266D01*
X132319956Y-112797339D01*
X132319951Y-112797346D01*
X132316284Y-112802394D01*
X132313279Y-112807861D01*
X132313274Y-112807868D01*
X132193515Y-113025708D01*
X132176830Y-113056058D01*
X132070269Y-113325201D01*
X131998281Y-113605577D01*
X131962000Y-113892765D01*
X131962000Y-114182235D01*
X131998281Y-114469423D01*
X132070269Y-114749799D01*
X132072567Y-114755604D01*
X132072569Y-114755609D01*
X132093641Y-114808830D01*
X132176830Y-115018942D01*
X132179836Y-115024410D01*
X132179838Y-115024414D01*
X132313274Y-115267132D01*
X132313279Y-115267139D01*
X132316284Y-115272606D01*
X132319951Y-115277654D01*
X132319956Y-115277661D01*
X132482754Y-115501734D01*
X132486430Y-115506793D01*
X132490710Y-115511350D01*
X132490711Y-115511352D01*
X132680309Y-115713254D01*
X132680313Y-115713258D01*
X132684586Y-115717808D01*
X132907627Y-115902323D01*
X133152035Y-116057429D01*
X133157685Y-116060088D01*
X133157691Y-116060091D01*
X133355004Y-116152939D01*
X133424739Y-116207534D01*
X133463879Y-116286979D01*
X133464674Y-116375538D01*
X133426966Y-116455673D01*
X133358223Y-116511511D01*
X133270274Y-116532000D01*
X125427000Y-116532000D01*
X125340657Y-116512293D01*
X125271416Y-116457074D01*
X125232989Y-116377282D01*
X125232989Y-116288718D01*
X125271416Y-116208926D01*
X125340657Y-116153707D01*
X125363034Y-116144561D01*
X125365541Y-116143710D01*
X125507455Y-116095537D01*
X125515412Y-116091081D01*
X125683988Y-115996674D01*
X125683992Y-115996671D01*
X125691942Y-115992219D01*
X125854512Y-115857012D01*
X125989719Y-115694442D01*
X125994171Y-115686492D01*
X125994174Y-115686488D01*
X126088581Y-115517912D01*
X126088582Y-115517911D01*
X126093037Y-115509955D01*
X126124643Y-115416848D01*
X126158070Y-115318374D01*
X126158071Y-115318372D01*
X126161004Y-115309730D01*
X126191346Y-115100470D01*
X126192929Y-115040000D01*
X126173581Y-114829440D01*
X126152759Y-114755609D01*
X126118661Y-114634706D01*
X126118660Y-114634704D01*
X126116186Y-114625931D01*
X126022665Y-114436290D01*
X125896151Y-114266867D01*
X125889455Y-114260677D01*
X125889452Y-114260674D01*
X125811298Y-114188430D01*
X125740881Y-114123337D01*
X125562054Y-114010505D01*
X125421824Y-113954559D01*
X125348930Y-113904260D01*
X125305079Y-113827315D01*
X125298956Y-113738964D01*
X125331774Y-113656705D01*
X125397032Y-113596832D01*
X125431598Y-113581287D01*
X125498816Y-113558470D01*
X125498820Y-113558468D01*
X125507455Y-113555537D01*
X125515412Y-113551081D01*
X125683988Y-113456674D01*
X125683992Y-113456671D01*
X125691942Y-113452219D01*
X125854512Y-113317012D01*
X125989719Y-113154442D01*
X125994171Y-113146492D01*
X125994174Y-113146488D01*
X126088581Y-112977912D01*
X126088582Y-112977911D01*
X126093037Y-112969955D01*
X126124643Y-112876848D01*
X126158070Y-112778374D01*
X126158071Y-112778372D01*
X126161004Y-112769730D01*
X126180785Y-112633307D01*
X126190507Y-112566259D01*
X126190508Y-112566253D01*
X126191346Y-112560470D01*
X126192929Y-112500000D01*
X126179787Y-112356982D01*
X126174416Y-112298525D01*
X126174416Y-112298523D01*
X126173581Y-112289440D01*
X126156048Y-112227273D01*
X126118661Y-112094706D01*
X126118660Y-112094704D01*
X126116186Y-112085931D01*
X126022665Y-111896290D01*
X125896151Y-111726867D01*
X125889455Y-111720677D01*
X125889452Y-111720674D01*
X125812147Y-111649215D01*
X125740881Y-111583337D01*
X125562054Y-111470505D01*
X125553577Y-111467123D01*
X125553575Y-111467122D01*
X125470054Y-111433801D01*
X125365660Y-111392152D01*
X125158275Y-111350901D01*
X125049905Y-111349482D01*
X124955971Y-111348252D01*
X124955966Y-111348252D01*
X124946846Y-111348133D01*
X124937856Y-111349678D01*
X124937853Y-111349678D01*
X124836613Y-111367074D01*
X124738453Y-111383941D01*
X124729902Y-111387096D01*
X124729897Y-111387097D01*
X124548634Y-111453969D01*
X124548630Y-111453971D01*
X124540075Y-111457127D01*
X124532237Y-111461790D01*
X124532233Y-111461792D01*
X124425267Y-111525430D01*
X124358356Y-111565238D01*
X124351497Y-111571253D01*
X124351493Y-111571256D01*
X124222441Y-111684432D01*
X124199381Y-111704655D01*
X124193731Y-111711822D01*
X124193730Y-111711823D01*
X124177537Y-111732364D01*
X124068476Y-111870708D01*
X124064226Y-111878786D01*
X123990979Y-112018006D01*
X123970023Y-112057836D01*
X123967316Y-112066552D01*
X123967315Y-112066556D01*
X123949062Y-112125341D01*
X123907320Y-112259773D01*
X123906248Y-112268830D01*
X123889125Y-112413504D01*
X123882467Y-112469754D01*
X123887002Y-112538941D01*
X123893187Y-112633307D01*
X123896296Y-112680749D01*
X123898540Y-112689586D01*
X123898541Y-112689590D01*
X123941733Y-112859655D01*
X123948345Y-112885690D01*
X124036869Y-113077714D01*
X124042132Y-113085161D01*
X124153637Y-113242938D01*
X124153641Y-113242943D01*
X124158905Y-113250391D01*
X124310365Y-113397937D01*
X124317950Y-113403005D01*
X124317951Y-113403006D01*
X124398271Y-113456674D01*
X124486177Y-113515411D01*
X124494557Y-113519011D01*
X124494562Y-113519014D01*
X124579573Y-113555537D01*
X124656022Y-113588382D01*
X124727573Y-113640571D01*
X124769395Y-113718637D01*
X124773203Y-113807119D01*
X124738244Y-113888490D01*
X124671441Y-113946635D01*
X124646346Y-113957921D01*
X124548635Y-113993969D01*
X124540075Y-113997127D01*
X124532237Y-114001790D01*
X124532233Y-114001792D01*
X124425267Y-114065430D01*
X124358356Y-114105238D01*
X124351497Y-114111253D01*
X124351493Y-114111256D01*
X124263493Y-114188430D01*
X124199381Y-114244655D01*
X124193731Y-114251822D01*
X124193730Y-114251823D01*
X124176111Y-114274173D01*
X124068476Y-114410708D01*
X124064226Y-114418786D01*
X123976430Y-114585659D01*
X123970023Y-114597836D01*
X123967316Y-114606552D01*
X123967315Y-114606556D01*
X123939363Y-114696578D01*
X123907320Y-114799773D01*
X123882467Y-115009754D01*
X123896296Y-115220749D01*
X123898540Y-115229586D01*
X123898541Y-115229590D01*
X123918895Y-115309730D01*
X123948345Y-115425690D01*
X124036869Y-115617714D01*
X124042132Y-115625161D01*
X124153637Y-115782938D01*
X124153641Y-115782943D01*
X124158905Y-115790391D01*
X124310365Y-115937937D01*
X124317950Y-115943005D01*
X124317951Y-115943006D01*
X124478589Y-116050341D01*
X124486177Y-116055411D01*
X124494556Y-116059011D01*
X124494558Y-116059012D01*
X124563768Y-116088746D01*
X124680453Y-116138878D01*
X124689349Y-116140891D01*
X124698025Y-116143710D01*
X124697027Y-116146781D01*
X124760488Y-116177217D01*
X124815817Y-116246371D01*
X124835662Y-116332682D01*
X124816093Y-116419056D01*
X124760985Y-116488386D01*
X124681254Y-116526940D01*
X124636662Y-116532000D01*
X122250648Y-116532000D01*
X122249788Y-116532014D01*
X122249783Y-116532014D01*
X122248971Y-116532027D01*
X122243722Y-116532003D01*
X122243665Y-116532000D01*
X110297115Y-116532000D01*
X110277610Y-116531042D01*
X110186008Y-116522020D01*
X110147748Y-116514409D01*
X110092951Y-116497787D01*
X110056908Y-116482857D01*
X110006413Y-116455866D01*
X109973980Y-116434195D01*
X109929717Y-116397870D01*
X109902130Y-116370283D01*
X109865805Y-116326020D01*
X109844134Y-116293587D01*
X109817143Y-116243092D01*
X109802213Y-116207049D01*
X109798208Y-116193846D01*
X109785591Y-116152252D01*
X109777980Y-116113992D01*
X109768958Y-116022390D01*
X109768000Y-116002885D01*
X109768000Y-109795970D01*
X148941926Y-109795970D01*
X148959203Y-109952465D01*
X149013311Y-110100322D01*
X149020002Y-110110280D01*
X149020003Y-110110281D01*
X149045783Y-110148645D01*
X149101126Y-110231004D01*
X149217578Y-110336967D01*
X149355944Y-110412094D01*
X149367553Y-110415139D01*
X149367554Y-110415140D01*
X149496628Y-110449002D01*
X149496632Y-110449003D01*
X149508237Y-110452047D01*
X149520233Y-110452235D01*
X149520237Y-110452236D01*
X149588031Y-110453300D01*
X149665663Y-110454520D01*
X149677359Y-110451841D01*
X149677362Y-110451841D01*
X149807436Y-110422050D01*
X149807439Y-110422049D01*
X149819136Y-110419370D01*
X149959793Y-110348627D01*
X150079516Y-110246374D01*
X150090561Y-110231004D01*
X150164393Y-110128255D01*
X150171392Y-110118515D01*
X150217608Y-110003549D01*
X150268096Y-109930790D01*
X150345156Y-109887141D01*
X150433523Y-109881249D01*
X150515695Y-109914282D01*
X150552888Y-109947745D01*
X150559766Y-109955713D01*
X150566458Y-109965672D01*
X150575331Y-109973746D01*
X150575333Y-109973748D01*
X150636536Y-110029438D01*
X150682910Y-110071635D01*
X150821276Y-110146762D01*
X150832885Y-110149807D01*
X150832886Y-110149808D01*
X150961960Y-110183670D01*
X150961964Y-110183671D01*
X150973569Y-110186715D01*
X150985565Y-110186903D01*
X150985569Y-110186904D01*
X151053363Y-110187968D01*
X151130995Y-110189188D01*
X151142691Y-110186509D01*
X151142694Y-110186509D01*
X151272768Y-110156718D01*
X151272771Y-110156717D01*
X151284468Y-110154038D01*
X151425125Y-110083295D01*
X151488184Y-110029438D01*
X151535725Y-109988834D01*
X151535726Y-109988833D01*
X151544848Y-109981042D01*
X151555814Y-109965782D01*
X151629725Y-109862923D01*
X151636724Y-109853183D01*
X151695450Y-109707098D01*
X151698673Y-109708394D01*
X151729785Y-109649526D01*
X151739909Y-109638616D01*
X155832239Y-105546286D01*
X155907227Y-105499167D01*
X155972953Y-105488000D01*
X156845977Y-105488000D01*
X156854310Y-105488175D01*
X156901237Y-105490142D01*
X156901238Y-105490142D01*
X156914794Y-105490710D01*
X156928006Y-105487611D01*
X156928007Y-105487611D01*
X156953804Y-105481561D01*
X156972235Y-105478144D01*
X156978963Y-105477222D01*
X157011932Y-105472706D01*
X157024380Y-105467319D01*
X157033549Y-105464759D01*
X157039514Y-105462787D01*
X157048424Y-105459367D01*
X157061636Y-105456268D01*
X157096752Y-105436963D01*
X157113584Y-105428717D01*
X157137909Y-105418191D01*
X157137910Y-105418190D01*
X157150355Y-105412805D01*
X157160894Y-105404271D01*
X157169033Y-105399342D01*
X157176109Y-105394587D01*
X157176106Y-105394582D01*
X157184662Y-105388635D01*
X157193808Y-105383607D01*
X157201922Y-105376603D01*
X157223754Y-105354771D01*
X157239233Y-105340833D01*
X157257025Y-105326425D01*
X157267570Y-105317886D01*
X157275431Y-105306824D01*
X157276408Y-105305784D01*
X157296410Y-105282115D01*
X159168771Y-103409754D01*
X174044967Y-103409754D01*
X174049786Y-103483282D01*
X174056765Y-103589754D01*
X174058796Y-103620749D01*
X174061040Y-103629586D01*
X174061041Y-103629590D01*
X174102762Y-103793863D01*
X174110845Y-103825690D01*
X174199369Y-104017714D01*
X174204632Y-104025161D01*
X174316137Y-104182938D01*
X174316141Y-104182943D01*
X174321405Y-104190391D01*
X174472865Y-104337937D01*
X174480450Y-104343005D01*
X174480451Y-104343006D01*
X174560771Y-104396674D01*
X174648677Y-104455411D01*
X174657056Y-104459011D01*
X174657058Y-104459012D01*
X174716137Y-104484394D01*
X174842953Y-104538878D01*
X174851842Y-104540889D01*
X174851847Y-104540891D01*
X175040289Y-104583531D01*
X175040291Y-104583531D01*
X175049186Y-104585544D01*
X175260470Y-104593846D01*
X175469730Y-104563504D01*
X175478372Y-104560571D01*
X175478374Y-104560570D01*
X175661316Y-104498470D01*
X175661320Y-104498468D01*
X175669955Y-104495537D01*
X175677912Y-104491081D01*
X175846488Y-104396674D01*
X175846492Y-104396671D01*
X175854442Y-104392219D01*
X176017012Y-104257012D01*
X176152219Y-104094442D01*
X176156671Y-104086492D01*
X176156674Y-104086488D01*
X176251081Y-103917912D01*
X176251082Y-103917911D01*
X176255537Y-103909955D01*
X176279153Y-103840386D01*
X176320570Y-103718374D01*
X176320571Y-103718372D01*
X176323504Y-103709730D01*
X176338762Y-103604500D01*
X176353007Y-103506259D01*
X176353008Y-103506253D01*
X176353846Y-103500470D01*
X176355429Y-103440000D01*
X176351305Y-103395117D01*
X176336916Y-103238525D01*
X176336916Y-103238523D01*
X176336081Y-103229440D01*
X176278686Y-103025931D01*
X176185165Y-102836290D01*
X176058651Y-102666867D01*
X176051955Y-102660677D01*
X176051952Y-102660674D01*
X175986344Y-102600027D01*
X175903381Y-102523337D01*
X175724554Y-102410505D01*
X175683106Y-102393969D01*
X175584324Y-102354559D01*
X175511430Y-102304260D01*
X175467579Y-102227315D01*
X175461456Y-102138964D01*
X175494274Y-102056705D01*
X175559532Y-101996832D01*
X175594098Y-101981287D01*
X175661316Y-101958470D01*
X175661320Y-101958468D01*
X175669955Y-101955537D01*
X175713130Y-101931358D01*
X175846488Y-101856674D01*
X175846492Y-101856671D01*
X175854442Y-101852219D01*
X176017012Y-101717012D01*
X176152219Y-101554442D01*
X176156671Y-101546492D01*
X176156674Y-101546488D01*
X176251081Y-101377912D01*
X176251082Y-101377911D01*
X176255537Y-101369955D01*
X176287143Y-101276848D01*
X176320570Y-101178374D01*
X176320571Y-101178372D01*
X176323504Y-101169730D01*
X176337726Y-101071646D01*
X176353007Y-100966259D01*
X176353008Y-100966253D01*
X176353846Y-100960470D01*
X176354608Y-100931358D01*
X176355276Y-100905854D01*
X176355276Y-100905850D01*
X176355429Y-100900000D01*
X176354200Y-100886628D01*
X176336916Y-100698525D01*
X176336916Y-100698523D01*
X176336081Y-100689440D01*
X176309825Y-100596341D01*
X176281161Y-100494706D01*
X176281160Y-100494704D01*
X176278686Y-100485931D01*
X176185165Y-100296290D01*
X176058651Y-100126867D01*
X176051955Y-100120677D01*
X176051952Y-100120674D01*
X175990130Y-100063527D01*
X175903381Y-99983337D01*
X175724554Y-99870505D01*
X175716077Y-99867123D01*
X175716075Y-99867122D01*
X175652479Y-99841750D01*
X175528160Y-99792152D01*
X175320775Y-99750901D01*
X175212405Y-99749482D01*
X175118471Y-99748252D01*
X175118466Y-99748252D01*
X175109346Y-99748133D01*
X175100356Y-99749678D01*
X175100353Y-99749678D01*
X174999113Y-99767074D01*
X174900953Y-99783941D01*
X174892402Y-99787096D01*
X174892397Y-99787097D01*
X174711134Y-99853969D01*
X174711130Y-99853971D01*
X174702575Y-99857127D01*
X174694737Y-99861790D01*
X174694733Y-99861792D01*
X174609822Y-99912309D01*
X174520856Y-99965238D01*
X174513997Y-99971253D01*
X174513993Y-99971256D01*
X174477664Y-100003116D01*
X174361881Y-100104655D01*
X174356231Y-100111822D01*
X174356230Y-100111823D01*
X174343156Y-100128408D01*
X174230976Y-100270708D01*
X174226726Y-100278786D01*
X174143320Y-100437315D01*
X174132523Y-100457836D01*
X174129816Y-100466552D01*
X174129815Y-100466556D01*
X174091646Y-100589483D01*
X174069820Y-100659773D01*
X174044967Y-100869754D01*
X174049005Y-100931358D01*
X174053989Y-101007399D01*
X174058796Y-101080749D01*
X174061040Y-101089586D01*
X174061041Y-101089590D01*
X174100545Y-101245133D01*
X174110845Y-101285690D01*
X174199369Y-101477714D01*
X174204632Y-101485161D01*
X174316137Y-101642938D01*
X174316141Y-101642943D01*
X174321405Y-101650391D01*
X174472865Y-101797937D01*
X174480450Y-101803005D01*
X174480451Y-101803006D01*
X174565843Y-101860063D01*
X174648677Y-101915411D01*
X174657057Y-101919011D01*
X174657062Y-101919014D01*
X174742073Y-101955537D01*
X174818522Y-101988382D01*
X174890073Y-102040571D01*
X174931895Y-102118637D01*
X174935703Y-102207119D01*
X174900744Y-102288490D01*
X174833941Y-102346635D01*
X174808846Y-102357921D01*
X174713482Y-102393103D01*
X174702575Y-102397127D01*
X174694737Y-102401790D01*
X174694733Y-102401792D01*
X174587767Y-102465430D01*
X174520856Y-102505238D01*
X174513997Y-102511253D01*
X174513993Y-102511256D01*
X174398193Y-102612810D01*
X174361881Y-102644655D01*
X174356231Y-102651822D01*
X174356230Y-102651823D01*
X174344035Y-102667293D01*
X174230976Y-102810708D01*
X174223562Y-102824800D01*
X174147841Y-102968722D01*
X174132523Y-102997836D01*
X174129816Y-103006552D01*
X174129815Y-103006556D01*
X174120986Y-103034990D01*
X174069820Y-103199773D01*
X174068748Y-103208830D01*
X174046811Y-103394177D01*
X174044967Y-103409754D01*
X159168771Y-103409754D01*
X159366186Y-103212339D01*
X159441174Y-103165220D01*
X159462476Y-103159075D01*
X159472772Y-103156717D01*
X159472774Y-103156716D01*
X159484468Y-103154038D01*
X159625125Y-103083295D01*
X159694875Y-103023723D01*
X159735725Y-102988834D01*
X159735726Y-102988833D01*
X159744848Y-102981042D01*
X159836724Y-102853183D01*
X159895450Y-102707098D01*
X159897716Y-102691182D01*
X159916716Y-102557673D01*
X159917634Y-102551223D01*
X159917778Y-102537500D01*
X159916356Y-102525745D01*
X159905137Y-102433039D01*
X159898863Y-102381194D01*
X159894623Y-102369973D01*
X159894622Y-102369969D01*
X159847450Y-102245133D01*
X159843210Y-102233912D01*
X159754031Y-102104157D01*
X159697563Y-102053846D01*
X159645433Y-102007399D01*
X159645431Y-102007398D01*
X159636476Y-101999419D01*
X159497331Y-101925745D01*
X159485701Y-101922824D01*
X159485699Y-101922823D01*
X159420979Y-101906567D01*
X159344628Y-101887389D01*
X159332634Y-101887326D01*
X159332632Y-101887326D01*
X159268227Y-101886989D01*
X159187184Y-101886565D01*
X159175528Y-101889363D01*
X159175522Y-101889364D01*
X159055487Y-101918182D01*
X158966929Y-101919175D01*
X158886710Y-101881646D01*
X158845551Y-101832303D01*
X158843210Y-101833912D01*
X158814108Y-101791569D01*
X158754031Y-101704157D01*
X158685321Y-101642938D01*
X158645433Y-101607399D01*
X158645431Y-101607398D01*
X158636476Y-101599419D01*
X158497331Y-101525745D01*
X158485701Y-101522824D01*
X158485699Y-101522823D01*
X158420980Y-101506567D01*
X158344628Y-101487389D01*
X158332634Y-101487326D01*
X158332632Y-101487326D01*
X158268227Y-101486989D01*
X158187184Y-101486565D01*
X158175526Y-101489364D01*
X158175524Y-101489364D01*
X158126453Y-101501145D01*
X158034088Y-101523320D01*
X158023426Y-101528823D01*
X157973790Y-101554442D01*
X157894179Y-101595532D01*
X157885143Y-101603415D01*
X157885141Y-101603416D01*
X157834698Y-101647421D01*
X157775534Y-101699033D01*
X157768636Y-101708848D01*
X157768635Y-101708849D01*
X157764984Y-101714044D01*
X157685001Y-101827848D01*
X157627809Y-101974539D01*
X157620345Y-102031233D01*
X157609443Y-102114044D01*
X157607258Y-102130638D01*
X157608575Y-102142566D01*
X157618143Y-102229237D01*
X157608030Y-102317220D01*
X157561059Y-102391787D01*
X157350068Y-102602779D01*
X157240916Y-102711931D01*
X157165928Y-102759050D01*
X157077921Y-102768966D01*
X156994328Y-102739715D01*
X156956177Y-102707279D01*
X156954031Y-102704157D01*
X156939468Y-102691182D01*
X156845433Y-102607399D01*
X156845431Y-102607398D01*
X156836476Y-102599419D01*
X156697331Y-102525745D01*
X156685701Y-102522824D01*
X156685699Y-102522823D01*
X156620980Y-102506567D01*
X156544628Y-102487389D01*
X156532634Y-102487326D01*
X156532632Y-102487326D01*
X156468227Y-102486989D01*
X156387184Y-102486565D01*
X156375526Y-102489364D01*
X156375524Y-102489364D01*
X156328845Y-102500571D01*
X156234088Y-102523320D01*
X156223426Y-102528823D01*
X156111802Y-102586436D01*
X156094179Y-102595532D01*
X156085143Y-102603415D01*
X156085141Y-102603416D01*
X156045544Y-102637959D01*
X155967524Y-102679868D01*
X155914726Y-102687000D01*
X152076381Y-102687000D01*
X151990038Y-102667293D01*
X151920797Y-102612074D01*
X151890228Y-102558342D01*
X151881254Y-102534594D01*
X151843210Y-102433912D01*
X151754031Y-102304157D01*
X151712723Y-102267353D01*
X151645433Y-102207399D01*
X151645431Y-102207398D01*
X151636476Y-102199419D01*
X151497331Y-102125745D01*
X151485701Y-102122824D01*
X151485699Y-102122823D01*
X151411385Y-102104157D01*
X151344628Y-102087389D01*
X151332634Y-102087326D01*
X151332632Y-102087326D01*
X151268227Y-102086989D01*
X151187184Y-102086565D01*
X151175526Y-102089364D01*
X151175524Y-102089364D01*
X151147155Y-102096175D01*
X151034088Y-102123320D01*
X151023426Y-102128823D01*
X151003778Y-102138964D01*
X150894179Y-102195532D01*
X150885143Y-102203415D01*
X150885141Y-102203416D01*
X150793492Y-102283367D01*
X150775534Y-102299033D01*
X150768636Y-102308848D01*
X150768635Y-102308849D01*
X150748839Y-102337016D01*
X150685001Y-102427848D01*
X150627809Y-102574539D01*
X150621941Y-102619113D01*
X150611795Y-102696180D01*
X150607258Y-102730638D01*
X150624535Y-102887133D01*
X150678643Y-103034990D01*
X150766458Y-103165672D01*
X150882910Y-103271635D01*
X151021276Y-103346762D01*
X151032885Y-103349807D01*
X151032886Y-103349808D01*
X151161960Y-103383670D01*
X151161964Y-103383671D01*
X151173569Y-103386715D01*
X151185565Y-103386903D01*
X151185569Y-103386904D01*
X151191305Y-103386994D01*
X151192093Y-103387006D01*
X151278115Y-103408067D01*
X151328936Y-103449490D01*
X151330575Y-103447745D01*
X151341418Y-103457927D01*
X151350628Y-103469610D01*
X151362866Y-103478068D01*
X151362867Y-103478069D01*
X151397943Y-103502311D01*
X151403027Y-103505944D01*
X151449316Y-103540134D01*
X151456132Y-103542527D01*
X151462069Y-103546631D01*
X151476261Y-103551119D01*
X151476260Y-103551119D01*
X151516912Y-103563976D01*
X151522840Y-103565954D01*
X151547376Y-103574570D01*
X151577131Y-103585019D01*
X151584345Y-103585302D01*
X151591230Y-103587480D01*
X151597837Y-103588000D01*
X151649075Y-103588000D01*
X151656886Y-103588153D01*
X151669962Y-103588667D01*
X151697629Y-103589754D01*
X151697630Y-103589754D01*
X151712494Y-103590338D01*
X151720484Y-103588219D01*
X151724468Y-103588000D01*
X154553047Y-103588000D01*
X154639390Y-103607707D01*
X154708631Y-103662926D01*
X154747058Y-103742718D01*
X154747058Y-103831282D01*
X154708631Y-103911074D01*
X154693761Y-103927714D01*
X149492751Y-109128725D01*
X149417763Y-109175844D01*
X149398491Y-109181513D01*
X149380424Y-109185850D01*
X149380418Y-109185852D01*
X149368756Y-109188652D01*
X149228847Y-109260864D01*
X149110202Y-109364365D01*
X149103304Y-109374180D01*
X149103303Y-109374181D01*
X149086907Y-109397510D01*
X149019669Y-109493180D01*
X148962477Y-109639871D01*
X148941926Y-109795970D01*
X109768000Y-109795970D01*
X109768000Y-106196988D01*
X109767970Y-106191617D01*
X109767969Y-106191424D01*
X109767916Y-106186581D01*
X109786675Y-106100027D01*
X109841131Y-106030184D01*
X109920498Y-105990885D01*
X109990294Y-105986778D01*
X110142660Y-106004812D01*
X110142666Y-106004812D01*
X110148476Y-106005500D01*
X112075970Y-106005500D01*
X112080505Y-106005083D01*
X112080511Y-106005083D01*
X112230626Y-105991289D01*
X112230628Y-105991289D01*
X112239711Y-105990454D01*
X112452064Y-105930565D01*
X112649947Y-105832980D01*
X112826733Y-105700967D01*
X112976501Y-105538949D01*
X113094236Y-105352350D01*
X113175994Y-105147421D01*
X113219038Y-104931024D01*
X113221926Y-104710406D01*
X113184562Y-104492957D01*
X113168840Y-104450341D01*
X113111355Y-104294519D01*
X113111354Y-104294516D01*
X113108196Y-104285957D01*
X112995386Y-104096341D01*
X112986822Y-104086575D01*
X112878157Y-103962667D01*
X112849910Y-103930457D01*
X112799869Y-103891008D01*
X112683804Y-103799510D01*
X112683800Y-103799507D01*
X112676640Y-103793863D01*
X112668569Y-103789617D01*
X112668565Y-103789614D01*
X112489454Y-103695379D01*
X112481380Y-103691131D01*
X112472671Y-103688427D01*
X112472669Y-103688426D01*
X112283185Y-103629590D01*
X112270667Y-103625703D01*
X112261610Y-103624631D01*
X112097340Y-103605188D01*
X112097334Y-103605188D01*
X112091524Y-103604500D01*
X110164030Y-103604500D01*
X110159495Y-103604917D01*
X110159489Y-103604917D01*
X110086262Y-103611646D01*
X110000289Y-103619546D01*
X109999580Y-103619746D01*
X109914538Y-103616245D01*
X109836393Y-103574570D01*
X109784070Y-103503116D01*
X109767826Y-103419187D01*
X109767874Y-103417303D01*
X109768000Y-103414812D01*
X109768000Y-102696988D01*
X109767969Y-102691424D01*
X109767940Y-102688805D01*
X109767916Y-102686581D01*
X109786675Y-102600027D01*
X109789838Y-102595970D01*
X115141926Y-102595970D01*
X115159203Y-102752465D01*
X115213311Y-102900322D01*
X115301126Y-103031004D01*
X115417578Y-103136967D01*
X115555944Y-103212094D01*
X115567553Y-103215139D01*
X115567554Y-103215140D01*
X115696628Y-103249002D01*
X115696632Y-103249003D01*
X115708237Y-103252047D01*
X115720236Y-103252235D01*
X115732118Y-103253863D01*
X115731922Y-103255295D01*
X115805394Y-103273283D01*
X115856958Y-103310483D01*
X117561542Y-105015066D01*
X117567289Y-105021058D01*
X117608299Y-105065656D01*
X117619830Y-105072805D01*
X117619833Y-105072808D01*
X117642355Y-105086772D01*
X117657807Y-105097392D01*
X117678907Y-105113408D01*
X117678913Y-105113411D01*
X117689717Y-105121612D01*
X117702332Y-105126607D01*
X117710634Y-105131284D01*
X117716267Y-105134118D01*
X117724961Y-105137989D01*
X117736486Y-105145135D01*
X117749506Y-105148918D01*
X117749509Y-105148919D01*
X117774968Y-105156315D01*
X117792708Y-105162389D01*
X117829953Y-105177136D01*
X117843444Y-105178554D01*
X117852681Y-105180823D01*
X117861048Y-105182465D01*
X117861049Y-105182459D01*
X117871308Y-105184305D01*
X117881325Y-105187215D01*
X117892015Y-105188000D01*
X117922893Y-105188000D01*
X117943693Y-105189090D01*
X117966460Y-105191483D01*
X117966462Y-105191483D01*
X117979954Y-105192901D01*
X117993335Y-105190638D01*
X117994760Y-105190593D01*
X118025639Y-105188000D01*
X127845238Y-105188000D01*
X127931581Y-105207707D01*
X127985952Y-105246286D01*
X131385960Y-108646293D01*
X131432126Y-108718617D01*
X131476373Y-108839529D01*
X131483064Y-108849487D01*
X131483065Y-108849488D01*
X131523570Y-108909765D01*
X131564188Y-108970211D01*
X131680640Y-109076174D01*
X131819006Y-109151301D01*
X131830615Y-109154346D01*
X131830616Y-109154347D01*
X131959690Y-109188209D01*
X131959694Y-109188210D01*
X131971299Y-109191254D01*
X131983295Y-109191442D01*
X131983299Y-109191443D01*
X132051093Y-109192507D01*
X132128725Y-109193727D01*
X132140421Y-109191048D01*
X132140424Y-109191048D01*
X132270498Y-109161257D01*
X132270501Y-109161256D01*
X132282198Y-109158577D01*
X132422855Y-109087834D01*
X132535943Y-108991248D01*
X132614395Y-108950160D01*
X132702908Y-108947179D01*
X132783949Y-108982898D01*
X132799110Y-108995383D01*
X132882910Y-109071635D01*
X133021276Y-109146762D01*
X133032885Y-109149807D01*
X133032886Y-109149808D01*
X133161960Y-109183670D01*
X133161964Y-109183671D01*
X133173569Y-109186715D01*
X133185565Y-109186903D01*
X133185569Y-109186904D01*
X133253363Y-109187968D01*
X133330995Y-109189188D01*
X133342691Y-109186509D01*
X133342694Y-109186509D01*
X133472768Y-109156718D01*
X133472771Y-109156717D01*
X133484468Y-109154038D01*
X133625125Y-109083295D01*
X133692551Y-109025708D01*
X133735725Y-108988834D01*
X133735726Y-108988833D01*
X133744848Y-108981042D01*
X133755893Y-108965672D01*
X133829725Y-108862923D01*
X133836724Y-108853183D01*
X133876853Y-108753358D01*
X133890974Y-108718233D01*
X133890975Y-108718231D01*
X133895450Y-108707098D01*
X133897646Y-108691672D01*
X133916716Y-108557673D01*
X133917634Y-108551223D01*
X133917778Y-108537500D01*
X133916105Y-108523670D01*
X133900304Y-108393103D01*
X133898863Y-108381194D01*
X133894623Y-108369973D01*
X133894622Y-108369969D01*
X133847450Y-108245133D01*
X133843210Y-108233912D01*
X133754031Y-108104157D01*
X133657338Y-108018006D01*
X133645433Y-108007399D01*
X133645431Y-108007398D01*
X133636476Y-107999419D01*
X133625875Y-107993806D01*
X133507936Y-107931360D01*
X133507935Y-107931360D01*
X133497331Y-107925745D01*
X133485693Y-107922822D01*
X133485691Y-107922821D01*
X133459784Y-107916314D01*
X133380843Y-107876167D01*
X133367547Y-107864023D01*
X129063458Y-103559934D01*
X129057711Y-103553942D01*
X129016701Y-103509344D01*
X129005170Y-103502195D01*
X129005167Y-103502192D01*
X128982645Y-103488228D01*
X128967193Y-103477608D01*
X128946093Y-103461592D01*
X128946087Y-103461589D01*
X128935283Y-103453388D01*
X128922668Y-103448393D01*
X128914366Y-103443716D01*
X128908733Y-103440882D01*
X128900039Y-103437011D01*
X128888514Y-103429865D01*
X128875494Y-103426082D01*
X128875491Y-103426081D01*
X128850032Y-103418685D01*
X128832293Y-103412611D01*
X128807660Y-103402858D01*
X128795047Y-103397864D01*
X128781556Y-103396446D01*
X128772319Y-103394177D01*
X128763952Y-103392535D01*
X128763951Y-103392541D01*
X128753692Y-103390695D01*
X128743675Y-103387785D01*
X128732985Y-103387000D01*
X128702107Y-103387000D01*
X128681307Y-103385910D01*
X128658540Y-103383517D01*
X128658538Y-103383517D01*
X128645046Y-103382099D01*
X128631665Y-103384362D01*
X128630240Y-103384407D01*
X128599361Y-103387000D01*
X118572953Y-103387000D01*
X118486610Y-103367293D01*
X118432239Y-103328714D01*
X116663736Y-101560212D01*
X116616617Y-101485224D01*
X116606891Y-101443404D01*
X116600804Y-101393103D01*
X116599363Y-101381194D01*
X116543710Y-101233912D01*
X116454531Y-101104157D01*
X116336976Y-100999419D01*
X116324772Y-100992957D01*
X116274348Y-100966259D01*
X116197831Y-100925745D01*
X116186201Y-100922824D01*
X116186199Y-100922823D01*
X116095335Y-100900000D01*
X116045128Y-100887389D01*
X116033134Y-100887326D01*
X116033132Y-100887326D01*
X115968727Y-100886989D01*
X115887684Y-100886565D01*
X115876026Y-100889364D01*
X115876024Y-100889364D01*
X115856023Y-100894166D01*
X115734588Y-100923320D01*
X115723926Y-100928823D01*
X115673945Y-100954620D01*
X115594679Y-100995532D01*
X115585643Y-101003415D01*
X115585641Y-101003416D01*
X115507428Y-101071646D01*
X115476034Y-101099033D01*
X115385501Y-101227848D01*
X115328309Y-101374539D01*
X115326743Y-101386436D01*
X115310262Y-101511622D01*
X115307758Y-101530638D01*
X115325035Y-101687133D01*
X115379143Y-101834990D01*
X115393714Y-101856674D01*
X115395347Y-101859104D01*
X115427148Y-101941761D01*
X115419936Y-102030030D01*
X115375140Y-102106429D01*
X115360994Y-102120056D01*
X115354473Y-102125745D01*
X115310202Y-102164365D01*
X115303304Y-102174180D01*
X115303303Y-102174181D01*
X115280154Y-102207119D01*
X115219669Y-102293180D01*
X115162477Y-102439871D01*
X115155818Y-102490454D01*
X115144254Y-102578290D01*
X115141926Y-102595970D01*
X109789838Y-102595970D01*
X109841131Y-102530184D01*
X109920498Y-102490885D01*
X109990294Y-102486778D01*
X110142660Y-102504812D01*
X110142666Y-102504812D01*
X110148476Y-102505500D01*
X112075970Y-102505500D01*
X112080505Y-102505083D01*
X112080511Y-102505083D01*
X112230626Y-102491289D01*
X112230628Y-102491289D01*
X112239711Y-102490454D01*
X112452064Y-102430565D01*
X112526273Y-102393969D01*
X112641763Y-102337016D01*
X112641764Y-102337015D01*
X112649947Y-102332980D01*
X112688546Y-102304157D01*
X112819420Y-102206428D01*
X112819421Y-102206427D01*
X112826733Y-102200967D01*
X112898969Y-102122823D01*
X112970307Y-102045650D01*
X112970309Y-102045648D01*
X112976501Y-102038949D01*
X113094236Y-101852350D01*
X113099554Y-101839022D01*
X113156543Y-101696175D01*
X113175994Y-101647421D01*
X113212793Y-101462417D01*
X113217257Y-101439978D01*
X113217257Y-101439977D01*
X113219038Y-101431024D01*
X113220832Y-101293974D01*
X113221807Y-101219531D01*
X113221807Y-101219526D01*
X113221926Y-101210406D01*
X113184562Y-100992957D01*
X113145593Y-100887326D01*
X113111355Y-100794519D01*
X113111354Y-100794516D01*
X113108196Y-100785957D01*
X112995386Y-100596341D01*
X112849910Y-100430457D01*
X112842747Y-100424810D01*
X112683804Y-100299510D01*
X112683800Y-100299507D01*
X112676640Y-100293863D01*
X112668569Y-100289617D01*
X112668565Y-100289614D01*
X112489454Y-100195379D01*
X112481380Y-100191131D01*
X112472671Y-100188427D01*
X112472669Y-100188426D01*
X112376024Y-100158417D01*
X112270667Y-100125703D01*
X112261610Y-100124631D01*
X112097340Y-100105188D01*
X112097334Y-100105188D01*
X112091524Y-100104500D01*
X110164030Y-100104500D01*
X110159495Y-100104917D01*
X110159489Y-100104917D01*
X110084873Y-100111774D01*
X110000289Y-100119546D01*
X109999580Y-100119746D01*
X109914538Y-100116245D01*
X109836393Y-100074570D01*
X109784070Y-100003116D01*
X109767826Y-99919187D01*
X109767874Y-99917303D01*
X109768000Y-99914812D01*
X109768000Y-99196988D01*
X109767969Y-99191424D01*
X109767727Y-99169441D01*
X109763917Y-99112810D01*
X109743645Y-98949297D01*
X109739668Y-98917219D01*
X109739667Y-98917214D01*
X109739047Y-98912212D01*
X109716259Y-98812504D01*
X109703580Y-98775003D01*
X109653135Y-98625797D01*
X109653133Y-98625793D01*
X109651519Y-98621018D01*
X109609125Y-98527934D01*
X109595113Y-98503949D01*
X109525682Y-98385099D01*
X109525680Y-98385095D01*
X109523352Y-98381111D01*
X109520661Y-98377356D01*
X109518136Y-98373462D01*
X109518242Y-98373393D01*
X109514922Y-98368351D01*
X109483974Y-98317350D01*
X109424186Y-98218823D01*
X109409227Y-98188688D01*
X109365839Y-98078823D01*
X109356169Y-98046590D01*
X109331916Y-97930996D01*
X109327815Y-97897600D01*
X109323383Y-97779562D01*
X109324968Y-97745947D01*
X109340488Y-97628855D01*
X109347714Y-97595992D01*
X109382741Y-97483185D01*
X109395400Y-97452008D01*
X109412563Y-97418250D01*
X109448937Y-97346708D01*
X109466666Y-97318115D01*
X109531392Y-97231121D01*
X109539820Y-97219794D01*
X109556140Y-97200541D01*
X109569202Y-97186978D01*
X109576496Y-97179405D01*
X109580279Y-97175129D01*
X109598186Y-97154890D01*
X109598246Y-97154822D01*
X109598311Y-97154748D01*
X109603410Y-97148895D01*
X109604048Y-97148152D01*
X109621525Y-97127775D01*
X109623413Y-97125574D01*
X109659136Y-97078639D01*
X109771964Y-96910931D01*
X109773252Y-96908790D01*
X109773264Y-96908771D01*
X109797059Y-96869213D01*
X109798359Y-96867052D01*
X109799555Y-96864815D01*
X109844134Y-96781414D01*
X109865806Y-96748979D01*
X109902132Y-96704715D01*
X109929716Y-96677131D01*
X109973981Y-96640804D01*
X110006413Y-96619134D01*
X110042870Y-96599647D01*
X110056910Y-96592142D01*
X110092951Y-96577213D01*
X110117003Y-96569917D01*
X110147748Y-96560591D01*
X110186008Y-96552980D01*
X110277610Y-96543958D01*
X110297115Y-96543000D01*
X112213425Y-96543000D01*
X112214643Y-96542970D01*
X112214651Y-96542970D01*
X112219106Y-96542861D01*
X112238232Y-96542391D01*
X112239466Y-96542330D01*
X112239476Y-96542330D01*
X112334915Y-96537641D01*
X112334945Y-96537639D01*
X112336149Y-96537580D01*
X112337346Y-96537492D01*
X112337374Y-96537490D01*
X112356604Y-96536071D01*
X112360882Y-96535756D01*
X112388513Y-96533035D01*
X112404500Y-96531461D01*
X112404516Y-96531459D01*
X112406477Y-96531266D01*
X112408443Y-96530993D01*
X112408455Y-96530992D01*
X112444126Y-96526046D01*
X112444124Y-96526046D01*
X112446117Y-96525770D01*
X112601648Y-96497894D01*
X112605958Y-96496712D01*
X112605968Y-96496710D01*
X112659705Y-96481976D01*
X112689528Y-96473799D01*
X112878857Y-96402998D01*
X112883370Y-96400767D01*
X112883376Y-96400764D01*
X112966018Y-96359902D01*
X112966020Y-96359901D01*
X112970544Y-96357664D01*
X113096208Y-96278784D01*
X113137468Y-96252885D01*
X113137472Y-96252882D01*
X113141745Y-96250200D01*
X113222426Y-96187339D01*
X113368491Y-96047613D01*
X113371756Y-96043786D01*
X113371762Y-96043779D01*
X113431598Y-95973631D01*
X113431605Y-95973622D01*
X113434871Y-95969793D01*
X113549818Y-95803524D01*
X113553508Y-95796827D01*
X113580172Y-95748427D01*
X113599170Y-95713942D01*
X113611451Y-95685073D01*
X113676321Y-95532581D01*
X113676322Y-95532579D01*
X113678296Y-95527938D01*
X113683169Y-95512234D01*
X113707115Y-95435062D01*
X113707117Y-95435054D01*
X113708608Y-95430249D01*
X113748671Y-95232125D01*
X113753656Y-95198883D01*
X113755891Y-95183982D01*
X113755892Y-95183970D01*
X113756265Y-95181486D01*
X113760755Y-95135901D01*
X113762580Y-95111155D01*
X113767391Y-95013230D01*
X113767455Y-95010650D01*
X113767970Y-94989651D01*
X113767970Y-94989643D01*
X113768000Y-94988425D01*
X113768000Y-92086575D01*
X113767391Y-92061770D01*
X113762580Y-91963845D01*
X113760755Y-91939099D01*
X113756265Y-91893514D01*
X113750770Y-91853886D01*
X113722894Y-91698353D01*
X113698799Y-91610472D01*
X113697227Y-91606268D01*
X113697223Y-91606256D01*
X113629766Y-91425872D01*
X113627998Y-91421143D01*
X113608617Y-91381944D01*
X113584902Y-91333982D01*
X113584901Y-91333980D01*
X113582664Y-91329456D01*
X113475200Y-91158255D01*
X113412339Y-91077574D01*
X113272613Y-90931509D01*
X113268786Y-90928244D01*
X113268779Y-90928238D01*
X113220010Y-90886638D01*
X117463258Y-90886638D01*
X117480535Y-91043133D01*
X117534643Y-91190990D01*
X117541334Y-91200948D01*
X117541335Y-91200949D01*
X117614888Y-91310406D01*
X117622458Y-91321672D01*
X117622622Y-91321821D01*
X117661142Y-91394444D01*
X117668000Y-91446235D01*
X117668000Y-92354975D01*
X117666621Y-92378364D01*
X117663136Y-92407810D01*
X117665809Y-92422446D01*
X117673470Y-92464395D01*
X117674496Y-92470559D01*
X117683051Y-92527462D01*
X117686179Y-92533975D01*
X117687475Y-92541073D01*
X117694330Y-92554270D01*
X117694332Y-92554275D01*
X117713987Y-92592113D01*
X117716753Y-92597647D01*
X117741691Y-92649579D01*
X117746594Y-92654883D01*
X117749921Y-92661288D01*
X117754225Y-92666328D01*
X117790443Y-92702546D01*
X117795860Y-92708179D01*
X117823550Y-92738135D01*
X117823553Y-92738137D01*
X117833646Y-92749056D01*
X117840795Y-92753208D01*
X117843774Y-92755877D01*
X118916706Y-93828809D01*
X118932269Y-93846322D01*
X118941417Y-93857927D01*
X118941420Y-93857930D01*
X118950628Y-93869610D01*
X118962866Y-93878068D01*
X118962867Y-93878069D01*
X118997943Y-93902311D01*
X119003027Y-93905944D01*
X119049316Y-93940134D01*
X119056132Y-93942527D01*
X119062069Y-93946631D01*
X119097527Y-93957845D01*
X119116912Y-93963976D01*
X119122840Y-93965954D01*
X119163095Y-93980090D01*
X119177131Y-93985019D01*
X119184345Y-93985302D01*
X119191230Y-93987480D01*
X119197837Y-93988000D01*
X119249075Y-93988000D01*
X119256886Y-93988153D01*
X119269962Y-93988667D01*
X119297629Y-93989754D01*
X119297630Y-93989754D01*
X119312494Y-93990338D01*
X119320484Y-93988219D01*
X119324468Y-93988000D01*
X122502009Y-93988000D01*
X122588352Y-94007707D01*
X122635938Y-94039813D01*
X122670910Y-94071635D01*
X122809276Y-94146762D01*
X122820885Y-94149807D01*
X122820886Y-94149808D01*
X122949960Y-94183670D01*
X122949964Y-94183671D01*
X122961569Y-94186715D01*
X122973565Y-94186903D01*
X122973569Y-94186904D01*
X123041363Y-94187968D01*
X123118995Y-94189188D01*
X123130691Y-94186509D01*
X123130694Y-94186509D01*
X123260768Y-94156718D01*
X123260771Y-94156717D01*
X123272468Y-94154038D01*
X123413125Y-94083295D01*
X123489846Y-94017769D01*
X123523725Y-93988834D01*
X123523726Y-93988833D01*
X123532848Y-93981042D01*
X123542974Y-93966951D01*
X123617725Y-93862923D01*
X123624724Y-93853183D01*
X123673793Y-93731121D01*
X123678974Y-93718233D01*
X123678975Y-93718231D01*
X123683450Y-93707098D01*
X123701150Y-93582735D01*
X123701549Y-93579928D01*
X123733226Y-93497223D01*
X123757850Y-93467253D01*
X124578817Y-92646286D01*
X124653805Y-92599167D01*
X124719531Y-92588000D01*
X125421862Y-92588000D01*
X125508205Y-92607707D01*
X125577446Y-92662926D01*
X125615873Y-92742718D01*
X125615873Y-92831282D01*
X125577446Y-92911074D01*
X125508205Y-92966293D01*
X125492950Y-92972786D01*
X125481991Y-92975417D01*
X125342082Y-93047629D01*
X125333046Y-93055512D01*
X125333044Y-93055513D01*
X125237231Y-93139097D01*
X125223437Y-93151130D01*
X125132904Y-93279945D01*
X125075712Y-93426636D01*
X125070525Y-93466038D01*
X125057978Y-93561341D01*
X125055161Y-93582735D01*
X125072438Y-93739230D01*
X125126546Y-93887087D01*
X125133237Y-93897045D01*
X125133238Y-93897046D01*
X125168415Y-93949394D01*
X125214361Y-94017769D01*
X125330813Y-94123732D01*
X125469179Y-94198859D01*
X125480788Y-94201904D01*
X125480789Y-94201905D01*
X125609863Y-94235767D01*
X125609867Y-94235768D01*
X125621472Y-94238812D01*
X125633468Y-94239000D01*
X125633472Y-94239001D01*
X125701266Y-94240065D01*
X125778898Y-94241285D01*
X125790594Y-94238606D01*
X125790597Y-94238606D01*
X125920671Y-94208815D01*
X125920674Y-94208814D01*
X125932371Y-94206135D01*
X126073028Y-94135392D01*
X126128779Y-94087776D01*
X126207233Y-94046687D01*
X126258019Y-94040097D01*
X126571878Y-94040097D01*
X126595267Y-94041476D01*
X126609940Y-94043213D01*
X126609943Y-94043213D01*
X126624713Y-94044961D01*
X126652901Y-94039813D01*
X126681298Y-94034627D01*
X126687463Y-94033601D01*
X126744365Y-94025046D01*
X126750878Y-94021918D01*
X126757976Y-94020622D01*
X126771173Y-94013767D01*
X126771178Y-94013765D01*
X126809016Y-93994110D01*
X126814550Y-93991344D01*
X126866482Y-93966406D01*
X126871786Y-93961503D01*
X126878191Y-93958176D01*
X126883231Y-93953872D01*
X126919449Y-93917654D01*
X126925082Y-93912237D01*
X126955038Y-93884547D01*
X126955040Y-93884544D01*
X126965959Y-93874451D01*
X126970111Y-93867302D01*
X126972780Y-93864323D01*
X127602856Y-93234247D01*
X127677844Y-93187128D01*
X127720506Y-93177559D01*
X127730275Y-93177712D01*
X127741971Y-93175033D01*
X127741974Y-93175033D01*
X127803479Y-93160946D01*
X127840492Y-93152469D01*
X127929053Y-93152402D01*
X128008875Y-93190768D01*
X128050090Y-93235456D01*
X128078458Y-93277672D01*
X128194910Y-93383635D01*
X128333276Y-93458762D01*
X128344885Y-93461807D01*
X128344886Y-93461808D01*
X128473960Y-93495670D01*
X128473964Y-93495671D01*
X128485569Y-93498715D01*
X128497565Y-93498903D01*
X128497569Y-93498904D01*
X128565363Y-93499968D01*
X128642995Y-93501188D01*
X128654691Y-93498509D01*
X128654694Y-93498509D01*
X128784768Y-93468718D01*
X128784771Y-93468717D01*
X128796468Y-93466038D01*
X128937125Y-93395295D01*
X129056848Y-93293042D01*
X129066260Y-93279945D01*
X129140196Y-93177051D01*
X129148724Y-93165183D01*
X129199868Y-93037959D01*
X129202974Y-93030233D01*
X129202975Y-93030231D01*
X129207450Y-93019098D01*
X129229634Y-92863223D01*
X129229778Y-92849500D01*
X129227574Y-92831282D01*
X129216856Y-92742718D01*
X129210863Y-92693194D01*
X129206623Y-92681973D01*
X129206622Y-92681969D01*
X129159450Y-92557133D01*
X129155210Y-92545912D01*
X129066031Y-92416157D01*
X129057077Y-92408179D01*
X129053245Y-92403833D01*
X129012298Y-92330698D01*
X129012161Y-92330254D01*
X129009949Y-92315538D01*
X129006821Y-92309025D01*
X129005525Y-92301927D01*
X128979006Y-92250875D01*
X128976228Y-92245314D01*
X128957750Y-92206833D01*
X128957748Y-92206830D01*
X128951309Y-92193421D01*
X128946407Y-92188118D01*
X128943079Y-92181711D01*
X128938775Y-92176672D01*
X128902557Y-92140454D01*
X128897140Y-92134821D01*
X128869450Y-92104865D01*
X128869447Y-92104863D01*
X128859354Y-92093944D01*
X128852205Y-92089792D01*
X128849226Y-92087123D01*
X126492741Y-89730638D01*
X133607258Y-89730638D01*
X133624535Y-89887133D01*
X133678643Y-90034990D01*
X133685334Y-90044948D01*
X133685335Y-90044949D01*
X133736270Y-90120747D01*
X133766458Y-90165672D01*
X133766622Y-90165821D01*
X133805142Y-90238444D01*
X133812000Y-90290235D01*
X133812000Y-94898975D01*
X133810621Y-94922364D01*
X133807136Y-94951810D01*
X133809809Y-94966446D01*
X133817470Y-95008395D01*
X133818496Y-95014559D01*
X133827051Y-95071462D01*
X133830179Y-95077975D01*
X133831475Y-95085073D01*
X133838330Y-95098270D01*
X133838332Y-95098275D01*
X133857987Y-95136113D01*
X133860753Y-95141647D01*
X133885691Y-95193579D01*
X133890594Y-95198883D01*
X133893921Y-95205288D01*
X133898225Y-95210328D01*
X133934443Y-95246546D01*
X133939860Y-95252179D01*
X133967550Y-95282135D01*
X133967553Y-95282137D01*
X133977646Y-95293056D01*
X133984795Y-95297208D01*
X133987774Y-95299877D01*
X135156443Y-96468546D01*
X135203562Y-96543534D01*
X135213527Y-96587423D01*
X135224535Y-96687133D01*
X135278643Y-96834990D01*
X135366458Y-96965672D01*
X135482910Y-97071635D01*
X135621276Y-97146762D01*
X135632885Y-97149807D01*
X135632886Y-97149808D01*
X135761960Y-97183670D01*
X135761964Y-97183671D01*
X135773569Y-97186715D01*
X135785566Y-97186904D01*
X135785570Y-97186904D01*
X135795635Y-97187062D01*
X135881658Y-97208124D01*
X135933220Y-97245323D01*
X136303022Y-97615125D01*
X136350141Y-97690113D01*
X136360057Y-97778120D01*
X136330806Y-97861713D01*
X136325119Y-97870266D01*
X136294053Y-97914469D01*
X136285001Y-97927348D01*
X136227809Y-98074039D01*
X136226243Y-98085936D01*
X136210648Y-98204392D01*
X136207258Y-98230138D01*
X136208811Y-98244206D01*
X136222800Y-98370913D01*
X136224535Y-98386633D01*
X136278643Y-98534490D01*
X136366458Y-98665172D01*
X136482910Y-98771135D01*
X136621276Y-98846262D01*
X136632885Y-98849307D01*
X136632886Y-98849308D01*
X136761960Y-98883170D01*
X136761964Y-98883171D01*
X136773569Y-98886215D01*
X136785565Y-98886403D01*
X136785569Y-98886404D01*
X136853363Y-98887468D01*
X136930995Y-98888688D01*
X136942691Y-98886009D01*
X136942694Y-98886009D01*
X137072768Y-98856218D01*
X137072771Y-98856217D01*
X137084468Y-98853538D01*
X137225125Y-98782795D01*
X137344848Y-98680542D01*
X137355322Y-98665967D01*
X137429725Y-98562423D01*
X137436724Y-98552683D01*
X137495450Y-98406598D01*
X137498292Y-98386633D01*
X137516716Y-98257173D01*
X137517634Y-98250723D01*
X137517778Y-98237000D01*
X137498863Y-98080694D01*
X137494623Y-98069473D01*
X137494622Y-98069469D01*
X137447450Y-97944633D01*
X137443210Y-97933412D01*
X137395912Y-97864594D01*
X183303074Y-97864594D01*
X183304619Y-97873584D01*
X183304619Y-97873587D01*
X183308745Y-97897600D01*
X183340438Y-98082043D01*
X183343597Y-98090606D01*
X183405047Y-98257173D01*
X183416804Y-98289043D01*
X183529614Y-98478659D01*
X183535627Y-98485515D01*
X183535628Y-98485517D01*
X183587310Y-98544449D01*
X183675090Y-98644543D01*
X183682252Y-98650189D01*
X183682253Y-98650190D01*
X183841196Y-98775490D01*
X183841200Y-98775493D01*
X183848360Y-98781137D01*
X183856431Y-98785383D01*
X183856435Y-98785386D01*
X183991064Y-98856218D01*
X184043620Y-98883869D01*
X184052329Y-98886573D01*
X184052331Y-98886574D01*
X184148976Y-98916583D01*
X184254333Y-98949297D01*
X184263390Y-98950369D01*
X184427660Y-98969812D01*
X184427666Y-98969812D01*
X184433476Y-98970500D01*
X186360970Y-98970500D01*
X186365505Y-98970083D01*
X186365511Y-98970083D01*
X186515626Y-98956289D01*
X186515628Y-98956289D01*
X186524711Y-98955454D01*
X186737064Y-98895565D01*
X186934947Y-98797980D01*
X186951813Y-98785386D01*
X187104420Y-98671428D01*
X187104421Y-98671427D01*
X187111733Y-98665967D01*
X187235095Y-98532515D01*
X187255307Y-98510650D01*
X187255309Y-98510648D01*
X187261501Y-98503949D01*
X187379236Y-98317350D01*
X187387402Y-98296883D01*
X187457614Y-98120892D01*
X187460994Y-98112421D01*
X187504038Y-97896024D01*
X187505731Y-97766722D01*
X187506807Y-97684531D01*
X187506807Y-97684526D01*
X187506926Y-97675406D01*
X187501526Y-97643976D01*
X187489849Y-97576025D01*
X187469562Y-97457957D01*
X187439596Y-97376731D01*
X187396355Y-97259519D01*
X187396354Y-97259516D01*
X187393196Y-97250957D01*
X187280386Y-97061341D01*
X187259192Y-97037173D01*
X187154939Y-96918296D01*
X187134910Y-96895457D01*
X187127747Y-96889810D01*
X186968804Y-96764510D01*
X186968800Y-96764507D01*
X186961640Y-96758863D01*
X186953569Y-96754617D01*
X186953565Y-96754614D01*
X186774454Y-96660379D01*
X186766380Y-96656131D01*
X186757671Y-96653427D01*
X186757669Y-96653426D01*
X186647230Y-96619134D01*
X186555667Y-96590703D01*
X186546610Y-96589631D01*
X186382340Y-96570188D01*
X186382334Y-96570188D01*
X186376524Y-96569500D01*
X184449030Y-96569500D01*
X184444495Y-96569917D01*
X184444489Y-96569917D01*
X184294374Y-96583711D01*
X184294372Y-96583711D01*
X184285289Y-96584546D01*
X184072936Y-96644435D01*
X183875053Y-96742020D01*
X183867742Y-96747479D01*
X183867741Y-96747480D01*
X183845448Y-96764127D01*
X183698267Y-96874033D01*
X183692071Y-96880736D01*
X183567318Y-97015693D01*
X183548499Y-97036051D01*
X183430764Y-97222650D01*
X183427386Y-97231117D01*
X183427384Y-97231121D01*
X183416055Y-97259519D01*
X183349006Y-97427579D01*
X183305962Y-97643976D01*
X183304627Y-97745947D01*
X183303872Y-97803657D01*
X183303074Y-97864594D01*
X137395912Y-97864594D01*
X137354031Y-97803657D01*
X137355593Y-97802583D01*
X137320411Y-97737900D01*
X137313000Y-97684099D01*
X137313000Y-97576025D01*
X137314379Y-97552636D01*
X137316116Y-97537963D01*
X137316116Y-97537960D01*
X137317864Y-97523190D01*
X137307526Y-97466582D01*
X137306505Y-97460444D01*
X137300161Y-97418250D01*
X137297949Y-97403538D01*
X137294823Y-97397028D01*
X137293526Y-97389927D01*
X137267011Y-97338881D01*
X137264221Y-97333297D01*
X137245751Y-97294836D01*
X137239309Y-97281421D01*
X137234408Y-97276120D01*
X137231080Y-97269712D01*
X137226776Y-97264672D01*
X137190546Y-97228442D01*
X137185129Y-97222809D01*
X137157452Y-97192868D01*
X137147354Y-97181944D01*
X137140207Y-97177793D01*
X137137233Y-97175129D01*
X136857561Y-96895457D01*
X136568870Y-96606767D01*
X136521751Y-96531779D01*
X136512025Y-96489960D01*
X136509434Y-96468546D01*
X136498863Y-96381194D01*
X136494623Y-96369973D01*
X136494622Y-96369969D01*
X136447450Y-96245133D01*
X136443210Y-96233912D01*
X136354031Y-96104157D01*
X136290568Y-96047613D01*
X136245433Y-96007399D01*
X136245431Y-96007398D01*
X136236476Y-95999419D01*
X136097331Y-95925745D01*
X136085701Y-95922824D01*
X136085699Y-95922823D01*
X135956261Y-95890311D01*
X135944628Y-95887389D01*
X135932635Y-95887326D01*
X135932634Y-95887326D01*
X135932059Y-95887323D01*
X135930812Y-95887317D01*
X135928762Y-95886837D01*
X135920731Y-95885823D01*
X135920837Y-95884985D01*
X135844575Y-95867161D01*
X135791137Y-95829034D01*
X134771286Y-94809183D01*
X134724167Y-94734195D01*
X134713000Y-94668469D01*
X134713000Y-90289448D01*
X134732707Y-90203105D01*
X134750395Y-90173324D01*
X134829723Y-90062927D01*
X134829726Y-90062922D01*
X134836724Y-90053183D01*
X134895450Y-89907098D01*
X134898292Y-89887133D01*
X134916716Y-89757673D01*
X134917634Y-89751223D01*
X134917778Y-89737500D01*
X134916948Y-89730638D01*
X136007258Y-89730638D01*
X136024535Y-89887133D01*
X136078643Y-90034990D01*
X136166458Y-90165672D01*
X136282910Y-90271635D01*
X136421276Y-90346762D01*
X136432885Y-90349807D01*
X136432886Y-90349808D01*
X136561960Y-90383670D01*
X136561964Y-90383671D01*
X136573569Y-90386715D01*
X136585566Y-90386904D01*
X136585570Y-90386904D01*
X136595635Y-90387062D01*
X136681658Y-90408124D01*
X136733220Y-90445323D01*
X138153714Y-91865817D01*
X138200833Y-91940805D01*
X138212000Y-92006531D01*
X138212000Y-92184298D01*
X138192293Y-92270641D01*
X138173984Y-92297944D01*
X138175534Y-92299033D01*
X138085001Y-92427848D01*
X138027809Y-92574539D01*
X138019695Y-92636174D01*
X138012188Y-92693194D01*
X138007258Y-92730638D01*
X138024535Y-92887133D01*
X138078643Y-93034990D01*
X138085334Y-93044948D01*
X138085335Y-93044949D01*
X138158650Y-93154052D01*
X138166458Y-93165672D01*
X138166622Y-93165821D01*
X138205142Y-93238444D01*
X138212000Y-93290235D01*
X138212000Y-95498975D01*
X138210621Y-95522364D01*
X138207136Y-95551810D01*
X138209809Y-95566446D01*
X138217470Y-95608395D01*
X138218496Y-95614559D01*
X138227051Y-95671462D01*
X138230179Y-95677975D01*
X138231475Y-95685073D01*
X138238330Y-95698270D01*
X138238332Y-95698275D01*
X138257987Y-95736113D01*
X138260753Y-95741647D01*
X138285691Y-95793579D01*
X138290594Y-95798883D01*
X138293921Y-95805288D01*
X138298225Y-95810328D01*
X138334443Y-95846546D01*
X138339860Y-95852179D01*
X138367550Y-95882135D01*
X138367553Y-95882137D01*
X138377646Y-95893056D01*
X138384795Y-95897208D01*
X138387774Y-95899877D01*
X139406193Y-96918296D01*
X139453312Y-96993284D01*
X139463277Y-97037173D01*
X139474285Y-97136883D01*
X139528393Y-97284740D01*
X139616208Y-97415422D01*
X139732660Y-97521385D01*
X139871026Y-97596512D01*
X139882635Y-97599557D01*
X139882636Y-97599558D01*
X140011710Y-97633420D01*
X140011714Y-97633421D01*
X140023319Y-97636465D01*
X140035315Y-97636653D01*
X140035319Y-97636654D01*
X140103113Y-97637718D01*
X140180745Y-97638938D01*
X140192441Y-97636259D01*
X140192444Y-97636259D01*
X140322518Y-97606468D01*
X140322521Y-97606467D01*
X140334218Y-97603788D01*
X140474875Y-97533045D01*
X140594598Y-97430792D01*
X140603611Y-97418250D01*
X140679475Y-97312673D01*
X140686474Y-97302933D01*
X140734418Y-97183670D01*
X140740724Y-97167983D01*
X140740725Y-97167981D01*
X140745200Y-97156848D01*
X140747451Y-97141035D01*
X140766466Y-97007423D01*
X140767384Y-97000973D01*
X140767528Y-96987250D01*
X140766715Y-96980526D01*
X140753166Y-96868572D01*
X140748613Y-96830944D01*
X140744373Y-96819723D01*
X140744372Y-96819719D01*
X140697200Y-96694883D01*
X140692960Y-96683662D01*
X140603781Y-96553907D01*
X140512099Y-96472221D01*
X140495183Y-96457149D01*
X140495181Y-96457148D01*
X140486226Y-96449169D01*
X140347081Y-96375495D01*
X140335451Y-96372574D01*
X140335449Y-96372573D01*
X140206011Y-96340061D01*
X140194378Y-96337139D01*
X140182385Y-96337076D01*
X140182384Y-96337076D01*
X140181809Y-96337073D01*
X140180562Y-96337067D01*
X140178512Y-96336587D01*
X140170481Y-96335573D01*
X140170587Y-96334735D01*
X140094325Y-96316911D01*
X140040887Y-96278784D01*
X139171286Y-95409183D01*
X139124167Y-95334195D01*
X139113000Y-95268469D01*
X139113000Y-94364594D01*
X183303074Y-94364594D01*
X183304619Y-94373584D01*
X183304619Y-94373587D01*
X183310013Y-94404978D01*
X183340438Y-94582043D01*
X183343597Y-94590606D01*
X183396570Y-94734195D01*
X183416804Y-94789043D01*
X183529614Y-94978659D01*
X183535627Y-94985515D01*
X183535628Y-94985517D01*
X183555692Y-95008395D01*
X183675090Y-95144543D01*
X183682252Y-95150189D01*
X183682253Y-95150190D01*
X183841196Y-95275490D01*
X183841200Y-95275493D01*
X183848360Y-95281137D01*
X183856431Y-95285383D01*
X183856435Y-95285386D01*
X183949206Y-95334195D01*
X184043620Y-95383869D01*
X184052329Y-95386573D01*
X184052331Y-95386574D01*
X184148976Y-95416583D01*
X184254333Y-95449297D01*
X184263390Y-95450369D01*
X184427660Y-95469812D01*
X184427666Y-95469812D01*
X184433476Y-95470500D01*
X186360970Y-95470500D01*
X186365505Y-95470083D01*
X186365511Y-95470083D01*
X186515626Y-95456289D01*
X186515628Y-95456289D01*
X186524711Y-95455454D01*
X186737064Y-95395565D01*
X186934947Y-95297980D01*
X186951813Y-95285386D01*
X187104420Y-95171428D01*
X187104421Y-95171427D01*
X187111733Y-95165967D01*
X187193072Y-95077975D01*
X187255307Y-95010650D01*
X187255309Y-95010648D01*
X187261501Y-95003949D01*
X187379236Y-94817350D01*
X187387402Y-94796883D01*
X187457614Y-94620892D01*
X187460994Y-94612421D01*
X187504038Y-94396024D01*
X187506579Y-94201905D01*
X187506807Y-94184531D01*
X187506807Y-94184526D01*
X187506926Y-94175406D01*
X187503255Y-94154038D01*
X187480541Y-94021853D01*
X187469562Y-93957957D01*
X187442480Y-93884547D01*
X187396355Y-93759519D01*
X187396354Y-93759516D01*
X187393196Y-93750957D01*
X187280386Y-93561341D01*
X187258208Y-93536051D01*
X187185404Y-93453035D01*
X187134910Y-93395457D01*
X187127176Y-93389360D01*
X186968804Y-93264510D01*
X186968800Y-93264507D01*
X186961640Y-93258863D01*
X186953569Y-93254617D01*
X186953565Y-93254614D01*
X186774454Y-93160379D01*
X186766380Y-93156131D01*
X186757671Y-93153427D01*
X186757669Y-93153426D01*
X186578668Y-93097845D01*
X186555667Y-93090703D01*
X186546610Y-93089631D01*
X186382340Y-93070188D01*
X186382334Y-93070188D01*
X186376524Y-93069500D01*
X184449030Y-93069500D01*
X184444495Y-93069917D01*
X184444489Y-93069917D01*
X184294374Y-93083711D01*
X184294372Y-93083711D01*
X184285289Y-93084546D01*
X184072936Y-93144435D01*
X183875053Y-93242020D01*
X183867742Y-93247479D01*
X183867741Y-93247480D01*
X183796292Y-93300834D01*
X183698267Y-93374033D01*
X183684099Y-93389360D01*
X183562147Y-93521287D01*
X183548499Y-93536051D01*
X183430764Y-93722650D01*
X183427386Y-93731117D01*
X183427384Y-93731121D01*
X183416055Y-93759519D01*
X183349006Y-93927579D01*
X183305962Y-94143976D01*
X183303074Y-94364594D01*
X139113000Y-94364594D01*
X139113000Y-93289448D01*
X139132707Y-93203105D01*
X139150395Y-93173324D01*
X139229723Y-93062927D01*
X139229726Y-93062922D01*
X139236724Y-93053183D01*
X139288929Y-92923320D01*
X139290974Y-92918233D01*
X139290975Y-92918231D01*
X139295450Y-92907098D01*
X139298292Y-92887133D01*
X139316716Y-92757673D01*
X139317634Y-92751223D01*
X139317778Y-92737500D01*
X139312417Y-92693194D01*
X139300304Y-92593103D01*
X139298863Y-92581194D01*
X139294623Y-92569973D01*
X139294622Y-92569969D01*
X139247450Y-92445133D01*
X139243210Y-92433912D01*
X139154031Y-92304157D01*
X139155593Y-92303083D01*
X139120411Y-92238400D01*
X139113000Y-92184599D01*
X139113000Y-91776024D01*
X139114379Y-91752635D01*
X139116116Y-91737961D01*
X139116116Y-91737959D01*
X139117864Y-91723189D01*
X139107532Y-91666620D01*
X139106505Y-91660450D01*
X139100161Y-91618250D01*
X139100161Y-91618249D01*
X139097949Y-91603538D01*
X139094821Y-91597025D01*
X139093525Y-91589927D01*
X139086670Y-91576730D01*
X139086668Y-91576725D01*
X139067013Y-91538887D01*
X139064247Y-91533353D01*
X139039309Y-91481421D01*
X139034406Y-91476117D01*
X139031079Y-91469712D01*
X139026775Y-91464672D01*
X138990557Y-91428454D01*
X138985140Y-91422821D01*
X138957450Y-91392865D01*
X138957447Y-91392863D01*
X138947354Y-91381944D01*
X138940205Y-91377792D01*
X138937226Y-91375123D01*
X137368870Y-89806767D01*
X137321751Y-89731779D01*
X137312025Y-89689960D01*
X137300304Y-89593103D01*
X137298863Y-89581194D01*
X137294623Y-89569973D01*
X137294622Y-89569969D01*
X137247450Y-89445133D01*
X137243210Y-89433912D01*
X137154031Y-89304157D01*
X137036476Y-89199419D01*
X136897331Y-89125745D01*
X136885701Y-89122824D01*
X136885699Y-89122823D01*
X136820980Y-89106567D01*
X136744628Y-89087389D01*
X136732634Y-89087326D01*
X136732632Y-89087326D01*
X136668227Y-89086989D01*
X136587184Y-89086565D01*
X136575526Y-89089364D01*
X136575524Y-89089364D01*
X136526453Y-89101145D01*
X136434088Y-89123320D01*
X136423426Y-89128823D01*
X136304837Y-89190031D01*
X136294179Y-89195532D01*
X136285143Y-89203415D01*
X136285141Y-89203416D01*
X136189503Y-89286847D01*
X136175534Y-89299033D01*
X136168636Y-89308848D01*
X136168635Y-89308849D01*
X136165596Y-89313173D01*
X136085001Y-89427848D01*
X136027809Y-89574539D01*
X136007258Y-89730638D01*
X134916948Y-89730638D01*
X134898863Y-89581194D01*
X134894623Y-89569973D01*
X134894622Y-89569969D01*
X134847450Y-89445133D01*
X134843210Y-89433912D01*
X134754031Y-89304157D01*
X134636476Y-89199419D01*
X134497331Y-89125745D01*
X134485701Y-89122824D01*
X134485699Y-89122823D01*
X134420980Y-89106567D01*
X134344628Y-89087389D01*
X134332634Y-89087326D01*
X134332632Y-89087326D01*
X134268227Y-89086989D01*
X134187184Y-89086565D01*
X134175526Y-89089364D01*
X134175524Y-89089364D01*
X134126453Y-89101145D01*
X134034088Y-89123320D01*
X134023426Y-89128823D01*
X133904837Y-89190031D01*
X133894179Y-89195532D01*
X133885143Y-89203415D01*
X133885141Y-89203416D01*
X133789503Y-89286847D01*
X133775534Y-89299033D01*
X133768636Y-89308848D01*
X133768635Y-89308849D01*
X133765596Y-89313173D01*
X133685001Y-89427848D01*
X133627809Y-89574539D01*
X133607258Y-89730638D01*
X126492741Y-89730638D01*
X126208294Y-89446191D01*
X126192731Y-89428678D01*
X126183583Y-89417073D01*
X126183580Y-89417070D01*
X126174372Y-89405390D01*
X126143859Y-89384301D01*
X126127057Y-89372689D01*
X126121969Y-89369053D01*
X126102312Y-89354534D01*
X126075684Y-89334866D01*
X126068868Y-89332473D01*
X126062931Y-89328369D01*
X126008088Y-89311024D01*
X126002160Y-89309046D01*
X125961905Y-89294910D01*
X125947869Y-89289981D01*
X125940655Y-89289698D01*
X125933770Y-89287520D01*
X125927163Y-89287000D01*
X125875925Y-89287000D01*
X125868114Y-89286847D01*
X125812506Y-89284662D01*
X125804516Y-89286780D01*
X125800527Y-89287000D01*
X122299197Y-89287000D01*
X122275808Y-89285621D01*
X122261134Y-89283884D01*
X122261132Y-89283884D01*
X122246362Y-89282136D01*
X122203410Y-89289981D01*
X122189793Y-89292468D01*
X122183623Y-89293495D01*
X122141423Y-89299839D01*
X122141422Y-89299839D01*
X122126711Y-89302051D01*
X122120198Y-89305179D01*
X122113100Y-89306475D01*
X122062048Y-89332994D01*
X122056487Y-89335772D01*
X122018006Y-89354250D01*
X122018003Y-89354252D01*
X122004594Y-89360691D01*
X121999291Y-89365593D01*
X121992884Y-89368921D01*
X121987845Y-89373225D01*
X121951627Y-89409443D01*
X121945994Y-89414860D01*
X121916038Y-89442550D01*
X121916036Y-89442553D01*
X121905117Y-89452646D01*
X121900965Y-89459795D01*
X121898296Y-89462774D01*
X120720758Y-90640312D01*
X120645770Y-90687431D01*
X120597074Y-90695571D01*
X120597268Y-90697249D01*
X120585350Y-90698628D01*
X120573357Y-90698565D01*
X120561699Y-90701364D01*
X120561697Y-90701364D01*
X120512626Y-90713145D01*
X120420261Y-90735320D01*
X120409599Y-90740823D01*
X120321490Y-90786299D01*
X120280352Y-90807532D01*
X120271316Y-90815415D01*
X120271314Y-90815416D01*
X120203309Y-90874741D01*
X120161707Y-90911033D01*
X120071174Y-91039848D01*
X120013982Y-91186539D01*
X119993431Y-91342638D01*
X120010708Y-91499133D01*
X120064816Y-91646990D01*
X120071507Y-91656948D01*
X120071508Y-91656949D01*
X120103961Y-91705244D01*
X120152631Y-91777672D01*
X120269083Y-91883635D01*
X120407449Y-91958762D01*
X120419058Y-91961807D01*
X120419059Y-91961808D01*
X120548133Y-91995670D01*
X120548137Y-91995671D01*
X120559742Y-91998715D01*
X120571738Y-91998903D01*
X120571742Y-91998904D01*
X120639536Y-91999968D01*
X120717168Y-92001188D01*
X120728864Y-91998509D01*
X120728867Y-91998509D01*
X120858941Y-91968718D01*
X120858944Y-91968717D01*
X120870641Y-91966038D01*
X121011298Y-91895295D01*
X121083168Y-91833912D01*
X121121898Y-91800834D01*
X121121899Y-91800833D01*
X121131021Y-91793042D01*
X121142066Y-91777672D01*
X121215898Y-91674923D01*
X121222897Y-91665183D01*
X121274776Y-91536130D01*
X121277147Y-91530233D01*
X121277148Y-91530231D01*
X121281623Y-91519098D01*
X121284465Y-91499133D01*
X121299722Y-91391928D01*
X121331399Y-91309223D01*
X121356023Y-91279253D01*
X122388990Y-90246286D01*
X122463978Y-90199167D01*
X122529704Y-90188000D01*
X125593469Y-90188000D01*
X125679812Y-90207707D01*
X125734183Y-90246286D01*
X126635308Y-91147411D01*
X126682427Y-91222399D01*
X126692343Y-91310406D01*
X126663092Y-91393999D01*
X126600468Y-91456623D01*
X126516875Y-91485874D01*
X126493557Y-91487122D01*
X126387184Y-91486565D01*
X126375526Y-91489364D01*
X126375524Y-91489364D01*
X126354490Y-91494414D01*
X126234088Y-91523320D01*
X126223426Y-91528823D01*
X126104837Y-91590031D01*
X126094179Y-91595532D01*
X126085143Y-91603415D01*
X126085141Y-91603416D01*
X126045544Y-91637959D01*
X125967524Y-91679868D01*
X125914726Y-91687000D01*
X124489025Y-91687000D01*
X124465636Y-91685621D01*
X124450963Y-91683884D01*
X124450960Y-91683884D01*
X124436190Y-91682136D01*
X124421554Y-91684809D01*
X124379605Y-91692470D01*
X124373441Y-91693496D01*
X124316538Y-91702051D01*
X124310025Y-91705179D01*
X124302927Y-91706475D01*
X124289730Y-91713330D01*
X124289725Y-91713332D01*
X124251887Y-91732987D01*
X124246353Y-91735753D01*
X124194421Y-91760691D01*
X124189117Y-91765594D01*
X124182712Y-91768921D01*
X124177672Y-91773225D01*
X124141454Y-91809443D01*
X124135821Y-91814860D01*
X124105865Y-91842550D01*
X124105863Y-91842553D01*
X124094944Y-91852646D01*
X124090792Y-91859795D01*
X124088123Y-91862774D01*
X123122585Y-92828312D01*
X123047597Y-92875431D01*
X122998901Y-92883571D01*
X122999095Y-92885249D01*
X122987177Y-92886628D01*
X122975184Y-92886565D01*
X122963526Y-92889364D01*
X122963524Y-92889364D01*
X122939137Y-92895219D01*
X122822088Y-92923320D01*
X122682179Y-92995532D01*
X122673143Y-93003415D01*
X122673141Y-93003416D01*
X122633544Y-93037959D01*
X122555524Y-93079868D01*
X122502726Y-93087000D01*
X119531531Y-93087000D01*
X119445188Y-93067293D01*
X119390817Y-93028714D01*
X118627286Y-92265183D01*
X118580167Y-92190195D01*
X118569000Y-92124469D01*
X118569000Y-91445448D01*
X118588707Y-91359105D01*
X118606395Y-91329324D01*
X118685723Y-91218927D01*
X118685726Y-91218922D01*
X118692724Y-91209183D01*
X118751450Y-91063098D01*
X118754292Y-91043133D01*
X118772716Y-90913673D01*
X118773634Y-90907223D01*
X118773778Y-90893500D01*
X118754863Y-90737194D01*
X118750623Y-90725973D01*
X118750622Y-90725969D01*
X118703450Y-90601133D01*
X118699210Y-90589912D01*
X118692418Y-90580029D01*
X118692416Y-90580026D01*
X118649566Y-90517679D01*
X118616902Y-90435360D01*
X118623190Y-90347020D01*
X118672853Y-90264250D01*
X119299620Y-89637483D01*
X119374608Y-89590364D01*
X119395906Y-89584220D01*
X119409118Y-89581194D01*
X119470926Y-89567038D01*
X119611583Y-89496295D01*
X119684624Y-89433912D01*
X119722183Y-89401834D01*
X119722184Y-89401833D01*
X119731306Y-89394042D01*
X119744279Y-89375989D01*
X119809903Y-89284662D01*
X119823182Y-89266183D01*
X119863311Y-89166358D01*
X119877432Y-89131233D01*
X119877433Y-89131231D01*
X119881908Y-89120098D01*
X119886148Y-89090311D01*
X119903174Y-88970673D01*
X119904092Y-88964223D01*
X119904236Y-88950500D01*
X119885321Y-88794194D01*
X119881081Y-88782973D01*
X119881080Y-88782969D01*
X119833908Y-88658133D01*
X119829668Y-88646912D01*
X119740489Y-88517157D01*
X119622934Y-88412419D01*
X119483789Y-88338745D01*
X119472159Y-88335824D01*
X119472157Y-88335823D01*
X119407438Y-88319567D01*
X119331086Y-88300389D01*
X119319092Y-88300326D01*
X119319090Y-88300326D01*
X119254685Y-88299989D01*
X119173642Y-88299565D01*
X119161984Y-88302364D01*
X119161982Y-88302364D01*
X119112911Y-88314145D01*
X119020546Y-88336320D01*
X119009884Y-88341823D01*
X118891295Y-88403031D01*
X118880637Y-88408532D01*
X118871601Y-88416415D01*
X118871599Y-88416416D01*
X118771033Y-88504146D01*
X118761992Y-88512033D01*
X118671459Y-88640848D01*
X118614267Y-88787539D01*
X118593716Y-88943638D01*
X118595269Y-88957706D01*
X118595712Y-88961718D01*
X118585599Y-89049702D01*
X118538628Y-89124269D01*
X117827191Y-89835706D01*
X117809678Y-89851269D01*
X117798073Y-89860417D01*
X117798070Y-89860420D01*
X117786390Y-89869628D01*
X117777932Y-89881866D01*
X117777931Y-89881867D01*
X117753689Y-89916943D01*
X117750056Y-89922027D01*
X117715866Y-89968316D01*
X117713473Y-89975132D01*
X117709369Y-89981069D01*
X117704881Y-89995260D01*
X117692024Y-90035912D01*
X117690046Y-90041840D01*
X117686063Y-90053183D01*
X117670981Y-90096131D01*
X117670698Y-90103345D01*
X117668520Y-90110230D01*
X117668000Y-90116837D01*
X117668000Y-90168075D01*
X117667847Y-90175886D01*
X117665662Y-90231494D01*
X117667780Y-90239484D01*
X117668000Y-90243473D01*
X117668000Y-90340298D01*
X117648293Y-90426641D01*
X117629984Y-90453944D01*
X117631534Y-90455033D01*
X117541001Y-90583848D01*
X117483809Y-90730539D01*
X117476468Y-90786299D01*
X117466090Y-90865129D01*
X117463258Y-90886638D01*
X113220010Y-90886638D01*
X113198631Y-90868402D01*
X113198622Y-90868395D01*
X113194793Y-90865129D01*
X113028524Y-90750182D01*
X113000718Y-90734863D01*
X112984573Y-90725969D01*
X112938942Y-90700830D01*
X112907445Y-90687431D01*
X112757574Y-90623676D01*
X112757571Y-90623675D01*
X112752938Y-90621704D01*
X112686641Y-90601133D01*
X112660063Y-90592886D01*
X112660056Y-90592884D01*
X112655250Y-90591393D01*
X112457128Y-90551330D01*
X112414779Y-90544979D01*
X112408998Y-90544112D01*
X112408995Y-90544112D01*
X112406477Y-90543734D01*
X112360882Y-90539244D01*
X112356604Y-90538929D01*
X112337374Y-90537510D01*
X112337346Y-90537508D01*
X112336149Y-90537420D01*
X112334945Y-90537361D01*
X112334915Y-90537359D01*
X112239476Y-90532670D01*
X112239466Y-90532670D01*
X112238232Y-90532609D01*
X112219106Y-90532139D01*
X112214651Y-90532030D01*
X112214643Y-90532030D01*
X112213425Y-90532000D01*
X107762000Y-90532000D01*
X107723616Y-90533459D01*
X107619240Y-90541407D01*
X107576750Y-90544643D01*
X107576746Y-90544643D01*
X107572340Y-90544979D01*
X107484018Y-90559657D01*
X107288336Y-90610323D01*
X107192424Y-90645845D01*
X107010947Y-90734863D01*
X106924145Y-90788967D01*
X106920156Y-90792055D01*
X106883808Y-90820190D01*
X106803467Y-90857457D01*
X106714913Y-90856174D01*
X106635685Y-90816596D01*
X106581476Y-90746562D01*
X106563000Y-90662825D01*
X106563000Y-82930638D01*
X145107258Y-82930638D01*
X145124535Y-83087133D01*
X145178643Y-83234990D01*
X145185334Y-83244948D01*
X145185335Y-83244949D01*
X145201975Y-83269712D01*
X145266458Y-83365672D01*
X145382910Y-83471635D01*
X145521276Y-83546762D01*
X145618880Y-83572368D01*
X145697391Y-83613337D01*
X145750354Y-83684318D01*
X145767378Y-83764852D01*
X145767378Y-85074501D01*
X145747671Y-85160844D01*
X145709092Y-85215215D01*
X145695581Y-85228726D01*
X145620593Y-85275845D01*
X145601340Y-85281509D01*
X145571588Y-85288652D01*
X145431679Y-85360864D01*
X145313034Y-85464365D01*
X145222501Y-85593180D01*
X145165309Y-85739871D01*
X145144758Y-85895970D01*
X145162035Y-86052465D01*
X145216143Y-86200322D01*
X145303958Y-86331004D01*
X145420410Y-86436967D01*
X145558776Y-86512094D01*
X145570385Y-86515139D01*
X145570386Y-86515140D01*
X145699460Y-86549002D01*
X145699464Y-86549003D01*
X145711069Y-86552047D01*
X145723065Y-86552235D01*
X145723069Y-86552236D01*
X145790863Y-86553300D01*
X145868495Y-86554520D01*
X145880191Y-86551841D01*
X145880194Y-86551841D01*
X146010268Y-86522050D01*
X146010271Y-86522049D01*
X146021968Y-86519370D01*
X146162625Y-86448627D01*
X146239007Y-86383391D01*
X146317462Y-86342301D01*
X146405975Y-86339321D01*
X146487016Y-86375040D01*
X146532840Y-86422864D01*
X146534630Y-86425499D01*
X146541069Y-86438907D01*
X146545972Y-86444211D01*
X146549299Y-86450616D01*
X146553603Y-86455656D01*
X146589821Y-86491874D01*
X146595238Y-86497507D01*
X146622928Y-86527463D01*
X146622931Y-86527465D01*
X146633024Y-86538384D01*
X146640173Y-86542536D01*
X146643152Y-86545205D01*
X146982134Y-86884187D01*
X146997697Y-86901700D01*
X147006845Y-86913305D01*
X147006848Y-86913308D01*
X147016056Y-86924988D01*
X147028294Y-86933446D01*
X147028295Y-86933447D01*
X147063371Y-86957689D01*
X147068455Y-86961322D01*
X147114744Y-86995512D01*
X147121560Y-86997905D01*
X147127497Y-87002009D01*
X147141689Y-87006497D01*
X147141688Y-87006497D01*
X147182340Y-87019354D01*
X147188268Y-87021332D01*
X147214487Y-87030539D01*
X147242559Y-87040397D01*
X147249773Y-87040680D01*
X147256658Y-87042858D01*
X147263265Y-87043378D01*
X147314503Y-87043378D01*
X147322314Y-87043531D01*
X147335390Y-87044045D01*
X147363057Y-87045132D01*
X147363058Y-87045132D01*
X147377922Y-87045716D01*
X147385912Y-87043597D01*
X147389896Y-87043378D01*
X147868597Y-87043378D01*
X147891986Y-87044757D01*
X147906659Y-87046494D01*
X147906662Y-87046494D01*
X147921432Y-87048242D01*
X147948366Y-87043323D01*
X147978017Y-87037908D01*
X147984182Y-87036882D01*
X148041084Y-87028327D01*
X148047597Y-87025199D01*
X148054695Y-87023903D01*
X148067892Y-87017048D01*
X148067897Y-87017046D01*
X148105735Y-86997391D01*
X148111269Y-86994625D01*
X148163201Y-86969687D01*
X148168505Y-86964784D01*
X148174910Y-86961457D01*
X148179950Y-86957153D01*
X148216168Y-86920935D01*
X148221801Y-86915518D01*
X148251756Y-86887828D01*
X148262678Y-86877732D01*
X148266830Y-86870584D01*
X148269496Y-86867607D01*
X148789949Y-86347155D01*
X148864938Y-86300036D01*
X148909863Y-86289959D01*
X148918994Y-86288999D01*
X148930995Y-86289188D01*
X148942691Y-86286509D01*
X148942694Y-86286509D01*
X149072768Y-86256718D01*
X149072771Y-86256717D01*
X149084468Y-86254038D01*
X149225125Y-86183295D01*
X149344848Y-86081042D01*
X149436724Y-85953183D01*
X149495450Y-85807098D01*
X149506609Y-85728694D01*
X149516716Y-85657673D01*
X149517634Y-85651223D01*
X149517778Y-85637500D01*
X149498863Y-85481194D01*
X149494624Y-85469976D01*
X149492148Y-85459896D01*
X149490690Y-85371345D01*
X149527797Y-85290931D01*
X149596120Y-85234580D01*
X149626878Y-85222228D01*
X149638152Y-85218759D01*
X149652864Y-85216547D01*
X149659377Y-85213419D01*
X149666475Y-85212123D01*
X149679672Y-85205268D01*
X149679677Y-85205266D01*
X149717515Y-85185611D01*
X149723049Y-85182845D01*
X149774981Y-85157907D01*
X149780285Y-85153004D01*
X149786690Y-85149677D01*
X149791730Y-85145373D01*
X149827948Y-85109155D01*
X149833581Y-85103738D01*
X149863537Y-85076048D01*
X149863539Y-85076045D01*
X149874458Y-85065952D01*
X149878610Y-85058803D01*
X149881279Y-85055824D01*
X150053809Y-84883294D01*
X150071322Y-84867731D01*
X150082927Y-84858583D01*
X150082930Y-84858580D01*
X150094610Y-84849372D01*
X150127325Y-84802038D01*
X150130937Y-84796983D01*
X150156298Y-84762648D01*
X150156299Y-84762646D01*
X150165135Y-84750683D01*
X150167529Y-84743866D01*
X150171631Y-84737931D01*
X150188968Y-84683113D01*
X150190946Y-84677184D01*
X150205092Y-84636903D01*
X150205092Y-84636901D01*
X150210020Y-84622869D01*
X150210304Y-84615652D01*
X150212480Y-84608770D01*
X150213000Y-84602163D01*
X150213000Y-84550951D01*
X150213153Y-84543137D01*
X150214755Y-84502367D01*
X150215339Y-84487506D01*
X150213220Y-84479514D01*
X150213000Y-84475520D01*
X150213000Y-83713870D01*
X150232707Y-83627527D01*
X150287926Y-83558286D01*
X150367718Y-83519859D01*
X150456282Y-83519859D01*
X150506952Y-83538985D01*
X150521276Y-83546762D01*
X150532885Y-83549807D01*
X150532886Y-83549808D01*
X150661960Y-83583670D01*
X150661964Y-83583671D01*
X150673569Y-83586715D01*
X150685565Y-83586903D01*
X150685569Y-83586904D01*
X150753363Y-83587968D01*
X150830995Y-83589188D01*
X150842691Y-83586509D01*
X150842694Y-83586509D01*
X150972768Y-83556718D01*
X150972771Y-83556717D01*
X150984468Y-83554038D01*
X151125125Y-83483295D01*
X151244848Y-83381042D01*
X151255893Y-83365672D01*
X151329725Y-83262923D01*
X151336724Y-83253183D01*
X151395450Y-83107098D01*
X151398292Y-83087133D01*
X151416716Y-82957673D01*
X151417634Y-82951223D01*
X151417778Y-82937500D01*
X151398863Y-82781194D01*
X151394623Y-82769973D01*
X151394622Y-82769969D01*
X151347450Y-82645133D01*
X151343210Y-82633912D01*
X151336418Y-82624030D01*
X151336414Y-82624022D01*
X151333801Y-82620220D01*
X151332020Y-82615617D01*
X151330855Y-82613388D01*
X151331107Y-82613256D01*
X151300644Y-82534516D01*
X151297706Y-82513068D01*
X151292319Y-82500619D01*
X151289759Y-82491451D01*
X151287787Y-82485486D01*
X151284367Y-82476576D01*
X151281268Y-82463364D01*
X151261963Y-82428248D01*
X151253717Y-82411416D01*
X151251827Y-82407047D01*
X151237805Y-82374645D01*
X151229271Y-82364106D01*
X151224342Y-82355967D01*
X151219587Y-82348891D01*
X151219582Y-82348894D01*
X151213635Y-82340338D01*
X151208607Y-82331192D01*
X151201603Y-82323078D01*
X151179771Y-82301246D01*
X151165833Y-82285767D01*
X151151425Y-82267975D01*
X151142886Y-82257430D01*
X151131824Y-82249569D01*
X151130784Y-82248592D01*
X151107115Y-82228590D01*
X150600957Y-81722433D01*
X150595188Y-81716417D01*
X150570991Y-81690103D01*
X150554201Y-81671844D01*
X150542670Y-81664695D01*
X150542667Y-81664692D01*
X150520145Y-81650728D01*
X150504693Y-81640108D01*
X150483593Y-81624092D01*
X150483587Y-81624089D01*
X150472783Y-81615888D01*
X150460168Y-81610893D01*
X150451866Y-81606216D01*
X150446233Y-81603382D01*
X150437539Y-81599511D01*
X150426014Y-81592365D01*
X150412994Y-81588582D01*
X150412991Y-81588581D01*
X150387532Y-81581185D01*
X150369793Y-81575111D01*
X150345160Y-81565358D01*
X150332547Y-81560364D01*
X150319056Y-81558946D01*
X150309819Y-81556677D01*
X150301452Y-81555035D01*
X150301451Y-81555041D01*
X150291192Y-81553195D01*
X150281175Y-81550285D01*
X150270485Y-81549500D01*
X150239607Y-81549500D01*
X150218807Y-81548410D01*
X150196040Y-81546017D01*
X150196038Y-81546017D01*
X150182546Y-81544599D01*
X150169165Y-81546862D01*
X150167740Y-81546907D01*
X150136861Y-81549500D01*
X146406215Y-81549500D01*
X146397882Y-81549325D01*
X146350955Y-81547358D01*
X146350954Y-81547358D01*
X146337398Y-81546790D01*
X146324186Y-81549889D01*
X146324185Y-81549889D01*
X146298388Y-81555939D01*
X146279957Y-81559356D01*
X146273229Y-81560278D01*
X146240260Y-81564794D01*
X146227812Y-81570181D01*
X146218643Y-81572741D01*
X146212667Y-81574717D01*
X146203765Y-81578134D01*
X146190556Y-81581232D01*
X146155442Y-81600536D01*
X146138614Y-81608780D01*
X146101837Y-81624695D01*
X146091297Y-81633230D01*
X146083168Y-81638153D01*
X146076087Y-81642911D01*
X146076090Y-81642915D01*
X146067523Y-81648870D01*
X146058384Y-81653894D01*
X146050270Y-81660898D01*
X146028443Y-81682725D01*
X146012964Y-81696663D01*
X145995165Y-81711076D01*
X145995163Y-81711078D01*
X145984622Y-81719614D01*
X145976762Y-81730674D01*
X145975792Y-81731707D01*
X145955776Y-81755392D01*
X145384934Y-82326234D01*
X145378942Y-82331981D01*
X145334344Y-82372991D01*
X145327195Y-82384522D01*
X145327192Y-82384525D01*
X145313228Y-82407047D01*
X145302608Y-82422499D01*
X145286592Y-82443599D01*
X145286589Y-82443605D01*
X145278388Y-82454409D01*
X145273393Y-82467024D01*
X145268716Y-82475326D01*
X145265891Y-82480942D01*
X145262017Y-82489644D01*
X145254865Y-82501178D01*
X145250603Y-82515848D01*
X145247117Y-82523108D01*
X145245562Y-82526600D01*
X145245461Y-82526555D01*
X145222318Y-82574751D01*
X145185001Y-82627848D01*
X145127809Y-82774539D01*
X145107258Y-82930638D01*
X106563000Y-82930638D01*
X106563000Y-80581204D01*
X106564613Y-80562766D01*
X106564613Y-80554644D01*
X106567636Y-80537500D01*
X106564757Y-80521170D01*
X106565226Y-80509220D01*
X106576539Y-80365471D01*
X106581425Y-80334628D01*
X106618054Y-80182060D01*
X106627703Y-80152362D01*
X106687746Y-80007405D01*
X106701922Y-79979583D01*
X106705854Y-79973166D01*
X106783903Y-79845802D01*
X106802249Y-79820551D01*
X106904159Y-79701228D01*
X106926228Y-79679159D01*
X107045551Y-79577249D01*
X107070802Y-79558903D01*
X107204583Y-79476922D01*
X107232405Y-79462746D01*
X107377362Y-79402703D01*
X107407060Y-79393054D01*
X107559628Y-79356425D01*
X107590469Y-79351539D01*
X107734221Y-79340226D01*
X107746170Y-79339757D01*
X107762500Y-79342636D01*
X107779644Y-79339613D01*
X107787766Y-79339613D01*
X107806204Y-79338000D01*
X118144584Y-79338000D01*
X118233580Y-79359009D01*
G37*
G04 #@! TD.AperFunction*
G04 #@! TA.AperFunction,Conductor*
G36*
X112311342Y-91042311D02*
G01*
X112356937Y-91046801D01*
X112555059Y-91086864D01*
X112741063Y-91165990D01*
X112907332Y-91280937D01*
X113047058Y-91427002D01*
X113154522Y-91598203D01*
X113225323Y-91787532D01*
X113253199Y-91943065D01*
X113257689Y-91988650D01*
X113262500Y-92086575D01*
X113262500Y-94988425D01*
X113257689Y-95086350D01*
X113253199Y-95131935D01*
X113213136Y-95330059D01*
X113134010Y-95516063D01*
X113019063Y-95682332D01*
X112872998Y-95822058D01*
X112701797Y-95929522D01*
X112512468Y-96000323D01*
X112356937Y-96028199D01*
X112311342Y-96032689D01*
X112213425Y-96037500D01*
X110262500Y-96037500D01*
X110067410Y-96056715D01*
X110020442Y-96070962D01*
X110020439Y-96070963D01*
X109926783Y-96099373D01*
X109926781Y-96099374D01*
X109879817Y-96113620D01*
X109706930Y-96206030D01*
X109555393Y-96330393D01*
X109431030Y-96481930D01*
X109352547Y-96628762D01*
X109239719Y-96796470D01*
X109219716Y-96819791D01*
X109197901Y-96844448D01*
X109167295Y-96873645D01*
X109025421Y-97064330D01*
X109006247Y-97102043D01*
X109006245Y-97102046D01*
X108974211Y-97165053D01*
X108917705Y-97276193D01*
X108847225Y-97503176D01*
X108841667Y-97545107D01*
X108841666Y-97545113D01*
X108834563Y-97598705D01*
X108815996Y-97738789D01*
X108824913Y-97976295D01*
X108833599Y-98017695D01*
X108833600Y-98017699D01*
X108852301Y-98106824D01*
X108873719Y-98208904D01*
X108961020Y-98429963D01*
X109084319Y-98633153D01*
X109086875Y-98636098D01*
X109172648Y-98782921D01*
X109237388Y-98974407D01*
X109262258Y-99175005D01*
X109262500Y-99196988D01*
X109262500Y-99914812D01*
X109242050Y-100115909D01*
X109181539Y-100308773D01*
X109083443Y-100485509D01*
X109064994Y-100511141D01*
X109050679Y-100530381D01*
X109050675Y-100530388D01*
X109025421Y-100564330D01*
X109006247Y-100602043D01*
X109006245Y-100602046D01*
X108966593Y-100680037D01*
X108917705Y-100776193D01*
X108905160Y-100816595D01*
X108871550Y-100924838D01*
X108847225Y-101003176D01*
X108841667Y-101045107D01*
X108841666Y-101045113D01*
X108834563Y-101098705D01*
X108815996Y-101238789D01*
X108817583Y-101281062D01*
X108817583Y-101281065D01*
X108819654Y-101336211D01*
X108824913Y-101476295D01*
X108833599Y-101517695D01*
X108833600Y-101517699D01*
X108858178Y-101634835D01*
X108873719Y-101708904D01*
X108961020Y-101929963D01*
X109084319Y-102133153D01*
X109086875Y-102136098D01*
X109172648Y-102282921D01*
X109237388Y-102474407D01*
X109262258Y-102675005D01*
X109262500Y-102696988D01*
X109262500Y-103414812D01*
X109242050Y-103615909D01*
X109181539Y-103808773D01*
X109083443Y-103985509D01*
X109064994Y-104011141D01*
X109050679Y-104030381D01*
X109050675Y-104030388D01*
X109025421Y-104064330D01*
X108917705Y-104276193D01*
X108847225Y-104503176D01*
X108841667Y-104545107D01*
X108841666Y-104545113D01*
X108832531Y-104614035D01*
X108815996Y-104738789D01*
X108824913Y-104976295D01*
X108833599Y-105017695D01*
X108833600Y-105017699D01*
X108852301Y-105106824D01*
X108873719Y-105208904D01*
X108889258Y-105248252D01*
X108889259Y-105248254D01*
X108898699Y-105272157D01*
X108961020Y-105429963D01*
X109084319Y-105633153D01*
X109086875Y-105636098D01*
X109172648Y-105782921D01*
X109237388Y-105974407D01*
X109262258Y-106175005D01*
X109262500Y-106196988D01*
X109262500Y-116037500D01*
X109281715Y-116232590D01*
X109338620Y-116420183D01*
X109431030Y-116593070D01*
X109555393Y-116744607D01*
X109706930Y-116868970D01*
X109879817Y-116961380D01*
X109926781Y-116975626D01*
X109926783Y-116975627D01*
X110020439Y-117004037D01*
X110020442Y-117004038D01*
X110067410Y-117018285D01*
X110262500Y-117037500D01*
X122243665Y-117037500D01*
X122245346Y-117037671D01*
X122250648Y-117037500D01*
X177243665Y-117037500D01*
X177245346Y-117037671D01*
X177250648Y-117037500D01*
X186262500Y-117037500D01*
X186457590Y-117018285D01*
X186504558Y-117004038D01*
X186504561Y-117004037D01*
X186598217Y-116975627D01*
X186598219Y-116975626D01*
X186645183Y-116961380D01*
X186818070Y-116868970D01*
X186969607Y-116744607D01*
X187093970Y-116593070D01*
X187186380Y-116420183D01*
X187243285Y-116232590D01*
X187262500Y-116037500D01*
X187262500Y-109037500D01*
X187243285Y-108842410D01*
X187186380Y-108654817D01*
X187093970Y-108481930D01*
X186969607Y-108330393D01*
X186818070Y-108206030D01*
X186645183Y-108113620D01*
X186598219Y-108099374D01*
X186598217Y-108099373D01*
X186504561Y-108070963D01*
X186504558Y-108070962D01*
X186457590Y-108056715D01*
X186262500Y-108037500D01*
X184311575Y-108037500D01*
X184213658Y-108032689D01*
X184168063Y-108028199D01*
X183969941Y-107988136D01*
X183783937Y-107909010D01*
X183617668Y-107794063D01*
X183477942Y-107647998D01*
X183370478Y-107476797D01*
X183299677Y-107287468D01*
X183271801Y-107131935D01*
X183267311Y-107086350D01*
X183262500Y-106988425D01*
X183262500Y-104086575D01*
X183267311Y-103988650D01*
X183267621Y-103985509D01*
X183271801Y-103943063D01*
X183311864Y-103744941D01*
X183390990Y-103558937D01*
X183505937Y-103392668D01*
X183652002Y-103252942D01*
X183823203Y-103145478D01*
X184012532Y-103074677D01*
X184168063Y-103046801D01*
X184213658Y-103042311D01*
X184311575Y-103037500D01*
X188261996Y-103037500D01*
X188463093Y-103057950D01*
X188655957Y-103118461D01*
X188832693Y-103216557D01*
X188860670Y-103236755D01*
X188949196Y-103303025D01*
X188980505Y-103320121D01*
X188980508Y-103320123D01*
X189077393Y-103373026D01*
X189137577Y-103405889D01*
X189170998Y-103418355D01*
X189178004Y-103421554D01*
X189352433Y-103523695D01*
X189502731Y-103658858D01*
X189622743Y-103821508D01*
X189707558Y-104004988D01*
X189753703Y-104201785D01*
X189762000Y-104330274D01*
X189762000Y-118493886D01*
X189761719Y-118500311D01*
X189756891Y-118531323D01*
X189759496Y-118551239D01*
X189758198Y-118580955D01*
X189754649Y-118621520D01*
X189716751Y-118820070D01*
X189639660Y-119006926D01*
X189526534Y-119174439D01*
X189382003Y-119315751D01*
X189211984Y-119425077D01*
X189023439Y-119497940D01*
X188846492Y-119529652D01*
X188838992Y-119530308D01*
X188834609Y-119530691D01*
X188781316Y-119531600D01*
X188772099Y-119532424D01*
X188768677Y-119531891D01*
X188757169Y-119533396D01*
X188676342Y-119537000D01*
X178616483Y-119537000D01*
X178415386Y-119516550D01*
X178222522Y-119456039D01*
X178169716Y-119431532D01*
X177590525Y-119141936D01*
X177576480Y-119133468D01*
X177575957Y-119134472D01*
X177542706Y-119117168D01*
X177540112Y-119114877D01*
X177490503Y-119091585D01*
X177468353Y-119080850D01*
X177454185Y-119073766D01*
X177448562Y-119071894D01*
X177410337Y-119053947D01*
X177382528Y-119049617D01*
X177382524Y-119049616D01*
X177381470Y-119049452D01*
X177380747Y-119049315D01*
X177352608Y-119039946D01*
X177310401Y-119038387D01*
X177310460Y-119036795D01*
X177301491Y-119036965D01*
X177301491Y-119037000D01*
X177272837Y-119037000D01*
X177213780Y-119034819D01*
X177209408Y-119034211D01*
X177200061Y-119033865D01*
X177200061Y-119037000D01*
X174378998Y-119037000D01*
X174362639Y-119035699D01*
X174362620Y-119036841D01*
X174325149Y-119036233D01*
X174321801Y-119035343D01*
X174301383Y-119035847D01*
X174301371Y-119035847D01*
X174267007Y-119036696D01*
X174242347Y-119037000D01*
X174226560Y-119037000D01*
X174220698Y-119037839D01*
X174178478Y-119038882D01*
X174151672Y-119047445D01*
X174150661Y-119047768D01*
X174149938Y-119047973D01*
X174120582Y-119052177D01*
X174082135Y-119069658D01*
X174081475Y-119068206D01*
X174073554Y-119072357D01*
X174073570Y-119072389D01*
X174073544Y-119072402D01*
X174047915Y-119085217D01*
X173990072Y-119111516D01*
X173990071Y-119111517D01*
X173990066Y-119111519D01*
X173989881Y-119111113D01*
X173981420Y-119114959D01*
X173982822Y-119117763D01*
X173355282Y-119431533D01*
X173166270Y-119503176D01*
X172966706Y-119535304D01*
X172908516Y-119537000D01*
X123616483Y-119537000D01*
X123415386Y-119516550D01*
X123222522Y-119456039D01*
X123169716Y-119431532D01*
X122590525Y-119141936D01*
X122576480Y-119133468D01*
X122575957Y-119134472D01*
X122542706Y-119117168D01*
X122540112Y-119114877D01*
X122490503Y-119091585D01*
X122468353Y-119080850D01*
X122454185Y-119073766D01*
X122448562Y-119071894D01*
X122410337Y-119053947D01*
X122382528Y-119049617D01*
X122382524Y-119049616D01*
X122381470Y-119049452D01*
X122380747Y-119049315D01*
X122352608Y-119039946D01*
X122310401Y-119038387D01*
X122310460Y-119036795D01*
X122301491Y-119036965D01*
X122301491Y-119037000D01*
X122272837Y-119037000D01*
X122213780Y-119034819D01*
X122209408Y-119034211D01*
X122200061Y-119033865D01*
X122200061Y-119037000D01*
X119378998Y-119037000D01*
X119362639Y-119035699D01*
X119362620Y-119036841D01*
X119325149Y-119036233D01*
X119321801Y-119035343D01*
X119301383Y-119035847D01*
X119301371Y-119035847D01*
X119267007Y-119036696D01*
X119242347Y-119037000D01*
X119226560Y-119037000D01*
X119220698Y-119037839D01*
X119178478Y-119038882D01*
X119151672Y-119047445D01*
X119150661Y-119047768D01*
X119149938Y-119047973D01*
X119120582Y-119052177D01*
X119082135Y-119069658D01*
X119081475Y-119068206D01*
X119073554Y-119072357D01*
X119073570Y-119072389D01*
X119073544Y-119072402D01*
X119047915Y-119085217D01*
X118990072Y-119111516D01*
X118990071Y-119111517D01*
X118990066Y-119111519D01*
X118989881Y-119111113D01*
X118981420Y-119114959D01*
X118982822Y-119117763D01*
X118355282Y-119431533D01*
X118166270Y-119503176D01*
X117966706Y-119535304D01*
X117908516Y-119537000D01*
X107806114Y-119537000D01*
X107799689Y-119536719D01*
X107768677Y-119531891D01*
X107748762Y-119534495D01*
X107719033Y-119533197D01*
X107704104Y-119531891D01*
X107678997Y-119529694D01*
X107480448Y-119491792D01*
X107293593Y-119414699D01*
X107126082Y-119301570D01*
X106984772Y-119157036D01*
X106875449Y-118987016D01*
X106802589Y-118798470D01*
X106769192Y-118599396D01*
X106766533Y-118558550D01*
X106767996Y-118549854D01*
X106768147Y-118537500D01*
X106764252Y-118510302D01*
X106763000Y-118471795D01*
X106763000Y-92036500D01*
X106783450Y-91835403D01*
X106843961Y-91642539D01*
X106942057Y-91465803D01*
X107073722Y-91312432D01*
X107233565Y-91188704D01*
X107415042Y-91099686D01*
X107610724Y-91049020D01*
X107762000Y-91037500D01*
X112213425Y-91037500D01*
X112311342Y-91042311D01*
G37*
G04 #@! TD.AperFunction*
M02*
