G04 #@! TF.GenerationSoftware,KiCad,Pcbnew,6.0.11+dfsg-1*
G04 #@! TF.ProjectId,project,70726f6a-6563-4742-9e6b-696361645f70,rev?*
G04 #@! TF.SameCoordinates,Original*
G04 #@! TF.FileFunction,Paste,Bot*
G04 #@! TF.FilePolarity,Positive*
%FSLAX46Y46*%
G04 Gerber Fmt 4.6, Leading zero omitted, Abs format (unit mm)*
%MOMM*%
%LPD*%
G01*
G04 APERTURE LIST*
G04 #@! TA.AperFunction,Profile*
%ADD10C,0.100000*%
G04 #@! TD*
G04 APERTURE END LIST*
D10*
X122262500Y-119537500D02*
X119262500Y-119537500D01*
X174262500Y-79537500D02*
X177262500Y-79537500D01*
X152262500Y-116037500D02*
G75*
G03*
X152262500Y-112037500I0J2000000D01*
G01*
X119262500Y-79537500D02*
X118262500Y-79037500D01*
X107762500Y-79037500D02*
X118262500Y-79037500D01*
X174262500Y-79537500D02*
X173262500Y-79037500D01*
X118262500Y-120037500D02*
X107762500Y-120037500D01*
X188762500Y-120037500D02*
X178262500Y-120037500D01*
X119262500Y-119537500D02*
X118262500Y-120037500D01*
X177262500Y-119537500D02*
X174262500Y-119537500D01*
X188762500Y-120037500D02*
G75*
G03*
X190262500Y-118537500I0J1500000D01*
G01*
X177262500Y-119537500D02*
X178262500Y-120037500D01*
X122262500Y-119537500D02*
X123262500Y-120037500D01*
X106262500Y-118537500D02*
X106262500Y-80537500D01*
X190262500Y-80537500D02*
X190262500Y-118537500D01*
X107762500Y-79037500D02*
G75*
G03*
X106262500Y-80537500I0J-1500000D01*
G01*
X177262500Y-79537500D02*
X178262500Y-79037500D01*
X178262500Y-79037500D02*
X188762500Y-79037500D01*
X119262500Y-79537500D02*
X122262500Y-79537500D01*
X173262500Y-79037500D02*
X123262500Y-79037500D01*
X152262500Y-116037500D02*
X134262500Y-116037500D01*
X123262500Y-120037500D02*
X173262500Y-120037500D01*
X106262500Y-118537500D02*
G75*
G03*
X107762500Y-120037500I1500000J0D01*
G01*
X134262500Y-112037500D02*
X152262500Y-112037500D01*
X122262500Y-79537500D02*
X123262500Y-79037500D01*
X174262500Y-119537500D02*
X173262500Y-120037500D01*
X134262500Y-112037500D02*
G75*
G03*
X134262500Y-116037500I0J-2000000D01*
G01*
X190262500Y-80537500D02*
G75*
G03*
X188762500Y-79037500I-1500000J0D01*
G01*
M02*
