G04 #@! TF.GenerationSoftware,KiCad,Pcbnew,6.0.11+dfsg-1*
G04 #@! TF.ProjectId,project,70726f6a-6563-4742-9e6b-696361645f70,rev?*
G04 #@! TF.SameCoordinates,Original*
G04 #@! TF.FileFunction,Copper,L3,Inr*
G04 #@! TF.FilePolarity,Positive*
%FSLAX46Y46*%
G04 Gerber Fmt 4.6, Leading zero omitted, Abs format (unit mm)*
%MOMM*%
%LPD*%
G01*
G04 APERTURE LIST*
G04 #@! TA.AperFunction,Profile*
%ADD10C,0.100000*%
G04 #@! TD*
G04 #@! TA.AperFunction,ComponentPad*
%ADD11O,3.600000X1.800000*%
G04 #@! TD*
G04 #@! TA.AperFunction,ComponentPad*
%ADD12C,6.400000*%
G04 #@! TD*
G04 #@! TA.AperFunction,ComponentPad*
%ADD13C,0.900000*%
G04 #@! TD*
G04 #@! TA.AperFunction,ComponentPad*
%ADD14R,1.700000X1.700000*%
G04 #@! TD*
G04 #@! TA.AperFunction,ComponentPad*
%ADD15O,1.700000X1.700000*%
G04 #@! TD*
G04 #@! TA.AperFunction,ViaPad*
%ADD16C,0.700000*%
G04 #@! TD*
G04 APERTURE END LIST*
D10*
X122262500Y-119537500D02*
X119262500Y-119537500D01*
X174262500Y-79537500D02*
X177262500Y-79537500D01*
X152262500Y-116037500D02*
G75*
G03*
X152262500Y-112037500I0J2000000D01*
G01*
X119262500Y-79537500D02*
X118262500Y-79037500D01*
X107762500Y-79037500D02*
X118262500Y-79037500D01*
X174262500Y-79537500D02*
X173262500Y-79037500D01*
X118262500Y-120037500D02*
X107762500Y-120037500D01*
X188762500Y-120037500D02*
X178262500Y-120037500D01*
X119262500Y-119537500D02*
X118262500Y-120037500D01*
X177262500Y-119537500D02*
X174262500Y-119537500D01*
X188762500Y-120037500D02*
G75*
G03*
X190262500Y-118537500I0J1500000D01*
G01*
X177262500Y-119537500D02*
X178262500Y-120037500D01*
X122262500Y-119537500D02*
X123262500Y-120037500D01*
X106262500Y-118537500D02*
X106262500Y-80537500D01*
X190262500Y-80537500D02*
X190262500Y-118537500D01*
X107762500Y-79037500D02*
G75*
G03*
X106262500Y-80537500I0J-1500000D01*
G01*
X177262500Y-79537500D02*
X178262500Y-79037500D01*
X178262500Y-79037500D02*
X188762500Y-79037500D01*
X119262500Y-79537500D02*
X122262500Y-79537500D01*
X173262500Y-79037500D02*
X123262500Y-79037500D01*
X152262500Y-116037500D02*
X134262500Y-116037500D01*
X123262500Y-120037500D02*
X173262500Y-120037500D01*
X106262500Y-118537500D02*
G75*
G03*
X107762500Y-120037500I1500000J0D01*
G01*
X134262500Y-112037500D02*
X152262500Y-112037500D01*
X122262500Y-79537500D02*
X123262500Y-79037500D01*
X174262500Y-119537500D02*
X173262500Y-120037500D01*
X134262500Y-112037500D02*
G75*
G03*
X134262500Y-116037500I0J-2000000D01*
G01*
X190262500Y-80537500D02*
G75*
G03*
X188762500Y-79037500I-1500000J0D01*
G01*
G04 #@! TA.AperFunction,ComponentPad*
G36*
G01*
X153287500Y-80977500D02*
X153287500Y-82237500D01*
G75*
G02*
X153217500Y-82307500I-70000J0D01*
G01*
X151757500Y-82307500D01*
G75*
G02*
X151687500Y-82237500I0J70000D01*
G01*
X151687500Y-80977500D01*
G75*
G02*
X151757500Y-80907500I70000J0D01*
G01*
X153217500Y-80907500D01*
G75*
G02*
X153287500Y-80977500I0J-70000D01*
G01*
G37*
G04 #@! TD.AperFunction*
G04 #@! TA.AperFunction,ComponentPad*
G36*
G01*
X144862500Y-80952500D02*
X144862500Y-82122500D01*
G75*
G02*
X144797500Y-82187500I-65000J0D01*
G01*
X142227500Y-82187500D01*
G75*
G02*
X142162500Y-82122500I0J65000D01*
G01*
X142162500Y-80952500D01*
G75*
G02*
X142227500Y-80887500I65000J0D01*
G01*
X144797500Y-80887500D01*
G75*
G02*
X144862500Y-80952500I0J-65000D01*
G01*
G37*
G04 #@! TD.AperFunction*
G04 #@! TA.AperFunction,ComponentPad*
G36*
G01*
X154362500Y-83952500D02*
X154362500Y-85122500D01*
G75*
G02*
X154297500Y-85187500I-65000J0D01*
G01*
X151727500Y-85187500D01*
G75*
G02*
X151662500Y-85122500I0J65000D01*
G01*
X151662500Y-83952500D01*
G75*
G02*
X151727500Y-83887500I65000J0D01*
G01*
X154297500Y-83887500D01*
G75*
G02*
X154362500Y-83952500I0J-65000D01*
G01*
G37*
G04 #@! TD.AperFunction*
G04 #@! TA.AperFunction,ComponentPad*
G36*
G01*
X144837500Y-83837500D02*
X144837500Y-85097500D01*
G75*
G02*
X144767500Y-85167500I-70000J0D01*
G01*
X143307500Y-85167500D01*
G75*
G02*
X143237500Y-85097500I0J70000D01*
G01*
X143237500Y-83837500D01*
G75*
G02*
X143307500Y-83767500I70000J0D01*
G01*
X144767500Y-83767500D01*
G75*
G02*
X144837500Y-83837500I0J-70000D01*
G01*
G37*
G04 #@! TD.AperFunction*
G04 #@! TA.AperFunction,ComponentPad*
G36*
G01*
X186955000Y-105670000D02*
X183855000Y-105670000D01*
G75*
G02*
X183605000Y-105420000I0J250000D01*
G01*
X183605000Y-104120000D01*
G75*
G02*
X183855000Y-103870000I250000J0D01*
G01*
X186955000Y-103870000D01*
G75*
G02*
X187205000Y-104120000I0J-250000D01*
G01*
X187205000Y-105420000D01*
G75*
G02*
X186955000Y-105670000I-250000J0D01*
G01*
G37*
G04 #@! TD.AperFunction*
D11*
X185405000Y-101270000D03*
X185405000Y-97770000D03*
X185405000Y-94270000D03*
D12*
X133262500Y-100537500D03*
D13*
X131565444Y-98840444D03*
X130862500Y-100537500D03*
X133262500Y-98137500D03*
X133262500Y-102937500D03*
X134959556Y-98840444D03*
X134959556Y-102234556D03*
X135662500Y-100537500D03*
X131565444Y-102234556D03*
X163262500Y-102937500D03*
X161565444Y-98840444D03*
X160862500Y-100537500D03*
X163262500Y-98137500D03*
X165662500Y-100537500D03*
X164959556Y-98840444D03*
X164959556Y-102234556D03*
X161565444Y-102234556D03*
D12*
X163262500Y-100537500D03*
G04 #@! TA.AperFunction,ComponentPad*
G36*
G01*
X109570000Y-93405000D02*
X112670000Y-93405000D01*
G75*
G02*
X112920000Y-93655000I0J-250000D01*
G01*
X112920000Y-94955000D01*
G75*
G02*
X112670000Y-95205000I-250000J0D01*
G01*
X109570000Y-95205000D01*
G75*
G02*
X109320000Y-94955000I0J250000D01*
G01*
X109320000Y-93655000D01*
G75*
G02*
X109570000Y-93405000I250000J0D01*
G01*
G37*
G04 #@! TD.AperFunction*
D11*
X111120000Y-97805000D03*
X111120000Y-101305000D03*
X111120000Y-104805000D03*
D14*
X168400000Y-104575000D03*
D15*
X168400000Y-107115000D03*
X168400000Y-109655000D03*
D14*
X155600000Y-108575000D03*
D15*
X155600000Y-111115000D03*
X155600000Y-113655000D03*
D14*
X125037500Y-109960000D03*
D15*
X125037500Y-112500000D03*
X125037500Y-115040000D03*
D14*
X175200000Y-98360000D03*
D15*
X175200000Y-100900000D03*
X175200000Y-103440000D03*
D16*
X126462500Y-92137500D03*
X119248958Y-88950500D03*
X123050500Y-93537500D03*
X118118500Y-90893500D03*
X155262500Y-88337500D03*
X168600000Y-111300000D03*
X170600000Y-112900000D03*
X120000000Y-111500000D03*
X124762500Y-90537500D03*
X154462500Y-87137500D03*
X117100000Y-86500000D03*
X120262500Y-116037500D03*
X145262500Y-106737500D03*
X125262500Y-91037500D03*
X126937500Y-111962500D03*
X173000000Y-115500000D03*
X142662500Y-104537500D03*
X157262500Y-80337500D03*
X137762500Y-97037500D03*
X148262500Y-87837500D03*
X163262500Y-80337500D03*
X142662500Y-106737500D03*
X126232500Y-101537500D03*
X163262500Y-81137500D03*
X189262500Y-102037500D03*
X170775000Y-114875000D03*
X122762500Y-89037500D03*
X126772452Y-81542654D03*
X189262500Y-91037500D03*
X183662500Y-114537500D03*
X117262500Y-81737500D03*
X121462500Y-94337500D03*
X162600000Y-114500000D03*
X140262500Y-89737500D03*
X123762500Y-90537500D03*
X122262500Y-83037500D03*
X139262500Y-80537500D03*
X144262500Y-87737500D03*
X133262500Y-80337500D03*
X110262500Y-115037500D03*
X108262500Y-80037500D03*
X166800000Y-111300000D03*
X154462500Y-86537500D03*
X121462500Y-94937500D03*
X139262500Y-81137500D03*
X158100000Y-115000000D03*
X168600000Y-112700000D03*
X150462500Y-106737500D03*
X161100000Y-109500000D03*
X116200000Y-87400000D03*
X144262500Y-86137500D03*
X123762500Y-89037500D03*
X157262500Y-81137500D03*
X120262500Y-81737500D03*
X163600000Y-106500000D03*
X135000000Y-107500000D03*
X123262500Y-88537500D03*
X133262500Y-81137500D03*
X179262500Y-80037500D03*
X122861604Y-81037318D03*
X158100000Y-116075000D03*
X136262500Y-80037500D03*
X178100000Y-110500000D03*
X155262500Y-86737500D03*
X130862500Y-87737500D03*
X141262500Y-89737500D03*
X145262500Y-104537500D03*
X129000000Y-107500000D03*
X123262500Y-91037500D03*
X178100000Y-108500000D03*
X128937500Y-111962500D03*
X109262500Y-90037500D03*
X127937500Y-112962500D03*
X107262500Y-90037500D03*
X126834776Y-80018140D03*
X119262500Y-81737500D03*
X118000000Y-109500000D03*
X162100000Y-109500000D03*
X148662500Y-106737500D03*
X122861589Y-82038152D03*
X164600000Y-106500000D03*
X120000000Y-113500000D03*
X157100000Y-115000000D03*
X118262500Y-81737500D03*
X177100000Y-108500000D03*
X122996588Y-85782344D03*
X141062500Y-106737500D03*
X137262500Y-82037500D03*
X150462500Y-104537500D03*
X157100000Y-116075000D03*
X124762500Y-89037500D03*
X177862500Y-114537500D03*
X175000000Y-115500000D03*
X117962500Y-87437500D03*
X170972500Y-85402500D03*
X165600000Y-106075000D03*
X125432500Y-101537500D03*
X127462500Y-89137500D03*
X129062500Y-87937500D03*
X135262500Y-89537500D03*
X162600000Y-106575000D03*
X166800000Y-112300000D03*
X124262500Y-91037500D03*
X177100000Y-110500000D03*
X120000000Y-106500000D03*
X107262500Y-81037500D03*
X116000000Y-107500000D03*
X110262500Y-107037500D03*
X175937500Y-84237500D03*
X122762500Y-90537500D03*
X178100000Y-112500000D03*
X189262500Y-83037500D03*
X121000000Y-107500000D03*
X124262500Y-88537500D03*
X148662500Y-104537500D03*
X171262500Y-82037500D03*
X129462500Y-89137500D03*
X111262500Y-116037500D03*
X117100000Y-88500000D03*
X127937500Y-111962500D03*
X177000000Y-115500000D03*
X143662500Y-104537500D03*
X141062500Y-104537500D03*
X143662500Y-106737500D03*
X125262500Y-88537500D03*
X122437500Y-108962500D03*
X181262500Y-83037500D03*
X156462500Y-103137500D03*
X151262500Y-102737500D03*
X120648673Y-91349500D03*
X128574500Y-92849500D03*
X125710403Y-93589597D03*
X127661780Y-92526024D03*
X150762500Y-82937500D03*
X145762500Y-82937500D03*
X151062500Y-109537500D03*
X133262500Y-108537500D03*
X159262500Y-102537500D03*
X115963000Y-101537500D03*
X158262500Y-102137500D03*
X115797168Y-102602832D03*
X149597168Y-109802832D03*
X132060230Y-108542039D03*
X134262500Y-89737500D03*
X136862500Y-98237000D03*
X135862500Y-96537500D03*
X140112250Y-96987250D03*
X136662500Y-89737500D03*
X138662500Y-92737500D03*
X146817878Y-82992878D03*
X145800000Y-85902832D03*
X148862500Y-85637500D03*
X147762500Y-83037500D03*
X148762500Y-83037500D03*
X147867878Y-85642878D03*
X159600000Y-111000000D03*
X158600000Y-110000000D03*
X159557894Y-110009265D03*
G04 #@! TA.AperFunction,Conductor*
G36*
X118233580Y-79359009D02*
G01*
X118670065Y-79577252D01*
X119089255Y-79786847D01*
X119089587Y-79787034D01*
X119099146Y-79795901D01*
X119116208Y-79802708D01*
X119116211Y-79802710D01*
X119132040Y-79809025D01*
X119142811Y-79813856D01*
X119144909Y-79814674D01*
X119153110Y-79818774D01*
X119161925Y-79821304D01*
X119169313Y-79824183D01*
X119174374Y-79825914D01*
X119190075Y-79832178D01*
X119190077Y-79832178D01*
X119203122Y-79837383D01*
X119209415Y-79838000D01*
X119219324Y-79838000D01*
X119220244Y-79838044D01*
X119233385Y-79841816D01*
X119251682Y-79840188D01*
X119251684Y-79840188D01*
X119267470Y-79838783D01*
X119285108Y-79838000D01*
X122219055Y-79838000D01*
X122219438Y-79838019D01*
X122231952Y-79841675D01*
X122250258Y-79840133D01*
X122250260Y-79840133D01*
X122267244Y-79838702D01*
X122279062Y-79838205D01*
X122281283Y-79838000D01*
X122290448Y-79838000D01*
X122299455Y-79836323D01*
X122307309Y-79835598D01*
X122312640Y-79834878D01*
X122343502Y-79832278D01*
X122349407Y-79830016D01*
X122353753Y-79827843D01*
X122353762Y-79827839D01*
X122358289Y-79825576D01*
X122359113Y-79825212D01*
X122372553Y-79822709D01*
X122388194Y-79813068D01*
X122388196Y-79813067D01*
X122401670Y-79804761D01*
X122417095Y-79796172D01*
X123291421Y-79359009D01*
X123380417Y-79338000D01*
X173144584Y-79338000D01*
X173233580Y-79359009D01*
X173670065Y-79577252D01*
X174089255Y-79786847D01*
X174089587Y-79787034D01*
X174099146Y-79795901D01*
X174116208Y-79802708D01*
X174116211Y-79802710D01*
X174132040Y-79809025D01*
X174142811Y-79813856D01*
X174144909Y-79814674D01*
X174153110Y-79818774D01*
X174161925Y-79821304D01*
X174169313Y-79824183D01*
X174174374Y-79825914D01*
X174190075Y-79832178D01*
X174190077Y-79832178D01*
X174203122Y-79837383D01*
X174209415Y-79838000D01*
X174219324Y-79838000D01*
X174220244Y-79838044D01*
X174233385Y-79841816D01*
X174251682Y-79840188D01*
X174251684Y-79840188D01*
X174267470Y-79838783D01*
X174285108Y-79838000D01*
X177219055Y-79838000D01*
X177219438Y-79838019D01*
X177231952Y-79841675D01*
X177250258Y-79840133D01*
X177250260Y-79840133D01*
X177267244Y-79838702D01*
X177279062Y-79838205D01*
X177281283Y-79838000D01*
X177290448Y-79838000D01*
X177299455Y-79836323D01*
X177307309Y-79835598D01*
X177312640Y-79834878D01*
X177343502Y-79832278D01*
X177349407Y-79830016D01*
X177353753Y-79827843D01*
X177353762Y-79827839D01*
X177358289Y-79825576D01*
X177359113Y-79825212D01*
X177372553Y-79822709D01*
X177388194Y-79813068D01*
X177388196Y-79813067D01*
X177401670Y-79804761D01*
X177417095Y-79796172D01*
X178291421Y-79359009D01*
X178380417Y-79338000D01*
X188718796Y-79338000D01*
X188737234Y-79339613D01*
X188745356Y-79339613D01*
X188762500Y-79342636D01*
X188778830Y-79339757D01*
X188790779Y-79340226D01*
X188934531Y-79351539D01*
X188965372Y-79356425D01*
X189117940Y-79393054D01*
X189147638Y-79402703D01*
X189292595Y-79462746D01*
X189320417Y-79476922D01*
X189454198Y-79558903D01*
X189479449Y-79577249D01*
X189598772Y-79679159D01*
X189620841Y-79701228D01*
X189722751Y-79820551D01*
X189741097Y-79845802D01*
X189819146Y-79973166D01*
X189823078Y-79979583D01*
X189837254Y-80007405D01*
X189897297Y-80152362D01*
X189906946Y-80182060D01*
X189943575Y-80334628D01*
X189948461Y-80365471D01*
X189959774Y-80509220D01*
X189960243Y-80521170D01*
X189957364Y-80537500D01*
X189960387Y-80554644D01*
X189960387Y-80562766D01*
X189962000Y-80581204D01*
X189962000Y-118493796D01*
X189960387Y-118512234D01*
X189960387Y-118520356D01*
X189957364Y-118537500D01*
X189960243Y-118553830D01*
X189959774Y-118565780D01*
X189948461Y-118709529D01*
X189943575Y-118740372D01*
X189906946Y-118892940D01*
X189897297Y-118922638D01*
X189837254Y-119067595D01*
X189823078Y-119095417D01*
X189741097Y-119229198D01*
X189722751Y-119254449D01*
X189620841Y-119373772D01*
X189598772Y-119395841D01*
X189488734Y-119489822D01*
X189410279Y-119530911D01*
X189359495Y-119537500D01*
X177981416Y-119537500D01*
X177892420Y-119516491D01*
X177875271Y-119507916D01*
X177435745Y-119288153D01*
X177435413Y-119287966D01*
X177425854Y-119279099D01*
X177408792Y-119272292D01*
X177408789Y-119272290D01*
X177392960Y-119265975D01*
X177382189Y-119261144D01*
X177380091Y-119260326D01*
X177371890Y-119256226D01*
X177363075Y-119253696D01*
X177355687Y-119250817D01*
X177350626Y-119249086D01*
X177334925Y-119242822D01*
X177334923Y-119242822D01*
X177321878Y-119237617D01*
X177315585Y-119237000D01*
X177305676Y-119237000D01*
X177304756Y-119236956D01*
X177291615Y-119233184D01*
X177273318Y-119234812D01*
X177273316Y-119234812D01*
X177257530Y-119236217D01*
X177239892Y-119237000D01*
X174305945Y-119237000D01*
X174305562Y-119236981D01*
X174293048Y-119233325D01*
X174274742Y-119234867D01*
X174274740Y-119234867D01*
X174257756Y-119236298D01*
X174245938Y-119236795D01*
X174243717Y-119237000D01*
X174234552Y-119237000D01*
X174225545Y-119238677D01*
X174217691Y-119239402D01*
X174212360Y-119240122D01*
X174181498Y-119242722D01*
X174175593Y-119244984D01*
X174171247Y-119247157D01*
X174171238Y-119247161D01*
X174166711Y-119249424D01*
X174165887Y-119249788D01*
X174152447Y-119252291D01*
X174136806Y-119261932D01*
X174136804Y-119261933D01*
X174123330Y-119270239D01*
X174107905Y-119278828D01*
X173632579Y-119516491D01*
X173543583Y-119537500D01*
X122981416Y-119537500D01*
X122892420Y-119516491D01*
X122875271Y-119507916D01*
X122435745Y-119288153D01*
X122435413Y-119287966D01*
X122425854Y-119279099D01*
X122408792Y-119272292D01*
X122408789Y-119272290D01*
X122392960Y-119265975D01*
X122382189Y-119261144D01*
X122380091Y-119260326D01*
X122371890Y-119256226D01*
X122363075Y-119253696D01*
X122355687Y-119250817D01*
X122350626Y-119249086D01*
X122334925Y-119242822D01*
X122334923Y-119242822D01*
X122321878Y-119237617D01*
X122315585Y-119237000D01*
X122305676Y-119237000D01*
X122304756Y-119236956D01*
X122291615Y-119233184D01*
X122273318Y-119234812D01*
X122273316Y-119234812D01*
X122257530Y-119236217D01*
X122239892Y-119237000D01*
X119305945Y-119237000D01*
X119305562Y-119236981D01*
X119293048Y-119233325D01*
X119274742Y-119234867D01*
X119274740Y-119234867D01*
X119257756Y-119236298D01*
X119245938Y-119236795D01*
X119243717Y-119237000D01*
X119234552Y-119237000D01*
X119225545Y-119238677D01*
X119217691Y-119239402D01*
X119212360Y-119240122D01*
X119181498Y-119242722D01*
X119175593Y-119244984D01*
X119171247Y-119247157D01*
X119171238Y-119247161D01*
X119166711Y-119249424D01*
X119165887Y-119249788D01*
X119152447Y-119252291D01*
X119136806Y-119261932D01*
X119136804Y-119261933D01*
X119123330Y-119270239D01*
X119107905Y-119278828D01*
X118632579Y-119516491D01*
X118543583Y-119537500D01*
X107165505Y-119537500D01*
X107079162Y-119517793D01*
X107036266Y-119489822D01*
X106926228Y-119395841D01*
X106904159Y-119373772D01*
X106802249Y-119254449D01*
X106783903Y-119229198D01*
X106701922Y-119095417D01*
X106687746Y-119067595D01*
X106627703Y-118922638D01*
X106618054Y-118892940D01*
X106581425Y-118740372D01*
X106576539Y-118709529D01*
X106565226Y-118565780D01*
X106564757Y-118553830D01*
X106567636Y-118537500D01*
X106564613Y-118520356D01*
X106564613Y-118512234D01*
X106563000Y-118493796D01*
X106563000Y-115009754D01*
X123882467Y-115009754D01*
X123896296Y-115220749D01*
X123898540Y-115229586D01*
X123898541Y-115229590D01*
X123918895Y-115309730D01*
X123948345Y-115425690D01*
X124036869Y-115617714D01*
X124042132Y-115625161D01*
X124153637Y-115782938D01*
X124153641Y-115782943D01*
X124158905Y-115790391D01*
X124310365Y-115937937D01*
X124317950Y-115943005D01*
X124317951Y-115943006D01*
X124398271Y-115996674D01*
X124486177Y-116055411D01*
X124494556Y-116059011D01*
X124494558Y-116059012D01*
X124563768Y-116088746D01*
X124680453Y-116138878D01*
X124689342Y-116140889D01*
X124689347Y-116140891D01*
X124877789Y-116183531D01*
X124877791Y-116183531D01*
X124886686Y-116185544D01*
X125097970Y-116193846D01*
X125307230Y-116163504D01*
X125315872Y-116160571D01*
X125315874Y-116160570D01*
X125498816Y-116098470D01*
X125498820Y-116098468D01*
X125507455Y-116095537D01*
X125515412Y-116091081D01*
X125683988Y-115996674D01*
X125683992Y-115996671D01*
X125691942Y-115992219D01*
X125854512Y-115857012D01*
X125989719Y-115694442D01*
X125994171Y-115686492D01*
X125994174Y-115686488D01*
X126088581Y-115517912D01*
X126088582Y-115517911D01*
X126093037Y-115509955D01*
X126124643Y-115416848D01*
X126158070Y-115318374D01*
X126158071Y-115318372D01*
X126161004Y-115309730D01*
X126191346Y-115100470D01*
X126192929Y-115040000D01*
X126173581Y-114829440D01*
X126152759Y-114755609D01*
X126118661Y-114634706D01*
X126118660Y-114634704D01*
X126116186Y-114625931D01*
X126022665Y-114436290D01*
X125896151Y-114266867D01*
X125889455Y-114260677D01*
X125889452Y-114260674D01*
X125811298Y-114188430D01*
X125804596Y-114182235D01*
X131962000Y-114182235D01*
X131998281Y-114469423D01*
X132070269Y-114749799D01*
X132072567Y-114755604D01*
X132072569Y-114755609D01*
X132093641Y-114808830D01*
X132176830Y-115018942D01*
X132179836Y-115024410D01*
X132179838Y-115024414D01*
X132313274Y-115267132D01*
X132313279Y-115267139D01*
X132316284Y-115272606D01*
X132319951Y-115277654D01*
X132319956Y-115277661D01*
X132482754Y-115501734D01*
X132486430Y-115506793D01*
X132490710Y-115511350D01*
X132490711Y-115511352D01*
X132680309Y-115713254D01*
X132680313Y-115713258D01*
X132684586Y-115717808D01*
X132907627Y-115902323D01*
X133152035Y-116057429D01*
X133157685Y-116060088D01*
X133157691Y-116060091D01*
X133408295Y-116178016D01*
X133408300Y-116178018D01*
X133413955Y-116180679D01*
X133419906Y-116182613D01*
X133419907Y-116182613D01*
X133683311Y-116268199D01*
X133683316Y-116268200D01*
X133689258Y-116270131D01*
X133695398Y-116271302D01*
X133695401Y-116271303D01*
X133967455Y-116323200D01*
X133967461Y-116323201D01*
X133973601Y-116324372D01*
X133979846Y-116324765D01*
X133979847Y-116324765D01*
X134000717Y-116326078D01*
X134261724Y-116342499D01*
X134262500Y-116342636D01*
X134279656Y-116339611D01*
X134287780Y-116339612D01*
X134306204Y-116338000D01*
X152218796Y-116338000D01*
X152237220Y-116339612D01*
X152245344Y-116339611D01*
X152262500Y-116342636D01*
X152263276Y-116342499D01*
X152282864Y-116341267D01*
X152282865Y-116341267D01*
X152545153Y-116324765D01*
X152545154Y-116324765D01*
X152551399Y-116324372D01*
X152557539Y-116323201D01*
X152557545Y-116323200D01*
X152829599Y-116271303D01*
X152829602Y-116271302D01*
X152835742Y-116270131D01*
X152841684Y-116268200D01*
X152841689Y-116268199D01*
X153105093Y-116182613D01*
X153105094Y-116182613D01*
X153111045Y-116180679D01*
X153116700Y-116178018D01*
X153116705Y-116178016D01*
X153367309Y-116060091D01*
X153367315Y-116060088D01*
X153372965Y-116057429D01*
X153617373Y-115902323D01*
X153840414Y-115717808D01*
X153844687Y-115713258D01*
X153844691Y-115713254D01*
X154034289Y-115511352D01*
X154034290Y-115511350D01*
X154038570Y-115506793D01*
X154042246Y-115501734D01*
X154205044Y-115277661D01*
X154205049Y-115277654D01*
X154208716Y-115272606D01*
X154211721Y-115267139D01*
X154211726Y-115267132D01*
X154345162Y-115024414D01*
X154345164Y-115024410D01*
X154348170Y-115018942D01*
X154431359Y-114808830D01*
X154452431Y-114755609D01*
X154452433Y-114755604D01*
X154454731Y-114749799D01*
X154493363Y-114599335D01*
X154533923Y-114520607D01*
X154604626Y-114467273D01*
X154691469Y-114449897D01*
X154777250Y-114471922D01*
X154824971Y-114506281D01*
X154872865Y-114552937D01*
X154880450Y-114558005D01*
X154880451Y-114558006D01*
X154960771Y-114611674D01*
X155048677Y-114670411D01*
X155057056Y-114674011D01*
X155057058Y-114674012D01*
X155126268Y-114703746D01*
X155242953Y-114753878D01*
X155251842Y-114755889D01*
X155251847Y-114755891D01*
X155440289Y-114798531D01*
X155440291Y-114798531D01*
X155449186Y-114800544D01*
X155660470Y-114808846D01*
X155869730Y-114778504D01*
X155878372Y-114775571D01*
X155878374Y-114775570D01*
X156061316Y-114713470D01*
X156061320Y-114713468D01*
X156069955Y-114710537D01*
X156141605Y-114670411D01*
X156246488Y-114611674D01*
X156246492Y-114611671D01*
X156254442Y-114607219D01*
X156417012Y-114472012D01*
X156552219Y-114309442D01*
X156556671Y-114301492D01*
X156556674Y-114301488D01*
X156651081Y-114132912D01*
X156651082Y-114132911D01*
X156655537Y-114124955D01*
X156660188Y-114111256D01*
X156720570Y-113933374D01*
X156720571Y-113933372D01*
X156723504Y-113924730D01*
X156740557Y-113807119D01*
X156753007Y-113721259D01*
X156753008Y-113721253D01*
X156753846Y-113715470D01*
X156755429Y-113655000D01*
X156750888Y-113605577D01*
X156736916Y-113453525D01*
X156736916Y-113453523D01*
X156736081Y-113444440D01*
X156678686Y-113240931D01*
X156585165Y-113051290D01*
X156458651Y-112881867D01*
X156451955Y-112875677D01*
X156451952Y-112875674D01*
X156378599Y-112807868D01*
X156303381Y-112738337D01*
X156124554Y-112625505D01*
X156083106Y-112608969D01*
X155984324Y-112569559D01*
X155911430Y-112519260D01*
X155867579Y-112442315D01*
X155861456Y-112353964D01*
X155894274Y-112271705D01*
X155959532Y-112211832D01*
X155994098Y-112196287D01*
X156061316Y-112173470D01*
X156061320Y-112173468D01*
X156069955Y-112170537D01*
X156077912Y-112166081D01*
X156246488Y-112071674D01*
X156246492Y-112071671D01*
X156254442Y-112067219D01*
X156417012Y-111932012D01*
X156552219Y-111769442D01*
X156556671Y-111761492D01*
X156556674Y-111761488D01*
X156651081Y-111592912D01*
X156651082Y-111592911D01*
X156655537Y-111584955D01*
X156660188Y-111571256D01*
X156720570Y-111393374D01*
X156720571Y-111393372D01*
X156723504Y-111384730D01*
X156753846Y-111175470D01*
X156755429Y-111115000D01*
X156736081Y-110904440D01*
X156694186Y-110755891D01*
X156681161Y-110709706D01*
X156681160Y-110709704D01*
X156678686Y-110700931D01*
X156585165Y-110511290D01*
X156458651Y-110341867D01*
X156451955Y-110335677D01*
X156451952Y-110335674D01*
X156390130Y-110278527D01*
X156303381Y-110198337D01*
X156124554Y-110085505D01*
X156116077Y-110082123D01*
X156116075Y-110082122D01*
X155967853Y-110022988D01*
X155928160Y-110007152D01*
X155857706Y-109993138D01*
X157944758Y-109993138D01*
X157962035Y-110149633D01*
X158016143Y-110297490D01*
X158022834Y-110307448D01*
X158022835Y-110307449D01*
X158045270Y-110340835D01*
X158103958Y-110428172D01*
X158220410Y-110534135D01*
X158358776Y-110609262D01*
X158370385Y-110612307D01*
X158370386Y-110612308D01*
X158499460Y-110646170D01*
X158499464Y-110646171D01*
X158511069Y-110649215D01*
X158523065Y-110649403D01*
X158523069Y-110649404D01*
X158590863Y-110650468D01*
X158668495Y-110651688D01*
X158680191Y-110649009D01*
X158680194Y-110649009D01*
X158710854Y-110641987D01*
X158720602Y-110639754D01*
X158809164Y-110639687D01*
X158888986Y-110678053D01*
X158944256Y-110747254D01*
X158964028Y-110833582D01*
X158962325Y-110859703D01*
X158944758Y-110993138D01*
X158962035Y-111149633D01*
X159016143Y-111297490D01*
X159103958Y-111428172D01*
X159220410Y-111534135D01*
X159358776Y-111609262D01*
X159370385Y-111612307D01*
X159370386Y-111612308D01*
X159499460Y-111646170D01*
X159499464Y-111646171D01*
X159511069Y-111649215D01*
X159523065Y-111649403D01*
X159523069Y-111649404D01*
X159590863Y-111650468D01*
X159668495Y-111651688D01*
X159680191Y-111649009D01*
X159680194Y-111649009D01*
X159810268Y-111619218D01*
X159810271Y-111619217D01*
X159821968Y-111616538D01*
X159962625Y-111545795D01*
X160045076Y-111475375D01*
X160073225Y-111451334D01*
X160073226Y-111451333D01*
X160082348Y-111443542D01*
X160093393Y-111428172D01*
X160167225Y-111325423D01*
X160174224Y-111315683D01*
X160214353Y-111215858D01*
X160228474Y-111180733D01*
X160228475Y-111180731D01*
X160232950Y-111169598D01*
X160235792Y-111149633D01*
X160254216Y-111020173D01*
X160255134Y-111013723D01*
X160255278Y-111000000D01*
X160236363Y-110843694D01*
X160232123Y-110832473D01*
X160232122Y-110832469D01*
X160184950Y-110707633D01*
X160180710Y-110696412D01*
X160173918Y-110686529D01*
X160173916Y-110686526D01*
X160105681Y-110587244D01*
X160073017Y-110504925D01*
X160079305Y-110416585D01*
X160108078Y-110358403D01*
X160125119Y-110334689D01*
X160125121Y-110334685D01*
X160132118Y-110324948D01*
X160172525Y-110224432D01*
X160186368Y-110189998D01*
X160186369Y-110189996D01*
X160190844Y-110178863D01*
X160193401Y-110160902D01*
X160212110Y-110029438D01*
X160213028Y-110022988D01*
X160213172Y-110009265D01*
X160211221Y-109993138D01*
X160195698Y-109864868D01*
X160194257Y-109852959D01*
X160190017Y-109841738D01*
X160190016Y-109841734D01*
X160142844Y-109716898D01*
X160138604Y-109705677D01*
X160082987Y-109624754D01*
X167244967Y-109624754D01*
X167249266Y-109690348D01*
X167256971Y-109807897D01*
X167258796Y-109835749D01*
X167261040Y-109844586D01*
X167261041Y-109844590D01*
X167303186Y-110010532D01*
X167310845Y-110040690D01*
X167399369Y-110232714D01*
X167404632Y-110240161D01*
X167516137Y-110397938D01*
X167516141Y-110397943D01*
X167521405Y-110405391D01*
X167672865Y-110552937D01*
X167680450Y-110558005D01*
X167680451Y-110558006D01*
X167816955Y-110649215D01*
X167848677Y-110670411D01*
X167857056Y-110674011D01*
X167857058Y-110674012D01*
X167886186Y-110686526D01*
X168042953Y-110753878D01*
X168051842Y-110755889D01*
X168051847Y-110755891D01*
X168240289Y-110798531D01*
X168240291Y-110798531D01*
X168249186Y-110800544D01*
X168460470Y-110808846D01*
X168669730Y-110778504D01*
X168678372Y-110775571D01*
X168678374Y-110775570D01*
X168861316Y-110713470D01*
X168861320Y-110713468D01*
X168869955Y-110710537D01*
X168895177Y-110696412D01*
X169046488Y-110611674D01*
X169046492Y-110611671D01*
X169054442Y-110607219D01*
X169217012Y-110472012D01*
X169352219Y-110309442D01*
X169356671Y-110301492D01*
X169356674Y-110301488D01*
X169451081Y-110132912D01*
X169451082Y-110132911D01*
X169455537Y-110124955D01*
X169460519Y-110110281D01*
X169520570Y-109933374D01*
X169520571Y-109933372D01*
X169523504Y-109924730D01*
X169553846Y-109715470D01*
X169555429Y-109655000D01*
X169548163Y-109575922D01*
X169536916Y-109453525D01*
X169536916Y-109453523D01*
X169536081Y-109444440D01*
X169509397Y-109349826D01*
X169481161Y-109249706D01*
X169481160Y-109249704D01*
X169478686Y-109240931D01*
X169385165Y-109051290D01*
X169258651Y-108881867D01*
X169251955Y-108875677D01*
X169251952Y-108875674D01*
X169158564Y-108789348D01*
X169103381Y-108738337D01*
X168924554Y-108625505D01*
X168784324Y-108569559D01*
X168711430Y-108519260D01*
X168667579Y-108442315D01*
X168661456Y-108353964D01*
X168694274Y-108271705D01*
X168759532Y-108211832D01*
X168794098Y-108196287D01*
X168861316Y-108173470D01*
X168861320Y-108173468D01*
X168869955Y-108170537D01*
X168877912Y-108166081D01*
X169046488Y-108071674D01*
X169046492Y-108071671D01*
X169054442Y-108067219D01*
X169217012Y-107932012D01*
X169352219Y-107769442D01*
X169356671Y-107761492D01*
X169356674Y-107761488D01*
X169451081Y-107592912D01*
X169451082Y-107592911D01*
X169455537Y-107584955D01*
X169487143Y-107491848D01*
X169520570Y-107393374D01*
X169520571Y-107393372D01*
X169523504Y-107384730D01*
X169553846Y-107175470D01*
X169555429Y-107115000D01*
X169536081Y-106904440D01*
X169478686Y-106700931D01*
X169385165Y-106511290D01*
X169258651Y-106341867D01*
X169251955Y-106335677D01*
X169251952Y-106335674D01*
X169190130Y-106278527D01*
X169103381Y-106198337D01*
X168924554Y-106085505D01*
X168916077Y-106082123D01*
X168916075Y-106082122D01*
X168852479Y-106056750D01*
X168728160Y-106007152D01*
X168520775Y-105965901D01*
X168412405Y-105964482D01*
X168318471Y-105963252D01*
X168318466Y-105963252D01*
X168309346Y-105963133D01*
X168300356Y-105964678D01*
X168300353Y-105964678D01*
X168201920Y-105981592D01*
X168100953Y-105998941D01*
X168092402Y-106002096D01*
X168092397Y-106002097D01*
X167911134Y-106068969D01*
X167911130Y-106068971D01*
X167902575Y-106072127D01*
X167894737Y-106076790D01*
X167894733Y-106076792D01*
X167787767Y-106140430D01*
X167720856Y-106180238D01*
X167713997Y-106186253D01*
X167713993Y-106186256D01*
X167568742Y-106313638D01*
X167561881Y-106319655D01*
X167556231Y-106326822D01*
X167556230Y-106326823D01*
X167538611Y-106349173D01*
X167430976Y-106485708D01*
X167332523Y-106672836D01*
X167329816Y-106681552D01*
X167329815Y-106681556D01*
X167290267Y-106808923D01*
X167269820Y-106874773D01*
X167244967Y-107084754D01*
X167258796Y-107295749D01*
X167261040Y-107304586D01*
X167261041Y-107304590D01*
X167281395Y-107384730D01*
X167310845Y-107500690D01*
X167399369Y-107692714D01*
X167404632Y-107700161D01*
X167516137Y-107857938D01*
X167516141Y-107857943D01*
X167521405Y-107865391D01*
X167672865Y-108012937D01*
X167680450Y-108018005D01*
X167680451Y-108018006D01*
X167809385Y-108104157D01*
X167848677Y-108130411D01*
X167857057Y-108134011D01*
X167857062Y-108134014D01*
X167942073Y-108170537D01*
X168018522Y-108203382D01*
X168090073Y-108255571D01*
X168131895Y-108333637D01*
X168135703Y-108422119D01*
X168100744Y-108503490D01*
X168033941Y-108561635D01*
X168008846Y-108572921D01*
X167911135Y-108608969D01*
X167902575Y-108612127D01*
X167894737Y-108616790D01*
X167894733Y-108616792D01*
X167788922Y-108679743D01*
X167720856Y-108720238D01*
X167713997Y-108726253D01*
X167713993Y-108726256D01*
X167642051Y-108789348D01*
X167561881Y-108859655D01*
X167556231Y-108866822D01*
X167556230Y-108866823D01*
X167540667Y-108886565D01*
X167430976Y-109025708D01*
X167426726Y-109033786D01*
X167342352Y-109194155D01*
X167332523Y-109212836D01*
X167329816Y-109221552D01*
X167329815Y-109221556D01*
X167319318Y-109255363D01*
X167269820Y-109414773D01*
X167268748Y-109423830D01*
X167252907Y-109557673D01*
X167244967Y-109624754D01*
X160082987Y-109624754D01*
X160049425Y-109575922D01*
X159963364Y-109499244D01*
X159940827Y-109479164D01*
X159940825Y-109479163D01*
X159931870Y-109471184D01*
X159792725Y-109397510D01*
X159781095Y-109394589D01*
X159781093Y-109394588D01*
X159701273Y-109374539D01*
X159640022Y-109359154D01*
X159628028Y-109359091D01*
X159628026Y-109359091D01*
X159563621Y-109358754D01*
X159482578Y-109358330D01*
X159470920Y-109361129D01*
X159470918Y-109361129D01*
X159436097Y-109369489D01*
X159329482Y-109395085D01*
X159194143Y-109464938D01*
X159194141Y-109464939D01*
X159189573Y-109467297D01*
X159189327Y-109466820D01*
X159115099Y-109495825D01*
X159026794Y-109489075D01*
X158977399Y-109464969D01*
X158973976Y-109461919D01*
X158834831Y-109388245D01*
X158823201Y-109385324D01*
X158823199Y-109385323D01*
X158739760Y-109364365D01*
X158682128Y-109349889D01*
X158670134Y-109349826D01*
X158670132Y-109349826D01*
X158605727Y-109349489D01*
X158524684Y-109349065D01*
X158513026Y-109351864D01*
X158513024Y-109351864D01*
X158472859Y-109361507D01*
X158371588Y-109385820D01*
X158360926Y-109391323D01*
X158289193Y-109428347D01*
X158231679Y-109458032D01*
X158222643Y-109465915D01*
X158222641Y-109465916D01*
X158207455Y-109479164D01*
X158113034Y-109561533D01*
X158022501Y-109690348D01*
X157965309Y-109837039D01*
X157961645Y-109864868D01*
X157948360Y-109965782D01*
X157944758Y-109993138D01*
X155857706Y-109993138D01*
X155720775Y-109965901D01*
X155612405Y-109964482D01*
X155518471Y-109963252D01*
X155518466Y-109963252D01*
X155509346Y-109963133D01*
X155500356Y-109964678D01*
X155500353Y-109964678D01*
X155405120Y-109981042D01*
X155300953Y-109998941D01*
X155292402Y-110002096D01*
X155292397Y-110002097D01*
X155111134Y-110068969D01*
X155111130Y-110068971D01*
X155102575Y-110072127D01*
X155094737Y-110076790D01*
X155094733Y-110076792D01*
X154987767Y-110140430D01*
X154920856Y-110180238D01*
X154913997Y-110186253D01*
X154913993Y-110186256D01*
X154775799Y-110307449D01*
X154761881Y-110319655D01*
X154756231Y-110326822D01*
X154756230Y-110326823D01*
X154731335Y-110358403D01*
X154630976Y-110485708D01*
X154626726Y-110493786D01*
X154543650Y-110651688D01*
X154532523Y-110672836D01*
X154529816Y-110681552D01*
X154529815Y-110681556D01*
X154490697Y-110807538D01*
X154469820Y-110874773D01*
X154468748Y-110883830D01*
X154454227Y-111006521D01*
X154444967Y-111084754D01*
X154449219Y-111149633D01*
X154458172Y-111286223D01*
X154458796Y-111295749D01*
X154461040Y-111304586D01*
X154461041Y-111304590D01*
X154504416Y-111475375D01*
X154510845Y-111500690D01*
X154599369Y-111692714D01*
X154604632Y-111700161D01*
X154716137Y-111857938D01*
X154716141Y-111857943D01*
X154721405Y-111865391D01*
X154872865Y-112012937D01*
X154880450Y-112018005D01*
X154880451Y-112018006D01*
X154960771Y-112071674D01*
X155048677Y-112130411D01*
X155057057Y-112134011D01*
X155057062Y-112134014D01*
X155139245Y-112169322D01*
X155218522Y-112203382D01*
X155290073Y-112255571D01*
X155331895Y-112333637D01*
X155335703Y-112422119D01*
X155300744Y-112503490D01*
X155233941Y-112561635D01*
X155208846Y-112572921D01*
X155111135Y-112608969D01*
X155102575Y-112612127D01*
X155094737Y-112616790D01*
X155094733Y-112616792D01*
X155066974Y-112633307D01*
X154920856Y-112720238D01*
X154913997Y-112726253D01*
X154913993Y-112726256D01*
X154820933Y-112807868D01*
X154761881Y-112859655D01*
X154674928Y-112969955D01*
X154640489Y-113013641D01*
X154571558Y-113069247D01*
X154485327Y-113089438D01*
X154398875Y-113070215D01*
X154329325Y-113015386D01*
X154309826Y-112986311D01*
X154211726Y-112807868D01*
X154211721Y-112807861D01*
X154208716Y-112802394D01*
X154205049Y-112797346D01*
X154205044Y-112797339D01*
X154042246Y-112573266D01*
X154042242Y-112573262D01*
X154038570Y-112568207D01*
X154034289Y-112563648D01*
X153844691Y-112361746D01*
X153844687Y-112361742D01*
X153840414Y-112357192D01*
X153717575Y-112255571D01*
X153622201Y-112176671D01*
X153622200Y-112176671D01*
X153617373Y-112172677D01*
X153372965Y-112017571D01*
X153367315Y-112014912D01*
X153367309Y-112014909D01*
X153116705Y-111896984D01*
X153116700Y-111896982D01*
X153111045Y-111894321D01*
X153105093Y-111892387D01*
X152841689Y-111806801D01*
X152841684Y-111806800D01*
X152835742Y-111804869D01*
X152829602Y-111803698D01*
X152829599Y-111803697D01*
X152557545Y-111751800D01*
X152557539Y-111751799D01*
X152551399Y-111750628D01*
X152545154Y-111750235D01*
X152545153Y-111750235D01*
X152524283Y-111748922D01*
X152263276Y-111732501D01*
X152262500Y-111732364D01*
X152245344Y-111735389D01*
X152237220Y-111735388D01*
X152218796Y-111737000D01*
X134306204Y-111737000D01*
X134287780Y-111735388D01*
X134279656Y-111735389D01*
X134262500Y-111732364D01*
X134261724Y-111732501D01*
X134242136Y-111733733D01*
X134242135Y-111733733D01*
X133979847Y-111750235D01*
X133979846Y-111750235D01*
X133973601Y-111750628D01*
X133967461Y-111751799D01*
X133967455Y-111751800D01*
X133695401Y-111803697D01*
X133695398Y-111803698D01*
X133689258Y-111804869D01*
X133683316Y-111806800D01*
X133683311Y-111806801D01*
X133419907Y-111892387D01*
X133413955Y-111894321D01*
X133408300Y-111896982D01*
X133408295Y-111896984D01*
X133157691Y-112014909D01*
X133157685Y-112014912D01*
X133152035Y-112017571D01*
X132907627Y-112172677D01*
X132902800Y-112176671D01*
X132902799Y-112176671D01*
X132807425Y-112255571D01*
X132684586Y-112357192D01*
X132680313Y-112361742D01*
X132680309Y-112361746D01*
X132490711Y-112563648D01*
X132486430Y-112568207D01*
X132482758Y-112573262D01*
X132482754Y-112573266D01*
X132319956Y-112797339D01*
X132319951Y-112797346D01*
X132316284Y-112802394D01*
X132313279Y-112807861D01*
X132313274Y-112807868D01*
X132193515Y-113025708D01*
X132176830Y-113056058D01*
X132163614Y-113089438D01*
X132100160Y-113249706D01*
X132070269Y-113325201D01*
X131998281Y-113605577D01*
X131962000Y-113892765D01*
X131962000Y-114182235D01*
X125804596Y-114182235D01*
X125740881Y-114123337D01*
X125562054Y-114010505D01*
X125421824Y-113954559D01*
X125348930Y-113904260D01*
X125305079Y-113827315D01*
X125298956Y-113738964D01*
X125331774Y-113656705D01*
X125397032Y-113596832D01*
X125431598Y-113581287D01*
X125498816Y-113558470D01*
X125498820Y-113558468D01*
X125507455Y-113555537D01*
X125515412Y-113551081D01*
X125683988Y-113456674D01*
X125683992Y-113456671D01*
X125691942Y-113452219D01*
X125854512Y-113317012D01*
X125989719Y-113154442D01*
X125994171Y-113146492D01*
X125994174Y-113146488D01*
X126088581Y-112977912D01*
X126088582Y-112977911D01*
X126093037Y-112969955D01*
X126124643Y-112876848D01*
X126158070Y-112778374D01*
X126158071Y-112778372D01*
X126161004Y-112769730D01*
X126182407Y-112622121D01*
X126190507Y-112566259D01*
X126190508Y-112566253D01*
X126191346Y-112560470D01*
X126192929Y-112500000D01*
X126189317Y-112460695D01*
X126174416Y-112298525D01*
X126174416Y-112298523D01*
X126173581Y-112289440D01*
X126156048Y-112227273D01*
X126118661Y-112094706D01*
X126118660Y-112094704D01*
X126116186Y-112085931D01*
X126022665Y-111896290D01*
X125896151Y-111726867D01*
X125889455Y-111720677D01*
X125889452Y-111720674D01*
X125812147Y-111649215D01*
X125740881Y-111583337D01*
X125562054Y-111470505D01*
X125553577Y-111467123D01*
X125553575Y-111467122D01*
X125455945Y-111428172D01*
X125365660Y-111392152D01*
X125158275Y-111350901D01*
X125049905Y-111349482D01*
X124955971Y-111348252D01*
X124955966Y-111348252D01*
X124946846Y-111348133D01*
X124937856Y-111349678D01*
X124937853Y-111349678D01*
X124836613Y-111367074D01*
X124738453Y-111383941D01*
X124729902Y-111387096D01*
X124729897Y-111387097D01*
X124548634Y-111453969D01*
X124548630Y-111453971D01*
X124540075Y-111457127D01*
X124532237Y-111461790D01*
X124532233Y-111461792D01*
X124425267Y-111525430D01*
X124358356Y-111565238D01*
X124351497Y-111571253D01*
X124351493Y-111571256D01*
X124259994Y-111651499D01*
X124199381Y-111704655D01*
X124193731Y-111711822D01*
X124193730Y-111711823D01*
X124177537Y-111732364D01*
X124068476Y-111870708D01*
X124064226Y-111878786D01*
X123990979Y-112018006D01*
X123970023Y-112057836D01*
X123967316Y-112066552D01*
X123967315Y-112066556D01*
X123949062Y-112125341D01*
X123907320Y-112259773D01*
X123906248Y-112268830D01*
X123885715Y-112442315D01*
X123882467Y-112469754D01*
X123885712Y-112519260D01*
X123893187Y-112633307D01*
X123896296Y-112680749D01*
X123898540Y-112689586D01*
X123898541Y-112689590D01*
X123941733Y-112859655D01*
X123948345Y-112885690D01*
X124036869Y-113077714D01*
X124042132Y-113085161D01*
X124153637Y-113242938D01*
X124153641Y-113242943D01*
X124158905Y-113250391D01*
X124310365Y-113397937D01*
X124317950Y-113403005D01*
X124317951Y-113403006D01*
X124393558Y-113453525D01*
X124486177Y-113515411D01*
X124494557Y-113519011D01*
X124494562Y-113519014D01*
X124579573Y-113555537D01*
X124656022Y-113588382D01*
X124727573Y-113640571D01*
X124769395Y-113718637D01*
X124773203Y-113807119D01*
X124738244Y-113888490D01*
X124671441Y-113946635D01*
X124646346Y-113957921D01*
X124548635Y-113993969D01*
X124540075Y-113997127D01*
X124532237Y-114001790D01*
X124532233Y-114001792D01*
X124425267Y-114065430D01*
X124358356Y-114105238D01*
X124351497Y-114111253D01*
X124351493Y-114111256D01*
X124263493Y-114188430D01*
X124199381Y-114244655D01*
X124193731Y-114251822D01*
X124193730Y-114251823D01*
X124176111Y-114274173D01*
X124068476Y-114410708D01*
X124064226Y-114418786D01*
X123990979Y-114558006D01*
X123970023Y-114597836D01*
X123967316Y-114606552D01*
X123967315Y-114606556D01*
X123951218Y-114658397D01*
X123907320Y-114799773D01*
X123882467Y-115009754D01*
X106563000Y-115009754D01*
X106563000Y-109795970D01*
X148941926Y-109795970D01*
X148959203Y-109952465D01*
X149013311Y-110100322D01*
X149020002Y-110110280D01*
X149020003Y-110110281D01*
X149045783Y-110148645D01*
X149101126Y-110231004D01*
X149217578Y-110336967D01*
X149355944Y-110412094D01*
X149367553Y-110415139D01*
X149367554Y-110415140D01*
X149496628Y-110449002D01*
X149496632Y-110449003D01*
X149508237Y-110452047D01*
X149520233Y-110452235D01*
X149520237Y-110452236D01*
X149588031Y-110453300D01*
X149665663Y-110454520D01*
X149677359Y-110451841D01*
X149677362Y-110451841D01*
X149807436Y-110422050D01*
X149807439Y-110422049D01*
X149819136Y-110419370D01*
X149959793Y-110348627D01*
X150079516Y-110246374D01*
X150090561Y-110231004D01*
X150164393Y-110128255D01*
X150171392Y-110118515D01*
X150217608Y-110003549D01*
X150268096Y-109930790D01*
X150345156Y-109887141D01*
X150433523Y-109881249D01*
X150515695Y-109914282D01*
X150552888Y-109947745D01*
X150559766Y-109955713D01*
X150566458Y-109965672D01*
X150575331Y-109973746D01*
X150575333Y-109973748D01*
X150636536Y-110029438D01*
X150682910Y-110071635D01*
X150821276Y-110146762D01*
X150832885Y-110149807D01*
X150832886Y-110149808D01*
X150961960Y-110183670D01*
X150961964Y-110183671D01*
X150973569Y-110186715D01*
X150985565Y-110186903D01*
X150985569Y-110186904D01*
X151053363Y-110187968D01*
X151130995Y-110189188D01*
X151142691Y-110186509D01*
X151142694Y-110186509D01*
X151272768Y-110156718D01*
X151272771Y-110156717D01*
X151284468Y-110154038D01*
X151425125Y-110083295D01*
X151488184Y-110029438D01*
X151535725Y-109988834D01*
X151535726Y-109988833D01*
X151544848Y-109981042D01*
X151555814Y-109965782D01*
X151629725Y-109862923D01*
X151636724Y-109853183D01*
X151676853Y-109753358D01*
X151690974Y-109718233D01*
X151690975Y-109718231D01*
X151695450Y-109707098D01*
X151698292Y-109687133D01*
X151716716Y-109557673D01*
X151717634Y-109551223D01*
X151717778Y-109537500D01*
X151698863Y-109381194D01*
X151694623Y-109369973D01*
X151694622Y-109369969D01*
X151647450Y-109245133D01*
X151643210Y-109233912D01*
X151554031Y-109104157D01*
X151436476Y-108999419D01*
X151297331Y-108925745D01*
X151285701Y-108922824D01*
X151285699Y-108922823D01*
X151220980Y-108906567D01*
X151144628Y-108887389D01*
X151132634Y-108887326D01*
X151132632Y-108887326D01*
X151068227Y-108886989D01*
X150987184Y-108886565D01*
X150975526Y-108889364D01*
X150975524Y-108889364D01*
X150926453Y-108901145D01*
X150834088Y-108923320D01*
X150823426Y-108928823D01*
X150752032Y-108965672D01*
X150694179Y-108995532D01*
X150685143Y-109003415D01*
X150685141Y-109003416D01*
X150616196Y-109063561D01*
X150575534Y-109099033D01*
X150485001Y-109227848D01*
X150480646Y-109239019D01*
X150480643Y-109239024D01*
X150442850Y-109335960D01*
X150393125Y-109409247D01*
X150316527Y-109453701D01*
X150228226Y-109460518D01*
X150145712Y-109428347D01*
X150104527Y-109387408D01*
X150103429Y-109388376D01*
X150095494Y-109379376D01*
X150088699Y-109369489D01*
X149971144Y-109264751D01*
X149831999Y-109191077D01*
X149820369Y-109188156D01*
X149820367Y-109188155D01*
X149755647Y-109171899D01*
X149679296Y-109152721D01*
X149667302Y-109152658D01*
X149667300Y-109152658D01*
X149602895Y-109152321D01*
X149521852Y-109151897D01*
X149510194Y-109154696D01*
X149510192Y-109154696D01*
X149461121Y-109166477D01*
X149368756Y-109188652D01*
X149358094Y-109194155D01*
X149337563Y-109204752D01*
X149228847Y-109260864D01*
X149219811Y-109268747D01*
X149219809Y-109268748D01*
X149142763Y-109335960D01*
X149110202Y-109364365D01*
X149103304Y-109374180D01*
X149103303Y-109374181D01*
X149086907Y-109397510D01*
X149019669Y-109493180D01*
X148962477Y-109639871D01*
X148941926Y-109795970D01*
X106563000Y-109795970D01*
X106563000Y-108535177D01*
X131404988Y-108535177D01*
X131422265Y-108691672D01*
X131476373Y-108839529D01*
X131483064Y-108849487D01*
X131483065Y-108849488D01*
X131509861Y-108889364D01*
X131564188Y-108970211D01*
X131680640Y-109076174D01*
X131819006Y-109151301D01*
X131830615Y-109154346D01*
X131830616Y-109154347D01*
X131959690Y-109188209D01*
X131959694Y-109188210D01*
X131971299Y-109191254D01*
X131983295Y-109191442D01*
X131983299Y-109191443D01*
X132051093Y-109192507D01*
X132128725Y-109193727D01*
X132140421Y-109191048D01*
X132140424Y-109191048D01*
X132270498Y-109161257D01*
X132270501Y-109161256D01*
X132282198Y-109158577D01*
X132422855Y-109087834D01*
X132535943Y-108991248D01*
X132614395Y-108950160D01*
X132702908Y-108947179D01*
X132783949Y-108982898D01*
X132799110Y-108995383D01*
X132882910Y-109071635D01*
X133021276Y-109146762D01*
X133032885Y-109149807D01*
X133032886Y-109149808D01*
X133161960Y-109183670D01*
X133161964Y-109183671D01*
X133173569Y-109186715D01*
X133185565Y-109186903D01*
X133185569Y-109186904D01*
X133253363Y-109187968D01*
X133330995Y-109189188D01*
X133342691Y-109186509D01*
X133342694Y-109186509D01*
X133472768Y-109156718D01*
X133472771Y-109156717D01*
X133484468Y-109154038D01*
X133625125Y-109083295D01*
X133692551Y-109025708D01*
X133735725Y-108988834D01*
X133735726Y-108988833D01*
X133744848Y-108981042D01*
X133755893Y-108965672D01*
X133829725Y-108862923D01*
X133836724Y-108853183D01*
X133882892Y-108738337D01*
X133890974Y-108718233D01*
X133890975Y-108718231D01*
X133895450Y-108707098D01*
X133897646Y-108691672D01*
X133916716Y-108557673D01*
X133917634Y-108551223D01*
X133917778Y-108537500D01*
X133898863Y-108381194D01*
X133894623Y-108369973D01*
X133894622Y-108369969D01*
X133847450Y-108245133D01*
X133843210Y-108233912D01*
X133754031Y-108104157D01*
X133657338Y-108018006D01*
X133645433Y-108007399D01*
X133645431Y-108007398D01*
X133636476Y-107999419D01*
X133497331Y-107925745D01*
X133485701Y-107922824D01*
X133485699Y-107922823D01*
X133420979Y-107906567D01*
X133344628Y-107887389D01*
X133332634Y-107887326D01*
X133332632Y-107887326D01*
X133268227Y-107886989D01*
X133187184Y-107886565D01*
X133175526Y-107889364D01*
X133175524Y-107889364D01*
X133152674Y-107894850D01*
X133034088Y-107923320D01*
X133023426Y-107928823D01*
X133017247Y-107932012D01*
X132894179Y-107995532D01*
X132885143Y-108003415D01*
X132885141Y-108003416D01*
X132839691Y-108043065D01*
X132790774Y-108085739D01*
X132789194Y-108087117D01*
X132711175Y-108129026D01*
X132622698Y-108132933D01*
X132541287Y-108098065D01*
X132525995Y-108085739D01*
X132443163Y-108011938D01*
X132443161Y-108011937D01*
X132434206Y-108003958D01*
X132295061Y-107930284D01*
X132283431Y-107927363D01*
X132283429Y-107927362D01*
X132218709Y-107911106D01*
X132142358Y-107891928D01*
X132130364Y-107891865D01*
X132130362Y-107891865D01*
X132065957Y-107891528D01*
X131984914Y-107891104D01*
X131973256Y-107893903D01*
X131973254Y-107893903D01*
X131924183Y-107905684D01*
X131831818Y-107927859D01*
X131821156Y-107933362D01*
X131812474Y-107937843D01*
X131691909Y-108000071D01*
X131682873Y-108007954D01*
X131682871Y-108007955D01*
X131621620Y-108061388D01*
X131573264Y-108103572D01*
X131566366Y-108113387D01*
X131566365Y-108113388D01*
X131554401Y-108130411D01*
X131482731Y-108232387D01*
X131425539Y-108379078D01*
X131417214Y-108442315D01*
X131407084Y-108519260D01*
X131404988Y-108535177D01*
X106563000Y-108535177D01*
X106563000Y-104899594D01*
X109018074Y-104899594D01*
X109019619Y-104908584D01*
X109019619Y-104908587D01*
X109025013Y-104939978D01*
X109055438Y-105117043D01*
X109131804Y-105324043D01*
X109244614Y-105513659D01*
X109250627Y-105520515D01*
X109250628Y-105520517D01*
X109272669Y-105545650D01*
X109390090Y-105679543D01*
X109397252Y-105685189D01*
X109397253Y-105685190D01*
X109556196Y-105810490D01*
X109556200Y-105810493D01*
X109563360Y-105816137D01*
X109571431Y-105820383D01*
X109571435Y-105820386D01*
X109714988Y-105895913D01*
X109758620Y-105918869D01*
X109767329Y-105921573D01*
X109767331Y-105921574D01*
X109783302Y-105926533D01*
X109969333Y-105984297D01*
X109978390Y-105985369D01*
X110142660Y-106004812D01*
X110142666Y-106004812D01*
X110148476Y-106005500D01*
X112075970Y-106005500D01*
X112080505Y-106005083D01*
X112080511Y-106005083D01*
X112230626Y-105991289D01*
X112230628Y-105991289D01*
X112239711Y-105990454D01*
X112452064Y-105930565D01*
X112649947Y-105832980D01*
X112666813Y-105820386D01*
X112819420Y-105706428D01*
X112819421Y-105706427D01*
X112826733Y-105700967D01*
X112976501Y-105538949D01*
X113024565Y-105462772D01*
X183304500Y-105462772D01*
X183315364Y-105552547D01*
X183370887Y-105692783D01*
X183462078Y-105812922D01*
X183582217Y-105904113D01*
X183594828Y-105909106D01*
X183710571Y-105954932D01*
X183710574Y-105954933D01*
X183722453Y-105959636D01*
X183812228Y-105970500D01*
X186997772Y-105970500D01*
X187087547Y-105959636D01*
X187099426Y-105954933D01*
X187099429Y-105954932D01*
X187215172Y-105909106D01*
X187227783Y-105904113D01*
X187347922Y-105812922D01*
X187439113Y-105692783D01*
X187494636Y-105552547D01*
X187505500Y-105462772D01*
X187505500Y-104077228D01*
X187494636Y-103987453D01*
X187466242Y-103915736D01*
X187444106Y-103859828D01*
X187439113Y-103847217D01*
X187347922Y-103727078D01*
X187227783Y-103635887D01*
X187202061Y-103625703D01*
X187099429Y-103585068D01*
X187099426Y-103585067D01*
X187087547Y-103580364D01*
X186997772Y-103569500D01*
X183812228Y-103569500D01*
X183722453Y-103580364D01*
X183710574Y-103585067D01*
X183710571Y-103585068D01*
X183607939Y-103625703D01*
X183582217Y-103635887D01*
X183462078Y-103727078D01*
X183370887Y-103847217D01*
X183365894Y-103859828D01*
X183343759Y-103915736D01*
X183315364Y-103987453D01*
X183304500Y-104077228D01*
X183304500Y-105462772D01*
X113024565Y-105462772D01*
X113094236Y-105352350D01*
X113102402Y-105331883D01*
X113172614Y-105155892D01*
X113175994Y-105147421D01*
X113219038Y-104931024D01*
X113221926Y-104710406D01*
X113216526Y-104678976D01*
X113201673Y-104592538D01*
X113184562Y-104492957D01*
X113168840Y-104450341D01*
X113111355Y-104294519D01*
X113111354Y-104294516D01*
X113108196Y-104285957D01*
X112995386Y-104096341D01*
X112978625Y-104077228D01*
X112855924Y-103937315D01*
X112849910Y-103930457D01*
X112833997Y-103917912D01*
X112683804Y-103799510D01*
X112683800Y-103799507D01*
X112676640Y-103793863D01*
X112668569Y-103789617D01*
X112668565Y-103789614D01*
X112489454Y-103695379D01*
X112481380Y-103691131D01*
X112472671Y-103688427D01*
X112472669Y-103688426D01*
X112329873Y-103644087D01*
X112270667Y-103625703D01*
X112261610Y-103624631D01*
X112097340Y-103605188D01*
X112097334Y-103605188D01*
X112091524Y-103604500D01*
X110164030Y-103604500D01*
X110159495Y-103604917D01*
X110159489Y-103604917D01*
X110009374Y-103618711D01*
X110009372Y-103618711D01*
X110000289Y-103619546D01*
X109787936Y-103679435D01*
X109779760Y-103683467D01*
X109645234Y-103749808D01*
X109590053Y-103777020D01*
X109582742Y-103782479D01*
X109582741Y-103782480D01*
X109559935Y-103799510D01*
X109413267Y-103909033D01*
X109263499Y-104071051D01*
X109145764Y-104257650D01*
X109142386Y-104266117D01*
X109142384Y-104266121D01*
X109104885Y-104360114D01*
X109064006Y-104462579D01*
X109020962Y-104678976D01*
X109018074Y-104899594D01*
X106563000Y-104899594D01*
X106563000Y-102595970D01*
X115141926Y-102595970D01*
X115159203Y-102752465D01*
X115213311Y-102900322D01*
X115301126Y-103031004D01*
X115417578Y-103136967D01*
X115555944Y-103212094D01*
X115567553Y-103215139D01*
X115567554Y-103215140D01*
X115696628Y-103249002D01*
X115696632Y-103249003D01*
X115708237Y-103252047D01*
X115720233Y-103252235D01*
X115720237Y-103252236D01*
X115788031Y-103253300D01*
X115865663Y-103254520D01*
X115877359Y-103251841D01*
X115877362Y-103251841D01*
X116007436Y-103222050D01*
X116007439Y-103222049D01*
X116019136Y-103219370D01*
X116159793Y-103148627D01*
X116279516Y-103046374D01*
X116287697Y-103034990D01*
X116364393Y-102928255D01*
X116371392Y-102918515D01*
X116417612Y-102803540D01*
X116425642Y-102783565D01*
X116425643Y-102783563D01*
X116430118Y-102772430D01*
X116432219Y-102757673D01*
X116436066Y-102730638D01*
X150607258Y-102730638D01*
X150624535Y-102887133D01*
X150678643Y-103034990D01*
X150685334Y-103044948D01*
X150685335Y-103044949D01*
X150711103Y-103083295D01*
X150766458Y-103165672D01*
X150882910Y-103271635D01*
X151021276Y-103346762D01*
X151032885Y-103349807D01*
X151032886Y-103349808D01*
X151161960Y-103383670D01*
X151161964Y-103383671D01*
X151173569Y-103386715D01*
X151185565Y-103386903D01*
X151185569Y-103386904D01*
X151253363Y-103387968D01*
X151330995Y-103389188D01*
X151342691Y-103386509D01*
X151342694Y-103386509D01*
X151472768Y-103356718D01*
X151472771Y-103356717D01*
X151484468Y-103354038D01*
X151625125Y-103283295D01*
X151708491Y-103212094D01*
X151735725Y-103188834D01*
X151735726Y-103188833D01*
X151744848Y-103181042D01*
X151755893Y-103165672D01*
X151781067Y-103130638D01*
X155807258Y-103130638D01*
X155824535Y-103287133D01*
X155878643Y-103434990D01*
X155966458Y-103565672D01*
X156082910Y-103671635D01*
X156221276Y-103746762D01*
X156232885Y-103749807D01*
X156232886Y-103749808D01*
X156361960Y-103783670D01*
X156361964Y-103783671D01*
X156373569Y-103786715D01*
X156385565Y-103786903D01*
X156385569Y-103786904D01*
X156453363Y-103787968D01*
X156530995Y-103789188D01*
X156542691Y-103786509D01*
X156542694Y-103786509D01*
X156672768Y-103756718D01*
X156672771Y-103756717D01*
X156684468Y-103754038D01*
X156825125Y-103683295D01*
X156888006Y-103629590D01*
X156935725Y-103588834D01*
X156935726Y-103588833D01*
X156944848Y-103581042D01*
X156955893Y-103565672D01*
X157029725Y-103462923D01*
X157036724Y-103453183D01*
X157054182Y-103409754D01*
X174044967Y-103409754D01*
X174048452Y-103462923D01*
X174056194Y-103581042D01*
X174058796Y-103620749D01*
X174061040Y-103629586D01*
X174061041Y-103629590D01*
X174102762Y-103793863D01*
X174110845Y-103825690D01*
X174199369Y-104017714D01*
X174204632Y-104025161D01*
X174316137Y-104182938D01*
X174316141Y-104182943D01*
X174321405Y-104190391D01*
X174472865Y-104337937D01*
X174480450Y-104343005D01*
X174480451Y-104343006D01*
X174560771Y-104396674D01*
X174648677Y-104455411D01*
X174657056Y-104459011D01*
X174657058Y-104459012D01*
X174716137Y-104484394D01*
X174842953Y-104538878D01*
X174851842Y-104540889D01*
X174851847Y-104540891D01*
X175040289Y-104583531D01*
X175040291Y-104583531D01*
X175049186Y-104585544D01*
X175260470Y-104593846D01*
X175469730Y-104563504D01*
X175478372Y-104560571D01*
X175478374Y-104560570D01*
X175661316Y-104498470D01*
X175661320Y-104498468D01*
X175669955Y-104495537D01*
X175677912Y-104491081D01*
X175846488Y-104396674D01*
X175846492Y-104396671D01*
X175854442Y-104392219D01*
X176017012Y-104257012D01*
X176152219Y-104094442D01*
X176156671Y-104086492D01*
X176156674Y-104086488D01*
X176251081Y-103917912D01*
X176251082Y-103917911D01*
X176255537Y-103909955D01*
X176287143Y-103816848D01*
X176320570Y-103718374D01*
X176320571Y-103718372D01*
X176323504Y-103709730D01*
X176353846Y-103500470D01*
X176355429Y-103440000D01*
X176347530Y-103354038D01*
X176336916Y-103238525D01*
X176336916Y-103238523D01*
X176336081Y-103229440D01*
X176311092Y-103140835D01*
X176281161Y-103034706D01*
X176281160Y-103034704D01*
X176278686Y-103025931D01*
X176185165Y-102836290D01*
X176058651Y-102666867D01*
X176051955Y-102660677D01*
X176051952Y-102660674D01*
X175953827Y-102569969D01*
X175903381Y-102523337D01*
X175724554Y-102410505D01*
X175683106Y-102393969D01*
X175584324Y-102354559D01*
X175511430Y-102304260D01*
X175467579Y-102227315D01*
X175461456Y-102138964D01*
X175494274Y-102056705D01*
X175559532Y-101996832D01*
X175594098Y-101981287D01*
X175661316Y-101958470D01*
X175661320Y-101958468D01*
X175669955Y-101955537D01*
X175713130Y-101931358D01*
X175846488Y-101856674D01*
X175846492Y-101856671D01*
X175854442Y-101852219D01*
X176017012Y-101717012D01*
X176152219Y-101554442D01*
X176156671Y-101546492D01*
X176156674Y-101546488D01*
X176251081Y-101377912D01*
X176251082Y-101377911D01*
X176255537Y-101369955D01*
X176287143Y-101276848D01*
X176320570Y-101178374D01*
X176320571Y-101178372D01*
X176323504Y-101169730D01*
X176337726Y-101071646D01*
X176353007Y-100966259D01*
X176353008Y-100966253D01*
X176353846Y-100960470D01*
X176354608Y-100931358D01*
X176355276Y-100905854D01*
X176355276Y-100905850D01*
X176355429Y-100900000D01*
X176354200Y-100886628D01*
X176336916Y-100698525D01*
X176336916Y-100698523D01*
X176336081Y-100689440D01*
X176309825Y-100596341D01*
X176281161Y-100494706D01*
X176281160Y-100494704D01*
X176278686Y-100485931D01*
X176185165Y-100296290D01*
X176058651Y-100126867D01*
X176051955Y-100120677D01*
X176051952Y-100120674D01*
X175990130Y-100063527D01*
X175903381Y-99983337D01*
X175724554Y-99870505D01*
X175716077Y-99867123D01*
X175716075Y-99867122D01*
X175652479Y-99841750D01*
X175528160Y-99792152D01*
X175320775Y-99750901D01*
X175212405Y-99749482D01*
X175118471Y-99748252D01*
X175118466Y-99748252D01*
X175109346Y-99748133D01*
X175100356Y-99749678D01*
X175100353Y-99749678D01*
X174999113Y-99767074D01*
X174900953Y-99783941D01*
X174892402Y-99787096D01*
X174892397Y-99787097D01*
X174711134Y-99853969D01*
X174711130Y-99853971D01*
X174702575Y-99857127D01*
X174694737Y-99861790D01*
X174694733Y-99861792D01*
X174587767Y-99925430D01*
X174520856Y-99965238D01*
X174513997Y-99971253D01*
X174513993Y-99971256D01*
X174368742Y-100098638D01*
X174361881Y-100104655D01*
X174356231Y-100111822D01*
X174356230Y-100111823D01*
X174343156Y-100128408D01*
X174230976Y-100270708D01*
X174226726Y-100278786D01*
X174143320Y-100437315D01*
X174132523Y-100457836D01*
X174129816Y-100466552D01*
X174129815Y-100466556D01*
X174097369Y-100571051D01*
X174069820Y-100659773D01*
X174044967Y-100869754D01*
X174049005Y-100931358D01*
X174053989Y-101007399D01*
X174058796Y-101080749D01*
X174061040Y-101089586D01*
X174061041Y-101089590D01*
X174100545Y-101245133D01*
X174110845Y-101285690D01*
X174199369Y-101477714D01*
X174204632Y-101485161D01*
X174316137Y-101642938D01*
X174316141Y-101642943D01*
X174321405Y-101650391D01*
X174472865Y-101797937D01*
X174480450Y-101803005D01*
X174480451Y-101803006D01*
X174565843Y-101860063D01*
X174648677Y-101915411D01*
X174657057Y-101919011D01*
X174657062Y-101919014D01*
X174742073Y-101955537D01*
X174818522Y-101988382D01*
X174890073Y-102040571D01*
X174931895Y-102118637D01*
X174935703Y-102207119D01*
X174900744Y-102288490D01*
X174833941Y-102346635D01*
X174808846Y-102357921D01*
X174776189Y-102369969D01*
X174702575Y-102397127D01*
X174694737Y-102401790D01*
X174694733Y-102401792D01*
X174622193Y-102444949D01*
X174520856Y-102505238D01*
X174513997Y-102511253D01*
X174513993Y-102511256D01*
X174402135Y-102609353D01*
X174361881Y-102644655D01*
X174356231Y-102651822D01*
X174356230Y-102651823D01*
X174331039Y-102683778D01*
X174230976Y-102810708D01*
X174226726Y-102818786D01*
X174147185Y-102969969D01*
X174132523Y-102997836D01*
X174129816Y-103006552D01*
X174129815Y-103006556D01*
X174115337Y-103053183D01*
X174069820Y-103199773D01*
X174068748Y-103208830D01*
X174047424Y-103388999D01*
X174044967Y-103409754D01*
X157054182Y-103409754D01*
X157095450Y-103307098D01*
X157098071Y-103288686D01*
X157116716Y-103157673D01*
X157117634Y-103151223D01*
X157117778Y-103137500D01*
X157116737Y-103128893D01*
X157104277Y-103025931D01*
X157098863Y-102981194D01*
X157094623Y-102969973D01*
X157094622Y-102969969D01*
X157047450Y-102845133D01*
X157043210Y-102833912D01*
X156954031Y-102704157D01*
X156887248Y-102644655D01*
X156845433Y-102607399D01*
X156845431Y-102607398D01*
X156836476Y-102599419D01*
X156697331Y-102525745D01*
X156685701Y-102522824D01*
X156685699Y-102522823D01*
X156620980Y-102506567D01*
X156544628Y-102487389D01*
X156532634Y-102487326D01*
X156532632Y-102487326D01*
X156468227Y-102486989D01*
X156387184Y-102486565D01*
X156375526Y-102489364D01*
X156375524Y-102489364D01*
X156328845Y-102500571D01*
X156234088Y-102523320D01*
X156223426Y-102528823D01*
X156111802Y-102586436D01*
X156094179Y-102595532D01*
X156085143Y-102603415D01*
X156085141Y-102603416D01*
X156016196Y-102663561D01*
X155975534Y-102699033D01*
X155968636Y-102708848D01*
X155968635Y-102708849D01*
X155953047Y-102731028D01*
X155885001Y-102827848D01*
X155827809Y-102974539D01*
X155807258Y-103130638D01*
X151781067Y-103130638D01*
X151829725Y-103062923D01*
X151836724Y-103053183D01*
X151886945Y-102928255D01*
X151890974Y-102918233D01*
X151890975Y-102918231D01*
X151895450Y-102907098D01*
X151898292Y-102887133D01*
X151916716Y-102757673D01*
X151917634Y-102751223D01*
X151917778Y-102737500D01*
X151915447Y-102718233D01*
X151902353Y-102610038D01*
X151898863Y-102581194D01*
X151894623Y-102569973D01*
X151894622Y-102569969D01*
X151847450Y-102445133D01*
X151843210Y-102433912D01*
X151754031Y-102304157D01*
X151636476Y-102199419D01*
X151506572Y-102130638D01*
X157607258Y-102130638D01*
X157624535Y-102287133D01*
X157678643Y-102434990D01*
X157685334Y-102444948D01*
X157685335Y-102444949D01*
X157722712Y-102500571D01*
X157766458Y-102565672D01*
X157882910Y-102671635D01*
X158021276Y-102746762D01*
X158032885Y-102749807D01*
X158032886Y-102749808D01*
X158161960Y-102783670D01*
X158161964Y-102783671D01*
X158173569Y-102786715D01*
X158185565Y-102786903D01*
X158185569Y-102786904D01*
X158253363Y-102787968D01*
X158330995Y-102789188D01*
X158342691Y-102786509D01*
X158342694Y-102786509D01*
X158442133Y-102763734D01*
X158472286Y-102756828D01*
X158560848Y-102756761D01*
X158640670Y-102795128D01*
X158681884Y-102839813D01*
X158766458Y-102965672D01*
X158882910Y-103071635D01*
X159021276Y-103146762D01*
X159032885Y-103149807D01*
X159032886Y-103149808D01*
X159161960Y-103183670D01*
X159161964Y-103183671D01*
X159173569Y-103186715D01*
X159185565Y-103186903D01*
X159185569Y-103186904D01*
X159253363Y-103187968D01*
X159330995Y-103189188D01*
X159342691Y-103186509D01*
X159342694Y-103186509D01*
X159472768Y-103156718D01*
X159472771Y-103156717D01*
X159484468Y-103154038D01*
X159625125Y-103083295D01*
X159694875Y-103023723D01*
X159735725Y-102988834D01*
X159735726Y-102988833D01*
X159744848Y-102981042D01*
X159755893Y-102965672D01*
X159829725Y-102862923D01*
X159836724Y-102853183D01*
X159882008Y-102740536D01*
X159890974Y-102718233D01*
X159890975Y-102718231D01*
X159895450Y-102707098D01*
X159897721Y-102691146D01*
X159916716Y-102557673D01*
X159917634Y-102551223D01*
X159917778Y-102537500D01*
X159916356Y-102525745D01*
X159905137Y-102433039D01*
X159898863Y-102381194D01*
X159894623Y-102369973D01*
X159894622Y-102369969D01*
X159847450Y-102245133D01*
X159843210Y-102233912D01*
X159754031Y-102104157D01*
X159697563Y-102053846D01*
X159645433Y-102007399D01*
X159645431Y-102007398D01*
X159636476Y-101999419D01*
X159497331Y-101925745D01*
X159485701Y-101922824D01*
X159485699Y-101922823D01*
X159420979Y-101906567D01*
X159344628Y-101887389D01*
X159332634Y-101887326D01*
X159332632Y-101887326D01*
X159268227Y-101886989D01*
X159187184Y-101886565D01*
X159175528Y-101889363D01*
X159175522Y-101889364D01*
X159055487Y-101918182D01*
X158966929Y-101919175D01*
X158886710Y-101881646D01*
X158845551Y-101832303D01*
X158843210Y-101833912D01*
X158814108Y-101791569D01*
X158754031Y-101704157D01*
X158685321Y-101642938D01*
X158645433Y-101607399D01*
X158645431Y-101607398D01*
X158636476Y-101599419D01*
X158497331Y-101525745D01*
X158485701Y-101522824D01*
X158485699Y-101522823D01*
X158420980Y-101506567D01*
X158344628Y-101487389D01*
X158332634Y-101487326D01*
X158332632Y-101487326D01*
X158268227Y-101486989D01*
X158187184Y-101486565D01*
X158175526Y-101489364D01*
X158175524Y-101489364D01*
X158126453Y-101501145D01*
X158034088Y-101523320D01*
X158023426Y-101528823D01*
X157980027Y-101551223D01*
X157894179Y-101595532D01*
X157885143Y-101603415D01*
X157885141Y-101603416D01*
X157834698Y-101647421D01*
X157775534Y-101699033D01*
X157768636Y-101708848D01*
X157768635Y-101708849D01*
X157764984Y-101714044D01*
X157685001Y-101827848D01*
X157627809Y-101974539D01*
X157620345Y-102031233D01*
X157609443Y-102114044D01*
X157607258Y-102130638D01*
X151506572Y-102130638D01*
X151497331Y-102125745D01*
X151485701Y-102122824D01*
X151485699Y-102122823D01*
X151411385Y-102104157D01*
X151344628Y-102087389D01*
X151332634Y-102087326D01*
X151332632Y-102087326D01*
X151268227Y-102086989D01*
X151187184Y-102086565D01*
X151175526Y-102089364D01*
X151175524Y-102089364D01*
X151147155Y-102096175D01*
X151034088Y-102123320D01*
X151023426Y-102128823D01*
X150935546Y-102174181D01*
X150894179Y-102195532D01*
X150885143Y-102203415D01*
X150885141Y-102203416D01*
X150802850Y-102275204D01*
X150775534Y-102299033D01*
X150768636Y-102308848D01*
X150768635Y-102308849D01*
X150748839Y-102337016D01*
X150685001Y-102427848D01*
X150627809Y-102574539D01*
X150621428Y-102623005D01*
X150609443Y-102714044D01*
X150607258Y-102730638D01*
X116436066Y-102730638D01*
X116451384Y-102623005D01*
X116452302Y-102616555D01*
X116452446Y-102602832D01*
X116443118Y-102525745D01*
X116438847Y-102490454D01*
X116433531Y-102446526D01*
X116429291Y-102435305D01*
X116429290Y-102435301D01*
X116382118Y-102310465D01*
X116377878Y-102299244D01*
X116369555Y-102287133D01*
X116366520Y-102282718D01*
X116333855Y-102200399D01*
X116340142Y-102112059D01*
X116384136Y-102035195D01*
X116401279Y-102018681D01*
X116436224Y-101988835D01*
X116436226Y-101988833D01*
X116445348Y-101981042D01*
X116456393Y-101965672D01*
X116530225Y-101862923D01*
X116537224Y-101853183D01*
X116595950Y-101707098D01*
X116598221Y-101691146D01*
X116617216Y-101557673D01*
X116618134Y-101551223D01*
X116618278Y-101537500D01*
X116616856Y-101525745D01*
X116600804Y-101393103D01*
X116599363Y-101381194D01*
X116595123Y-101369973D01*
X116595122Y-101369969D01*
X116547950Y-101245133D01*
X116543710Y-101233912D01*
X116454531Y-101104157D01*
X116336976Y-100999419D01*
X116324772Y-100992957D01*
X116308599Y-100984394D01*
X116197831Y-100925745D01*
X116186201Y-100922824D01*
X116186199Y-100922823D01*
X116095335Y-100900000D01*
X116045128Y-100887389D01*
X116033134Y-100887326D01*
X116033132Y-100887326D01*
X115968727Y-100886989D01*
X115887684Y-100886565D01*
X115876026Y-100889364D01*
X115876024Y-100889364D01*
X115856023Y-100894166D01*
X115734588Y-100923320D01*
X115723926Y-100928823D01*
X115674937Y-100954108D01*
X115594679Y-100995532D01*
X115585643Y-101003415D01*
X115585641Y-101003416D01*
X115507428Y-101071646D01*
X115476034Y-101099033D01*
X115385501Y-101227848D01*
X115328309Y-101374539D01*
X115307758Y-101530638D01*
X115325035Y-101687133D01*
X115379143Y-101834990D01*
X115391368Y-101853183D01*
X115395347Y-101859104D01*
X115427148Y-101941761D01*
X115419936Y-102030030D01*
X115375140Y-102106429D01*
X115360994Y-102120056D01*
X115350944Y-102128823D01*
X115310202Y-102164365D01*
X115303304Y-102174180D01*
X115303303Y-102174181D01*
X115280154Y-102207119D01*
X115219669Y-102293180D01*
X115162477Y-102439871D01*
X115141926Y-102595970D01*
X106563000Y-102595970D01*
X106563000Y-101399594D01*
X109018074Y-101399594D01*
X109019619Y-101408584D01*
X109019619Y-101408587D01*
X109025013Y-101439978D01*
X109055438Y-101617043D01*
X109058597Y-101625606D01*
X109119824Y-101791569D01*
X109131804Y-101824043D01*
X109244614Y-102013659D01*
X109250627Y-102020515D01*
X109250628Y-102020517D01*
X109305683Y-102083295D01*
X109390090Y-102179543D01*
X109397252Y-102185189D01*
X109397253Y-102185190D01*
X109556196Y-102310490D01*
X109556200Y-102310493D01*
X109563360Y-102316137D01*
X109571431Y-102320383D01*
X109571435Y-102320386D01*
X109726162Y-102401792D01*
X109758620Y-102418869D01*
X109767329Y-102421573D01*
X109767331Y-102421574D01*
X109842611Y-102444949D01*
X109969333Y-102484297D01*
X109978390Y-102485369D01*
X110142660Y-102504812D01*
X110142666Y-102504812D01*
X110148476Y-102505500D01*
X112075970Y-102505500D01*
X112080505Y-102505083D01*
X112080511Y-102505083D01*
X112230626Y-102491289D01*
X112230628Y-102491289D01*
X112239711Y-102490454D01*
X112452064Y-102430565D01*
X112526273Y-102393969D01*
X112641763Y-102337016D01*
X112641764Y-102337015D01*
X112649947Y-102332980D01*
X112666813Y-102320386D01*
X112819420Y-102206428D01*
X112819421Y-102206427D01*
X112826733Y-102200967D01*
X112898969Y-102122823D01*
X112970307Y-102045650D01*
X112970309Y-102045648D01*
X112976501Y-102038949D01*
X113094236Y-101852350D01*
X113098345Y-101842052D01*
X113156543Y-101696175D01*
X113175994Y-101647421D01*
X113219038Y-101431024D01*
X113220832Y-101293974D01*
X113221807Y-101219531D01*
X113221807Y-101219526D01*
X113221926Y-101210406D01*
X113216526Y-101178976D01*
X113198083Y-101071646D01*
X113184562Y-100992957D01*
X113145593Y-100887326D01*
X113111355Y-100794519D01*
X113111354Y-100794516D01*
X113108196Y-100785957D01*
X112995386Y-100596341D01*
X112973208Y-100571051D01*
X112881568Y-100466556D01*
X112849910Y-100430457D01*
X112842747Y-100424810D01*
X112683804Y-100299510D01*
X112683800Y-100299507D01*
X112676640Y-100293863D01*
X112668569Y-100289617D01*
X112668565Y-100289614D01*
X112489454Y-100195379D01*
X112481380Y-100191131D01*
X112472671Y-100188427D01*
X112472669Y-100188426D01*
X112376024Y-100158417D01*
X112270667Y-100125703D01*
X112261610Y-100124631D01*
X112097340Y-100105188D01*
X112097334Y-100105188D01*
X112091524Y-100104500D01*
X110164030Y-100104500D01*
X110159495Y-100104917D01*
X110159489Y-100104917D01*
X110009374Y-100118711D01*
X110009372Y-100118711D01*
X110000289Y-100119546D01*
X109787936Y-100179435D01*
X109590053Y-100277020D01*
X109582742Y-100282479D01*
X109582741Y-100282480D01*
X109564247Y-100296290D01*
X109413267Y-100409033D01*
X109263499Y-100571051D01*
X109145764Y-100757650D01*
X109142386Y-100766117D01*
X109142384Y-100766121D01*
X109131055Y-100794519D01*
X109064006Y-100962579D01*
X109020962Y-101178976D01*
X109020243Y-101233912D01*
X109018315Y-101381194D01*
X109018074Y-101399594D01*
X106563000Y-101399594D01*
X106563000Y-98230138D01*
X136207258Y-98230138D01*
X136224535Y-98386633D01*
X136278643Y-98534490D01*
X136366458Y-98665172D01*
X136482910Y-98771135D01*
X136621276Y-98846262D01*
X136632885Y-98849307D01*
X136632886Y-98849308D01*
X136761960Y-98883170D01*
X136761964Y-98883171D01*
X136773569Y-98886215D01*
X136785565Y-98886403D01*
X136785569Y-98886404D01*
X136853363Y-98887468D01*
X136930995Y-98888688D01*
X136942691Y-98886009D01*
X136942694Y-98886009D01*
X137072768Y-98856218D01*
X137072771Y-98856217D01*
X137084468Y-98853538D01*
X137225125Y-98782795D01*
X137344848Y-98680542D01*
X137355322Y-98665967D01*
X137429725Y-98562423D01*
X137436724Y-98552683D01*
X137495450Y-98406598D01*
X137498292Y-98386633D01*
X137516716Y-98257173D01*
X137517634Y-98250723D01*
X137517778Y-98237000D01*
X137498863Y-98080694D01*
X137494623Y-98069473D01*
X137494622Y-98069469D01*
X137447450Y-97944633D01*
X137443210Y-97933412D01*
X137395912Y-97864594D01*
X183303074Y-97864594D01*
X183304619Y-97873584D01*
X183304619Y-97873587D01*
X183310013Y-97904978D01*
X183340438Y-98082043D01*
X183343597Y-98090606D01*
X183405047Y-98257173D01*
X183416804Y-98289043D01*
X183529614Y-98478659D01*
X183535627Y-98485515D01*
X183535628Y-98485517D01*
X183587310Y-98544449D01*
X183675090Y-98644543D01*
X183682252Y-98650189D01*
X183682253Y-98650190D01*
X183841196Y-98775490D01*
X183841200Y-98775493D01*
X183848360Y-98781137D01*
X183856431Y-98785383D01*
X183856435Y-98785386D01*
X183991064Y-98856218D01*
X184043620Y-98883869D01*
X184052329Y-98886573D01*
X184052331Y-98886574D01*
X184068302Y-98891533D01*
X184254333Y-98949297D01*
X184263390Y-98950369D01*
X184427660Y-98969812D01*
X184427666Y-98969812D01*
X184433476Y-98970500D01*
X186360970Y-98970500D01*
X186365505Y-98970083D01*
X186365511Y-98970083D01*
X186515626Y-98956289D01*
X186515628Y-98956289D01*
X186524711Y-98955454D01*
X186737064Y-98895565D01*
X186934947Y-98797980D01*
X186951813Y-98785386D01*
X187104420Y-98671428D01*
X187104421Y-98671427D01*
X187111733Y-98665967D01*
X187233269Y-98534490D01*
X187255307Y-98510650D01*
X187255309Y-98510648D01*
X187261501Y-98503949D01*
X187379236Y-98317350D01*
X187387402Y-98296883D01*
X187457614Y-98120892D01*
X187460994Y-98112421D01*
X187504038Y-97896024D01*
X187506566Y-97702916D01*
X187506807Y-97684531D01*
X187506807Y-97684526D01*
X187506926Y-97675406D01*
X187501526Y-97643976D01*
X187491575Y-97586065D01*
X187469562Y-97457957D01*
X187409333Y-97294699D01*
X187396355Y-97259519D01*
X187396354Y-97259516D01*
X187393196Y-97250957D01*
X187280386Y-97061341D01*
X187258208Y-97036051D01*
X187140924Y-96902315D01*
X187134910Y-96895457D01*
X187127747Y-96889810D01*
X186968804Y-96764510D01*
X186968800Y-96764507D01*
X186961640Y-96758863D01*
X186953569Y-96754617D01*
X186953565Y-96754614D01*
X186774454Y-96660379D01*
X186766380Y-96656131D01*
X186757671Y-96653427D01*
X186757669Y-96653426D01*
X186661023Y-96623417D01*
X186555667Y-96590703D01*
X186546610Y-96589631D01*
X186382340Y-96570188D01*
X186382334Y-96570188D01*
X186376524Y-96569500D01*
X184449030Y-96569500D01*
X184444495Y-96569917D01*
X184444489Y-96569917D01*
X184294374Y-96583711D01*
X184294372Y-96583711D01*
X184285289Y-96584546D01*
X184072936Y-96644435D01*
X183875053Y-96742020D01*
X183867742Y-96747479D01*
X183867741Y-96747480D01*
X183740022Y-96842853D01*
X183698267Y-96874033D01*
X183548499Y-97036051D01*
X183430764Y-97222650D01*
X183427386Y-97231117D01*
X183427384Y-97231121D01*
X183416055Y-97259519D01*
X183349006Y-97427579D01*
X183305962Y-97643976D01*
X183304481Y-97757141D01*
X183303872Y-97803657D01*
X183303074Y-97864594D01*
X137395912Y-97864594D01*
X137354031Y-97803657D01*
X137236476Y-97698919D01*
X137097331Y-97625245D01*
X137085701Y-97622324D01*
X137085699Y-97622323D01*
X137011906Y-97603788D01*
X136944628Y-97586889D01*
X136932634Y-97586826D01*
X136932632Y-97586826D01*
X136868227Y-97586489D01*
X136787184Y-97586065D01*
X136775526Y-97588864D01*
X136775524Y-97588864D01*
X136730981Y-97599558D01*
X136634088Y-97622820D01*
X136623426Y-97628323D01*
X136613551Y-97633420D01*
X136494179Y-97695032D01*
X136485143Y-97702915D01*
X136485141Y-97702916D01*
X136384575Y-97790646D01*
X136375534Y-97798533D01*
X136285001Y-97927348D01*
X136227809Y-98074039D01*
X136207258Y-98230138D01*
X106563000Y-98230138D01*
X106563000Y-96530638D01*
X135207258Y-96530638D01*
X135224535Y-96687133D01*
X135278643Y-96834990D01*
X135366458Y-96965672D01*
X135482910Y-97071635D01*
X135621276Y-97146762D01*
X135632885Y-97149807D01*
X135632886Y-97149808D01*
X135761960Y-97183670D01*
X135761964Y-97183671D01*
X135773569Y-97186715D01*
X135785565Y-97186903D01*
X135785569Y-97186904D01*
X135853363Y-97187968D01*
X135930995Y-97189188D01*
X135942691Y-97186509D01*
X135942694Y-97186509D01*
X136072768Y-97156718D01*
X136072771Y-97156717D01*
X136084468Y-97154038D01*
X136225125Y-97083295D01*
X136344848Y-96981042D01*
X136345318Y-96980388D01*
X139457008Y-96980388D01*
X139474285Y-97136883D01*
X139528393Y-97284740D01*
X139616208Y-97415422D01*
X139732660Y-97521385D01*
X139871026Y-97596512D01*
X139882635Y-97599557D01*
X139882636Y-97599558D01*
X140011710Y-97633420D01*
X140011714Y-97633421D01*
X140023319Y-97636465D01*
X140035315Y-97636653D01*
X140035319Y-97636654D01*
X140103113Y-97637718D01*
X140180745Y-97638938D01*
X140192441Y-97636259D01*
X140192444Y-97636259D01*
X140322518Y-97606468D01*
X140322521Y-97606467D01*
X140334218Y-97603788D01*
X140474875Y-97533045D01*
X140594598Y-97430792D01*
X140605643Y-97415422D01*
X140679475Y-97312673D01*
X140686474Y-97302933D01*
X140745200Y-97156848D01*
X140747451Y-97141035D01*
X140766466Y-97007423D01*
X140767384Y-97000973D01*
X140767528Y-96987250D01*
X140765894Y-96973743D01*
X140750054Y-96842853D01*
X140748613Y-96830944D01*
X140744373Y-96819723D01*
X140744372Y-96819719D01*
X140697200Y-96694883D01*
X140692960Y-96683662D01*
X140603781Y-96553907D01*
X140486226Y-96449169D01*
X140347081Y-96375495D01*
X140335451Y-96372574D01*
X140335449Y-96372573D01*
X140270729Y-96356317D01*
X140194378Y-96337139D01*
X140182384Y-96337076D01*
X140182382Y-96337076D01*
X140117977Y-96336739D01*
X140036934Y-96336315D01*
X140025276Y-96339114D01*
X140025274Y-96339114D01*
X139976203Y-96350895D01*
X139883838Y-96373070D01*
X139873176Y-96378573D01*
X139754587Y-96439781D01*
X139743929Y-96445282D01*
X139734893Y-96453165D01*
X139734891Y-96453166D01*
X139659722Y-96518741D01*
X139625284Y-96548783D01*
X139534751Y-96677598D01*
X139477559Y-96824289D01*
X139457008Y-96980388D01*
X136345318Y-96980388D01*
X136355893Y-96965672D01*
X136429725Y-96862923D01*
X136436724Y-96853183D01*
X136476853Y-96753358D01*
X136490974Y-96718233D01*
X136490975Y-96718231D01*
X136495450Y-96707098D01*
X136497189Y-96694883D01*
X136516716Y-96557673D01*
X136517634Y-96551223D01*
X136517778Y-96537500D01*
X136498863Y-96381194D01*
X136494623Y-96369973D01*
X136494622Y-96369969D01*
X136447450Y-96245133D01*
X136443210Y-96233912D01*
X136354031Y-96104157D01*
X136236476Y-95999419D01*
X136097331Y-95925745D01*
X136085701Y-95922824D01*
X136085699Y-95922823D01*
X136020980Y-95906567D01*
X135944628Y-95887389D01*
X135932634Y-95887326D01*
X135932632Y-95887326D01*
X135868227Y-95886989D01*
X135787184Y-95886565D01*
X135775526Y-95889364D01*
X135775524Y-95889364D01*
X135726453Y-95901145D01*
X135634088Y-95923320D01*
X135623426Y-95928823D01*
X135504837Y-95990031D01*
X135494179Y-95995532D01*
X135485143Y-96003415D01*
X135485141Y-96003416D01*
X135384575Y-96091146D01*
X135375534Y-96099033D01*
X135285001Y-96227848D01*
X135227809Y-96374539D01*
X135207258Y-96530638D01*
X106563000Y-96530638D01*
X106563000Y-94997772D01*
X109019500Y-94997772D01*
X109030364Y-95087547D01*
X109035067Y-95099426D01*
X109035068Y-95099429D01*
X109079101Y-95210643D01*
X109085887Y-95227783D01*
X109177078Y-95347922D01*
X109297217Y-95439113D01*
X109309828Y-95444106D01*
X109425571Y-95489932D01*
X109425574Y-95489933D01*
X109437453Y-95494636D01*
X109527228Y-95505500D01*
X112712772Y-95505500D01*
X112802547Y-95494636D01*
X112814426Y-95489933D01*
X112814429Y-95489932D01*
X112930172Y-95444106D01*
X112942783Y-95439113D01*
X113062922Y-95347922D01*
X113154113Y-95227783D01*
X113160899Y-95210643D01*
X113204932Y-95099429D01*
X113204933Y-95099426D01*
X113209636Y-95087547D01*
X113220500Y-94997772D01*
X113220500Y-94364594D01*
X183303074Y-94364594D01*
X183304619Y-94373584D01*
X183304619Y-94373587D01*
X183310013Y-94404978D01*
X183340438Y-94582043D01*
X183416804Y-94789043D01*
X183529614Y-94978659D01*
X183535627Y-94985515D01*
X183535628Y-94985517D01*
X183557669Y-95010650D01*
X183675090Y-95144543D01*
X183682252Y-95150189D01*
X183682253Y-95150190D01*
X183841196Y-95275490D01*
X183841200Y-95275493D01*
X183848360Y-95281137D01*
X183856431Y-95285383D01*
X183856435Y-95285386D01*
X183975296Y-95347922D01*
X184043620Y-95383869D01*
X184052329Y-95386573D01*
X184052331Y-95386574D01*
X184068302Y-95391533D01*
X184254333Y-95449297D01*
X184263390Y-95450369D01*
X184427660Y-95469812D01*
X184427666Y-95469812D01*
X184433476Y-95470500D01*
X186360970Y-95470500D01*
X186365505Y-95470083D01*
X186365511Y-95470083D01*
X186515626Y-95456289D01*
X186515628Y-95456289D01*
X186524711Y-95455454D01*
X186737064Y-95395565D01*
X186934947Y-95297980D01*
X186951813Y-95285386D01*
X187104420Y-95171428D01*
X187104421Y-95171427D01*
X187111733Y-95165967D01*
X187261501Y-95003949D01*
X187379236Y-94817350D01*
X187387402Y-94796883D01*
X187457614Y-94620892D01*
X187460994Y-94612421D01*
X187504038Y-94396024D01*
X187506579Y-94201905D01*
X187506807Y-94184531D01*
X187506807Y-94184526D01*
X187506926Y-94175406D01*
X187503255Y-94154038D01*
X187481226Y-94025840D01*
X187469562Y-93957957D01*
X187430909Y-93853183D01*
X187396355Y-93759519D01*
X187396354Y-93759516D01*
X187393196Y-93750957D01*
X187280386Y-93561341D01*
X187258208Y-93536051D01*
X187178533Y-93445200D01*
X187134910Y-93395457D01*
X187126718Y-93388999D01*
X186968804Y-93264510D01*
X186968800Y-93264507D01*
X186961640Y-93258863D01*
X186953569Y-93254617D01*
X186953565Y-93254614D01*
X186774454Y-93160379D01*
X186766380Y-93156131D01*
X186757671Y-93153427D01*
X186757669Y-93153426D01*
X186650238Y-93120068D01*
X186555667Y-93090703D01*
X186546610Y-93089631D01*
X186382340Y-93070188D01*
X186382334Y-93070188D01*
X186376524Y-93069500D01*
X184449030Y-93069500D01*
X184444495Y-93069917D01*
X184444489Y-93069917D01*
X184294374Y-93083711D01*
X184294372Y-93083711D01*
X184285289Y-93084546D01*
X184072936Y-93144435D01*
X183875053Y-93242020D01*
X183867742Y-93247479D01*
X183867741Y-93247480D01*
X183801118Y-93297230D01*
X183698267Y-93374033D01*
X183684433Y-93388999D01*
X183617129Y-93461808D01*
X183548499Y-93536051D01*
X183430764Y-93722650D01*
X183427386Y-93731117D01*
X183427384Y-93731121D01*
X183390440Y-93823723D01*
X183349006Y-93927579D01*
X183305962Y-94143976D01*
X183303074Y-94364594D01*
X113220500Y-94364594D01*
X113220500Y-93612228D01*
X113210626Y-93530638D01*
X122395258Y-93530638D01*
X122412535Y-93687133D01*
X122466643Y-93834990D01*
X122554458Y-93965672D01*
X122670910Y-94071635D01*
X122809276Y-94146762D01*
X122820885Y-94149807D01*
X122820886Y-94149808D01*
X122949960Y-94183670D01*
X122949964Y-94183671D01*
X122961569Y-94186715D01*
X122973565Y-94186903D01*
X122973569Y-94186904D01*
X123041363Y-94187968D01*
X123118995Y-94189188D01*
X123130691Y-94186509D01*
X123130694Y-94186509D01*
X123260768Y-94156718D01*
X123260771Y-94156717D01*
X123272468Y-94154038D01*
X123413125Y-94083295D01*
X123480396Y-94025840D01*
X123523725Y-93988834D01*
X123523726Y-93988833D01*
X123532848Y-93981042D01*
X123542974Y-93966951D01*
X123617725Y-93862923D01*
X123624724Y-93853183D01*
X123673793Y-93731121D01*
X123678974Y-93718233D01*
X123678975Y-93718231D01*
X123683450Y-93707098D01*
X123686292Y-93687133D01*
X123701149Y-93582735D01*
X125055161Y-93582735D01*
X125072438Y-93739230D01*
X125126546Y-93887087D01*
X125214361Y-94017769D01*
X125330813Y-94123732D01*
X125469179Y-94198859D01*
X125480788Y-94201904D01*
X125480789Y-94201905D01*
X125609863Y-94235767D01*
X125609867Y-94235768D01*
X125621472Y-94238812D01*
X125633468Y-94239000D01*
X125633472Y-94239001D01*
X125701266Y-94240065D01*
X125778898Y-94241285D01*
X125790594Y-94238606D01*
X125790597Y-94238606D01*
X125920671Y-94208815D01*
X125920674Y-94208814D01*
X125932371Y-94206135D01*
X126073028Y-94135392D01*
X126147678Y-94071635D01*
X126183628Y-94040931D01*
X126183629Y-94040930D01*
X126192751Y-94033139D01*
X126203796Y-94017769D01*
X126268604Y-93927579D01*
X126284627Y-93905280D01*
X126343353Y-93759195D01*
X126345642Y-93743117D01*
X126364619Y-93609770D01*
X126365537Y-93603320D01*
X126365681Y-93589597D01*
X126346766Y-93433291D01*
X126342526Y-93422070D01*
X126342525Y-93422066D01*
X126295353Y-93297230D01*
X126291113Y-93286009D01*
X126201934Y-93156254D01*
X126187331Y-93143243D01*
X126161333Y-93120079D01*
X126109976Y-93047926D01*
X126095012Y-92960636D01*
X126119403Y-92875498D01*
X126178318Y-92809374D01*
X126260090Y-92775360D01*
X126344210Y-92779013D01*
X126373569Y-92786715D01*
X126385565Y-92786903D01*
X126385569Y-92786904D01*
X126453363Y-92787968D01*
X126530995Y-92789188D01*
X126542691Y-92786509D01*
X126542694Y-92786509D01*
X126672768Y-92756718D01*
X126672771Y-92756717D01*
X126684468Y-92754038D01*
X126795754Y-92698067D01*
X126881745Y-92676877D01*
X126968414Y-92695096D01*
X127038595Y-92749115D01*
X127072047Y-92807459D01*
X127073797Y-92812242D01*
X127073801Y-92812249D01*
X127077923Y-92823514D01*
X127165738Y-92954196D01*
X127282190Y-93060159D01*
X127420556Y-93135286D01*
X127432165Y-93138331D01*
X127432166Y-93138332D01*
X127561240Y-93172194D01*
X127561244Y-93172195D01*
X127572849Y-93175239D01*
X127584845Y-93175427D01*
X127584849Y-93175428D01*
X127652643Y-93176492D01*
X127730275Y-93177712D01*
X127741971Y-93175033D01*
X127741974Y-93175033D01*
X127803479Y-93160946D01*
X127840492Y-93152469D01*
X127929053Y-93152402D01*
X128008875Y-93190768D01*
X128050090Y-93235456D01*
X128078458Y-93277672D01*
X128194910Y-93383635D01*
X128333276Y-93458762D01*
X128344885Y-93461807D01*
X128344886Y-93461808D01*
X128473960Y-93495670D01*
X128473964Y-93495671D01*
X128485569Y-93498715D01*
X128497565Y-93498903D01*
X128497569Y-93498904D01*
X128565363Y-93499968D01*
X128642995Y-93501188D01*
X128654691Y-93498509D01*
X128654694Y-93498509D01*
X128784768Y-93468718D01*
X128784771Y-93468717D01*
X128796468Y-93466038D01*
X128937125Y-93395295D01*
X129056848Y-93293042D01*
X129066260Y-93279945D01*
X129141725Y-93174923D01*
X129148724Y-93165183D01*
X129198223Y-93042052D01*
X129202974Y-93030233D01*
X129202975Y-93030231D01*
X129207450Y-93019098D01*
X129212884Y-92980920D01*
X129228716Y-92869673D01*
X129229634Y-92863223D01*
X129229778Y-92849500D01*
X129226634Y-92823514D01*
X129217014Y-92744021D01*
X129215394Y-92730638D01*
X138007258Y-92730638D01*
X138024535Y-92887133D01*
X138078643Y-93034990D01*
X138085334Y-93044948D01*
X138085335Y-93044949D01*
X138089748Y-93051516D01*
X138166458Y-93165672D01*
X138282910Y-93271635D01*
X138421276Y-93346762D01*
X138432885Y-93349807D01*
X138432886Y-93349808D01*
X138561960Y-93383670D01*
X138561964Y-93383671D01*
X138573569Y-93386715D01*
X138585565Y-93386903D01*
X138585569Y-93386904D01*
X138653363Y-93387968D01*
X138730995Y-93389188D01*
X138742691Y-93386509D01*
X138742694Y-93386509D01*
X138872768Y-93356718D01*
X138872771Y-93356717D01*
X138884468Y-93354038D01*
X139025125Y-93283295D01*
X139090045Y-93227848D01*
X139135725Y-93188834D01*
X139135726Y-93188833D01*
X139144848Y-93181042D01*
X139155556Y-93166141D01*
X139229725Y-93062923D01*
X139236724Y-93053183D01*
X139280518Y-92944243D01*
X139290974Y-92918233D01*
X139290975Y-92918231D01*
X139295450Y-92907098D01*
X139298292Y-92887133D01*
X139316716Y-92757673D01*
X139317634Y-92751223D01*
X139317778Y-92737500D01*
X139312417Y-92693194D01*
X139300304Y-92593103D01*
X139298863Y-92581194D01*
X139294623Y-92569973D01*
X139294622Y-92569969D01*
X139247450Y-92445133D01*
X139243210Y-92433912D01*
X139154031Y-92304157D01*
X139079492Y-92237745D01*
X139045433Y-92207399D01*
X139045431Y-92207398D01*
X139036476Y-92199419D01*
X138897331Y-92125745D01*
X138885701Y-92122824D01*
X138885699Y-92122823D01*
X138820980Y-92106567D01*
X138744628Y-92087389D01*
X138732634Y-92087326D01*
X138732632Y-92087326D01*
X138668227Y-92086989D01*
X138587184Y-92086565D01*
X138575526Y-92089364D01*
X138575524Y-92089364D01*
X138526453Y-92101145D01*
X138434088Y-92123320D01*
X138423426Y-92128823D01*
X138406615Y-92137500D01*
X138294179Y-92195532D01*
X138285143Y-92203415D01*
X138285141Y-92203416D01*
X138239355Y-92243358D01*
X138175534Y-92299033D01*
X138085001Y-92427848D01*
X138027809Y-92574539D01*
X138026243Y-92586436D01*
X138012188Y-92693194D01*
X138007258Y-92730638D01*
X129215394Y-92730638D01*
X129210863Y-92693194D01*
X129206623Y-92681973D01*
X129206622Y-92681969D01*
X129159450Y-92557133D01*
X129155210Y-92545912D01*
X129066031Y-92416157D01*
X128948476Y-92311419D01*
X128809331Y-92237745D01*
X128797701Y-92234824D01*
X128797699Y-92234823D01*
X128688517Y-92207399D01*
X128656628Y-92199389D01*
X128644634Y-92199326D01*
X128644632Y-92199326D01*
X128580227Y-92198989D01*
X128499184Y-92198565D01*
X128487528Y-92201363D01*
X128487522Y-92201364D01*
X128397753Y-92222916D01*
X128309196Y-92223909D01*
X128228977Y-92186381D01*
X128187298Y-92142130D01*
X128160111Y-92102573D01*
X128160105Y-92102566D01*
X128153311Y-92092681D01*
X128050410Y-92000999D01*
X128044713Y-91995923D01*
X128044711Y-91995922D01*
X128035756Y-91987943D01*
X127896611Y-91914269D01*
X127884981Y-91911348D01*
X127884979Y-91911347D01*
X127790050Y-91887503D01*
X127743908Y-91875913D01*
X127731914Y-91875850D01*
X127731912Y-91875850D01*
X127667507Y-91875513D01*
X127586464Y-91875089D01*
X127574806Y-91877888D01*
X127574804Y-91877888D01*
X127550867Y-91883635D01*
X127433368Y-91911844D01*
X127422710Y-91917345D01*
X127422702Y-91917348D01*
X127330000Y-91965195D01*
X127244236Y-91987284D01*
X127157381Y-91969973D01*
X127086638Y-91916692D01*
X127052577Y-91858702D01*
X127047449Y-91845131D01*
X127043210Y-91833912D01*
X126954031Y-91704157D01*
X126897795Y-91654052D01*
X126845433Y-91607399D01*
X126845431Y-91607398D01*
X126836476Y-91599419D01*
X126697331Y-91525745D01*
X126685701Y-91522824D01*
X126685699Y-91522823D01*
X126591383Y-91499133D01*
X126544628Y-91487389D01*
X126532634Y-91487326D01*
X126532632Y-91487326D01*
X126468227Y-91486989D01*
X126387184Y-91486565D01*
X126375526Y-91489364D01*
X126375524Y-91489364D01*
X126343573Y-91497035D01*
X126234088Y-91523320D01*
X126223426Y-91528823D01*
X126202410Y-91539670D01*
X126094179Y-91595532D01*
X126085143Y-91603415D01*
X126085141Y-91603416D01*
X126014337Y-91665183D01*
X125975534Y-91699033D01*
X125885001Y-91827848D01*
X125827809Y-91974539D01*
X125807258Y-92130638D01*
X125824535Y-92287133D01*
X125878643Y-92434990D01*
X125966458Y-92565672D01*
X125975325Y-92573740D01*
X125975329Y-92573745D01*
X126014265Y-92609174D01*
X126064863Y-92681860D01*
X126078913Y-92769302D01*
X126053632Y-92854180D01*
X125994027Y-92919684D01*
X125911904Y-92952839D01*
X125831854Y-92949363D01*
X125792531Y-92939486D01*
X125780537Y-92939423D01*
X125780535Y-92939423D01*
X125716130Y-92939086D01*
X125635087Y-92938662D01*
X125623429Y-92941461D01*
X125623427Y-92941461D01*
X125590514Y-92949363D01*
X125481991Y-92975417D01*
X125342082Y-93047629D01*
X125333046Y-93055512D01*
X125333044Y-93055513D01*
X125271904Y-93108849D01*
X125223437Y-93151130D01*
X125216539Y-93160945D01*
X125216538Y-93160946D01*
X125208633Y-93172194D01*
X125132904Y-93279945D01*
X125075712Y-93426636D01*
X125070525Y-93466038D01*
X125057978Y-93561341D01*
X125055161Y-93582735D01*
X123701149Y-93582735D01*
X123704716Y-93557673D01*
X123705634Y-93551223D01*
X123705778Y-93537500D01*
X123701108Y-93498904D01*
X123688304Y-93393103D01*
X123686863Y-93381194D01*
X123682623Y-93369973D01*
X123682622Y-93369969D01*
X123635450Y-93245133D01*
X123631210Y-93233912D01*
X123542031Y-93104157D01*
X123475578Y-93044949D01*
X123433433Y-93007399D01*
X123433431Y-93007398D01*
X123424476Y-92999419D01*
X123285331Y-92925745D01*
X123273701Y-92922824D01*
X123273699Y-92922823D01*
X123208980Y-92906567D01*
X123132628Y-92887389D01*
X123120634Y-92887326D01*
X123120632Y-92887326D01*
X123056227Y-92886989D01*
X122975184Y-92886565D01*
X122963526Y-92889364D01*
X122963524Y-92889364D01*
X122939137Y-92895219D01*
X122822088Y-92923320D01*
X122811426Y-92928823D01*
X122792363Y-92938662D01*
X122682179Y-92995532D01*
X122673143Y-93003415D01*
X122673141Y-93003416D01*
X122581098Y-93083711D01*
X122563534Y-93099033D01*
X122556636Y-93108848D01*
X122556635Y-93108849D01*
X122542080Y-93129559D01*
X122473001Y-93227848D01*
X122415809Y-93374539D01*
X122413055Y-93395457D01*
X122399862Y-93495670D01*
X122395258Y-93530638D01*
X113210626Y-93530638D01*
X113209636Y-93522453D01*
X113200313Y-93498904D01*
X113159106Y-93394828D01*
X113154113Y-93382217D01*
X113062922Y-93262078D01*
X112942783Y-93170887D01*
X112905824Y-93156254D01*
X112814429Y-93120068D01*
X112814426Y-93120067D01*
X112802547Y-93115364D01*
X112712772Y-93104500D01*
X109527228Y-93104500D01*
X109437453Y-93115364D01*
X109425574Y-93120067D01*
X109425571Y-93120068D01*
X109334176Y-93156254D01*
X109297217Y-93170887D01*
X109177078Y-93262078D01*
X109085887Y-93382217D01*
X109080894Y-93394828D01*
X109039688Y-93498904D01*
X109030364Y-93522453D01*
X109019500Y-93612228D01*
X109019500Y-94997772D01*
X106563000Y-94997772D01*
X106563000Y-90886638D01*
X117463258Y-90886638D01*
X117480535Y-91043133D01*
X117534643Y-91190990D01*
X117541334Y-91200948D01*
X117541335Y-91200949D01*
X117546868Y-91209183D01*
X117622458Y-91321672D01*
X117738910Y-91427635D01*
X117877276Y-91502762D01*
X117888885Y-91505807D01*
X117888886Y-91505808D01*
X118017960Y-91539670D01*
X118017964Y-91539671D01*
X118029569Y-91542715D01*
X118041565Y-91542903D01*
X118041569Y-91542904D01*
X118109363Y-91543968D01*
X118186995Y-91545188D01*
X118198691Y-91542509D01*
X118198694Y-91542509D01*
X118328768Y-91512718D01*
X118328771Y-91512717D01*
X118340468Y-91510038D01*
X118481125Y-91439295D01*
X118570194Y-91363223D01*
X118591725Y-91344834D01*
X118591726Y-91344833D01*
X118594296Y-91342638D01*
X119993431Y-91342638D01*
X120010708Y-91499133D01*
X120064816Y-91646990D01*
X120152631Y-91777672D01*
X120269083Y-91883635D01*
X120407449Y-91958762D01*
X120419058Y-91961807D01*
X120419059Y-91961808D01*
X120548133Y-91995670D01*
X120548137Y-91995671D01*
X120559742Y-91998715D01*
X120571738Y-91998903D01*
X120571742Y-91998904D01*
X120639536Y-91999968D01*
X120717168Y-92001188D01*
X120728864Y-91998509D01*
X120728867Y-91998509D01*
X120858941Y-91968718D01*
X120858944Y-91968717D01*
X120870641Y-91966038D01*
X121011298Y-91895295D01*
X121131021Y-91793042D01*
X121142066Y-91777672D01*
X121215898Y-91674923D01*
X121222897Y-91665183D01*
X121273353Y-91539670D01*
X121277147Y-91530233D01*
X121277148Y-91530231D01*
X121281623Y-91519098D01*
X121283515Y-91505808D01*
X121302889Y-91369673D01*
X121303807Y-91363223D01*
X121303951Y-91349500D01*
X121302444Y-91337042D01*
X121293461Y-91262817D01*
X121285036Y-91193194D01*
X121280796Y-91181973D01*
X121280795Y-91181969D01*
X121233623Y-91057133D01*
X121229383Y-91045912D01*
X121140204Y-90916157D01*
X121022649Y-90811419D01*
X120883504Y-90737745D01*
X120871874Y-90734824D01*
X120871872Y-90734823D01*
X120807152Y-90718567D01*
X120730801Y-90699389D01*
X120718807Y-90699326D01*
X120718805Y-90699326D01*
X120654400Y-90698989D01*
X120573357Y-90698565D01*
X120561699Y-90701364D01*
X120561697Y-90701364D01*
X120512626Y-90713145D01*
X120420261Y-90735320D01*
X120409599Y-90740823D01*
X120393557Y-90749103D01*
X120280352Y-90807532D01*
X120271316Y-90815415D01*
X120271314Y-90815416D01*
X120203309Y-90874741D01*
X120161707Y-90911033D01*
X120071174Y-91039848D01*
X120013982Y-91186539D01*
X120012416Y-91198436D01*
X119995129Y-91329743D01*
X119993431Y-91342638D01*
X118594296Y-91342638D01*
X118600848Y-91337042D01*
X118611893Y-91321672D01*
X118685725Y-91218923D01*
X118692724Y-91209183D01*
X118751450Y-91063098D01*
X118754292Y-91043133D01*
X118771695Y-90920849D01*
X118773634Y-90907223D01*
X118773778Y-90893500D01*
X118754863Y-90737194D01*
X118750623Y-90725973D01*
X118750622Y-90725969D01*
X118703450Y-90601133D01*
X118699210Y-90589912D01*
X118610031Y-90460157D01*
X118568723Y-90423353D01*
X118501433Y-90363399D01*
X118501431Y-90363398D01*
X118492476Y-90355419D01*
X118353331Y-90281745D01*
X118341701Y-90278824D01*
X118341699Y-90278823D01*
X118276980Y-90262567D01*
X118200628Y-90243389D01*
X118188634Y-90243326D01*
X118188632Y-90243326D01*
X118124227Y-90242989D01*
X118043184Y-90242565D01*
X118031526Y-90245364D01*
X118031524Y-90245364D01*
X117982453Y-90257145D01*
X117890088Y-90279320D01*
X117879426Y-90284823D01*
X117871942Y-90288686D01*
X117750179Y-90351532D01*
X117741143Y-90359415D01*
X117741141Y-90359416D01*
X117710084Y-90386509D01*
X117631534Y-90455033D01*
X117541001Y-90583848D01*
X117483809Y-90730539D01*
X117463258Y-90886638D01*
X106563000Y-90886638D01*
X106563000Y-89730638D01*
X133607258Y-89730638D01*
X133624535Y-89887133D01*
X133678643Y-90034990D01*
X133766458Y-90165672D01*
X133882910Y-90271635D01*
X134021276Y-90346762D01*
X134032885Y-90349807D01*
X134032886Y-90349808D01*
X134161960Y-90383670D01*
X134161964Y-90383671D01*
X134173569Y-90386715D01*
X134185565Y-90386903D01*
X134185569Y-90386904D01*
X134253363Y-90387968D01*
X134330995Y-90389188D01*
X134342691Y-90386509D01*
X134342694Y-90386509D01*
X134472768Y-90356718D01*
X134472771Y-90356717D01*
X134484468Y-90354038D01*
X134625125Y-90283295D01*
X134744848Y-90181042D01*
X134755893Y-90165672D01*
X134829725Y-90062923D01*
X134836724Y-90053183D01*
X134895450Y-89907098D01*
X134898292Y-89887133D01*
X134916716Y-89757673D01*
X134917634Y-89751223D01*
X134917778Y-89737500D01*
X134916948Y-89730638D01*
X136007258Y-89730638D01*
X136024535Y-89887133D01*
X136078643Y-90034990D01*
X136166458Y-90165672D01*
X136282910Y-90271635D01*
X136421276Y-90346762D01*
X136432885Y-90349807D01*
X136432886Y-90349808D01*
X136561960Y-90383670D01*
X136561964Y-90383671D01*
X136573569Y-90386715D01*
X136585565Y-90386903D01*
X136585569Y-90386904D01*
X136653363Y-90387968D01*
X136730995Y-90389188D01*
X136742691Y-90386509D01*
X136742694Y-90386509D01*
X136872768Y-90356718D01*
X136872771Y-90356717D01*
X136884468Y-90354038D01*
X137025125Y-90283295D01*
X137144848Y-90181042D01*
X137155893Y-90165672D01*
X137229725Y-90062923D01*
X137236724Y-90053183D01*
X137295450Y-89907098D01*
X137298292Y-89887133D01*
X137316716Y-89757673D01*
X137317634Y-89751223D01*
X137317778Y-89737500D01*
X137298863Y-89581194D01*
X137294623Y-89569973D01*
X137294622Y-89569969D01*
X137247450Y-89445133D01*
X137243210Y-89433912D01*
X137154031Y-89304157D01*
X137111410Y-89266183D01*
X137045433Y-89207399D01*
X137045431Y-89207398D01*
X137036476Y-89199419D01*
X136897331Y-89125745D01*
X136885701Y-89122824D01*
X136885699Y-89122823D01*
X136795364Y-89100133D01*
X136744628Y-89087389D01*
X136732634Y-89087326D01*
X136732632Y-89087326D01*
X136668227Y-89086989D01*
X136587184Y-89086565D01*
X136575526Y-89089364D01*
X136575524Y-89089364D01*
X136530669Y-89100133D01*
X136434088Y-89123320D01*
X136423426Y-89128823D01*
X136304837Y-89190031D01*
X136294179Y-89195532D01*
X136285143Y-89203415D01*
X136285141Y-89203416D01*
X136202025Y-89275923D01*
X136175534Y-89299033D01*
X136085001Y-89427848D01*
X136027809Y-89574539D01*
X136007258Y-89730638D01*
X134916948Y-89730638D01*
X134898863Y-89581194D01*
X134894623Y-89569973D01*
X134894622Y-89569969D01*
X134847450Y-89445133D01*
X134843210Y-89433912D01*
X134754031Y-89304157D01*
X134711410Y-89266183D01*
X134645433Y-89207399D01*
X134645431Y-89207398D01*
X134636476Y-89199419D01*
X134497331Y-89125745D01*
X134485701Y-89122824D01*
X134485699Y-89122823D01*
X134395364Y-89100133D01*
X134344628Y-89087389D01*
X134332634Y-89087326D01*
X134332632Y-89087326D01*
X134268227Y-89086989D01*
X134187184Y-89086565D01*
X134175526Y-89089364D01*
X134175524Y-89089364D01*
X134130669Y-89100133D01*
X134034088Y-89123320D01*
X134023426Y-89128823D01*
X133904837Y-89190031D01*
X133894179Y-89195532D01*
X133885143Y-89203415D01*
X133885141Y-89203416D01*
X133802025Y-89275923D01*
X133775534Y-89299033D01*
X133685001Y-89427848D01*
X133627809Y-89574539D01*
X133607258Y-89730638D01*
X106563000Y-89730638D01*
X106563000Y-88943638D01*
X118593716Y-88943638D01*
X118610993Y-89100133D01*
X118665101Y-89247990D01*
X118752916Y-89378672D01*
X118869368Y-89484635D01*
X119007734Y-89559762D01*
X119019343Y-89562807D01*
X119019344Y-89562808D01*
X119148418Y-89596670D01*
X119148422Y-89596671D01*
X119160027Y-89599715D01*
X119172023Y-89599903D01*
X119172027Y-89599904D01*
X119239821Y-89600968D01*
X119317453Y-89602188D01*
X119329149Y-89599509D01*
X119329152Y-89599509D01*
X119459226Y-89569718D01*
X119459229Y-89569717D01*
X119470926Y-89567038D01*
X119611583Y-89496295D01*
X119731306Y-89394042D01*
X119742351Y-89378672D01*
X119816183Y-89275923D01*
X119823182Y-89266183D01*
X119863311Y-89166358D01*
X119877432Y-89131233D01*
X119877433Y-89131231D01*
X119881908Y-89120098D01*
X119884750Y-89100133D01*
X119903174Y-88970673D01*
X119904092Y-88964223D01*
X119904236Y-88950500D01*
X119885321Y-88794194D01*
X119881081Y-88782973D01*
X119881080Y-88782969D01*
X119833908Y-88658133D01*
X119829668Y-88646912D01*
X119740489Y-88517157D01*
X119622934Y-88412419D01*
X119483789Y-88338745D01*
X119472159Y-88335824D01*
X119472157Y-88335823D01*
X119407438Y-88319567D01*
X119331086Y-88300389D01*
X119319092Y-88300326D01*
X119319090Y-88300326D01*
X119254685Y-88299989D01*
X119173642Y-88299565D01*
X119161984Y-88302364D01*
X119161982Y-88302364D01*
X119112911Y-88314145D01*
X119020546Y-88336320D01*
X119009884Y-88341823D01*
X118891295Y-88403031D01*
X118880637Y-88408532D01*
X118871601Y-88416415D01*
X118871599Y-88416416D01*
X118771033Y-88504146D01*
X118761992Y-88512033D01*
X118671459Y-88640848D01*
X118614267Y-88787539D01*
X118593716Y-88943638D01*
X106563000Y-88943638D01*
X106563000Y-85895970D01*
X145144758Y-85895970D01*
X145162035Y-86052465D01*
X145216143Y-86200322D01*
X145222834Y-86210280D01*
X145222835Y-86210281D01*
X145248615Y-86248645D01*
X145303958Y-86331004D01*
X145420410Y-86436967D01*
X145558776Y-86512094D01*
X145570385Y-86515139D01*
X145570386Y-86515140D01*
X145699460Y-86549002D01*
X145699464Y-86549003D01*
X145711069Y-86552047D01*
X145723065Y-86552235D01*
X145723069Y-86552236D01*
X145790863Y-86553300D01*
X145868495Y-86554520D01*
X145880191Y-86551841D01*
X145880194Y-86551841D01*
X146010268Y-86522050D01*
X146010271Y-86522049D01*
X146021968Y-86519370D01*
X146162625Y-86448627D01*
X146282348Y-86346374D01*
X146293393Y-86331004D01*
X146367225Y-86228255D01*
X146374224Y-86218515D01*
X146432950Y-86072430D01*
X146435792Y-86052465D01*
X146454216Y-85923005D01*
X146455134Y-85916555D01*
X146455278Y-85902832D01*
X146436363Y-85746526D01*
X146432123Y-85735305D01*
X146432122Y-85735301D01*
X146394605Y-85636016D01*
X147212636Y-85636016D01*
X147229913Y-85792511D01*
X147284021Y-85940368D01*
X147371836Y-86071050D01*
X147488288Y-86177013D01*
X147626654Y-86252140D01*
X147638263Y-86255185D01*
X147638264Y-86255186D01*
X147767338Y-86289048D01*
X147767342Y-86289049D01*
X147778947Y-86292093D01*
X147790943Y-86292281D01*
X147790947Y-86292282D01*
X147858741Y-86293346D01*
X147936373Y-86294566D01*
X147948069Y-86291887D01*
X147948072Y-86291887D01*
X148078146Y-86262096D01*
X148078149Y-86262095D01*
X148089846Y-86259416D01*
X148230503Y-86188673D01*
X148239626Y-86180881D01*
X148249619Y-86174242D01*
X148250390Y-86175403D01*
X148317598Y-86140202D01*
X148406111Y-86137221D01*
X148479684Y-86168700D01*
X148482910Y-86171635D01*
X148621276Y-86246762D01*
X148632885Y-86249807D01*
X148632886Y-86249808D01*
X148761960Y-86283670D01*
X148761964Y-86283671D01*
X148773569Y-86286715D01*
X148785565Y-86286903D01*
X148785569Y-86286904D01*
X148853363Y-86287968D01*
X148930995Y-86289188D01*
X148942691Y-86286509D01*
X148942694Y-86286509D01*
X149072768Y-86256718D01*
X149072771Y-86256717D01*
X149084468Y-86254038D01*
X149225125Y-86183295D01*
X149344848Y-86081042D01*
X149355893Y-86065672D01*
X149429725Y-85962923D01*
X149436724Y-85953183D01*
X149495450Y-85807098D01*
X149506609Y-85728694D01*
X149516716Y-85657673D01*
X149517634Y-85651223D01*
X149517778Y-85637500D01*
X149514507Y-85610465D01*
X149500304Y-85493103D01*
X149498863Y-85481194D01*
X149494623Y-85469973D01*
X149494622Y-85469969D01*
X149447450Y-85345133D01*
X149443210Y-85333912D01*
X149354031Y-85204157D01*
X149281075Y-85139155D01*
X149245433Y-85107399D01*
X149245431Y-85107398D01*
X149236476Y-85099419D01*
X149097331Y-85025745D01*
X149085701Y-85022824D01*
X149085699Y-85022823D01*
X149020979Y-85006567D01*
X148944628Y-84987389D01*
X148932634Y-84987326D01*
X148932632Y-84987326D01*
X148868227Y-84986989D01*
X148787184Y-84986565D01*
X148775526Y-84989364D01*
X148775524Y-84989364D01*
X148726453Y-85001145D01*
X148634088Y-85023320D01*
X148623426Y-85028823D01*
X148613006Y-85034201D01*
X148494179Y-85095532D01*
X148485141Y-85103416D01*
X148475215Y-85110162D01*
X148473331Y-85107389D01*
X148414202Y-85139155D01*
X148325725Y-85143067D01*
X148249053Y-85111211D01*
X148241854Y-85104797D01*
X148102709Y-85031123D01*
X148091079Y-85028202D01*
X148091077Y-85028201D01*
X148026357Y-85011945D01*
X147950006Y-84992767D01*
X147938012Y-84992704D01*
X147938010Y-84992704D01*
X147873605Y-84992367D01*
X147792562Y-84991943D01*
X147780904Y-84994742D01*
X147780902Y-84994742D01*
X147731831Y-85006523D01*
X147639466Y-85028698D01*
X147628804Y-85034201D01*
X147520635Y-85090031D01*
X147499557Y-85100910D01*
X147490521Y-85108793D01*
X147490519Y-85108794D01*
X147390353Y-85196175D01*
X147380912Y-85204411D01*
X147290379Y-85333226D01*
X147233187Y-85479917D01*
X147231621Y-85491814D01*
X147218276Y-85593180D01*
X147212636Y-85636016D01*
X146394605Y-85636016D01*
X146384950Y-85610465D01*
X146380710Y-85599244D01*
X146291531Y-85469489D01*
X146173976Y-85364751D01*
X146034831Y-85291077D01*
X146023201Y-85288156D01*
X146023199Y-85288155D01*
X145958479Y-85271899D01*
X145882128Y-85252721D01*
X145870134Y-85252658D01*
X145870132Y-85252658D01*
X145805727Y-85252321D01*
X145724684Y-85251897D01*
X145713026Y-85254696D01*
X145713024Y-85254696D01*
X145663953Y-85266477D01*
X145571588Y-85288652D01*
X145560926Y-85294155D01*
X145504239Y-85323413D01*
X145431679Y-85360864D01*
X145422643Y-85368747D01*
X145422641Y-85368748D01*
X145322075Y-85456478D01*
X145313034Y-85464365D01*
X145306136Y-85474180D01*
X145306135Y-85474181D01*
X145276777Y-85515953D01*
X145222501Y-85593180D01*
X145165309Y-85739871D01*
X145144758Y-85895970D01*
X106563000Y-85895970D01*
X106563000Y-82930638D01*
X145107258Y-82930638D01*
X145124535Y-83087133D01*
X145178643Y-83234990D01*
X145266458Y-83365672D01*
X145382910Y-83471635D01*
X145521276Y-83546762D01*
X145532885Y-83549807D01*
X145532886Y-83549808D01*
X145661960Y-83583670D01*
X145661964Y-83583671D01*
X145673569Y-83586715D01*
X145685565Y-83586903D01*
X145685569Y-83586904D01*
X145753363Y-83587968D01*
X145830995Y-83589188D01*
X145842691Y-83586509D01*
X145842694Y-83586509D01*
X145972768Y-83556718D01*
X145972771Y-83556717D01*
X145984468Y-83554038D01*
X146125125Y-83483295D01*
X146134248Y-83475503D01*
X146144241Y-83468864D01*
X146145873Y-83471321D01*
X146206939Y-83439343D01*
X146295452Y-83436367D01*
X146376491Y-83472091D01*
X146391641Y-83484567D01*
X146438288Y-83527013D01*
X146576654Y-83602140D01*
X146588263Y-83605185D01*
X146588264Y-83605186D01*
X146717338Y-83639048D01*
X146717342Y-83639049D01*
X146728947Y-83642093D01*
X146740943Y-83642281D01*
X146740947Y-83642282D01*
X146808741Y-83643346D01*
X146886373Y-83644566D01*
X146898069Y-83641887D01*
X146898072Y-83641887D01*
X147028146Y-83612096D01*
X147028149Y-83612095D01*
X147039846Y-83609416D01*
X147166294Y-83545819D01*
X147252282Y-83524630D01*
X147338951Y-83542849D01*
X147370982Y-83561390D01*
X147374036Y-83563561D01*
X147382910Y-83571635D01*
X147521276Y-83646762D01*
X147532885Y-83649807D01*
X147532886Y-83649808D01*
X147661960Y-83683670D01*
X147661964Y-83683671D01*
X147673569Y-83686715D01*
X147685565Y-83686903D01*
X147685569Y-83686904D01*
X147753363Y-83687968D01*
X147830995Y-83689188D01*
X147842691Y-83686509D01*
X147842694Y-83686509D01*
X147972768Y-83656718D01*
X147972771Y-83656717D01*
X147984468Y-83654038D01*
X148125125Y-83583295D01*
X148134248Y-83575503D01*
X148144241Y-83568864D01*
X148145174Y-83570268D01*
X148211227Y-83535673D01*
X148299741Y-83532693D01*
X148375945Y-83565297D01*
X148382910Y-83571635D01*
X148393451Y-83577358D01*
X148393452Y-83577359D01*
X148410304Y-83586509D01*
X148521276Y-83646762D01*
X148532885Y-83649807D01*
X148532886Y-83649808D01*
X148661960Y-83683670D01*
X148661964Y-83683671D01*
X148673569Y-83686715D01*
X148685565Y-83686903D01*
X148685569Y-83686904D01*
X148753363Y-83687968D01*
X148830995Y-83689188D01*
X148842691Y-83686509D01*
X148842694Y-83686509D01*
X148972768Y-83656718D01*
X148972771Y-83656717D01*
X148984468Y-83654038D01*
X149125125Y-83583295D01*
X149244848Y-83481042D01*
X149255893Y-83465672D01*
X149329725Y-83362923D01*
X149336724Y-83353183D01*
X149381399Y-83242052D01*
X149390974Y-83218233D01*
X149390975Y-83218231D01*
X149395450Y-83207098D01*
X149417634Y-83051223D01*
X149417778Y-83037500D01*
X149404846Y-82930638D01*
X150107258Y-82930638D01*
X150124535Y-83087133D01*
X150178643Y-83234990D01*
X150266458Y-83365672D01*
X150382910Y-83471635D01*
X150521276Y-83546762D01*
X150532885Y-83549807D01*
X150532886Y-83549808D01*
X150661960Y-83583670D01*
X150661964Y-83583671D01*
X150673569Y-83586715D01*
X150685565Y-83586903D01*
X150685569Y-83586904D01*
X150753363Y-83587968D01*
X150830995Y-83589188D01*
X150842691Y-83586509D01*
X150842694Y-83586509D01*
X150972768Y-83556718D01*
X150972771Y-83556717D01*
X150984468Y-83554038D01*
X151125125Y-83483295D01*
X151244848Y-83381042D01*
X151255893Y-83365672D01*
X151329725Y-83262923D01*
X151336724Y-83253183D01*
X151395450Y-83107098D01*
X151398292Y-83087133D01*
X151416716Y-82957673D01*
X151417634Y-82951223D01*
X151417778Y-82937500D01*
X151412406Y-82893103D01*
X151400304Y-82793103D01*
X151398863Y-82781194D01*
X151394623Y-82769973D01*
X151394622Y-82769969D01*
X151347450Y-82645133D01*
X151343210Y-82633912D01*
X151254031Y-82504157D01*
X151188092Y-82445407D01*
X151145433Y-82407399D01*
X151145431Y-82407398D01*
X151136476Y-82399419D01*
X150997331Y-82325745D01*
X150985701Y-82322824D01*
X150985699Y-82322823D01*
X150920980Y-82306567D01*
X150844628Y-82287389D01*
X150832634Y-82287326D01*
X150832632Y-82287326D01*
X150768227Y-82286989D01*
X150687184Y-82286565D01*
X150675526Y-82289364D01*
X150675524Y-82289364D01*
X150626453Y-82301145D01*
X150534088Y-82323320D01*
X150523426Y-82328823D01*
X150411552Y-82386565D01*
X150394179Y-82395532D01*
X150385143Y-82403415D01*
X150385141Y-82403416D01*
X150311143Y-82467969D01*
X150275534Y-82499033D01*
X150268636Y-82508848D01*
X150268635Y-82508849D01*
X150267712Y-82510162D01*
X150185001Y-82627848D01*
X150127809Y-82774539D01*
X150126243Y-82786436D01*
X150112200Y-82893103D01*
X150107258Y-82930638D01*
X149404846Y-82930638D01*
X149398863Y-82881194D01*
X149394623Y-82869973D01*
X149394622Y-82869969D01*
X149347450Y-82745133D01*
X149343210Y-82733912D01*
X149254031Y-82604157D01*
X149203949Y-82559535D01*
X149145433Y-82507399D01*
X149145431Y-82507398D01*
X149136476Y-82499419D01*
X148997331Y-82425745D01*
X148985701Y-82422824D01*
X148985699Y-82422823D01*
X148908435Y-82403416D01*
X148844628Y-82387389D01*
X148832634Y-82387326D01*
X148832632Y-82387326D01*
X148768227Y-82386989D01*
X148687184Y-82386565D01*
X148675526Y-82389364D01*
X148675524Y-82389364D01*
X148633643Y-82399419D01*
X148534088Y-82423320D01*
X148523426Y-82428823D01*
X148491295Y-82445407D01*
X148394179Y-82495532D01*
X148385141Y-82503416D01*
X148375215Y-82510162D01*
X148373159Y-82507136D01*
X148315200Y-82538255D01*
X148226722Y-82542145D01*
X148148868Y-82509786D01*
X148145428Y-82507395D01*
X148136476Y-82499419D01*
X148125882Y-82493810D01*
X148125878Y-82493807D01*
X148041599Y-82449184D01*
X147997331Y-82425745D01*
X147985701Y-82422824D01*
X147985699Y-82422823D01*
X147908435Y-82403416D01*
X147844628Y-82387389D01*
X147832634Y-82387326D01*
X147832632Y-82387326D01*
X147768227Y-82386989D01*
X147687184Y-82386565D01*
X147675526Y-82389364D01*
X147675524Y-82389364D01*
X147633643Y-82399419D01*
X147534088Y-82423320D01*
X147523426Y-82428823D01*
X147416553Y-82483984D01*
X147330788Y-82506073D01*
X147243933Y-82488762D01*
X147211812Y-82467969D01*
X147210662Y-82469624D01*
X147200810Y-82462777D01*
X147191854Y-82454797D01*
X147052709Y-82381123D01*
X147041079Y-82378202D01*
X147041077Y-82378201D01*
X146976357Y-82361945D01*
X146900006Y-82342767D01*
X146888012Y-82342704D01*
X146888010Y-82342704D01*
X146823605Y-82342367D01*
X146742562Y-82341943D01*
X146730904Y-82344742D01*
X146730902Y-82344742D01*
X146681831Y-82356523D01*
X146589466Y-82378698D01*
X146449557Y-82450910D01*
X146440513Y-82458799D01*
X146434204Y-82463087D01*
X146351715Y-82495319D01*
X146263409Y-82488569D01*
X146189968Y-82447078D01*
X146145437Y-82407402D01*
X146145432Y-82407399D01*
X146136476Y-82399419D01*
X145997331Y-82325745D01*
X145985701Y-82322824D01*
X145985699Y-82322823D01*
X145920980Y-82306567D01*
X145844628Y-82287389D01*
X145832634Y-82287326D01*
X145832632Y-82287326D01*
X145768227Y-82286989D01*
X145687184Y-82286565D01*
X145675526Y-82289364D01*
X145675524Y-82289364D01*
X145626453Y-82301145D01*
X145534088Y-82323320D01*
X145523426Y-82328823D01*
X145411552Y-82386565D01*
X145394179Y-82395532D01*
X145385143Y-82403415D01*
X145385141Y-82403416D01*
X145311143Y-82467969D01*
X145275534Y-82499033D01*
X145268636Y-82508848D01*
X145268635Y-82508849D01*
X145267712Y-82510162D01*
X145185001Y-82627848D01*
X145127809Y-82774539D01*
X145126243Y-82786436D01*
X145112200Y-82893103D01*
X145107258Y-82930638D01*
X106563000Y-82930638D01*
X106563000Y-80581204D01*
X106564613Y-80562766D01*
X106564613Y-80554644D01*
X106567636Y-80537500D01*
X106564757Y-80521170D01*
X106565226Y-80509220D01*
X106576539Y-80365471D01*
X106581425Y-80334628D01*
X106618054Y-80182060D01*
X106627703Y-80152362D01*
X106687746Y-80007405D01*
X106701922Y-79979583D01*
X106705854Y-79973166D01*
X106783903Y-79845802D01*
X106802249Y-79820551D01*
X106904159Y-79701228D01*
X106926228Y-79679159D01*
X107045551Y-79577249D01*
X107070802Y-79558903D01*
X107204583Y-79476922D01*
X107232405Y-79462746D01*
X107377362Y-79402703D01*
X107407060Y-79393054D01*
X107559628Y-79356425D01*
X107590469Y-79351539D01*
X107734221Y-79340226D01*
X107746170Y-79339757D01*
X107762500Y-79342636D01*
X107779644Y-79339613D01*
X107787766Y-79339613D01*
X107806204Y-79338000D01*
X118144584Y-79338000D01*
X118233580Y-79359009D01*
G37*
G04 #@! TD.AperFunction*
M02*
