M48
; FORMAT={-:-/ absolute / metric / decimal}
; #@! TF.GenerationSoftware,Kicad,Pcbnew,6.0.11+dfsg-1
; #@! TF.FileFunction,Plated,1,4,PTH
FMAT,2
METRIC
; #@! TA.AperFunction,Plated,PTH,ViaDrill
T1C0.300
; #@! TA.AperFunction,Plated,PTH,ComponentDrill
T2C0.500
; #@! TA.AperFunction,Plated,PTH,ComponentDrill
T3C0.900
; #@! TA.AperFunction,Plated,PTH,ComponentDrill
T4C1.000
; #@! TA.AperFunction,Plated,PTH,ComponentDrill
T5C1.200
; #@! TA.AperFunction,Plated,PTH,ComponentDrill
T6C3.200
%
G90
G05
T1
X111.0Y-113.5
X113.0Y-113.5
X115.797Y-102.603
X115.963Y-101.537
X116.0Y-107.5
X116.2Y-87.4
X117.1Y-86.5
X117.1Y-88.5
X117.262Y-81.737
X117.962Y-87.438
X118.0Y-109.5
X118.118Y-90.893
X118.262Y-81.737
X119.249Y-88.95
X119.262Y-81.737
X120.0Y-106.5
X120.0Y-111.5
X120.0Y-113.5
X120.262Y-81.737
X120.649Y-91.349
X121.0Y-107.5
X121.462Y-94.337
X121.462Y-94.938
X122.438Y-108.962
X122.762Y-89.037
X122.762Y-90.537
X123.05Y-93.537
X123.062Y-82.337
X123.232Y-101.337
X123.262Y-88.537
X123.262Y-91.037
X123.462Y-80.138
X123.462Y-81.337
X123.762Y-89.037
X123.762Y-90.537
X124.262Y-88.537
X124.262Y-91.037
X124.762Y-89.037
X124.762Y-90.537
X125.262Y-84.138
X125.262Y-88.537
X125.262Y-91.037
X125.432Y-101.537
X125.71Y-93.59
X126.232Y-101.537
X126.462Y-92.138
X126.938Y-111.962
X127.462Y-79.938
X127.462Y-81.537
X127.462Y-89.138
X127.662Y-92.526
X127.938Y-111.962
X127.938Y-112.962
X128.575Y-92.849
X128.938Y-111.962
X129.0Y-107.5
X129.062Y-87.938
X129.463Y-89.138
X130.862Y-87.737
X132.06Y-108.542
X133.262Y-80.337
X133.262Y-81.138
X133.262Y-108.537
X134.262Y-89.737
X135.0Y-107.5
X135.262Y-89.537
X135.862Y-96.537
X136.662Y-89.737
X136.862Y-98.237
X137.762Y-97.037
X138.662Y-92.737
X139.262Y-80.537
X139.262Y-81.138
X140.112Y-96.987
X140.262Y-89.737
X141.062Y-104.537
X141.062Y-106.737
X141.262Y-89.737
X142.662Y-104.537
X142.662Y-106.737
X143.662Y-104.537
X143.662Y-106.737
X144.262Y-86.138
X144.262Y-87.737
X145.262Y-104.537
X145.262Y-106.737
X145.762Y-82.938
X145.8Y-85.903
X146.818Y-82.993
X147.762Y-83.037
X147.868Y-85.643
X148.262Y-87.837
X148.662Y-104.537
X148.662Y-106.737
X148.762Y-83.037
X148.862Y-85.638
X149.597Y-109.803
X150.463Y-104.537
X150.463Y-106.737
X150.762Y-82.938
X151.062Y-109.537
X151.262Y-102.737
X154.463Y-86.537
X154.463Y-87.138
X155.262Y-86.737
X155.262Y-88.337
X156.463Y-103.137
X157.1Y-115.0
X157.1Y-116.075
X157.262Y-80.337
X157.262Y-81.138
X158.1Y-115.0
X158.1Y-116.075
X158.262Y-102.137
X158.6Y-110.0
X159.262Y-102.537
X159.558Y-110.009
X159.6Y-111.0
X161.1Y-109.5
X162.1Y-109.5
X162.6Y-106.575
X162.6Y-114.5
X163.262Y-80.337
X163.262Y-81.138
X163.6Y-106.5
X164.6Y-106.5
X165.6Y-106.075
X166.8Y-111.3
X166.8Y-112.3
X168.6Y-111.3
X168.6Y-112.7
X170.6Y-112.9
X170.775Y-114.875
X170.972Y-85.402
X173.0Y-115.5
X173.0Y-116.3
X175.0Y-115.5
X175.0Y-116.3
X175.938Y-84.237
X177.0Y-115.5
X177.0Y-116.3
X177.1Y-108.5
X177.1Y-110.5
X177.862Y-114.537
X178.1Y-108.5
X178.1Y-110.5
X178.1Y-112.5
X183.662Y-114.537
T2
X130.862Y-100.537
X131.565Y-98.84
X131.565Y-102.235
X133.262Y-98.137
X133.262Y-102.938
X134.96Y-98.84
X134.96Y-102.235
X135.662Y-100.537
X160.862Y-100.537
X161.565Y-98.84
X161.565Y-102.235
X163.262Y-98.137
X163.262Y-102.938
X164.96Y-98.84
X164.96Y-102.235
X165.662Y-100.537
T4
X125.037Y-109.96
X125.037Y-112.5
X125.037Y-115.04
X155.6Y-108.575
X155.6Y-111.115
X155.6Y-113.655
X168.4Y-104.575
X168.4Y-107.115
X168.4Y-109.655
X175.2Y-98.36
X175.2Y-100.9
X175.2Y-103.44
T5
X111.12Y-94.305
X111.12Y-97.805
X111.12Y-101.305
X111.12Y-104.805
X185.405Y-94.27
X185.405Y-97.77
X185.405Y-101.27
X185.405Y-104.77
T6
X133.262Y-100.537
X163.262Y-100.537
T2
G00X144.387Y-84.468
M15
G01X143.688Y-84.468
M16
G05
G00X152.838Y-81.608
M15
G01X152.137Y-81.608
M16
G05
T3
G00X144.183Y-81.537
M15
G01X142.843Y-81.537
M16
G05
G00X153.683Y-84.537
M15
G01X152.343Y-84.537
M16
G05
T0
M30
