%TF.GenerationSoftware,KiCad,Pcbnew,6.0.11+dfsg-1*%
%TF.ProjectId,project,70726f6a-6563-4742-9e6b-696361645f70,rev?*%
%TF.SameCoordinates,Original*%
%TF.FileFunction,Drillmap*%
%TF.FilePolarity,Positive*%
%FSLAX45Y45*%
G04 Gerber Fmt 4.5, Leading zero omitted, Abs format (unit mm)*
%MOMM*%
%LPD*%
G01*
G04 APERTURE LIST*
%ADD10C,0.100000*%
%ADD11C,0.200000*%
%ADD12C,0.030000*%
%ADD13C,0.050000*%
%ADD14C,0.090000*%
%ADD15C,0.120000*%
%ADD16C,0.320000*%
G04 APERTURE END LIST*
D10*
X10776250Y-7903750D02*
X10826250Y-7903750D01*
X15226250Y-11603750D02*
G75*
G03*
X15226250Y-11203750I0J200000D01*
G01*
X10826250Y-7903750D02*
X14826250Y-7903750D01*
X18876250Y-12003750D02*
G75*
G03*
X19026250Y-11853750I0J150000D01*
G01*
X10626250Y-11853750D02*
X10626250Y-8053750D01*
X19026250Y-8053750D02*
X19026250Y-11853750D01*
X10776250Y-7903750D02*
G75*
G03*
X10626250Y-8053750I0J-150000D01*
G01*
X14826250Y-7903750D02*
X18826250Y-7903750D01*
X15226250Y-11603750D02*
X13426250Y-11603750D01*
X10626250Y-11853750D02*
G75*
G03*
X10776250Y-12003750I150000J0D01*
G01*
X13426250Y-11203750D02*
X15226250Y-11203750D01*
X18826250Y-7903750D02*
X18876250Y-7903750D01*
X13426250Y-11203750D02*
G75*
G03*
X13426250Y-11603750I0J-200000D01*
G01*
X19026250Y-8053750D02*
G75*
G03*
X18876250Y-7903750I-150000J0D01*
G01*
X18876250Y-12003750D02*
X10776250Y-12003750D01*
D11*
D12*
X11085000Y-11335000D02*
X11115000Y-11365000D01*
X11115000Y-11335000D02*
X11085000Y-11365000D01*
X11285000Y-11335000D02*
X11315000Y-11365000D01*
X11315000Y-11335000D02*
X11285000Y-11365000D01*
X11564717Y-10245283D02*
X11594717Y-10275283D01*
X11594717Y-10245283D02*
X11564717Y-10275283D01*
X11581300Y-10138750D02*
X11611300Y-10168750D01*
X11611300Y-10138750D02*
X11581300Y-10168750D01*
X11585000Y-10735000D02*
X11615000Y-10765000D01*
X11615000Y-10735000D02*
X11585000Y-10765000D01*
X11605000Y-8725000D02*
X11635000Y-8755000D01*
X11635000Y-8725000D02*
X11605000Y-8755000D01*
X11695000Y-8635000D02*
X11725000Y-8665000D01*
X11725000Y-8635000D02*
X11695000Y-8665000D01*
X11695000Y-8835000D02*
X11725000Y-8865000D01*
X11725000Y-8835000D02*
X11695000Y-8865000D01*
X11711250Y-8158750D02*
X11741250Y-8188750D01*
X11741250Y-8158750D02*
X11711250Y-8188750D01*
X11781250Y-8728750D02*
X11811250Y-8758750D01*
X11811250Y-8728750D02*
X11781250Y-8758750D01*
X11785000Y-10935000D02*
X11815000Y-10965000D01*
X11815000Y-10935000D02*
X11785000Y-10965000D01*
X11796850Y-9074350D02*
X11826850Y-9104350D01*
X11826850Y-9074350D02*
X11796850Y-9104350D01*
X11811250Y-8158750D02*
X11841250Y-8188750D01*
X11841250Y-8158750D02*
X11811250Y-8188750D01*
X11909896Y-8880050D02*
X11939896Y-8910050D01*
X11939896Y-8880050D02*
X11909896Y-8910050D01*
X11911250Y-8158750D02*
X11941250Y-8188750D01*
X11941250Y-8158750D02*
X11911250Y-8188750D01*
X11985000Y-10635000D02*
X12015000Y-10665000D01*
X12015000Y-10635000D02*
X11985000Y-10665000D01*
X11985000Y-11135000D02*
X12015000Y-11165000D01*
X12015000Y-11135000D02*
X11985000Y-11165000D01*
X11985000Y-11335000D02*
X12015000Y-11365000D01*
X12015000Y-11335000D02*
X11985000Y-11365000D01*
X12011250Y-8158750D02*
X12041250Y-8188750D01*
X12041250Y-8158750D02*
X12011250Y-8188750D01*
X12049867Y-9119950D02*
X12079867Y-9149950D01*
X12079867Y-9119950D02*
X12049867Y-9149950D01*
X12085000Y-10735000D02*
X12115000Y-10765000D01*
X12115000Y-10735000D02*
X12085000Y-10765000D01*
X12131250Y-9418750D02*
X12161250Y-9448750D01*
X12161250Y-9418750D02*
X12131250Y-9448750D01*
X12131250Y-9478750D02*
X12161250Y-9508750D01*
X12161250Y-9478750D02*
X12131250Y-9508750D01*
X12228750Y-10881250D02*
X12258750Y-10911250D01*
X12258750Y-10881250D02*
X12228750Y-10911250D01*
X12261250Y-8888750D02*
X12291250Y-8918750D01*
X12291250Y-8888750D02*
X12261250Y-8918750D01*
X12261250Y-9038750D02*
X12291250Y-9068750D01*
X12291250Y-9038750D02*
X12261250Y-9068750D01*
X12290050Y-9338750D02*
X12320050Y-9368750D01*
X12320050Y-9338750D02*
X12290050Y-9368750D01*
X12291250Y-8218750D02*
X12321250Y-8248750D01*
X12321250Y-8218750D02*
X12291250Y-8248750D01*
X12308250Y-10118750D02*
X12338250Y-10148750D01*
X12338250Y-10118750D02*
X12308250Y-10148750D01*
X12311250Y-8838750D02*
X12341250Y-8868750D01*
X12341250Y-8838750D02*
X12311250Y-8868750D01*
X12311250Y-9088750D02*
X12341250Y-9118750D01*
X12341250Y-9088750D02*
X12311250Y-9118750D01*
X12331250Y-7998750D02*
X12361250Y-8028750D01*
X12361250Y-7998750D02*
X12331250Y-8028750D01*
X12331250Y-8118750D02*
X12361250Y-8148750D01*
X12361250Y-8118750D02*
X12331250Y-8148750D01*
X12361250Y-8888750D02*
X12391250Y-8918750D01*
X12391250Y-8888750D02*
X12361250Y-8918750D01*
X12361250Y-9038750D02*
X12391250Y-9068750D01*
X12391250Y-9038750D02*
X12361250Y-9068750D01*
X12411250Y-8838750D02*
X12441250Y-8868750D01*
X12441250Y-8838750D02*
X12411250Y-8868750D01*
X12411250Y-9088750D02*
X12441250Y-9118750D01*
X12441250Y-9088750D02*
X12411250Y-9118750D01*
X12461250Y-8888750D02*
X12491250Y-8918750D01*
X12491250Y-8888750D02*
X12461250Y-8918750D01*
X12461250Y-9038750D02*
X12491250Y-9068750D01*
X12491250Y-9038750D02*
X12461250Y-9068750D01*
X12511250Y-8398750D02*
X12541250Y-8428750D01*
X12541250Y-8398750D02*
X12511250Y-8428750D01*
X12511250Y-8838750D02*
X12541250Y-8868750D01*
X12541250Y-8838750D02*
X12511250Y-8868750D01*
X12511250Y-9088750D02*
X12541250Y-9118750D01*
X12541250Y-9088750D02*
X12511250Y-9118750D01*
X12528250Y-10138750D02*
X12558250Y-10168750D01*
X12558250Y-10138750D02*
X12528250Y-10168750D01*
X12556040Y-9343960D02*
X12586040Y-9373960D01*
X12586040Y-9343960D02*
X12556040Y-9373960D01*
X12608250Y-10138750D02*
X12638250Y-10168750D01*
X12638250Y-10138750D02*
X12608250Y-10168750D01*
X12631250Y-9198750D02*
X12661250Y-9228750D01*
X12661250Y-9198750D02*
X12631250Y-9228750D01*
X12678750Y-11181250D02*
X12708750Y-11211250D01*
X12708750Y-11181250D02*
X12678750Y-11211250D01*
X12731250Y-7978750D02*
X12761250Y-8008750D01*
X12761250Y-7978750D02*
X12731250Y-8008750D01*
X12731250Y-8138750D02*
X12761250Y-8168750D01*
X12761250Y-8138750D02*
X12731250Y-8168750D01*
X12731250Y-8898750D02*
X12761250Y-8928750D01*
X12761250Y-8898750D02*
X12731250Y-8928750D01*
X12751178Y-9237602D02*
X12781178Y-9267602D01*
X12781178Y-9237602D02*
X12751178Y-9267602D01*
X12778750Y-11181250D02*
X12808750Y-11211250D01*
X12808750Y-11181250D02*
X12778750Y-11211250D01*
X12778750Y-11281250D02*
X12808750Y-11311250D01*
X12808750Y-11281250D02*
X12778750Y-11311250D01*
X12842450Y-9269950D02*
X12872450Y-9299950D01*
X12872450Y-9269950D02*
X12842450Y-9299950D01*
X12878750Y-11181250D02*
X12908750Y-11211250D01*
X12908750Y-11181250D02*
X12878750Y-11211250D01*
X12885000Y-10735000D02*
X12915000Y-10765000D01*
X12915000Y-10735000D02*
X12885000Y-10765000D01*
X12891250Y-8778750D02*
X12921250Y-8808750D01*
X12921250Y-8778750D02*
X12891250Y-8808750D01*
X12931250Y-8898750D02*
X12961250Y-8928750D01*
X12961250Y-8898750D02*
X12931250Y-8928750D01*
X13071250Y-8758750D02*
X13101250Y-8788750D01*
X13101250Y-8758750D02*
X13071250Y-8788750D01*
X13191023Y-10839204D02*
X13221023Y-10869204D01*
X13221023Y-10839204D02*
X13191023Y-10869204D01*
X13311250Y-8018750D02*
X13341250Y-8048750D01*
X13341250Y-8018750D02*
X13311250Y-8048750D01*
X13311250Y-8098750D02*
X13341250Y-8128750D01*
X13341250Y-8098750D02*
X13311250Y-8128750D01*
X13311250Y-10838750D02*
X13341250Y-10868750D01*
X13341250Y-10838750D02*
X13311250Y-10868750D01*
X13411250Y-8958750D02*
X13441250Y-8988750D01*
X13441250Y-8958750D02*
X13411250Y-8988750D01*
X13485000Y-10735000D02*
X13515000Y-10765000D01*
X13515000Y-10735000D02*
X13485000Y-10765000D01*
X13511250Y-8938750D02*
X13541250Y-8968750D01*
X13541250Y-8938750D02*
X13511250Y-8968750D01*
X13571250Y-9638750D02*
X13601250Y-9668750D01*
X13601250Y-9638750D02*
X13571250Y-9668750D01*
X13651250Y-8958750D02*
X13681250Y-8988750D01*
X13681250Y-8958750D02*
X13651250Y-8988750D01*
X13671250Y-9808700D02*
X13701250Y-9838700D01*
X13701250Y-9808700D02*
X13671250Y-9838700D01*
X13761250Y-9688750D02*
X13791250Y-9718750D01*
X13791250Y-9688750D02*
X13761250Y-9718750D01*
X13851250Y-9258750D02*
X13881250Y-9288750D01*
X13881250Y-9258750D02*
X13851250Y-9288750D01*
X13911250Y-8038750D02*
X13941250Y-8068750D01*
X13941250Y-8038750D02*
X13911250Y-8068750D01*
X13911250Y-8098750D02*
X13941250Y-8128750D01*
X13941250Y-8098750D02*
X13911250Y-8128750D01*
X13996225Y-9683725D02*
X14026225Y-9713725D01*
X14026225Y-9683725D02*
X13996225Y-9713725D01*
X14011250Y-8958750D02*
X14041250Y-8988750D01*
X14041250Y-8958750D02*
X14011250Y-8988750D01*
X14091250Y-10438750D02*
X14121250Y-10468750D01*
X14121250Y-10438750D02*
X14091250Y-10468750D01*
X14091250Y-10658750D02*
X14121250Y-10688750D01*
X14121250Y-10658750D02*
X14091250Y-10688750D01*
X14111250Y-8958750D02*
X14141250Y-8988750D01*
X14141250Y-8958750D02*
X14111250Y-8988750D01*
X14251250Y-10438750D02*
X14281250Y-10468750D01*
X14281250Y-10438750D02*
X14251250Y-10468750D01*
X14251250Y-10658750D02*
X14281250Y-10688750D01*
X14281250Y-10658750D02*
X14251250Y-10688750D01*
X14351250Y-10438750D02*
X14381250Y-10468750D01*
X14381250Y-10438750D02*
X14351250Y-10468750D01*
X14351250Y-10658750D02*
X14381250Y-10688750D01*
X14381250Y-10658750D02*
X14351250Y-10688750D01*
X14411250Y-8598750D02*
X14441250Y-8628750D01*
X14441250Y-8598750D02*
X14411250Y-8628750D01*
X14411250Y-8758750D02*
X14441250Y-8788750D01*
X14441250Y-8758750D02*
X14411250Y-8788750D01*
X14511250Y-10438750D02*
X14541250Y-10468750D01*
X14541250Y-10438750D02*
X14511250Y-10468750D01*
X14511250Y-10658750D02*
X14541250Y-10688750D01*
X14541250Y-10658750D02*
X14511250Y-10688750D01*
X14561250Y-8278750D02*
X14591250Y-8308750D01*
X14591250Y-8278750D02*
X14561250Y-8308750D01*
X14565000Y-8575283D02*
X14595000Y-8605283D01*
X14595000Y-8575283D02*
X14565000Y-8605283D01*
X14666788Y-8284288D02*
X14696788Y-8314288D01*
X14696788Y-8284288D02*
X14666788Y-8314288D01*
X14761250Y-8288750D02*
X14791250Y-8318750D01*
X14791250Y-8288750D02*
X14761250Y-8318750D01*
X14771788Y-8549288D02*
X14801788Y-8579288D01*
X14801788Y-8549288D02*
X14771788Y-8579288D01*
X14811250Y-8768750D02*
X14841250Y-8798750D01*
X14841250Y-8768750D02*
X14811250Y-8798750D01*
X14851250Y-10438750D02*
X14881250Y-10468750D01*
X14881250Y-10438750D02*
X14851250Y-10468750D01*
X14851250Y-10658750D02*
X14881250Y-10688750D01*
X14881250Y-10658750D02*
X14851250Y-10688750D01*
X14861250Y-8288750D02*
X14891250Y-8318750D01*
X14891250Y-8288750D02*
X14861250Y-8318750D01*
X14871250Y-8548750D02*
X14901250Y-8578750D01*
X14901250Y-8548750D02*
X14871250Y-8578750D01*
X14944717Y-10965283D02*
X14974717Y-10995283D01*
X14974717Y-10965283D02*
X14944717Y-10995283D01*
X15031250Y-10438750D02*
X15061250Y-10468750D01*
X15061250Y-10438750D02*
X15031250Y-10468750D01*
X15031250Y-10658750D02*
X15061250Y-10688750D01*
X15061250Y-10658750D02*
X15031250Y-10688750D01*
X15061250Y-8278750D02*
X15091250Y-8308750D01*
X15091250Y-8278750D02*
X15061250Y-8308750D01*
X15091250Y-10938750D02*
X15121250Y-10968750D01*
X15121250Y-10938750D02*
X15091250Y-10968750D01*
X15111250Y-10258750D02*
X15141250Y-10288750D01*
X15141250Y-10258750D02*
X15111250Y-10288750D01*
X15431250Y-8638750D02*
X15461250Y-8668750D01*
X15461250Y-8638750D02*
X15431250Y-8668750D01*
X15431250Y-8698750D02*
X15461250Y-8728750D01*
X15461250Y-8698750D02*
X15431250Y-8728750D01*
X15511250Y-8658750D02*
X15541250Y-8688750D01*
X15541250Y-8658750D02*
X15511250Y-8688750D01*
X15511250Y-8818750D02*
X15541250Y-8848750D01*
X15541250Y-8818750D02*
X15511250Y-8848750D01*
X15631250Y-10298750D02*
X15661250Y-10328750D01*
X15661250Y-10298750D02*
X15631250Y-10328750D01*
X15695000Y-11485000D02*
X15725000Y-11515000D01*
X15725000Y-11485000D02*
X15695000Y-11515000D01*
X15695000Y-11592500D02*
X15725000Y-11622500D01*
X15725000Y-11592500D02*
X15695000Y-11622500D01*
X15711250Y-8018750D02*
X15741250Y-8048750D01*
X15741250Y-8018750D02*
X15711250Y-8048750D01*
X15711250Y-8098750D02*
X15741250Y-8128750D01*
X15741250Y-8098750D02*
X15711250Y-8128750D01*
X15795000Y-11485000D02*
X15825000Y-11515000D01*
X15825000Y-11485000D02*
X15795000Y-11515000D01*
X15795000Y-11592500D02*
X15825000Y-11622500D01*
X15825000Y-11592500D02*
X15795000Y-11622500D01*
X15811250Y-10198750D02*
X15841250Y-10228750D01*
X15841250Y-10198750D02*
X15811250Y-10228750D01*
X15845000Y-10985000D02*
X15875000Y-11015000D01*
X15875000Y-10985000D02*
X15845000Y-11015000D01*
X15911250Y-10238750D02*
X15941250Y-10268750D01*
X15941250Y-10238750D02*
X15911250Y-10268750D01*
X15940789Y-10985927D02*
X15970789Y-11015927D01*
X15970789Y-10985927D02*
X15940789Y-11015927D01*
X15945000Y-11085000D02*
X15975000Y-11115000D01*
X15975000Y-11085000D02*
X15945000Y-11115000D01*
X16095000Y-10935000D02*
X16125000Y-10965000D01*
X16125000Y-10935000D02*
X16095000Y-10965000D01*
X16195000Y-10935000D02*
X16225000Y-10965000D01*
X16225000Y-10935000D02*
X16195000Y-10965000D01*
X16245000Y-10642500D02*
X16275000Y-10672500D01*
X16275000Y-10642500D02*
X16245000Y-10672500D01*
X16245000Y-11435000D02*
X16275000Y-11465000D01*
X16275000Y-11435000D02*
X16245000Y-11465000D01*
X16311250Y-8018750D02*
X16341250Y-8048750D01*
X16341250Y-8018750D02*
X16311250Y-8048750D01*
X16311250Y-8098750D02*
X16341250Y-8128750D01*
X16341250Y-8098750D02*
X16311250Y-8128750D01*
X16345000Y-10635000D02*
X16375000Y-10665000D01*
X16375000Y-10635000D02*
X16345000Y-10665000D01*
X16445000Y-10635000D02*
X16475000Y-10665000D01*
X16475000Y-10635000D02*
X16445000Y-10665000D01*
X16545000Y-10592500D02*
X16575000Y-10622500D01*
X16575000Y-10592500D02*
X16545000Y-10622500D01*
X16665000Y-11115000D02*
X16695000Y-11145000D01*
X16695000Y-11115000D02*
X16665000Y-11145000D01*
X16665000Y-11215000D02*
X16695000Y-11245000D01*
X16695000Y-11215000D02*
X16665000Y-11245000D01*
X16845000Y-11115000D02*
X16875000Y-11145000D01*
X16875000Y-11115000D02*
X16845000Y-11145000D01*
X16845000Y-11255000D02*
X16875000Y-11285000D01*
X16875000Y-11255000D02*
X16845000Y-11285000D01*
X17045000Y-11275000D02*
X17075000Y-11305000D01*
X17075000Y-11275000D02*
X17045000Y-11305000D01*
X17062500Y-11472500D02*
X17092500Y-11502500D01*
X17092500Y-11472500D02*
X17062500Y-11502500D01*
X17082250Y-8525250D02*
X17112250Y-8555250D01*
X17112250Y-8525250D02*
X17082250Y-8555250D01*
X17285000Y-11535000D02*
X17315000Y-11565000D01*
X17315000Y-11535000D02*
X17285000Y-11565000D01*
X17285000Y-11615000D02*
X17315000Y-11645000D01*
X17315000Y-11615000D02*
X17285000Y-11645000D01*
X17485000Y-11535000D02*
X17515000Y-11565000D01*
X17515000Y-11535000D02*
X17485000Y-11565000D01*
X17485000Y-11615000D02*
X17515000Y-11645000D01*
X17515000Y-11615000D02*
X17485000Y-11645000D01*
X17578750Y-8408750D02*
X17608750Y-8438750D01*
X17608750Y-8408750D02*
X17578750Y-8438750D01*
X17685000Y-11535000D02*
X17715000Y-11565000D01*
X17715000Y-11535000D02*
X17685000Y-11565000D01*
X17685000Y-11615000D02*
X17715000Y-11645000D01*
X17715000Y-11615000D02*
X17685000Y-11645000D01*
X17695000Y-10835000D02*
X17725000Y-10865000D01*
X17725000Y-10835000D02*
X17695000Y-10865000D01*
X17695000Y-11035000D02*
X17725000Y-11065000D01*
X17725000Y-11035000D02*
X17695000Y-11065000D01*
X17771250Y-11438750D02*
X17801250Y-11468750D01*
X17801250Y-11438750D02*
X17771250Y-11468750D01*
X17795000Y-10835000D02*
X17825000Y-10865000D01*
X17825000Y-10835000D02*
X17795000Y-10865000D01*
X17795000Y-11035000D02*
X17825000Y-11065000D01*
X17825000Y-11035000D02*
X17795000Y-11065000D01*
X17795000Y-11235000D02*
X17825000Y-11265000D01*
X17825000Y-11235000D02*
X17795000Y-11265000D01*
X18351250Y-11438750D02*
X18381250Y-11468750D01*
X18381250Y-11438750D02*
X18351250Y-11468750D01*
D13*
X13111250Y-10053750D02*
G75*
G03*
X13111250Y-10053750I-25000J0D01*
G01*
X13181544Y-9884044D02*
G75*
G03*
X13181544Y-9884044I-25000J0D01*
G01*
X13181544Y-10223456D02*
G75*
G03*
X13181544Y-10223456I-25000J0D01*
G01*
X13351250Y-9813750D02*
G75*
G03*
X13351250Y-9813750I-25000J0D01*
G01*
X13351250Y-10293750D02*
G75*
G03*
X13351250Y-10293750I-25000J0D01*
G01*
X13520956Y-9884044D02*
G75*
G03*
X13520956Y-9884044I-25000J0D01*
G01*
X13520956Y-10223456D02*
G75*
G03*
X13520956Y-10223456I-25000J0D01*
G01*
X13591250Y-10053750D02*
G75*
G03*
X13591250Y-10053750I-25000J0D01*
G01*
X14428750Y-8446750D02*
G75*
G03*
X14428750Y-8446750I-25000J0D01*
G01*
D11*
X14438750Y-8421750D02*
X14368750Y-8421750D01*
X14438750Y-8471750D02*
X14368750Y-8471750D01*
X14368750Y-8421750D02*
G75*
G03*
X14368750Y-8471750I0J-25000D01*
G01*
X14438750Y-8471750D02*
G75*
G03*
X14438750Y-8421750I0J25000D01*
G01*
D13*
X15273750Y-8160750D02*
G75*
G03*
X15273750Y-8160750I-25000J0D01*
G01*
D11*
X15283750Y-8135750D02*
X15213750Y-8135750D01*
X15283750Y-8185750D02*
X15213750Y-8185750D01*
X15213750Y-8135750D02*
G75*
G03*
X15213750Y-8185750I0J-25000D01*
G01*
X15283750Y-8185750D02*
G75*
G03*
X15283750Y-8135750I0J25000D01*
G01*
D13*
X16111250Y-10053750D02*
G75*
G03*
X16111250Y-10053750I-25000J0D01*
G01*
X16181544Y-9884044D02*
G75*
G03*
X16181544Y-9884044I-25000J0D01*
G01*
X16181544Y-10223456D02*
G75*
G03*
X16181544Y-10223456I-25000J0D01*
G01*
X16351250Y-9813750D02*
G75*
G03*
X16351250Y-9813750I-25000J0D01*
G01*
X16351250Y-10293750D02*
G75*
G03*
X16351250Y-10293750I-25000J0D01*
G01*
X16520956Y-9884044D02*
G75*
G03*
X16520956Y-9884044I-25000J0D01*
G01*
X16520956Y-10223456D02*
G75*
G03*
X16520956Y-10223456I-25000J0D01*
G01*
X16591250Y-10053750D02*
G75*
G03*
X16591250Y-10053750I-25000J0D01*
G01*
D14*
X14351250Y-8108750D02*
X14351250Y-8198750D01*
X14306250Y-8153750D02*
X14396250Y-8153750D01*
D11*
X14418250Y-8108750D02*
X14284250Y-8108750D01*
X14418250Y-8198750D02*
X14284250Y-8198750D01*
X14284250Y-8108750D02*
G75*
G03*
X14284250Y-8198750I0J-45000D01*
G01*
X14418250Y-8198750D02*
G75*
G03*
X14418250Y-8108750I0J45000D01*
G01*
D14*
X15301250Y-8408750D02*
X15301250Y-8498750D01*
X15256250Y-8453750D02*
X15346250Y-8453750D01*
D11*
X15368250Y-8408750D02*
X15234250Y-8408750D01*
X15368250Y-8498750D02*
X15234250Y-8498750D01*
X15234250Y-8408750D02*
G75*
G03*
X15234250Y-8498750I0J-45000D01*
G01*
X15368250Y-8498750D02*
G75*
G03*
X15368250Y-8408750I0J45000D01*
G01*
D10*
X12539106Y-11031356D02*
X12539106Y-10960644D01*
X12468394Y-10960644D01*
X12468394Y-11031356D01*
X12539106Y-11031356D01*
X12539106Y-11285356D02*
X12539106Y-11214644D01*
X12468394Y-11214644D01*
X12468394Y-11285356D01*
X12539106Y-11285356D01*
X12539106Y-11539356D02*
X12539106Y-11468644D01*
X12468394Y-11468644D01*
X12468394Y-11539356D01*
X12539106Y-11539356D01*
X15595356Y-10892856D02*
X15595356Y-10822144D01*
X15524644Y-10822144D01*
X15524644Y-10892856D01*
X15595356Y-10892856D01*
X15595356Y-11146856D02*
X15595356Y-11076144D01*
X15524644Y-11076144D01*
X15524644Y-11146856D01*
X15595356Y-11146856D01*
X15595356Y-11400856D02*
X15595356Y-11330144D01*
X15524644Y-11330144D01*
X15524644Y-11400856D01*
X15595356Y-11400856D01*
X16875356Y-10492856D02*
X16875356Y-10422144D01*
X16804644Y-10422144D01*
X16804644Y-10492856D01*
X16875356Y-10492856D01*
X16875356Y-10746856D02*
X16875356Y-10676144D01*
X16804644Y-10676144D01*
X16804644Y-10746856D01*
X16875356Y-10746856D01*
X16875356Y-11000856D02*
X16875356Y-10930144D01*
X16804644Y-10930144D01*
X16804644Y-11000856D01*
X16875356Y-11000856D01*
X17555356Y-9871356D02*
X17555356Y-9800644D01*
X17484644Y-9800644D01*
X17484644Y-9871356D01*
X17555356Y-9871356D01*
X17555356Y-10125356D02*
X17555356Y-10054644D01*
X17484644Y-10054644D01*
X17484644Y-10125356D01*
X17555356Y-10125356D01*
X17555356Y-10379356D02*
X17555356Y-10308644D01*
X17484644Y-10308644D01*
X17484644Y-10379356D01*
X17555356Y-10379356D01*
D15*
X11112000Y-9490500D02*
X11172000Y-9430500D01*
X11112000Y-9370500D01*
X11052000Y-9430500D01*
X11112000Y-9490500D01*
X11112000Y-9840500D02*
X11172000Y-9780500D01*
X11112000Y-9720500D01*
X11052000Y-9780500D01*
X11112000Y-9840500D01*
X11112000Y-10190500D02*
X11172000Y-10130500D01*
X11112000Y-10070500D01*
X11052000Y-10130500D01*
X11112000Y-10190500D01*
X11112000Y-10540500D02*
X11172000Y-10480500D01*
X11112000Y-10420500D01*
X11052000Y-10480500D01*
X11112000Y-10540500D01*
X18540500Y-9487000D02*
X18600500Y-9427000D01*
X18540500Y-9367000D01*
X18480500Y-9427000D01*
X18540500Y-9487000D01*
X18540500Y-9837000D02*
X18600500Y-9777000D01*
X18540500Y-9717000D01*
X18480500Y-9777000D01*
X18540500Y-9837000D01*
X18540500Y-10187000D02*
X18600500Y-10127000D01*
X18540500Y-10067000D01*
X18480500Y-10127000D01*
X18540500Y-10187000D01*
X18540500Y-10537000D02*
X18600500Y-10477000D01*
X18540500Y-10417000D01*
X18480500Y-10477000D01*
X18540500Y-10537000D01*
D16*
X13166250Y-9893750D02*
X13486250Y-10213750D01*
X13486250Y-9893750D02*
X13166250Y-10213750D01*
X13486250Y-10053750D02*
G75*
G03*
X13486250Y-10053750I-160000J0D01*
G01*
X16166250Y-9893750D02*
X16486250Y-10213750D01*
X16486250Y-9893750D02*
X16166250Y-10213750D01*
X16486250Y-10053750D02*
G75*
G03*
X16486250Y-10053750I-160000J0D01*
G01*
D11*
X10878869Y-12319226D02*
X10878869Y-12119226D01*
X10926488Y-12119226D01*
X10955060Y-12128750D01*
X10974107Y-12147798D01*
X10983631Y-12166845D01*
X10993155Y-12204940D01*
X10993155Y-12233512D01*
X10983631Y-12271607D01*
X10974107Y-12290655D01*
X10955060Y-12309702D01*
X10926488Y-12319226D01*
X10878869Y-12319226D01*
X11078869Y-12319226D02*
X11078869Y-12185893D01*
X11078869Y-12223988D02*
X11088393Y-12204940D01*
X11097917Y-12195417D01*
X11116964Y-12185893D01*
X11136012Y-12185893D01*
X11202678Y-12319226D02*
X11202678Y-12185893D01*
X11202678Y-12119226D02*
X11193155Y-12128750D01*
X11202678Y-12138274D01*
X11212202Y-12128750D01*
X11202678Y-12119226D01*
X11202678Y-12138274D01*
X11326488Y-12319226D02*
X11307440Y-12309702D01*
X11297917Y-12290655D01*
X11297917Y-12119226D01*
X11431250Y-12319226D02*
X11412202Y-12309702D01*
X11402678Y-12290655D01*
X11402678Y-12119226D01*
X11659821Y-12319226D02*
X11659821Y-12119226D01*
X11726488Y-12262083D01*
X11793155Y-12119226D01*
X11793155Y-12319226D01*
X11974107Y-12319226D02*
X11974107Y-12214464D01*
X11964583Y-12195417D01*
X11945536Y-12185893D01*
X11907440Y-12185893D01*
X11888393Y-12195417D01*
X11974107Y-12309702D02*
X11955059Y-12319226D01*
X11907440Y-12319226D01*
X11888393Y-12309702D01*
X11878869Y-12290655D01*
X11878869Y-12271607D01*
X11888393Y-12252559D01*
X11907440Y-12243036D01*
X11955059Y-12243036D01*
X11974107Y-12233512D01*
X12069345Y-12185893D02*
X12069345Y-12385893D01*
X12069345Y-12195417D02*
X12088393Y-12185893D01*
X12126488Y-12185893D01*
X12145536Y-12195417D01*
X12155059Y-12204940D01*
X12164583Y-12223988D01*
X12164583Y-12281131D01*
X12155059Y-12300178D01*
X12145536Y-12309702D01*
X12126488Y-12319226D01*
X12088393Y-12319226D01*
X12069345Y-12309702D01*
X12250298Y-12300178D02*
X12259821Y-12309702D01*
X12250298Y-12319226D01*
X12240774Y-12309702D01*
X12250298Y-12300178D01*
X12250298Y-12319226D01*
X12250298Y-12195417D02*
X12259821Y-12204940D01*
X12250298Y-12214464D01*
X12240774Y-12204940D01*
X12250298Y-12195417D01*
X12250298Y-12214464D01*
D12*
X10591250Y-12633750D02*
X10621250Y-12663750D01*
X10621250Y-12633750D02*
X10591250Y-12663750D01*
D11*
X10916964Y-12539226D02*
X10936012Y-12539226D01*
X10955060Y-12548750D01*
X10964583Y-12558274D01*
X10974107Y-12577321D01*
X10983631Y-12615417D01*
X10983631Y-12663036D01*
X10974107Y-12701131D01*
X10964583Y-12720178D01*
X10955060Y-12729702D01*
X10936012Y-12739226D01*
X10916964Y-12739226D01*
X10897917Y-12729702D01*
X10888393Y-12720178D01*
X10878869Y-12701131D01*
X10869345Y-12663036D01*
X10869345Y-12615417D01*
X10878869Y-12577321D01*
X10888393Y-12558274D01*
X10897917Y-12548750D01*
X10916964Y-12539226D01*
X11069345Y-12720178D02*
X11078869Y-12729702D01*
X11069345Y-12739226D01*
X11059821Y-12729702D01*
X11069345Y-12720178D01*
X11069345Y-12739226D01*
X11145536Y-12539226D02*
X11269345Y-12539226D01*
X11202678Y-12615417D01*
X11231250Y-12615417D01*
X11250298Y-12624940D01*
X11259821Y-12634464D01*
X11269345Y-12653512D01*
X11269345Y-12701131D01*
X11259821Y-12720178D01*
X11250298Y-12729702D01*
X11231250Y-12739226D01*
X11174107Y-12739226D01*
X11155060Y-12729702D01*
X11145536Y-12720178D01*
X11393155Y-12539226D02*
X11412202Y-12539226D01*
X11431250Y-12548750D01*
X11440774Y-12558274D01*
X11450298Y-12577321D01*
X11459821Y-12615417D01*
X11459821Y-12663036D01*
X11450298Y-12701131D01*
X11440774Y-12720178D01*
X11431250Y-12729702D01*
X11412202Y-12739226D01*
X11393155Y-12739226D01*
X11374107Y-12729702D01*
X11364583Y-12720178D01*
X11355059Y-12701131D01*
X11345536Y-12663036D01*
X11345536Y-12615417D01*
X11355059Y-12577321D01*
X11364583Y-12558274D01*
X11374107Y-12548750D01*
X11393155Y-12539226D01*
X11583631Y-12539226D02*
X11602678Y-12539226D01*
X11621726Y-12548750D01*
X11631250Y-12558274D01*
X11640774Y-12577321D01*
X11650298Y-12615417D01*
X11650298Y-12663036D01*
X11640774Y-12701131D01*
X11631250Y-12720178D01*
X11621726Y-12729702D01*
X11602678Y-12739226D01*
X11583631Y-12739226D01*
X11564583Y-12729702D01*
X11555059Y-12720178D01*
X11545536Y-12701131D01*
X11536012Y-12663036D01*
X11536012Y-12615417D01*
X11545536Y-12577321D01*
X11555059Y-12558274D01*
X11564583Y-12548750D01*
X11583631Y-12539226D01*
X11736012Y-12739226D02*
X11736012Y-12605893D01*
X11736012Y-12624940D02*
X11745536Y-12615417D01*
X11764583Y-12605893D01*
X11793155Y-12605893D01*
X11812202Y-12615417D01*
X11821726Y-12634464D01*
X11821726Y-12739226D01*
X11821726Y-12634464D02*
X11831250Y-12615417D01*
X11850298Y-12605893D01*
X11878869Y-12605893D01*
X11897917Y-12615417D01*
X11907440Y-12634464D01*
X11907440Y-12739226D01*
X12002678Y-12739226D02*
X12002678Y-12605893D01*
X12002678Y-12624940D02*
X12012202Y-12615417D01*
X12031250Y-12605893D01*
X12059821Y-12605893D01*
X12078869Y-12615417D01*
X12088393Y-12634464D01*
X12088393Y-12739226D01*
X12088393Y-12634464D02*
X12097917Y-12615417D01*
X12116964Y-12605893D01*
X12145536Y-12605893D01*
X12164583Y-12615417D01*
X12174107Y-12634464D01*
X12174107Y-12739226D01*
X12564583Y-12529702D02*
X12393155Y-12786845D01*
X12821726Y-12539226D02*
X12840774Y-12539226D01*
X12859821Y-12548750D01*
X12869345Y-12558274D01*
X12878869Y-12577321D01*
X12888393Y-12615417D01*
X12888393Y-12663036D01*
X12878869Y-12701131D01*
X12869345Y-12720178D01*
X12859821Y-12729702D01*
X12840774Y-12739226D01*
X12821726Y-12739226D01*
X12802678Y-12729702D01*
X12793155Y-12720178D01*
X12783631Y-12701131D01*
X12774107Y-12663036D01*
X12774107Y-12615417D01*
X12783631Y-12577321D01*
X12793155Y-12558274D01*
X12802678Y-12548750D01*
X12821726Y-12539226D01*
X12974107Y-12720178D02*
X12983631Y-12729702D01*
X12974107Y-12739226D01*
X12964583Y-12729702D01*
X12974107Y-12720178D01*
X12974107Y-12739226D01*
X13107440Y-12539226D02*
X13126488Y-12539226D01*
X13145536Y-12548750D01*
X13155059Y-12558274D01*
X13164583Y-12577321D01*
X13174107Y-12615417D01*
X13174107Y-12663036D01*
X13164583Y-12701131D01*
X13155059Y-12720178D01*
X13145536Y-12729702D01*
X13126488Y-12739226D01*
X13107440Y-12739226D01*
X13088393Y-12729702D01*
X13078869Y-12720178D01*
X13069345Y-12701131D01*
X13059821Y-12663036D01*
X13059821Y-12615417D01*
X13069345Y-12577321D01*
X13078869Y-12558274D01*
X13088393Y-12548750D01*
X13107440Y-12539226D01*
X13364583Y-12739226D02*
X13250298Y-12739226D01*
X13307440Y-12739226D02*
X13307440Y-12539226D01*
X13288393Y-12567798D01*
X13269345Y-12586845D01*
X13250298Y-12596369D01*
X13555059Y-12739226D02*
X13440774Y-12739226D01*
X13497917Y-12739226D02*
X13497917Y-12539226D01*
X13478869Y-12567798D01*
X13459821Y-12586845D01*
X13440774Y-12596369D01*
X13669345Y-12624940D02*
X13650298Y-12615417D01*
X13640774Y-12605893D01*
X13631250Y-12586845D01*
X13631250Y-12577321D01*
X13640774Y-12558274D01*
X13650298Y-12548750D01*
X13669345Y-12539226D01*
X13707440Y-12539226D01*
X13726488Y-12548750D01*
X13736012Y-12558274D01*
X13745536Y-12577321D01*
X13745536Y-12586845D01*
X13736012Y-12605893D01*
X13726488Y-12615417D01*
X13707440Y-12624940D01*
X13669345Y-12624940D01*
X13650298Y-12634464D01*
X13640774Y-12643988D01*
X13631250Y-12663036D01*
X13631250Y-12701131D01*
X13640774Y-12720178D01*
X13650298Y-12729702D01*
X13669345Y-12739226D01*
X13707440Y-12739226D01*
X13726488Y-12729702D01*
X13736012Y-12720178D01*
X13745536Y-12701131D01*
X13745536Y-12663036D01*
X13736012Y-12643988D01*
X13726488Y-12634464D01*
X13707440Y-12624940D01*
X13821726Y-12539226D02*
X13821726Y-12577321D01*
X13897917Y-12539226D02*
X13897917Y-12577321D01*
X14193155Y-12815417D02*
X14183631Y-12805893D01*
X14164583Y-12777321D01*
X14155059Y-12758274D01*
X14145536Y-12729702D01*
X14136012Y-12682083D01*
X14136012Y-12643988D01*
X14145536Y-12596369D01*
X14155059Y-12567798D01*
X14164583Y-12548750D01*
X14183631Y-12520178D01*
X14193155Y-12510655D01*
X14374107Y-12739226D02*
X14259821Y-12739226D01*
X14316964Y-12739226D02*
X14316964Y-12539226D01*
X14297917Y-12567798D01*
X14278869Y-12586845D01*
X14259821Y-12596369D01*
X14545536Y-12605893D02*
X14545536Y-12739226D01*
X14497917Y-12529702D02*
X14450298Y-12672559D01*
X14574107Y-12672559D01*
X14678869Y-12624940D02*
X14659821Y-12615417D01*
X14650298Y-12605893D01*
X14640774Y-12586845D01*
X14640774Y-12577321D01*
X14650298Y-12558274D01*
X14659821Y-12548750D01*
X14678869Y-12539226D01*
X14716964Y-12539226D01*
X14736012Y-12548750D01*
X14745536Y-12558274D01*
X14755059Y-12577321D01*
X14755059Y-12586845D01*
X14745536Y-12605893D01*
X14736012Y-12615417D01*
X14716964Y-12624940D01*
X14678869Y-12624940D01*
X14659821Y-12634464D01*
X14650298Y-12643988D01*
X14640774Y-12663036D01*
X14640774Y-12701131D01*
X14650298Y-12720178D01*
X14659821Y-12729702D01*
X14678869Y-12739226D01*
X14716964Y-12739226D01*
X14736012Y-12729702D01*
X14745536Y-12720178D01*
X14755059Y-12701131D01*
X14755059Y-12663036D01*
X14745536Y-12643988D01*
X14736012Y-12634464D01*
X14716964Y-12624940D01*
X14993155Y-12739226D02*
X14993155Y-12539226D01*
X15078869Y-12739226D02*
X15078869Y-12634464D01*
X15069345Y-12615417D01*
X15050298Y-12605893D01*
X15021726Y-12605893D01*
X15002678Y-12615417D01*
X14993155Y-12624940D01*
X15202678Y-12739226D02*
X15183631Y-12729702D01*
X15174107Y-12720178D01*
X15164583Y-12701131D01*
X15164583Y-12643988D01*
X15174107Y-12624940D01*
X15183631Y-12615417D01*
X15202678Y-12605893D01*
X15231250Y-12605893D01*
X15250298Y-12615417D01*
X15259821Y-12624940D01*
X15269345Y-12643988D01*
X15269345Y-12701131D01*
X15259821Y-12720178D01*
X15250298Y-12729702D01*
X15231250Y-12739226D01*
X15202678Y-12739226D01*
X15383631Y-12739226D02*
X15364583Y-12729702D01*
X15355059Y-12710655D01*
X15355059Y-12539226D01*
X15536012Y-12729702D02*
X15516964Y-12739226D01*
X15478869Y-12739226D01*
X15459821Y-12729702D01*
X15450298Y-12710655D01*
X15450298Y-12634464D01*
X15459821Y-12615417D01*
X15478869Y-12605893D01*
X15516964Y-12605893D01*
X15536012Y-12615417D01*
X15545536Y-12634464D01*
X15545536Y-12653512D01*
X15450298Y-12672559D01*
X15621726Y-12729702D02*
X15640774Y-12739226D01*
X15678869Y-12739226D01*
X15697917Y-12729702D01*
X15707440Y-12710655D01*
X15707440Y-12701131D01*
X15697917Y-12682083D01*
X15678869Y-12672559D01*
X15650298Y-12672559D01*
X15631250Y-12663036D01*
X15621726Y-12643988D01*
X15621726Y-12634464D01*
X15631250Y-12615417D01*
X15650298Y-12605893D01*
X15678869Y-12605893D01*
X15697917Y-12615417D01*
X15774107Y-12815417D02*
X15783631Y-12805893D01*
X15802678Y-12777321D01*
X15812202Y-12758274D01*
X15821726Y-12729702D01*
X15831250Y-12682083D01*
X15831250Y-12643988D01*
X15821726Y-12596369D01*
X15812202Y-12567798D01*
X15802678Y-12548750D01*
X15783631Y-12520178D01*
X15774107Y-12510655D01*
D13*
X10621250Y-12912750D02*
G75*
G03*
X10621250Y-12912750I-25000J0D01*
G01*
D11*
X10916964Y-12803226D02*
X10936012Y-12803226D01*
X10955060Y-12812750D01*
X10964583Y-12822274D01*
X10974107Y-12841321D01*
X10983631Y-12879417D01*
X10983631Y-12927036D01*
X10974107Y-12965131D01*
X10964583Y-12984178D01*
X10955060Y-12993702D01*
X10936012Y-13003226D01*
X10916964Y-13003226D01*
X10897917Y-12993702D01*
X10888393Y-12984178D01*
X10878869Y-12965131D01*
X10869345Y-12927036D01*
X10869345Y-12879417D01*
X10878869Y-12841321D01*
X10888393Y-12822274D01*
X10897917Y-12812750D01*
X10916964Y-12803226D01*
X11069345Y-12984178D02*
X11078869Y-12993702D01*
X11069345Y-13003226D01*
X11059821Y-12993702D01*
X11069345Y-12984178D01*
X11069345Y-13003226D01*
X11259821Y-12803226D02*
X11164583Y-12803226D01*
X11155060Y-12898464D01*
X11164583Y-12888940D01*
X11183631Y-12879417D01*
X11231250Y-12879417D01*
X11250298Y-12888940D01*
X11259821Y-12898464D01*
X11269345Y-12917512D01*
X11269345Y-12965131D01*
X11259821Y-12984178D01*
X11250298Y-12993702D01*
X11231250Y-13003226D01*
X11183631Y-13003226D01*
X11164583Y-12993702D01*
X11155060Y-12984178D01*
X11393155Y-12803226D02*
X11412202Y-12803226D01*
X11431250Y-12812750D01*
X11440774Y-12822274D01*
X11450298Y-12841321D01*
X11459821Y-12879417D01*
X11459821Y-12927036D01*
X11450298Y-12965131D01*
X11440774Y-12984178D01*
X11431250Y-12993702D01*
X11412202Y-13003226D01*
X11393155Y-13003226D01*
X11374107Y-12993702D01*
X11364583Y-12984178D01*
X11355059Y-12965131D01*
X11345536Y-12927036D01*
X11345536Y-12879417D01*
X11355059Y-12841321D01*
X11364583Y-12822274D01*
X11374107Y-12812750D01*
X11393155Y-12803226D01*
X11583631Y-12803226D02*
X11602678Y-12803226D01*
X11621726Y-12812750D01*
X11631250Y-12822274D01*
X11640774Y-12841321D01*
X11650298Y-12879417D01*
X11650298Y-12927036D01*
X11640774Y-12965131D01*
X11631250Y-12984178D01*
X11621726Y-12993702D01*
X11602678Y-13003226D01*
X11583631Y-13003226D01*
X11564583Y-12993702D01*
X11555059Y-12984178D01*
X11545536Y-12965131D01*
X11536012Y-12927036D01*
X11536012Y-12879417D01*
X11545536Y-12841321D01*
X11555059Y-12822274D01*
X11564583Y-12812750D01*
X11583631Y-12803226D01*
X11736012Y-13003226D02*
X11736012Y-12869893D01*
X11736012Y-12888940D02*
X11745536Y-12879417D01*
X11764583Y-12869893D01*
X11793155Y-12869893D01*
X11812202Y-12879417D01*
X11821726Y-12898464D01*
X11821726Y-13003226D01*
X11821726Y-12898464D02*
X11831250Y-12879417D01*
X11850298Y-12869893D01*
X11878869Y-12869893D01*
X11897917Y-12879417D01*
X11907440Y-12898464D01*
X11907440Y-13003226D01*
X12002678Y-13003226D02*
X12002678Y-12869893D01*
X12002678Y-12888940D02*
X12012202Y-12879417D01*
X12031250Y-12869893D01*
X12059821Y-12869893D01*
X12078869Y-12879417D01*
X12088393Y-12898464D01*
X12088393Y-13003226D01*
X12088393Y-12898464D02*
X12097917Y-12879417D01*
X12116964Y-12869893D01*
X12145536Y-12869893D01*
X12164583Y-12879417D01*
X12174107Y-12898464D01*
X12174107Y-13003226D01*
X12564583Y-12793702D02*
X12393155Y-13050845D01*
X12821726Y-12803226D02*
X12840774Y-12803226D01*
X12859821Y-12812750D01*
X12869345Y-12822274D01*
X12878869Y-12841321D01*
X12888393Y-12879417D01*
X12888393Y-12927036D01*
X12878869Y-12965131D01*
X12869345Y-12984178D01*
X12859821Y-12993702D01*
X12840774Y-13003226D01*
X12821726Y-13003226D01*
X12802678Y-12993702D01*
X12793155Y-12984178D01*
X12783631Y-12965131D01*
X12774107Y-12927036D01*
X12774107Y-12879417D01*
X12783631Y-12841321D01*
X12793155Y-12822274D01*
X12802678Y-12812750D01*
X12821726Y-12803226D01*
X12974107Y-12984178D02*
X12983631Y-12993702D01*
X12974107Y-13003226D01*
X12964583Y-12993702D01*
X12974107Y-12984178D01*
X12974107Y-13003226D01*
X13107440Y-12803226D02*
X13126488Y-12803226D01*
X13145536Y-12812750D01*
X13155059Y-12822274D01*
X13164583Y-12841321D01*
X13174107Y-12879417D01*
X13174107Y-12927036D01*
X13164583Y-12965131D01*
X13155059Y-12984178D01*
X13145536Y-12993702D01*
X13126488Y-13003226D01*
X13107440Y-13003226D01*
X13088393Y-12993702D01*
X13078869Y-12984178D01*
X13069345Y-12965131D01*
X13059821Y-12927036D01*
X13059821Y-12879417D01*
X13069345Y-12841321D01*
X13078869Y-12822274D01*
X13088393Y-12812750D01*
X13107440Y-12803226D01*
X13364583Y-13003226D02*
X13250298Y-13003226D01*
X13307440Y-13003226D02*
X13307440Y-12803226D01*
X13288393Y-12831798D01*
X13269345Y-12850845D01*
X13250298Y-12860369D01*
X13459821Y-13003226D02*
X13497917Y-13003226D01*
X13516964Y-12993702D01*
X13526488Y-12984178D01*
X13545536Y-12955607D01*
X13555059Y-12917512D01*
X13555059Y-12841321D01*
X13545536Y-12822274D01*
X13536012Y-12812750D01*
X13516964Y-12803226D01*
X13478869Y-12803226D01*
X13459821Y-12812750D01*
X13450298Y-12822274D01*
X13440774Y-12841321D01*
X13440774Y-12888940D01*
X13450298Y-12907988D01*
X13459821Y-12917512D01*
X13478869Y-12927036D01*
X13516964Y-12927036D01*
X13536012Y-12917512D01*
X13545536Y-12907988D01*
X13555059Y-12888940D01*
X13621726Y-12803226D02*
X13755059Y-12803226D01*
X13669345Y-13003226D01*
X13821726Y-12803226D02*
X13821726Y-12841321D01*
X13897917Y-12803226D02*
X13897917Y-12841321D01*
X14193155Y-13079417D02*
X14183631Y-13069893D01*
X14164583Y-13041321D01*
X14155059Y-13022274D01*
X14145536Y-12993702D01*
X14136012Y-12946083D01*
X14136012Y-12907988D01*
X14145536Y-12860369D01*
X14155059Y-12831798D01*
X14164583Y-12812750D01*
X14183631Y-12784178D01*
X14193155Y-12774655D01*
X14374107Y-13003226D02*
X14259821Y-13003226D01*
X14316964Y-13003226D02*
X14316964Y-12803226D01*
X14297917Y-12831798D01*
X14278869Y-12850845D01*
X14259821Y-12860369D01*
X14545536Y-12803226D02*
X14507440Y-12803226D01*
X14488393Y-12812750D01*
X14478869Y-12822274D01*
X14459821Y-12850845D01*
X14450298Y-12888940D01*
X14450298Y-12965131D01*
X14459821Y-12984178D01*
X14469345Y-12993702D01*
X14488393Y-13003226D01*
X14526488Y-13003226D01*
X14545536Y-12993702D01*
X14555059Y-12984178D01*
X14564583Y-12965131D01*
X14564583Y-12917512D01*
X14555059Y-12898464D01*
X14545536Y-12888940D01*
X14526488Y-12879417D01*
X14488393Y-12879417D01*
X14469345Y-12888940D01*
X14459821Y-12898464D01*
X14450298Y-12917512D01*
X14802678Y-13003226D02*
X14802678Y-12803226D01*
X14888393Y-13003226D02*
X14888393Y-12898464D01*
X14878869Y-12879417D01*
X14859821Y-12869893D01*
X14831250Y-12869893D01*
X14812202Y-12879417D01*
X14802678Y-12888940D01*
X15012202Y-13003226D02*
X14993155Y-12993702D01*
X14983631Y-12984178D01*
X14974107Y-12965131D01*
X14974107Y-12907988D01*
X14983631Y-12888940D01*
X14993155Y-12879417D01*
X15012202Y-12869893D01*
X15040774Y-12869893D01*
X15059821Y-12879417D01*
X15069345Y-12888940D01*
X15078869Y-12907988D01*
X15078869Y-12965131D01*
X15069345Y-12984178D01*
X15059821Y-12993702D01*
X15040774Y-13003226D01*
X15012202Y-13003226D01*
X15193155Y-13003226D02*
X15174107Y-12993702D01*
X15164583Y-12974655D01*
X15164583Y-12803226D01*
X15345536Y-12993702D02*
X15326488Y-13003226D01*
X15288393Y-13003226D01*
X15269345Y-12993702D01*
X15259821Y-12974655D01*
X15259821Y-12898464D01*
X15269345Y-12879417D01*
X15288393Y-12869893D01*
X15326488Y-12869893D01*
X15345536Y-12879417D01*
X15355059Y-12898464D01*
X15355059Y-12917512D01*
X15259821Y-12936559D01*
X15431250Y-12993702D02*
X15450298Y-13003226D01*
X15488393Y-13003226D01*
X15507440Y-12993702D01*
X15516964Y-12974655D01*
X15516964Y-12965131D01*
X15507440Y-12946083D01*
X15488393Y-12936559D01*
X15459821Y-12936559D01*
X15440774Y-12927036D01*
X15431250Y-12907988D01*
X15431250Y-12898464D01*
X15440774Y-12879417D01*
X15459821Y-12869893D01*
X15488393Y-12869893D01*
X15507440Y-12879417D01*
X15755059Y-12927036D02*
X15907440Y-12927036D01*
X15831250Y-13003226D02*
X15831250Y-12850845D01*
X16145536Y-12822274D02*
X16155059Y-12812750D01*
X16174107Y-12803226D01*
X16221726Y-12803226D01*
X16240774Y-12812750D01*
X16250298Y-12822274D01*
X16259821Y-12841321D01*
X16259821Y-12860369D01*
X16250298Y-12888940D01*
X16136012Y-13003226D01*
X16259821Y-13003226D01*
X16488393Y-12993702D02*
X16507440Y-13003226D01*
X16545536Y-13003226D01*
X16564583Y-12993702D01*
X16574107Y-12974655D01*
X16574107Y-12965131D01*
X16564583Y-12946083D01*
X16545536Y-12936559D01*
X16516964Y-12936559D01*
X16497917Y-12927036D01*
X16488393Y-12907988D01*
X16488393Y-12898464D01*
X16497917Y-12879417D01*
X16516964Y-12869893D01*
X16545536Y-12869893D01*
X16564583Y-12879417D01*
X16688393Y-13003226D02*
X16669345Y-12993702D01*
X16659821Y-12974655D01*
X16659821Y-12803226D01*
X16793155Y-13003226D02*
X16774107Y-12993702D01*
X16764583Y-12984178D01*
X16755059Y-12965131D01*
X16755059Y-12907988D01*
X16764583Y-12888940D01*
X16774107Y-12879417D01*
X16793155Y-12869893D01*
X16821726Y-12869893D01*
X16840774Y-12879417D01*
X16850298Y-12888940D01*
X16859821Y-12907988D01*
X16859821Y-12965131D01*
X16850298Y-12984178D01*
X16840774Y-12993702D01*
X16821726Y-13003226D01*
X16793155Y-13003226D01*
X16916964Y-12869893D02*
X16993155Y-12869893D01*
X16945536Y-12803226D02*
X16945536Y-12974655D01*
X16955060Y-12993702D01*
X16974107Y-13003226D01*
X16993155Y-13003226D01*
X17050298Y-12993702D02*
X17069345Y-13003226D01*
X17107440Y-13003226D01*
X17126488Y-12993702D01*
X17136012Y-12974655D01*
X17136012Y-12965131D01*
X17126488Y-12946083D01*
X17107440Y-12936559D01*
X17078869Y-12936559D01*
X17059821Y-12927036D01*
X17050298Y-12907988D01*
X17050298Y-12898464D01*
X17059821Y-12879417D01*
X17078869Y-12869893D01*
X17107440Y-12869893D01*
X17126488Y-12879417D01*
X17202679Y-13079417D02*
X17212202Y-13069893D01*
X17231250Y-13041321D01*
X17240774Y-13022274D01*
X17250298Y-12993702D01*
X17259821Y-12946083D01*
X17259821Y-12907988D01*
X17250298Y-12860369D01*
X17240774Y-12831798D01*
X17231250Y-12812750D01*
X17212202Y-12784178D01*
X17202679Y-12774655D01*
D14*
X10576250Y-13131750D02*
X10576250Y-13221750D01*
X10531250Y-13176750D02*
X10621250Y-13176750D01*
D11*
X10916964Y-13067226D02*
X10936012Y-13067226D01*
X10955060Y-13076750D01*
X10964583Y-13086274D01*
X10974107Y-13105321D01*
X10983631Y-13143417D01*
X10983631Y-13191036D01*
X10974107Y-13229131D01*
X10964583Y-13248178D01*
X10955060Y-13257702D01*
X10936012Y-13267226D01*
X10916964Y-13267226D01*
X10897917Y-13257702D01*
X10888393Y-13248178D01*
X10878869Y-13229131D01*
X10869345Y-13191036D01*
X10869345Y-13143417D01*
X10878869Y-13105321D01*
X10888393Y-13086274D01*
X10897917Y-13076750D01*
X10916964Y-13067226D01*
X11069345Y-13248178D02*
X11078869Y-13257702D01*
X11069345Y-13267226D01*
X11059821Y-13257702D01*
X11069345Y-13248178D01*
X11069345Y-13267226D01*
X11174107Y-13267226D02*
X11212202Y-13267226D01*
X11231250Y-13257702D01*
X11240774Y-13248178D01*
X11259821Y-13219607D01*
X11269345Y-13181512D01*
X11269345Y-13105321D01*
X11259821Y-13086274D01*
X11250298Y-13076750D01*
X11231250Y-13067226D01*
X11193155Y-13067226D01*
X11174107Y-13076750D01*
X11164583Y-13086274D01*
X11155060Y-13105321D01*
X11155060Y-13152940D01*
X11164583Y-13171988D01*
X11174107Y-13181512D01*
X11193155Y-13191036D01*
X11231250Y-13191036D01*
X11250298Y-13181512D01*
X11259821Y-13171988D01*
X11269345Y-13152940D01*
X11393155Y-13067226D02*
X11412202Y-13067226D01*
X11431250Y-13076750D01*
X11440774Y-13086274D01*
X11450298Y-13105321D01*
X11459821Y-13143417D01*
X11459821Y-13191036D01*
X11450298Y-13229131D01*
X11440774Y-13248178D01*
X11431250Y-13257702D01*
X11412202Y-13267226D01*
X11393155Y-13267226D01*
X11374107Y-13257702D01*
X11364583Y-13248178D01*
X11355059Y-13229131D01*
X11345536Y-13191036D01*
X11345536Y-13143417D01*
X11355059Y-13105321D01*
X11364583Y-13086274D01*
X11374107Y-13076750D01*
X11393155Y-13067226D01*
X11583631Y-13067226D02*
X11602678Y-13067226D01*
X11621726Y-13076750D01*
X11631250Y-13086274D01*
X11640774Y-13105321D01*
X11650298Y-13143417D01*
X11650298Y-13191036D01*
X11640774Y-13229131D01*
X11631250Y-13248178D01*
X11621726Y-13257702D01*
X11602678Y-13267226D01*
X11583631Y-13267226D01*
X11564583Y-13257702D01*
X11555059Y-13248178D01*
X11545536Y-13229131D01*
X11536012Y-13191036D01*
X11536012Y-13143417D01*
X11545536Y-13105321D01*
X11555059Y-13086274D01*
X11564583Y-13076750D01*
X11583631Y-13067226D01*
X11736012Y-13267226D02*
X11736012Y-13133893D01*
X11736012Y-13152940D02*
X11745536Y-13143417D01*
X11764583Y-13133893D01*
X11793155Y-13133893D01*
X11812202Y-13143417D01*
X11821726Y-13162464D01*
X11821726Y-13267226D01*
X11821726Y-13162464D02*
X11831250Y-13143417D01*
X11850298Y-13133893D01*
X11878869Y-13133893D01*
X11897917Y-13143417D01*
X11907440Y-13162464D01*
X11907440Y-13267226D01*
X12002678Y-13267226D02*
X12002678Y-13133893D01*
X12002678Y-13152940D02*
X12012202Y-13143417D01*
X12031250Y-13133893D01*
X12059821Y-13133893D01*
X12078869Y-13143417D01*
X12088393Y-13162464D01*
X12088393Y-13267226D01*
X12088393Y-13162464D02*
X12097917Y-13143417D01*
X12116964Y-13133893D01*
X12145536Y-13133893D01*
X12164583Y-13143417D01*
X12174107Y-13162464D01*
X12174107Y-13267226D01*
X12564583Y-13057702D02*
X12393155Y-13314845D01*
X12821726Y-13067226D02*
X12840774Y-13067226D01*
X12859821Y-13076750D01*
X12869345Y-13086274D01*
X12878869Y-13105321D01*
X12888393Y-13143417D01*
X12888393Y-13191036D01*
X12878869Y-13229131D01*
X12869345Y-13248178D01*
X12859821Y-13257702D01*
X12840774Y-13267226D01*
X12821726Y-13267226D01*
X12802678Y-13257702D01*
X12793155Y-13248178D01*
X12783631Y-13229131D01*
X12774107Y-13191036D01*
X12774107Y-13143417D01*
X12783631Y-13105321D01*
X12793155Y-13086274D01*
X12802678Y-13076750D01*
X12821726Y-13067226D01*
X12974107Y-13248178D02*
X12983631Y-13257702D01*
X12974107Y-13267226D01*
X12964583Y-13257702D01*
X12974107Y-13248178D01*
X12974107Y-13267226D01*
X13107440Y-13067226D02*
X13126488Y-13067226D01*
X13145536Y-13076750D01*
X13155059Y-13086274D01*
X13164583Y-13105321D01*
X13174107Y-13143417D01*
X13174107Y-13191036D01*
X13164583Y-13229131D01*
X13155059Y-13248178D01*
X13145536Y-13257702D01*
X13126488Y-13267226D01*
X13107440Y-13267226D01*
X13088393Y-13257702D01*
X13078869Y-13248178D01*
X13069345Y-13229131D01*
X13059821Y-13191036D01*
X13059821Y-13143417D01*
X13069345Y-13105321D01*
X13078869Y-13086274D01*
X13088393Y-13076750D01*
X13107440Y-13067226D01*
X13240774Y-13067226D02*
X13364583Y-13067226D01*
X13297917Y-13143417D01*
X13326488Y-13143417D01*
X13345536Y-13152940D01*
X13355059Y-13162464D01*
X13364583Y-13181512D01*
X13364583Y-13229131D01*
X13355059Y-13248178D01*
X13345536Y-13257702D01*
X13326488Y-13267226D01*
X13269345Y-13267226D01*
X13250298Y-13257702D01*
X13240774Y-13248178D01*
X13545536Y-13067226D02*
X13450298Y-13067226D01*
X13440774Y-13162464D01*
X13450298Y-13152940D01*
X13469345Y-13143417D01*
X13516964Y-13143417D01*
X13536012Y-13152940D01*
X13545536Y-13162464D01*
X13555059Y-13181512D01*
X13555059Y-13229131D01*
X13545536Y-13248178D01*
X13536012Y-13257702D01*
X13516964Y-13267226D01*
X13469345Y-13267226D01*
X13450298Y-13257702D01*
X13440774Y-13248178D01*
X13726488Y-13133893D02*
X13726488Y-13267226D01*
X13678869Y-13057702D02*
X13631250Y-13200559D01*
X13755059Y-13200559D01*
X13821726Y-13067226D02*
X13821726Y-13105321D01*
X13897917Y-13067226D02*
X13897917Y-13105321D01*
X14193155Y-13343417D02*
X14183631Y-13333893D01*
X14164583Y-13305321D01*
X14155059Y-13286274D01*
X14145536Y-13257702D01*
X14136012Y-13210083D01*
X14136012Y-13171988D01*
X14145536Y-13124369D01*
X14155059Y-13095798D01*
X14164583Y-13076750D01*
X14183631Y-13048178D01*
X14193155Y-13038655D01*
X14307440Y-13067226D02*
X14326488Y-13067226D01*
X14345536Y-13076750D01*
X14355059Y-13086274D01*
X14364583Y-13105321D01*
X14374107Y-13143417D01*
X14374107Y-13191036D01*
X14364583Y-13229131D01*
X14355059Y-13248178D01*
X14345536Y-13257702D01*
X14326488Y-13267226D01*
X14307440Y-13267226D01*
X14288393Y-13257702D01*
X14278869Y-13248178D01*
X14269345Y-13229131D01*
X14259821Y-13191036D01*
X14259821Y-13143417D01*
X14269345Y-13105321D01*
X14278869Y-13086274D01*
X14288393Y-13076750D01*
X14307440Y-13067226D01*
X14612202Y-13267226D02*
X14612202Y-13067226D01*
X14697917Y-13267226D02*
X14697917Y-13162464D01*
X14688393Y-13143417D01*
X14669345Y-13133893D01*
X14640774Y-13133893D01*
X14621726Y-13143417D01*
X14612202Y-13152940D01*
X14821726Y-13267226D02*
X14802678Y-13257702D01*
X14793155Y-13248178D01*
X14783631Y-13229131D01*
X14783631Y-13171988D01*
X14793155Y-13152940D01*
X14802678Y-13143417D01*
X14821726Y-13133893D01*
X14850298Y-13133893D01*
X14869345Y-13143417D01*
X14878869Y-13152940D01*
X14888393Y-13171988D01*
X14888393Y-13229131D01*
X14878869Y-13248178D01*
X14869345Y-13257702D01*
X14850298Y-13267226D01*
X14821726Y-13267226D01*
X15002678Y-13267226D02*
X14983631Y-13257702D01*
X14974107Y-13238655D01*
X14974107Y-13067226D01*
X15155059Y-13257702D02*
X15136012Y-13267226D01*
X15097917Y-13267226D01*
X15078869Y-13257702D01*
X15069345Y-13238655D01*
X15069345Y-13162464D01*
X15078869Y-13143417D01*
X15097917Y-13133893D01*
X15136012Y-13133893D01*
X15155059Y-13143417D01*
X15164583Y-13162464D01*
X15164583Y-13181512D01*
X15069345Y-13200559D01*
X15240774Y-13257702D02*
X15259821Y-13267226D01*
X15297917Y-13267226D01*
X15316964Y-13257702D01*
X15326488Y-13238655D01*
X15326488Y-13229131D01*
X15316964Y-13210083D01*
X15297917Y-13200559D01*
X15269345Y-13200559D01*
X15250298Y-13191036D01*
X15240774Y-13171988D01*
X15240774Y-13162464D01*
X15250298Y-13143417D01*
X15269345Y-13133893D01*
X15297917Y-13133893D01*
X15316964Y-13143417D01*
X15564583Y-13191036D02*
X15716964Y-13191036D01*
X15640774Y-13267226D02*
X15640774Y-13114845D01*
X15955059Y-13086274D02*
X15964583Y-13076750D01*
X15983631Y-13067226D01*
X16031250Y-13067226D01*
X16050298Y-13076750D01*
X16059821Y-13086274D01*
X16069345Y-13105321D01*
X16069345Y-13124369D01*
X16059821Y-13152940D01*
X15945536Y-13267226D01*
X16069345Y-13267226D01*
X16297917Y-13257702D02*
X16316964Y-13267226D01*
X16355059Y-13267226D01*
X16374107Y-13257702D01*
X16383631Y-13238655D01*
X16383631Y-13229131D01*
X16374107Y-13210083D01*
X16355059Y-13200559D01*
X16326488Y-13200559D01*
X16307440Y-13191036D01*
X16297917Y-13171988D01*
X16297917Y-13162464D01*
X16307440Y-13143417D01*
X16326488Y-13133893D01*
X16355059Y-13133893D01*
X16374107Y-13143417D01*
X16497917Y-13267226D02*
X16478869Y-13257702D01*
X16469345Y-13238655D01*
X16469345Y-13067226D01*
X16602678Y-13267226D02*
X16583631Y-13257702D01*
X16574107Y-13248178D01*
X16564583Y-13229131D01*
X16564583Y-13171988D01*
X16574107Y-13152940D01*
X16583631Y-13143417D01*
X16602678Y-13133893D01*
X16631250Y-13133893D01*
X16650298Y-13143417D01*
X16659821Y-13152940D01*
X16669345Y-13171988D01*
X16669345Y-13229131D01*
X16659821Y-13248178D01*
X16650298Y-13257702D01*
X16631250Y-13267226D01*
X16602678Y-13267226D01*
X16726488Y-13133893D02*
X16802679Y-13133893D01*
X16755059Y-13067226D02*
X16755059Y-13238655D01*
X16764583Y-13257702D01*
X16783631Y-13267226D01*
X16802679Y-13267226D01*
X16859821Y-13257702D02*
X16878869Y-13267226D01*
X16916964Y-13267226D01*
X16936012Y-13257702D01*
X16945536Y-13238655D01*
X16945536Y-13229131D01*
X16936012Y-13210083D01*
X16916964Y-13200559D01*
X16888393Y-13200559D01*
X16869345Y-13191036D01*
X16859821Y-13171988D01*
X16859821Y-13162464D01*
X16869345Y-13143417D01*
X16888393Y-13133893D01*
X16916964Y-13133893D01*
X16936012Y-13143417D01*
X17012202Y-13343417D02*
X17021726Y-13333893D01*
X17040774Y-13305321D01*
X17050298Y-13286274D01*
X17059821Y-13257702D01*
X17069345Y-13210083D01*
X17069345Y-13171988D01*
X17059821Y-13124369D01*
X17050298Y-13095798D01*
X17040774Y-13076750D01*
X17021726Y-13048178D01*
X17012202Y-13038655D01*
D10*
X10606606Y-13476106D02*
X10606606Y-13405394D01*
X10535894Y-13405394D01*
X10535894Y-13476106D01*
X10606606Y-13476106D01*
D11*
X10983631Y-13531226D02*
X10869345Y-13531226D01*
X10926488Y-13531226D02*
X10926488Y-13331226D01*
X10907440Y-13359798D01*
X10888393Y-13378845D01*
X10869345Y-13388369D01*
X11069345Y-13512178D02*
X11078869Y-13521702D01*
X11069345Y-13531226D01*
X11059821Y-13521702D01*
X11069345Y-13512178D01*
X11069345Y-13531226D01*
X11202678Y-13331226D02*
X11221726Y-13331226D01*
X11240774Y-13340750D01*
X11250298Y-13350274D01*
X11259821Y-13369321D01*
X11269345Y-13407417D01*
X11269345Y-13455036D01*
X11259821Y-13493131D01*
X11250298Y-13512178D01*
X11240774Y-13521702D01*
X11221726Y-13531226D01*
X11202678Y-13531226D01*
X11183631Y-13521702D01*
X11174107Y-13512178D01*
X11164583Y-13493131D01*
X11155060Y-13455036D01*
X11155060Y-13407417D01*
X11164583Y-13369321D01*
X11174107Y-13350274D01*
X11183631Y-13340750D01*
X11202678Y-13331226D01*
X11393155Y-13331226D02*
X11412202Y-13331226D01*
X11431250Y-13340750D01*
X11440774Y-13350274D01*
X11450298Y-13369321D01*
X11459821Y-13407417D01*
X11459821Y-13455036D01*
X11450298Y-13493131D01*
X11440774Y-13512178D01*
X11431250Y-13521702D01*
X11412202Y-13531226D01*
X11393155Y-13531226D01*
X11374107Y-13521702D01*
X11364583Y-13512178D01*
X11355059Y-13493131D01*
X11345536Y-13455036D01*
X11345536Y-13407417D01*
X11355059Y-13369321D01*
X11364583Y-13350274D01*
X11374107Y-13340750D01*
X11393155Y-13331226D01*
X11583631Y-13331226D02*
X11602678Y-13331226D01*
X11621726Y-13340750D01*
X11631250Y-13350274D01*
X11640774Y-13369321D01*
X11650298Y-13407417D01*
X11650298Y-13455036D01*
X11640774Y-13493131D01*
X11631250Y-13512178D01*
X11621726Y-13521702D01*
X11602678Y-13531226D01*
X11583631Y-13531226D01*
X11564583Y-13521702D01*
X11555059Y-13512178D01*
X11545536Y-13493131D01*
X11536012Y-13455036D01*
X11536012Y-13407417D01*
X11545536Y-13369321D01*
X11555059Y-13350274D01*
X11564583Y-13340750D01*
X11583631Y-13331226D01*
X11736012Y-13531226D02*
X11736012Y-13397893D01*
X11736012Y-13416940D02*
X11745536Y-13407417D01*
X11764583Y-13397893D01*
X11793155Y-13397893D01*
X11812202Y-13407417D01*
X11821726Y-13426464D01*
X11821726Y-13531226D01*
X11821726Y-13426464D02*
X11831250Y-13407417D01*
X11850298Y-13397893D01*
X11878869Y-13397893D01*
X11897917Y-13407417D01*
X11907440Y-13426464D01*
X11907440Y-13531226D01*
X12002678Y-13531226D02*
X12002678Y-13397893D01*
X12002678Y-13416940D02*
X12012202Y-13407417D01*
X12031250Y-13397893D01*
X12059821Y-13397893D01*
X12078869Y-13407417D01*
X12088393Y-13426464D01*
X12088393Y-13531226D01*
X12088393Y-13426464D02*
X12097917Y-13407417D01*
X12116964Y-13397893D01*
X12145536Y-13397893D01*
X12164583Y-13407417D01*
X12174107Y-13426464D01*
X12174107Y-13531226D01*
X12564583Y-13321702D02*
X12393155Y-13578845D01*
X12821726Y-13331226D02*
X12840774Y-13331226D01*
X12859821Y-13340750D01*
X12869345Y-13350274D01*
X12878869Y-13369321D01*
X12888393Y-13407417D01*
X12888393Y-13455036D01*
X12878869Y-13493131D01*
X12869345Y-13512178D01*
X12859821Y-13521702D01*
X12840774Y-13531226D01*
X12821726Y-13531226D01*
X12802678Y-13521702D01*
X12793155Y-13512178D01*
X12783631Y-13493131D01*
X12774107Y-13455036D01*
X12774107Y-13407417D01*
X12783631Y-13369321D01*
X12793155Y-13350274D01*
X12802678Y-13340750D01*
X12821726Y-13331226D01*
X12974107Y-13512178D02*
X12983631Y-13521702D01*
X12974107Y-13531226D01*
X12964583Y-13521702D01*
X12974107Y-13512178D01*
X12974107Y-13531226D01*
X13107440Y-13331226D02*
X13126488Y-13331226D01*
X13145536Y-13340750D01*
X13155059Y-13350274D01*
X13164583Y-13369321D01*
X13174107Y-13407417D01*
X13174107Y-13455036D01*
X13164583Y-13493131D01*
X13155059Y-13512178D01*
X13145536Y-13521702D01*
X13126488Y-13531226D01*
X13107440Y-13531226D01*
X13088393Y-13521702D01*
X13078869Y-13512178D01*
X13069345Y-13493131D01*
X13059821Y-13455036D01*
X13059821Y-13407417D01*
X13069345Y-13369321D01*
X13078869Y-13350274D01*
X13088393Y-13340750D01*
X13107440Y-13331226D01*
X13240774Y-13331226D02*
X13364583Y-13331226D01*
X13297917Y-13407417D01*
X13326488Y-13407417D01*
X13345536Y-13416940D01*
X13355059Y-13426464D01*
X13364583Y-13445512D01*
X13364583Y-13493131D01*
X13355059Y-13512178D01*
X13345536Y-13521702D01*
X13326488Y-13531226D01*
X13269345Y-13531226D01*
X13250298Y-13521702D01*
X13240774Y-13512178D01*
X13459821Y-13531226D02*
X13497917Y-13531226D01*
X13516964Y-13521702D01*
X13526488Y-13512178D01*
X13545536Y-13483607D01*
X13555059Y-13445512D01*
X13555059Y-13369321D01*
X13545536Y-13350274D01*
X13536012Y-13340750D01*
X13516964Y-13331226D01*
X13478869Y-13331226D01*
X13459821Y-13340750D01*
X13450298Y-13350274D01*
X13440774Y-13369321D01*
X13440774Y-13416940D01*
X13450298Y-13435988D01*
X13459821Y-13445512D01*
X13478869Y-13455036D01*
X13516964Y-13455036D01*
X13536012Y-13445512D01*
X13545536Y-13435988D01*
X13555059Y-13416940D01*
X13726488Y-13397893D02*
X13726488Y-13531226D01*
X13678869Y-13321702D02*
X13631250Y-13464559D01*
X13755059Y-13464559D01*
X13821726Y-13331226D02*
X13821726Y-13369321D01*
X13897917Y-13331226D02*
X13897917Y-13369321D01*
X14193155Y-13607417D02*
X14183631Y-13597893D01*
X14164583Y-13569321D01*
X14155059Y-13550274D01*
X14145536Y-13521702D01*
X14136012Y-13474083D01*
X14136012Y-13435988D01*
X14145536Y-13388369D01*
X14155059Y-13359798D01*
X14164583Y-13340750D01*
X14183631Y-13312178D01*
X14193155Y-13302655D01*
X14374107Y-13531226D02*
X14259821Y-13531226D01*
X14316964Y-13531226D02*
X14316964Y-13331226D01*
X14297917Y-13359798D01*
X14278869Y-13378845D01*
X14259821Y-13388369D01*
X14450298Y-13350274D02*
X14459821Y-13340750D01*
X14478869Y-13331226D01*
X14526488Y-13331226D01*
X14545536Y-13340750D01*
X14555059Y-13350274D01*
X14564583Y-13369321D01*
X14564583Y-13388369D01*
X14555059Y-13416940D01*
X14440774Y-13531226D01*
X14564583Y-13531226D01*
X14802678Y-13531226D02*
X14802678Y-13331226D01*
X14888393Y-13531226D02*
X14888393Y-13426464D01*
X14878869Y-13407417D01*
X14859821Y-13397893D01*
X14831250Y-13397893D01*
X14812202Y-13407417D01*
X14802678Y-13416940D01*
X15012202Y-13531226D02*
X14993155Y-13521702D01*
X14983631Y-13512178D01*
X14974107Y-13493131D01*
X14974107Y-13435988D01*
X14983631Y-13416940D01*
X14993155Y-13407417D01*
X15012202Y-13397893D01*
X15040774Y-13397893D01*
X15059821Y-13407417D01*
X15069345Y-13416940D01*
X15078869Y-13435988D01*
X15078869Y-13493131D01*
X15069345Y-13512178D01*
X15059821Y-13521702D01*
X15040774Y-13531226D01*
X15012202Y-13531226D01*
X15193155Y-13531226D02*
X15174107Y-13521702D01*
X15164583Y-13502655D01*
X15164583Y-13331226D01*
X15345536Y-13521702D02*
X15326488Y-13531226D01*
X15288393Y-13531226D01*
X15269345Y-13521702D01*
X15259821Y-13502655D01*
X15259821Y-13426464D01*
X15269345Y-13407417D01*
X15288393Y-13397893D01*
X15326488Y-13397893D01*
X15345536Y-13407417D01*
X15355059Y-13426464D01*
X15355059Y-13445512D01*
X15259821Y-13464559D01*
X15431250Y-13521702D02*
X15450298Y-13531226D01*
X15488393Y-13531226D01*
X15507440Y-13521702D01*
X15516964Y-13502655D01*
X15516964Y-13493131D01*
X15507440Y-13474083D01*
X15488393Y-13464559D01*
X15459821Y-13464559D01*
X15440774Y-13455036D01*
X15431250Y-13435988D01*
X15431250Y-13426464D01*
X15440774Y-13407417D01*
X15459821Y-13397893D01*
X15488393Y-13397893D01*
X15507440Y-13407417D01*
X15583631Y-13607417D02*
X15593155Y-13597893D01*
X15612202Y-13569321D01*
X15621726Y-13550274D01*
X15631250Y-13521702D01*
X15640774Y-13474083D01*
X15640774Y-13435988D01*
X15631250Y-13388369D01*
X15621726Y-13359798D01*
X15612202Y-13340750D01*
X15593155Y-13312178D01*
X15583631Y-13302655D01*
D15*
X10561250Y-13764750D02*
X10621250Y-13704750D01*
X10561250Y-13644750D01*
X10501250Y-13704750D01*
X10561250Y-13764750D01*
D11*
X10983631Y-13795226D02*
X10869345Y-13795226D01*
X10926488Y-13795226D02*
X10926488Y-13595226D01*
X10907440Y-13623798D01*
X10888393Y-13642845D01*
X10869345Y-13652369D01*
X11069345Y-13776178D02*
X11078869Y-13785702D01*
X11069345Y-13795226D01*
X11059821Y-13785702D01*
X11069345Y-13776178D01*
X11069345Y-13795226D01*
X11155060Y-13614274D02*
X11164583Y-13604750D01*
X11183631Y-13595226D01*
X11231250Y-13595226D01*
X11250298Y-13604750D01*
X11259821Y-13614274D01*
X11269345Y-13633321D01*
X11269345Y-13652369D01*
X11259821Y-13680940D01*
X11145536Y-13795226D01*
X11269345Y-13795226D01*
X11393155Y-13595226D02*
X11412202Y-13595226D01*
X11431250Y-13604750D01*
X11440774Y-13614274D01*
X11450298Y-13633321D01*
X11459821Y-13671417D01*
X11459821Y-13719036D01*
X11450298Y-13757131D01*
X11440774Y-13776178D01*
X11431250Y-13785702D01*
X11412202Y-13795226D01*
X11393155Y-13795226D01*
X11374107Y-13785702D01*
X11364583Y-13776178D01*
X11355059Y-13757131D01*
X11345536Y-13719036D01*
X11345536Y-13671417D01*
X11355059Y-13633321D01*
X11364583Y-13614274D01*
X11374107Y-13604750D01*
X11393155Y-13595226D01*
X11583631Y-13595226D02*
X11602678Y-13595226D01*
X11621726Y-13604750D01*
X11631250Y-13614274D01*
X11640774Y-13633321D01*
X11650298Y-13671417D01*
X11650298Y-13719036D01*
X11640774Y-13757131D01*
X11631250Y-13776178D01*
X11621726Y-13785702D01*
X11602678Y-13795226D01*
X11583631Y-13795226D01*
X11564583Y-13785702D01*
X11555059Y-13776178D01*
X11545536Y-13757131D01*
X11536012Y-13719036D01*
X11536012Y-13671417D01*
X11545536Y-13633321D01*
X11555059Y-13614274D01*
X11564583Y-13604750D01*
X11583631Y-13595226D01*
X11736012Y-13795226D02*
X11736012Y-13661893D01*
X11736012Y-13680940D02*
X11745536Y-13671417D01*
X11764583Y-13661893D01*
X11793155Y-13661893D01*
X11812202Y-13671417D01*
X11821726Y-13690464D01*
X11821726Y-13795226D01*
X11821726Y-13690464D02*
X11831250Y-13671417D01*
X11850298Y-13661893D01*
X11878869Y-13661893D01*
X11897917Y-13671417D01*
X11907440Y-13690464D01*
X11907440Y-13795226D01*
X12002678Y-13795226D02*
X12002678Y-13661893D01*
X12002678Y-13680940D02*
X12012202Y-13671417D01*
X12031250Y-13661893D01*
X12059821Y-13661893D01*
X12078869Y-13671417D01*
X12088393Y-13690464D01*
X12088393Y-13795226D01*
X12088393Y-13690464D02*
X12097917Y-13671417D01*
X12116964Y-13661893D01*
X12145536Y-13661893D01*
X12164583Y-13671417D01*
X12174107Y-13690464D01*
X12174107Y-13795226D01*
X12564583Y-13585702D02*
X12393155Y-13842845D01*
X12821726Y-13595226D02*
X12840774Y-13595226D01*
X12859821Y-13604750D01*
X12869345Y-13614274D01*
X12878869Y-13633321D01*
X12888393Y-13671417D01*
X12888393Y-13719036D01*
X12878869Y-13757131D01*
X12869345Y-13776178D01*
X12859821Y-13785702D01*
X12840774Y-13795226D01*
X12821726Y-13795226D01*
X12802678Y-13785702D01*
X12793155Y-13776178D01*
X12783631Y-13757131D01*
X12774107Y-13719036D01*
X12774107Y-13671417D01*
X12783631Y-13633321D01*
X12793155Y-13614274D01*
X12802678Y-13604750D01*
X12821726Y-13595226D01*
X12974107Y-13776178D02*
X12983631Y-13785702D01*
X12974107Y-13795226D01*
X12964583Y-13785702D01*
X12974107Y-13776178D01*
X12974107Y-13795226D01*
X13107440Y-13595226D02*
X13126488Y-13595226D01*
X13145536Y-13604750D01*
X13155059Y-13614274D01*
X13164583Y-13633321D01*
X13174107Y-13671417D01*
X13174107Y-13719036D01*
X13164583Y-13757131D01*
X13155059Y-13776178D01*
X13145536Y-13785702D01*
X13126488Y-13795226D01*
X13107440Y-13795226D01*
X13088393Y-13785702D01*
X13078869Y-13776178D01*
X13069345Y-13757131D01*
X13059821Y-13719036D01*
X13059821Y-13671417D01*
X13069345Y-13633321D01*
X13078869Y-13614274D01*
X13088393Y-13604750D01*
X13107440Y-13595226D01*
X13345536Y-13661893D02*
X13345536Y-13795226D01*
X13297917Y-13585702D02*
X13250298Y-13728559D01*
X13374107Y-13728559D01*
X13431250Y-13595226D02*
X13564583Y-13595226D01*
X13478869Y-13795226D01*
X13631250Y-13614274D02*
X13640774Y-13604750D01*
X13659821Y-13595226D01*
X13707440Y-13595226D01*
X13726488Y-13604750D01*
X13736012Y-13614274D01*
X13745536Y-13633321D01*
X13745536Y-13652369D01*
X13736012Y-13680940D01*
X13621726Y-13795226D01*
X13745536Y-13795226D01*
X13821726Y-13595226D02*
X13821726Y-13633321D01*
X13897917Y-13595226D02*
X13897917Y-13633321D01*
X14193155Y-13871417D02*
X14183631Y-13861893D01*
X14164583Y-13833321D01*
X14155059Y-13814274D01*
X14145536Y-13785702D01*
X14136012Y-13738083D01*
X14136012Y-13699988D01*
X14145536Y-13652369D01*
X14155059Y-13623798D01*
X14164583Y-13604750D01*
X14183631Y-13576178D01*
X14193155Y-13566655D01*
X14297917Y-13680940D02*
X14278869Y-13671417D01*
X14269345Y-13661893D01*
X14259821Y-13642845D01*
X14259821Y-13633321D01*
X14269345Y-13614274D01*
X14278869Y-13604750D01*
X14297917Y-13595226D01*
X14336012Y-13595226D01*
X14355059Y-13604750D01*
X14364583Y-13614274D01*
X14374107Y-13633321D01*
X14374107Y-13642845D01*
X14364583Y-13661893D01*
X14355059Y-13671417D01*
X14336012Y-13680940D01*
X14297917Y-13680940D01*
X14278869Y-13690464D01*
X14269345Y-13699988D01*
X14259821Y-13719036D01*
X14259821Y-13757131D01*
X14269345Y-13776178D01*
X14278869Y-13785702D01*
X14297917Y-13795226D01*
X14336012Y-13795226D01*
X14355059Y-13785702D01*
X14364583Y-13776178D01*
X14374107Y-13757131D01*
X14374107Y-13719036D01*
X14364583Y-13699988D01*
X14355059Y-13690464D01*
X14336012Y-13680940D01*
X14612202Y-13795226D02*
X14612202Y-13595226D01*
X14697917Y-13795226D02*
X14697917Y-13690464D01*
X14688393Y-13671417D01*
X14669345Y-13661893D01*
X14640774Y-13661893D01*
X14621726Y-13671417D01*
X14612202Y-13680940D01*
X14821726Y-13795226D02*
X14802678Y-13785702D01*
X14793155Y-13776178D01*
X14783631Y-13757131D01*
X14783631Y-13699988D01*
X14793155Y-13680940D01*
X14802678Y-13671417D01*
X14821726Y-13661893D01*
X14850298Y-13661893D01*
X14869345Y-13671417D01*
X14878869Y-13680940D01*
X14888393Y-13699988D01*
X14888393Y-13757131D01*
X14878869Y-13776178D01*
X14869345Y-13785702D01*
X14850298Y-13795226D01*
X14821726Y-13795226D01*
X15002678Y-13795226D02*
X14983631Y-13785702D01*
X14974107Y-13766655D01*
X14974107Y-13595226D01*
X15155059Y-13785702D02*
X15136012Y-13795226D01*
X15097917Y-13795226D01*
X15078869Y-13785702D01*
X15069345Y-13766655D01*
X15069345Y-13690464D01*
X15078869Y-13671417D01*
X15097917Y-13661893D01*
X15136012Y-13661893D01*
X15155059Y-13671417D01*
X15164583Y-13690464D01*
X15164583Y-13709512D01*
X15069345Y-13728559D01*
X15240774Y-13785702D02*
X15259821Y-13795226D01*
X15297917Y-13795226D01*
X15316964Y-13785702D01*
X15326488Y-13766655D01*
X15326488Y-13757131D01*
X15316964Y-13738083D01*
X15297917Y-13728559D01*
X15269345Y-13728559D01*
X15250298Y-13719036D01*
X15240774Y-13699988D01*
X15240774Y-13690464D01*
X15250298Y-13671417D01*
X15269345Y-13661893D01*
X15297917Y-13661893D01*
X15316964Y-13671417D01*
X15393155Y-13871417D02*
X15402678Y-13861893D01*
X15421726Y-13833321D01*
X15431250Y-13814274D01*
X15440774Y-13785702D01*
X15450298Y-13738083D01*
X15450298Y-13699988D01*
X15440774Y-13652369D01*
X15431250Y-13623798D01*
X15421726Y-13604750D01*
X15402678Y-13576178D01*
X15393155Y-13566655D01*
X10421250Y-13868750D02*
X10621250Y-14068750D01*
X10621250Y-13868750D02*
X10421250Y-14068750D01*
X10621250Y-13968750D02*
G75*
G03*
X10621250Y-13968750I-100000J0D01*
G01*
X10859821Y-13859226D02*
X10983631Y-13859226D01*
X10916964Y-13935417D01*
X10945536Y-13935417D01*
X10964583Y-13944940D01*
X10974107Y-13954464D01*
X10983631Y-13973512D01*
X10983631Y-14021131D01*
X10974107Y-14040178D01*
X10964583Y-14049702D01*
X10945536Y-14059226D01*
X10888393Y-14059226D01*
X10869345Y-14049702D01*
X10859821Y-14040178D01*
X11069345Y-14040178D02*
X11078869Y-14049702D01*
X11069345Y-14059226D01*
X11059821Y-14049702D01*
X11069345Y-14040178D01*
X11069345Y-14059226D01*
X11155060Y-13878274D02*
X11164583Y-13868750D01*
X11183631Y-13859226D01*
X11231250Y-13859226D01*
X11250298Y-13868750D01*
X11259821Y-13878274D01*
X11269345Y-13897321D01*
X11269345Y-13916369D01*
X11259821Y-13944940D01*
X11145536Y-14059226D01*
X11269345Y-14059226D01*
X11393155Y-13859226D02*
X11412202Y-13859226D01*
X11431250Y-13868750D01*
X11440774Y-13878274D01*
X11450298Y-13897321D01*
X11459821Y-13935417D01*
X11459821Y-13983036D01*
X11450298Y-14021131D01*
X11440774Y-14040178D01*
X11431250Y-14049702D01*
X11412202Y-14059226D01*
X11393155Y-14059226D01*
X11374107Y-14049702D01*
X11364583Y-14040178D01*
X11355059Y-14021131D01*
X11345536Y-13983036D01*
X11345536Y-13935417D01*
X11355059Y-13897321D01*
X11364583Y-13878274D01*
X11374107Y-13868750D01*
X11393155Y-13859226D01*
X11583631Y-13859226D02*
X11602678Y-13859226D01*
X11621726Y-13868750D01*
X11631250Y-13878274D01*
X11640774Y-13897321D01*
X11650298Y-13935417D01*
X11650298Y-13983036D01*
X11640774Y-14021131D01*
X11631250Y-14040178D01*
X11621726Y-14049702D01*
X11602678Y-14059226D01*
X11583631Y-14059226D01*
X11564583Y-14049702D01*
X11555059Y-14040178D01*
X11545536Y-14021131D01*
X11536012Y-13983036D01*
X11536012Y-13935417D01*
X11545536Y-13897321D01*
X11555059Y-13878274D01*
X11564583Y-13868750D01*
X11583631Y-13859226D01*
X11736012Y-14059226D02*
X11736012Y-13925893D01*
X11736012Y-13944940D02*
X11745536Y-13935417D01*
X11764583Y-13925893D01*
X11793155Y-13925893D01*
X11812202Y-13935417D01*
X11821726Y-13954464D01*
X11821726Y-14059226D01*
X11821726Y-13954464D02*
X11831250Y-13935417D01*
X11850298Y-13925893D01*
X11878869Y-13925893D01*
X11897917Y-13935417D01*
X11907440Y-13954464D01*
X11907440Y-14059226D01*
X12002678Y-14059226D02*
X12002678Y-13925893D01*
X12002678Y-13944940D02*
X12012202Y-13935417D01*
X12031250Y-13925893D01*
X12059821Y-13925893D01*
X12078869Y-13935417D01*
X12088393Y-13954464D01*
X12088393Y-14059226D01*
X12088393Y-13954464D02*
X12097917Y-13935417D01*
X12116964Y-13925893D01*
X12145536Y-13925893D01*
X12164583Y-13935417D01*
X12174107Y-13954464D01*
X12174107Y-14059226D01*
X12564583Y-13849702D02*
X12393155Y-14106845D01*
X12821726Y-13859226D02*
X12840774Y-13859226D01*
X12859821Y-13868750D01*
X12869345Y-13878274D01*
X12878869Y-13897321D01*
X12888393Y-13935417D01*
X12888393Y-13983036D01*
X12878869Y-14021131D01*
X12869345Y-14040178D01*
X12859821Y-14049702D01*
X12840774Y-14059226D01*
X12821726Y-14059226D01*
X12802678Y-14049702D01*
X12793155Y-14040178D01*
X12783631Y-14021131D01*
X12774107Y-13983036D01*
X12774107Y-13935417D01*
X12783631Y-13897321D01*
X12793155Y-13878274D01*
X12802678Y-13868750D01*
X12821726Y-13859226D01*
X12974107Y-14040178D02*
X12983631Y-14049702D01*
X12974107Y-14059226D01*
X12964583Y-14049702D01*
X12974107Y-14040178D01*
X12974107Y-14059226D01*
X13174107Y-14059226D02*
X13059821Y-14059226D01*
X13116964Y-14059226D02*
X13116964Y-13859226D01*
X13097917Y-13887798D01*
X13078869Y-13906845D01*
X13059821Y-13916369D01*
X13250298Y-13878274D02*
X13259821Y-13868750D01*
X13278869Y-13859226D01*
X13326488Y-13859226D01*
X13345536Y-13868750D01*
X13355059Y-13878274D01*
X13364583Y-13897321D01*
X13364583Y-13916369D01*
X13355059Y-13944940D01*
X13240774Y-14059226D01*
X13364583Y-14059226D01*
X13536012Y-13859226D02*
X13497917Y-13859226D01*
X13478869Y-13868750D01*
X13469345Y-13878274D01*
X13450298Y-13906845D01*
X13440774Y-13944940D01*
X13440774Y-14021131D01*
X13450298Y-14040178D01*
X13459821Y-14049702D01*
X13478869Y-14059226D01*
X13516964Y-14059226D01*
X13536012Y-14049702D01*
X13545536Y-14040178D01*
X13555059Y-14021131D01*
X13555059Y-13973512D01*
X13545536Y-13954464D01*
X13536012Y-13944940D01*
X13516964Y-13935417D01*
X13478869Y-13935417D01*
X13459821Y-13944940D01*
X13450298Y-13954464D01*
X13440774Y-13973512D01*
X13678869Y-13859226D02*
X13697917Y-13859226D01*
X13716964Y-13868750D01*
X13726488Y-13878274D01*
X13736012Y-13897321D01*
X13745536Y-13935417D01*
X13745536Y-13983036D01*
X13736012Y-14021131D01*
X13726488Y-14040178D01*
X13716964Y-14049702D01*
X13697917Y-14059226D01*
X13678869Y-14059226D01*
X13659821Y-14049702D01*
X13650298Y-14040178D01*
X13640774Y-14021131D01*
X13631250Y-13983036D01*
X13631250Y-13935417D01*
X13640774Y-13897321D01*
X13650298Y-13878274D01*
X13659821Y-13868750D01*
X13678869Y-13859226D01*
X13821726Y-13859226D02*
X13821726Y-13897321D01*
X13897917Y-13859226D02*
X13897917Y-13897321D01*
X14193155Y-14135417D02*
X14183631Y-14125893D01*
X14164583Y-14097321D01*
X14155059Y-14078274D01*
X14145536Y-14049702D01*
X14136012Y-14002083D01*
X14136012Y-13963988D01*
X14145536Y-13916369D01*
X14155059Y-13887798D01*
X14164583Y-13868750D01*
X14183631Y-13840178D01*
X14193155Y-13830655D01*
X14259821Y-13878274D02*
X14269345Y-13868750D01*
X14288393Y-13859226D01*
X14336012Y-13859226D01*
X14355059Y-13868750D01*
X14364583Y-13878274D01*
X14374107Y-13897321D01*
X14374107Y-13916369D01*
X14364583Y-13944940D01*
X14250298Y-14059226D01*
X14374107Y-14059226D01*
X14612202Y-14059226D02*
X14612202Y-13859226D01*
X14697917Y-14059226D02*
X14697917Y-13954464D01*
X14688393Y-13935417D01*
X14669345Y-13925893D01*
X14640774Y-13925893D01*
X14621726Y-13935417D01*
X14612202Y-13944940D01*
X14821726Y-14059226D02*
X14802678Y-14049702D01*
X14793155Y-14040178D01*
X14783631Y-14021131D01*
X14783631Y-13963988D01*
X14793155Y-13944940D01*
X14802678Y-13935417D01*
X14821726Y-13925893D01*
X14850298Y-13925893D01*
X14869345Y-13935417D01*
X14878869Y-13944940D01*
X14888393Y-13963988D01*
X14888393Y-14021131D01*
X14878869Y-14040178D01*
X14869345Y-14049702D01*
X14850298Y-14059226D01*
X14821726Y-14059226D01*
X15002678Y-14059226D02*
X14983631Y-14049702D01*
X14974107Y-14030655D01*
X14974107Y-13859226D01*
X15155059Y-14049702D02*
X15136012Y-14059226D01*
X15097917Y-14059226D01*
X15078869Y-14049702D01*
X15069345Y-14030655D01*
X15069345Y-13954464D01*
X15078869Y-13935417D01*
X15097917Y-13925893D01*
X15136012Y-13925893D01*
X15155059Y-13935417D01*
X15164583Y-13954464D01*
X15164583Y-13973512D01*
X15069345Y-13992559D01*
X15240774Y-14049702D02*
X15259821Y-14059226D01*
X15297917Y-14059226D01*
X15316964Y-14049702D01*
X15326488Y-14030655D01*
X15326488Y-14021131D01*
X15316964Y-14002083D01*
X15297917Y-13992559D01*
X15269345Y-13992559D01*
X15250298Y-13983036D01*
X15240774Y-13963988D01*
X15240774Y-13954464D01*
X15250298Y-13935417D01*
X15269345Y-13925893D01*
X15297917Y-13925893D01*
X15316964Y-13935417D01*
X15393155Y-14135417D02*
X15402678Y-14125893D01*
X15421726Y-14097321D01*
X15431250Y-14078274D01*
X15440774Y-14049702D01*
X15450298Y-14002083D01*
X15450298Y-13963988D01*
X15440774Y-13916369D01*
X15431250Y-13887798D01*
X15421726Y-13868750D01*
X15402678Y-13840178D01*
X15393155Y-13830655D01*
M02*
