G04 #@! TF.GenerationSoftware,KiCad,Pcbnew,6.0.11+dfsg-1*
G04 #@! TF.ProjectId,project,70726f6a-6563-4742-9e6b-696361645f70,rev?*
G04 #@! TF.SameCoordinates,Original*
G04 #@! TF.FileFunction,Soldermask,Bot*
G04 #@! TF.FilePolarity,Negative*
%FSLAX46Y46*%
G04 Gerber Fmt 4.6, Leading zero omitted, Abs format (unit mm)*
%MOMM*%
%LPD*%
G01*
G04 APERTURE LIST*
G04 #@! TA.AperFunction,Profile*
%ADD10C,0.100000*%
G04 #@! TD*
%ADD11O,3.600000X1.800000*%
%ADD12C,6.400000*%
%ADD13C,0.900000*%
%ADD14R,1.700000X1.700000*%
%ADD15O,1.700000X1.700000*%
G04 APERTURE END LIST*
D10*
X122262500Y-119537500D02*
X119262500Y-119537500D01*
X174262500Y-79537500D02*
X177262500Y-79537500D01*
X152262500Y-116037500D02*
G75*
G03*
X152262500Y-112037500I0J2000000D01*
G01*
X119262500Y-79537500D02*
X118262500Y-79037500D01*
X107762500Y-79037500D02*
X118262500Y-79037500D01*
X174262500Y-79537500D02*
X173262500Y-79037500D01*
X118262500Y-120037500D02*
X107762500Y-120037500D01*
X188762500Y-120037500D02*
X178262500Y-120037500D01*
X119262500Y-119537500D02*
X118262500Y-120037500D01*
X177262500Y-119537500D02*
X174262500Y-119537500D01*
X188762500Y-120037500D02*
G75*
G03*
X190262500Y-118537500I0J1500000D01*
G01*
X177262500Y-119537500D02*
X178262500Y-120037500D01*
X122262500Y-119537500D02*
X123262500Y-120037500D01*
X106262500Y-118537500D02*
X106262500Y-80537500D01*
X190262500Y-80537500D02*
X190262500Y-118537500D01*
X107762500Y-79037500D02*
G75*
G03*
X106262500Y-80537500I0J-1500000D01*
G01*
X177262500Y-79537500D02*
X178262500Y-79037500D01*
X178262500Y-79037500D02*
X188762500Y-79037500D01*
X119262500Y-79537500D02*
X122262500Y-79537500D01*
X173262500Y-79037500D02*
X123262500Y-79037500D01*
X152262500Y-116037500D02*
X134262500Y-116037500D01*
X123262500Y-120037500D02*
X173262500Y-120037500D01*
X106262500Y-118537500D02*
G75*
G03*
X107762500Y-120037500I1500000J0D01*
G01*
X134262500Y-112037500D02*
X152262500Y-112037500D01*
X122262500Y-79537500D02*
X123262500Y-79037500D01*
X174262500Y-119537500D02*
X173262500Y-120037500D01*
X134262500Y-112037500D02*
G75*
G03*
X134262500Y-116037500I0J-2000000D01*
G01*
X190262500Y-80537500D02*
G75*
G03*
X188762500Y-79037500I-1500000J0D01*
G01*
G36*
G01*
X153287500Y-80977500D02*
X153287500Y-82237500D01*
G75*
G02*
X153217500Y-82307500I-70000J0D01*
G01*
X151757500Y-82307500D01*
G75*
G02*
X151687500Y-82237500I0J70000D01*
G01*
X151687500Y-80977500D01*
G75*
G02*
X151757500Y-80907500I70000J0D01*
G01*
X153217500Y-80907500D01*
G75*
G02*
X153287500Y-80977500I0J-70000D01*
G01*
G37*
G36*
G01*
X144862500Y-80952500D02*
X144862500Y-82122500D01*
G75*
G02*
X144797500Y-82187500I-65000J0D01*
G01*
X142227500Y-82187500D01*
G75*
G02*
X142162500Y-82122500I0J65000D01*
G01*
X142162500Y-80952500D01*
G75*
G02*
X142227500Y-80887500I65000J0D01*
G01*
X144797500Y-80887500D01*
G75*
G02*
X144862500Y-80952500I0J-65000D01*
G01*
G37*
G36*
G01*
X154362500Y-83952500D02*
X154362500Y-85122500D01*
G75*
G02*
X154297500Y-85187500I-65000J0D01*
G01*
X151727500Y-85187500D01*
G75*
G02*
X151662500Y-85122500I0J65000D01*
G01*
X151662500Y-83952500D01*
G75*
G02*
X151727500Y-83887500I65000J0D01*
G01*
X154297500Y-83887500D01*
G75*
G02*
X154362500Y-83952500I0J-65000D01*
G01*
G37*
G36*
G01*
X144837500Y-83837500D02*
X144837500Y-85097500D01*
G75*
G02*
X144767500Y-85167500I-70000J0D01*
G01*
X143307500Y-85167500D01*
G75*
G02*
X143237500Y-85097500I0J70000D01*
G01*
X143237500Y-83837500D01*
G75*
G02*
X143307500Y-83767500I70000J0D01*
G01*
X144767500Y-83767500D01*
G75*
G02*
X144837500Y-83837500I0J-70000D01*
G01*
G37*
G36*
G01*
X186955000Y-105670000D02*
X183855000Y-105670000D01*
G75*
G02*
X183605000Y-105420000I0J250000D01*
G01*
X183605000Y-104120000D01*
G75*
G02*
X183855000Y-103870000I250000J0D01*
G01*
X186955000Y-103870000D01*
G75*
G02*
X187205000Y-104120000I0J-250000D01*
G01*
X187205000Y-105420000D01*
G75*
G02*
X186955000Y-105670000I-250000J0D01*
G01*
G37*
D11*
X185405000Y-101270000D03*
X185405000Y-97770000D03*
X185405000Y-94270000D03*
D12*
X133262500Y-100537500D03*
D13*
X131565444Y-98840444D03*
X130862500Y-100537500D03*
X133262500Y-98137500D03*
X133262500Y-102937500D03*
X134959556Y-98840444D03*
X134959556Y-102234556D03*
X135662500Y-100537500D03*
X131565444Y-102234556D03*
X163262500Y-102937500D03*
X161565444Y-98840444D03*
X160862500Y-100537500D03*
X163262500Y-98137500D03*
X165662500Y-100537500D03*
X164959556Y-98840444D03*
X164959556Y-102234556D03*
X161565444Y-102234556D03*
D12*
X163262500Y-100537500D03*
G36*
G01*
X109570000Y-93405000D02*
X112670000Y-93405000D01*
G75*
G02*
X112920000Y-93655000I0J-250000D01*
G01*
X112920000Y-94955000D01*
G75*
G02*
X112670000Y-95205000I-250000J0D01*
G01*
X109570000Y-95205000D01*
G75*
G02*
X109320000Y-94955000I0J250000D01*
G01*
X109320000Y-93655000D01*
G75*
G02*
X109570000Y-93405000I250000J0D01*
G01*
G37*
D11*
X111120000Y-97805000D03*
X111120000Y-101305000D03*
X111120000Y-104805000D03*
D14*
X168400000Y-104575000D03*
D15*
X168400000Y-107115000D03*
X168400000Y-109655000D03*
D14*
X155600000Y-108575000D03*
D15*
X155600000Y-111115000D03*
X155600000Y-113655000D03*
D14*
X125037500Y-109960000D03*
D15*
X125037500Y-112500000D03*
X125037500Y-115040000D03*
D14*
X175200000Y-98360000D03*
D15*
X175200000Y-100900000D03*
X175200000Y-103440000D03*
M02*
