G04 #@! TF.GenerationSoftware,KiCad,Pcbnew,6.0.11+dfsg-1*
G04 #@! TF.ProjectId,project,70726f6a-6563-4742-9e6b-696361645f70,rev?*
G04 #@! TF.SameCoordinates,Original*
G04 #@! TF.FileFunction,Legend,Bot*
G04 #@! TF.FilePolarity,Positive*
%FSLAX46Y46*%
G04 Gerber Fmt 4.6, Leading zero omitted, Abs format (unit mm)*
%MOMM*%
%LPD*%
G01*
G04 APERTURE LIST*
G04 #@! TA.AperFunction,Profile*
%ADD10C,0.100000*%
G04 #@! TD*
%ADD11C,0.275000*%
%ADD12C,0.150000*%
%ADD13C,0.010000*%
%ADD14C,0.120000*%
%ADD15O,3.600000X1.800000*%
%ADD16C,6.400000*%
%ADD17C,0.900000*%
%ADD18R,1.700000X1.700000*%
%ADD19O,1.700000X1.700000*%
G04 APERTURE END LIST*
D10*
X107762500Y-79037500D02*
X108262500Y-79037500D01*
X152262500Y-116037500D02*
G75*
G03*
X152262500Y-112037500I0J2000000D01*
G01*
X108262500Y-79037500D02*
X148262500Y-79037500D01*
X188762500Y-120037500D02*
G75*
G03*
X190262500Y-118537500I0J1500000D01*
G01*
X106262500Y-118537500D02*
X106262500Y-80537500D01*
X190262500Y-80537500D02*
X190262500Y-118537500D01*
X107762500Y-79037500D02*
G75*
G03*
X106262500Y-80537500I0J-1500000D01*
G01*
X148262500Y-79037500D02*
X188262500Y-79037500D01*
X152262500Y-116037500D02*
X134262500Y-116037500D01*
X106262500Y-118537500D02*
G75*
G03*
X107762500Y-120037500I1500000J0D01*
G01*
X134262500Y-112037500D02*
X152262500Y-112037500D01*
X188262500Y-79037500D02*
X188762500Y-79037500D01*
X134262500Y-112037500D02*
G75*
G03*
X134262500Y-116037500I0J-2000000D01*
G01*
X190262500Y-80537500D02*
G75*
G03*
X188762500Y-79037500I-1500000J0D01*
G01*
X188762500Y-120037500D02*
X107762500Y-120037500D01*
D11*
X180255178Y-105348119D02*
X180307559Y-105400500D01*
X180412321Y-105452880D01*
X180674226Y-105452880D01*
X180778988Y-105400500D01*
X180831369Y-105348119D01*
X180883750Y-105243357D01*
X180883750Y-105138595D01*
X180831369Y-104981452D01*
X180202797Y-104352880D01*
X180883750Y-104352880D01*
X181826607Y-105086214D02*
X181826607Y-104352880D01*
X181564702Y-105505261D02*
X181302797Y-104719547D01*
X181983750Y-104719547D01*
X182245654Y-105452880D02*
X182612321Y-104352880D01*
X182978988Y-105452880D01*
X180569464Y-101858500D02*
X180464702Y-101910880D01*
X180307559Y-101910880D01*
X180150416Y-101858500D01*
X180045654Y-101753738D01*
X179993273Y-101648976D01*
X179940892Y-101439452D01*
X179940892Y-101282309D01*
X179993273Y-101072785D01*
X180045654Y-100968023D01*
X180150416Y-100863261D01*
X180307559Y-100810880D01*
X180412321Y-100810880D01*
X180569464Y-100863261D01*
X180621845Y-100915642D01*
X180621845Y-101282309D01*
X180412321Y-101282309D01*
X181093273Y-100810880D02*
X181093273Y-101910880D01*
X181721845Y-100810880D01*
X181721845Y-101910880D01*
X182245654Y-100810880D02*
X182245654Y-101910880D01*
X182507559Y-101910880D01*
X182664702Y-101858500D01*
X182769464Y-101753738D01*
X182821845Y-101648976D01*
X182874226Y-101439452D01*
X182874226Y-101282309D01*
X182821845Y-101072785D01*
X182769464Y-100968023D01*
X182664702Y-100863261D01*
X182507559Y-100810880D01*
X182245654Y-100810880D01*
X179626607Y-97373642D02*
X179574226Y-97321261D01*
X179417083Y-97268880D01*
X179312321Y-97268880D01*
X179155178Y-97321261D01*
X179050416Y-97426023D01*
X178998035Y-97530785D01*
X178945654Y-97740309D01*
X178945654Y-97897452D01*
X178998035Y-98106976D01*
X179050416Y-98211738D01*
X179155178Y-98316500D01*
X179312321Y-98368880D01*
X179417083Y-98368880D01*
X179574226Y-98316500D01*
X179626607Y-98264119D01*
X180045654Y-97583166D02*
X180569464Y-97583166D01*
X179940892Y-97268880D02*
X180307559Y-98368880D01*
X180674226Y-97268880D01*
X181040892Y-97268880D02*
X181040892Y-98368880D01*
X181669464Y-97268880D01*
X181669464Y-98368880D01*
X182193273Y-97268880D02*
X182193273Y-98368880D01*
X182193273Y-97845071D02*
X182821845Y-97845071D01*
X182821845Y-97268880D02*
X182821845Y-98368880D01*
X179888511Y-93831642D02*
X179836130Y-93779261D01*
X179678988Y-93726880D01*
X179574226Y-93726880D01*
X179417083Y-93779261D01*
X179312321Y-93884023D01*
X179259940Y-93988785D01*
X179207559Y-94198309D01*
X179207559Y-94355452D01*
X179259940Y-94564976D01*
X179312321Y-94669738D01*
X179417083Y-94774500D01*
X179574226Y-94826880D01*
X179678988Y-94826880D01*
X179836130Y-94774500D01*
X179888511Y-94722119D01*
X180307559Y-94041166D02*
X180831369Y-94041166D01*
X180202797Y-93726880D02*
X180569464Y-94826880D01*
X180936130Y-93726880D01*
X181302797Y-93726880D02*
X181302797Y-94826880D01*
X181931369Y-93726880D01*
X181931369Y-94826880D01*
X182978988Y-93726880D02*
X182455178Y-93726880D01*
X182455178Y-94826880D01*
X114331726Y-104457642D02*
X114279345Y-104405261D01*
X114122202Y-104352880D01*
X114017440Y-104352880D01*
X113860297Y-104405261D01*
X113755535Y-104510023D01*
X113703154Y-104614785D01*
X113650773Y-104824309D01*
X113650773Y-104981452D01*
X113703154Y-105190976D01*
X113755535Y-105295738D01*
X113860297Y-105400500D01*
X114017440Y-105452880D01*
X114122202Y-105452880D01*
X114279345Y-105400500D01*
X114331726Y-105348119D01*
X114750773Y-104667166D02*
X115274583Y-104667166D01*
X114646011Y-104352880D02*
X115012678Y-105452880D01*
X115379345Y-104352880D01*
X115746011Y-104352880D02*
X115746011Y-105452880D01*
X116374583Y-104352880D01*
X116374583Y-105452880D01*
X117422202Y-104352880D02*
X116898392Y-104352880D01*
X116898392Y-105452880D01*
X114331726Y-100915642D02*
X114279345Y-100863261D01*
X114122202Y-100810880D01*
X114017440Y-100810880D01*
X113860297Y-100863261D01*
X113755535Y-100968023D01*
X113703154Y-101072785D01*
X113650773Y-101282309D01*
X113650773Y-101439452D01*
X113703154Y-101648976D01*
X113755535Y-101753738D01*
X113860297Y-101858500D01*
X114017440Y-101910880D01*
X114122202Y-101910880D01*
X114279345Y-101858500D01*
X114331726Y-101806119D01*
X114750773Y-101125166D02*
X115274583Y-101125166D01*
X114646011Y-100810880D02*
X115012678Y-101910880D01*
X115379345Y-100810880D01*
X115746011Y-100810880D02*
X115746011Y-101910880D01*
X116374583Y-100810880D01*
X116374583Y-101910880D01*
X116898392Y-100810880D02*
X116898392Y-101910880D01*
X116898392Y-101387071D02*
X117526964Y-101387071D01*
X117526964Y-100810880D02*
X117526964Y-101910880D01*
X114279345Y-98316500D02*
X114174583Y-98368880D01*
X114017440Y-98368880D01*
X113860297Y-98316500D01*
X113755535Y-98211738D01*
X113703154Y-98106976D01*
X113650773Y-97897452D01*
X113650773Y-97740309D01*
X113703154Y-97530785D01*
X113755535Y-97426023D01*
X113860297Y-97321261D01*
X114017440Y-97268880D01*
X114122202Y-97268880D01*
X114279345Y-97321261D01*
X114331726Y-97373642D01*
X114331726Y-97740309D01*
X114122202Y-97740309D01*
X114803154Y-97268880D02*
X114803154Y-98368880D01*
X115431726Y-97268880D01*
X115431726Y-98368880D01*
X115955535Y-97268880D02*
X115955535Y-98368880D01*
X116217440Y-98368880D01*
X116374583Y-98316500D01*
X116479345Y-98211738D01*
X116531726Y-98106976D01*
X116584107Y-97897452D01*
X116584107Y-97740309D01*
X116531726Y-97530785D01*
X116479345Y-97426023D01*
X116374583Y-97321261D01*
X116217440Y-97268880D01*
X115955535Y-97268880D01*
X113650773Y-94722119D02*
X113703154Y-94774500D01*
X113807916Y-94826880D01*
X114069821Y-94826880D01*
X114174583Y-94774500D01*
X114226964Y-94722119D01*
X114279345Y-94617357D01*
X114279345Y-94512595D01*
X114226964Y-94355452D01*
X113598392Y-93726880D01*
X114279345Y-93726880D01*
X115222202Y-94460214D02*
X115222202Y-93726880D01*
X114960297Y-94879261D02*
X114698392Y-94093547D01*
X115379345Y-94093547D01*
X115641250Y-94826880D02*
X116007916Y-93726880D01*
X116374583Y-94826880D01*
D12*
X167371428Y-102938095D02*
X167371428Y-102366666D01*
X167333333Y-102252380D01*
X167257142Y-102176190D01*
X167142857Y-102138095D01*
X167066666Y-102138095D01*
X167676190Y-102938095D02*
X168171428Y-102938095D01*
X167904761Y-102633333D01*
X168019047Y-102633333D01*
X168095238Y-102595238D01*
X168133333Y-102557142D01*
X168171428Y-102480952D01*
X168171428Y-102290476D01*
X168133333Y-102214285D01*
X168095238Y-102176190D01*
X168019047Y-102138095D01*
X167790476Y-102138095D01*
X167714285Y-102176190D01*
X167676190Y-102214285D01*
X168666666Y-102938095D02*
X168742857Y-102938095D01*
X168819047Y-102900000D01*
X168857142Y-102861904D01*
X168895238Y-102785714D01*
X168933333Y-102633333D01*
X168933333Y-102442857D01*
X168895238Y-102290476D01*
X168857142Y-102214285D01*
X168819047Y-102176190D01*
X168742857Y-102138095D01*
X168666666Y-102138095D01*
X168590476Y-102176190D01*
X168552380Y-102214285D01*
X168514285Y-102290476D01*
X168476190Y-102442857D01*
X168476190Y-102633333D01*
X168514285Y-102785714D01*
X168552380Y-102861904D01*
X168590476Y-102900000D01*
X168666666Y-102938095D01*
X169619047Y-102671428D02*
X169619047Y-102138095D01*
X169428571Y-102976190D02*
X169238095Y-102404761D01*
X169733333Y-102404761D01*
X154233928Y-116475595D02*
X154233928Y-115904166D01*
X154195833Y-115789880D01*
X154119642Y-115713690D01*
X154005357Y-115675595D01*
X153929166Y-115675595D01*
X154538690Y-116475595D02*
X155033928Y-116475595D01*
X154767261Y-116170833D01*
X154881547Y-116170833D01*
X154957738Y-116132738D01*
X154995833Y-116094642D01*
X155033928Y-116018452D01*
X155033928Y-115827976D01*
X154995833Y-115751785D01*
X154957738Y-115713690D01*
X154881547Y-115675595D01*
X154652976Y-115675595D01*
X154576785Y-115713690D01*
X154538690Y-115751785D01*
X155529166Y-116475595D02*
X155605357Y-116475595D01*
X155681547Y-116437500D01*
X155719642Y-116399404D01*
X155757738Y-116323214D01*
X155795833Y-116170833D01*
X155795833Y-115980357D01*
X155757738Y-115827976D01*
X155719642Y-115751785D01*
X155681547Y-115713690D01*
X155605357Y-115675595D01*
X155529166Y-115675595D01*
X155452976Y-115713690D01*
X155414880Y-115751785D01*
X155376785Y-115827976D01*
X155338690Y-115980357D01*
X155338690Y-116170833D01*
X155376785Y-116323214D01*
X155414880Y-116399404D01*
X155452976Y-116437500D01*
X155529166Y-116475595D01*
X156100595Y-116399404D02*
X156138690Y-116437500D01*
X156214880Y-116475595D01*
X156405357Y-116475595D01*
X156481547Y-116437500D01*
X156519642Y-116399404D01*
X156557738Y-116323214D01*
X156557738Y-116247023D01*
X156519642Y-116132738D01*
X156062500Y-115675595D01*
X156557738Y-115675595D01*
X124008928Y-108068095D02*
X124008928Y-107496666D01*
X123970833Y-107382380D01*
X123894642Y-107306190D01*
X123780357Y-107268095D01*
X123704166Y-107268095D01*
X124313690Y-108068095D02*
X124808928Y-108068095D01*
X124542261Y-107763333D01*
X124656547Y-107763333D01*
X124732738Y-107725238D01*
X124770833Y-107687142D01*
X124808928Y-107610952D01*
X124808928Y-107420476D01*
X124770833Y-107344285D01*
X124732738Y-107306190D01*
X124656547Y-107268095D01*
X124427976Y-107268095D01*
X124351785Y-107306190D01*
X124313690Y-107344285D01*
X125304166Y-108068095D02*
X125380357Y-108068095D01*
X125456547Y-108030000D01*
X125494642Y-107991904D01*
X125532738Y-107915714D01*
X125570833Y-107763333D01*
X125570833Y-107572857D01*
X125532738Y-107420476D01*
X125494642Y-107344285D01*
X125456547Y-107306190D01*
X125380357Y-107268095D01*
X125304166Y-107268095D01*
X125227976Y-107306190D01*
X125189880Y-107344285D01*
X125151785Y-107420476D01*
X125113690Y-107572857D01*
X125113690Y-107763333D01*
X125151785Y-107915714D01*
X125189880Y-107991904D01*
X125227976Y-108030000D01*
X125304166Y-108068095D01*
X125837500Y-108068095D02*
X126332738Y-108068095D01*
X126066071Y-107763333D01*
X126180357Y-107763333D01*
X126256547Y-107725238D01*
X126294642Y-107687142D01*
X126332738Y-107610952D01*
X126332738Y-107420476D01*
X126294642Y-107344285D01*
X126256547Y-107306190D01*
X126180357Y-107268095D01*
X125951785Y-107268095D01*
X125875595Y-107306190D01*
X125837500Y-107344285D01*
X174171428Y-96438095D02*
X174171428Y-95866666D01*
X174133333Y-95752380D01*
X174057142Y-95676190D01*
X173942857Y-95638095D01*
X173866666Y-95638095D01*
X174476190Y-96438095D02*
X174971428Y-96438095D01*
X174704761Y-96133333D01*
X174819047Y-96133333D01*
X174895238Y-96095238D01*
X174933333Y-96057142D01*
X174971428Y-95980952D01*
X174971428Y-95790476D01*
X174933333Y-95714285D01*
X174895238Y-95676190D01*
X174819047Y-95638095D01*
X174590476Y-95638095D01*
X174514285Y-95676190D01*
X174476190Y-95714285D01*
X175466666Y-96438095D02*
X175542857Y-96438095D01*
X175619047Y-96400000D01*
X175657142Y-96361904D01*
X175695238Y-96285714D01*
X175733333Y-96133333D01*
X175733333Y-95942857D01*
X175695238Y-95790476D01*
X175657142Y-95714285D01*
X175619047Y-95676190D01*
X175542857Y-95638095D01*
X175466666Y-95638095D01*
X175390476Y-95676190D01*
X175352380Y-95714285D01*
X175314285Y-95790476D01*
X175276190Y-95942857D01*
X175276190Y-96133333D01*
X175314285Y-96285714D01*
X175352380Y-96361904D01*
X175390476Y-96400000D01*
X175466666Y-96438095D01*
X176495238Y-95638095D02*
X176038095Y-95638095D01*
X176266666Y-95638095D02*
X176266666Y-96438095D01*
X176190476Y-96323809D01*
X176114285Y-96247619D01*
X176038095Y-96209523D01*
G36*
X161279455Y-92093850D02*
G01*
X161313469Y-92119779D01*
X161365905Y-92165430D01*
X161432199Y-92226314D01*
X161507787Y-92297939D01*
X161588104Y-92375817D01*
X161668587Y-92455455D01*
X161744671Y-92532365D01*
X161811793Y-92602055D01*
X161865388Y-92660036D01*
X161900892Y-92701816D01*
X161913741Y-92722907D01*
X161913000Y-92726919D01*
X161897707Y-92759580D01*
X161865038Y-92816088D01*
X161818150Y-92891337D01*
X161760199Y-92980225D01*
X161694343Y-93077646D01*
X161675873Y-93104518D01*
X161611018Y-93199077D01*
X161553891Y-93282673D01*
X161507822Y-93350416D01*
X161476141Y-93397414D01*
X161462176Y-93418774D01*
X161461832Y-93419689D01*
X161465954Y-93445822D01*
X161481693Y-93498760D01*
X161506496Y-93571853D01*
X161537811Y-93658448D01*
X161573083Y-93751892D01*
X161609760Y-93845535D01*
X161645288Y-93932723D01*
X161677114Y-94006805D01*
X161702684Y-94061129D01*
X161719447Y-94089043D01*
X161721126Y-94090776D01*
X161733128Y-94099544D01*
X161753397Y-94108385D01*
X161785971Y-94118208D01*
X161834884Y-94129917D01*
X161904173Y-94144420D01*
X161997875Y-94162624D01*
X162120024Y-94185434D01*
X162274658Y-94213759D01*
X162306730Y-94219720D01*
X162398607Y-94238148D01*
X162475893Y-94255608D01*
X162531264Y-94270367D01*
X162557395Y-94280690D01*
X162561767Y-94289303D01*
X162569055Y-94330674D01*
X162574831Y-94399259D01*
X162579090Y-94488632D01*
X162581827Y-94592365D01*
X162583038Y-94704035D01*
X162582718Y-94817213D01*
X162580864Y-94925474D01*
X162577470Y-95022392D01*
X162572533Y-95101541D01*
X162566048Y-95156494D01*
X162558011Y-95180826D01*
X162549804Y-95184421D01*
X162508981Y-95195752D01*
X162439976Y-95211778D01*
X162348297Y-95231305D01*
X162239450Y-95253138D01*
X162118942Y-95276082D01*
X162053143Y-95288341D01*
X161940365Y-95309599D01*
X161843293Y-95328213D01*
X161767118Y-95343172D01*
X161717031Y-95353464D01*
X161698224Y-95358078D01*
X161697517Y-95359029D01*
X161685539Y-95383190D01*
X161662706Y-95433806D01*
X161631870Y-95504162D01*
X161595887Y-95587542D01*
X161557609Y-95677230D01*
X161519891Y-95766511D01*
X161485587Y-95848668D01*
X161457551Y-95916987D01*
X161438636Y-95964752D01*
X161431697Y-95985246D01*
X161434758Y-95992457D01*
X161455128Y-96026772D01*
X161492078Y-96084530D01*
X161542640Y-96161201D01*
X161603843Y-96252252D01*
X161672719Y-96353150D01*
X161710506Y-96408407D01*
X161775718Y-96505285D01*
X161831629Y-96590307D01*
X161875259Y-96658838D01*
X161903623Y-96706240D01*
X161913741Y-96727877D01*
X161906710Y-96739613D01*
X161877303Y-96774682D01*
X161829059Y-96827755D01*
X161766407Y-96894336D01*
X161693775Y-96969926D01*
X161615592Y-97050028D01*
X161536286Y-97130146D01*
X161460287Y-97205782D01*
X161392022Y-97272438D01*
X161335920Y-97325618D01*
X161296410Y-97360824D01*
X161277921Y-97373558D01*
X161267657Y-97368607D01*
X161229970Y-97345643D01*
X161169152Y-97306562D01*
X161089587Y-97254228D01*
X160995657Y-97191504D01*
X160891746Y-97121254D01*
X160520706Y-96868949D01*
X160211420Y-96996447D01*
X159902135Y-97123945D01*
X159818314Y-97568569D01*
X159734494Y-98013193D01*
X158809046Y-98013193D01*
X158725225Y-97568569D01*
X158641405Y-97123945D01*
X158022833Y-96868949D01*
X157651793Y-97121254D01*
X157578356Y-97170994D01*
X157481001Y-97236282D01*
X157396713Y-97292046D01*
X157329869Y-97335422D01*
X157284846Y-97363547D01*
X157266022Y-97373558D01*
X157254461Y-97366439D01*
X157219904Y-97336606D01*
X157167606Y-97287648D01*
X157102000Y-97224060D01*
X157027517Y-97150337D01*
X156948587Y-97070975D01*
X156869644Y-96990469D01*
X156795116Y-96913315D01*
X156729437Y-96844007D01*
X156677037Y-96787043D01*
X156642347Y-96746916D01*
X156629799Y-96728123D01*
X156632718Y-96720049D01*
X156652929Y-96684031D01*
X156689837Y-96624756D01*
X156740450Y-96546870D01*
X156801775Y-96455019D01*
X156870821Y-96353850D01*
X156908713Y-96298674D01*
X156973894Y-96202616D01*
X157029777Y-96118783D01*
X157073383Y-96051723D01*
X157101731Y-96005981D01*
X157111843Y-95986104D01*
X157111677Y-95985003D01*
X157102757Y-95959806D01*
X157082294Y-95908353D01*
X157053140Y-95837365D01*
X157018147Y-95753565D01*
X156980168Y-95663672D01*
X156942055Y-95574409D01*
X156906661Y-95492497D01*
X156876838Y-95424657D01*
X156855439Y-95377610D01*
X156845316Y-95358078D01*
X156839326Y-95356345D01*
X156802934Y-95348531D01*
X156738073Y-95335585D01*
X156649935Y-95318521D01*
X156543713Y-95298349D01*
X156424598Y-95276082D01*
X156361817Y-95264277D01*
X156246588Y-95241752D01*
X156145838Y-95220950D01*
X156065074Y-95203065D01*
X156009802Y-95189292D01*
X155985529Y-95180826D01*
X155981169Y-95172434D01*
X155973937Y-95131428D01*
X155968254Y-95063132D01*
X155964118Y-94973971D01*
X155961523Y-94870372D01*
X155960464Y-94758760D01*
X155960939Y-94645562D01*
X155962941Y-94537204D01*
X155966467Y-94440111D01*
X155971513Y-94360710D01*
X155978073Y-94305428D01*
X155986144Y-94280690D01*
X155991042Y-94277900D01*
X156027570Y-94265931D01*
X156090935Y-94250095D01*
X156173814Y-94232126D01*
X156268882Y-94213759D01*
X156300958Y-94207909D01*
X156449107Y-94180702D01*
X156565539Y-94158837D01*
X156654291Y-94141407D01*
X156719397Y-94127504D01*
X156764894Y-94116223D01*
X156794818Y-94106657D01*
X156813206Y-94097899D01*
X156824093Y-94089043D01*
X156825358Y-94087557D01*
X156843162Y-94056569D01*
X156869506Y-93999866D01*
X156901839Y-93924101D01*
X156937607Y-93835926D01*
X156974256Y-93741993D01*
X157009234Y-93648953D01*
X157039987Y-93563459D01*
X157063962Y-93492164D01*
X157078605Y-93441718D01*
X157081364Y-93418774D01*
X157079519Y-93415797D01*
X157060425Y-93387007D01*
X157024516Y-93333905D01*
X156975122Y-93261383D01*
X156915573Y-93174333D01*
X156849197Y-93077646D01*
X156830980Y-93051044D01*
X156766923Y-92955625D01*
X156711563Y-92870288D01*
X156668061Y-92800095D01*
X156639576Y-92750106D01*
X156629268Y-92725384D01*
X156631489Y-92718884D01*
X156654642Y-92686856D01*
X156700323Y-92634555D01*
X156765259Y-92565501D01*
X156846181Y-92483214D01*
X156939815Y-92391214D01*
X156993335Y-92339719D01*
X157077958Y-92259517D01*
X157152025Y-92190822D01*
X157211559Y-92137248D01*
X157252583Y-92102415D01*
X157271119Y-92089937D01*
X157283854Y-92094562D01*
X157323064Y-92116443D01*
X157380005Y-92152227D01*
X157447250Y-92197383D01*
X157495062Y-92230335D01*
X157590515Y-92295773D01*
X157692375Y-92365272D01*
X157785412Y-92428425D01*
X157967668Y-92551700D01*
X158120659Y-92468980D01*
X158156683Y-92449887D01*
X158222197Y-92417228D01*
X158272860Y-92394681D01*
X158299936Y-92386274D01*
X158308797Y-92397070D01*
X158330801Y-92438177D01*
X158363301Y-92505951D01*
X158404490Y-92596091D01*
X158452558Y-92704295D01*
X158505698Y-92826263D01*
X158562101Y-92957692D01*
X158619958Y-93094282D01*
X158677462Y-93231733D01*
X158732803Y-93365742D01*
X158784174Y-93492009D01*
X158829765Y-93606232D01*
X158867768Y-93704110D01*
X158896376Y-93781343D01*
X158913779Y-93833629D01*
X158918169Y-93856667D01*
X158917872Y-93857340D01*
X158897423Y-93878637D01*
X158854650Y-93911992D01*
X158798383Y-93950489D01*
X158780623Y-93962244D01*
X158645486Y-94073765D01*
X158533644Y-94206594D01*
X158447745Y-94355202D01*
X158390438Y-94514060D01*
X158364369Y-94677640D01*
X158372187Y-94840412D01*
X158403856Y-94985185D01*
X158460718Y-95131376D01*
X158543612Y-95261797D01*
X158657369Y-95385687D01*
X158702067Y-95425265D01*
X158846565Y-95522777D01*
X159002662Y-95588450D01*
X159165833Y-95622870D01*
X159331557Y-95626626D01*
X159495308Y-95600306D01*
X159652564Y-95544497D01*
X159798802Y-95459786D01*
X159929496Y-95346763D01*
X160040126Y-95206013D01*
X160061395Y-95171158D01*
X160133690Y-95011845D01*
X160172085Y-94845948D01*
X160177586Y-94677763D01*
X160151199Y-94511587D01*
X160093930Y-94351716D01*
X160006783Y-94202447D01*
X159890764Y-94068077D01*
X159746878Y-93952901D01*
X159742206Y-93949798D01*
X159686536Y-93910567D01*
X159644811Y-93877214D01*
X159625754Y-93856667D01*
X159628158Y-93840559D01*
X159643109Y-93793656D01*
X159669619Y-93720961D01*
X159705880Y-93626775D01*
X159750084Y-93515402D01*
X159800424Y-93391142D01*
X159855093Y-93258298D01*
X159912282Y-93121173D01*
X159970184Y-92984068D01*
X160026990Y-92851285D01*
X160080894Y-92727126D01*
X160130088Y-92615894D01*
X160172763Y-92521891D01*
X160207113Y-92449418D01*
X160231329Y-92402778D01*
X160243603Y-92386274D01*
X160253811Y-92388509D01*
X160293914Y-92404574D01*
X160353182Y-92432741D01*
X160422881Y-92468980D01*
X160575871Y-92551700D01*
X160758127Y-92428425D01*
X160811973Y-92391921D01*
X160912126Y-92323716D01*
X161011975Y-92255402D01*
X161096289Y-92197383D01*
X161142821Y-92165764D01*
X161203300Y-92126480D01*
X161248143Y-92099588D01*
X161270045Y-92089617D01*
X161279455Y-92093850D01*
G37*
D13*
X161279455Y-92093850D02*
X161313469Y-92119779D01*
X161365905Y-92165430D01*
X161432199Y-92226314D01*
X161507787Y-92297939D01*
X161588104Y-92375817D01*
X161668587Y-92455455D01*
X161744671Y-92532365D01*
X161811793Y-92602055D01*
X161865388Y-92660036D01*
X161900892Y-92701816D01*
X161913741Y-92722907D01*
X161913000Y-92726919D01*
X161897707Y-92759580D01*
X161865038Y-92816088D01*
X161818150Y-92891337D01*
X161760199Y-92980225D01*
X161694343Y-93077646D01*
X161675873Y-93104518D01*
X161611018Y-93199077D01*
X161553891Y-93282673D01*
X161507822Y-93350416D01*
X161476141Y-93397414D01*
X161462176Y-93418774D01*
X161461832Y-93419689D01*
X161465954Y-93445822D01*
X161481693Y-93498760D01*
X161506496Y-93571853D01*
X161537811Y-93658448D01*
X161573083Y-93751892D01*
X161609760Y-93845535D01*
X161645288Y-93932723D01*
X161677114Y-94006805D01*
X161702684Y-94061129D01*
X161719447Y-94089043D01*
X161721126Y-94090776D01*
X161733128Y-94099544D01*
X161753397Y-94108385D01*
X161785971Y-94118208D01*
X161834884Y-94129917D01*
X161904173Y-94144420D01*
X161997875Y-94162624D01*
X162120024Y-94185434D01*
X162274658Y-94213759D01*
X162306730Y-94219720D01*
X162398607Y-94238148D01*
X162475893Y-94255608D01*
X162531264Y-94270367D01*
X162557395Y-94280690D01*
X162561767Y-94289303D01*
X162569055Y-94330674D01*
X162574831Y-94399259D01*
X162579090Y-94488632D01*
X162581827Y-94592365D01*
X162583038Y-94704035D01*
X162582718Y-94817213D01*
X162580864Y-94925474D01*
X162577470Y-95022392D01*
X162572533Y-95101541D01*
X162566048Y-95156494D01*
X162558011Y-95180826D01*
X162549804Y-95184421D01*
X162508981Y-95195752D01*
X162439976Y-95211778D01*
X162348297Y-95231305D01*
X162239450Y-95253138D01*
X162118942Y-95276082D01*
X162053143Y-95288341D01*
X161940365Y-95309599D01*
X161843293Y-95328213D01*
X161767118Y-95343172D01*
X161717031Y-95353464D01*
X161698224Y-95358078D01*
X161697517Y-95359029D01*
X161685539Y-95383190D01*
X161662706Y-95433806D01*
X161631870Y-95504162D01*
X161595887Y-95587542D01*
X161557609Y-95677230D01*
X161519891Y-95766511D01*
X161485587Y-95848668D01*
X161457551Y-95916987D01*
X161438636Y-95964752D01*
X161431697Y-95985246D01*
X161434758Y-95992457D01*
X161455128Y-96026772D01*
X161492078Y-96084530D01*
X161542640Y-96161201D01*
X161603843Y-96252252D01*
X161672719Y-96353150D01*
X161710506Y-96408407D01*
X161775718Y-96505285D01*
X161831629Y-96590307D01*
X161875259Y-96658838D01*
X161903623Y-96706240D01*
X161913741Y-96727877D01*
X161906710Y-96739613D01*
X161877303Y-96774682D01*
X161829059Y-96827755D01*
X161766407Y-96894336D01*
X161693775Y-96969926D01*
X161615592Y-97050028D01*
X161536286Y-97130146D01*
X161460287Y-97205782D01*
X161392022Y-97272438D01*
X161335920Y-97325618D01*
X161296410Y-97360824D01*
X161277921Y-97373558D01*
X161267657Y-97368607D01*
X161229970Y-97345643D01*
X161169152Y-97306562D01*
X161089587Y-97254228D01*
X160995657Y-97191504D01*
X160891746Y-97121254D01*
X160520706Y-96868949D01*
X160211420Y-96996447D01*
X159902135Y-97123945D01*
X159818314Y-97568569D01*
X159734494Y-98013193D01*
X158809046Y-98013193D01*
X158725225Y-97568569D01*
X158641405Y-97123945D01*
X158022833Y-96868949D01*
X157651793Y-97121254D01*
X157578356Y-97170994D01*
X157481001Y-97236282D01*
X157396713Y-97292046D01*
X157329869Y-97335422D01*
X157284846Y-97363547D01*
X157266022Y-97373558D01*
X157254461Y-97366439D01*
X157219904Y-97336606D01*
X157167606Y-97287648D01*
X157102000Y-97224060D01*
X157027517Y-97150337D01*
X156948587Y-97070975D01*
X156869644Y-96990469D01*
X156795116Y-96913315D01*
X156729437Y-96844007D01*
X156677037Y-96787043D01*
X156642347Y-96746916D01*
X156629799Y-96728123D01*
X156632718Y-96720049D01*
X156652929Y-96684031D01*
X156689837Y-96624756D01*
X156740450Y-96546870D01*
X156801775Y-96455019D01*
X156870821Y-96353850D01*
X156908713Y-96298674D01*
X156973894Y-96202616D01*
X157029777Y-96118783D01*
X157073383Y-96051723D01*
X157101731Y-96005981D01*
X157111843Y-95986104D01*
X157111677Y-95985003D01*
X157102757Y-95959806D01*
X157082294Y-95908353D01*
X157053140Y-95837365D01*
X157018147Y-95753565D01*
X156980168Y-95663672D01*
X156942055Y-95574409D01*
X156906661Y-95492497D01*
X156876838Y-95424657D01*
X156855439Y-95377610D01*
X156845316Y-95358078D01*
X156839326Y-95356345D01*
X156802934Y-95348531D01*
X156738073Y-95335585D01*
X156649935Y-95318521D01*
X156543713Y-95298349D01*
X156424598Y-95276082D01*
X156361817Y-95264277D01*
X156246588Y-95241752D01*
X156145838Y-95220950D01*
X156065074Y-95203065D01*
X156009802Y-95189292D01*
X155985529Y-95180826D01*
X155981169Y-95172434D01*
X155973937Y-95131428D01*
X155968254Y-95063132D01*
X155964118Y-94973971D01*
X155961523Y-94870372D01*
X155960464Y-94758760D01*
X155960939Y-94645562D01*
X155962941Y-94537204D01*
X155966467Y-94440111D01*
X155971513Y-94360710D01*
X155978073Y-94305428D01*
X155986144Y-94280690D01*
X155991042Y-94277900D01*
X156027570Y-94265931D01*
X156090935Y-94250095D01*
X156173814Y-94232126D01*
X156268882Y-94213759D01*
X156300958Y-94207909D01*
X156449107Y-94180702D01*
X156565539Y-94158837D01*
X156654291Y-94141407D01*
X156719397Y-94127504D01*
X156764894Y-94116223D01*
X156794818Y-94106657D01*
X156813206Y-94097899D01*
X156824093Y-94089043D01*
X156825358Y-94087557D01*
X156843162Y-94056569D01*
X156869506Y-93999866D01*
X156901839Y-93924101D01*
X156937607Y-93835926D01*
X156974256Y-93741993D01*
X157009234Y-93648953D01*
X157039987Y-93563459D01*
X157063962Y-93492164D01*
X157078605Y-93441718D01*
X157081364Y-93418774D01*
X157079519Y-93415797D01*
X157060425Y-93387007D01*
X157024516Y-93333905D01*
X156975122Y-93261383D01*
X156915573Y-93174333D01*
X156849197Y-93077646D01*
X156830980Y-93051044D01*
X156766923Y-92955625D01*
X156711563Y-92870288D01*
X156668061Y-92800095D01*
X156639576Y-92750106D01*
X156629268Y-92725384D01*
X156631489Y-92718884D01*
X156654642Y-92686856D01*
X156700323Y-92634555D01*
X156765259Y-92565501D01*
X156846181Y-92483214D01*
X156939815Y-92391214D01*
X156993335Y-92339719D01*
X157077958Y-92259517D01*
X157152025Y-92190822D01*
X157211559Y-92137248D01*
X157252583Y-92102415D01*
X157271119Y-92089937D01*
X157283854Y-92094562D01*
X157323064Y-92116443D01*
X157380005Y-92152227D01*
X157447250Y-92197383D01*
X157495062Y-92230335D01*
X157590515Y-92295773D01*
X157692375Y-92365272D01*
X157785412Y-92428425D01*
X157967668Y-92551700D01*
X158120659Y-92468980D01*
X158156683Y-92449887D01*
X158222197Y-92417228D01*
X158272860Y-92394681D01*
X158299936Y-92386274D01*
X158308797Y-92397070D01*
X158330801Y-92438177D01*
X158363301Y-92505951D01*
X158404490Y-92596091D01*
X158452558Y-92704295D01*
X158505698Y-92826263D01*
X158562101Y-92957692D01*
X158619958Y-93094282D01*
X158677462Y-93231733D01*
X158732803Y-93365742D01*
X158784174Y-93492009D01*
X158829765Y-93606232D01*
X158867768Y-93704110D01*
X158896376Y-93781343D01*
X158913779Y-93833629D01*
X158918169Y-93856667D01*
X158917872Y-93857340D01*
X158897423Y-93878637D01*
X158854650Y-93911992D01*
X158798383Y-93950489D01*
X158780623Y-93962244D01*
X158645486Y-94073765D01*
X158533644Y-94206594D01*
X158447745Y-94355202D01*
X158390438Y-94514060D01*
X158364369Y-94677640D01*
X158372187Y-94840412D01*
X158403856Y-94985185D01*
X158460718Y-95131376D01*
X158543612Y-95261797D01*
X158657369Y-95385687D01*
X158702067Y-95425265D01*
X158846565Y-95522777D01*
X159002662Y-95588450D01*
X159165833Y-95622870D01*
X159331557Y-95626626D01*
X159495308Y-95600306D01*
X159652564Y-95544497D01*
X159798802Y-95459786D01*
X159929496Y-95346763D01*
X160040126Y-95206013D01*
X160061395Y-95171158D01*
X160133690Y-95011845D01*
X160172085Y-94845948D01*
X160177586Y-94677763D01*
X160151199Y-94511587D01*
X160093930Y-94351716D01*
X160006783Y-94202447D01*
X159890764Y-94068077D01*
X159746878Y-93952901D01*
X159742206Y-93949798D01*
X159686536Y-93910567D01*
X159644811Y-93877214D01*
X159625754Y-93856667D01*
X159628158Y-93840559D01*
X159643109Y-93793656D01*
X159669619Y-93720961D01*
X159705880Y-93626775D01*
X159750084Y-93515402D01*
X159800424Y-93391142D01*
X159855093Y-93258298D01*
X159912282Y-93121173D01*
X159970184Y-92984068D01*
X160026990Y-92851285D01*
X160080894Y-92727126D01*
X160130088Y-92615894D01*
X160172763Y-92521891D01*
X160207113Y-92449418D01*
X160231329Y-92402778D01*
X160243603Y-92386274D01*
X160253811Y-92388509D01*
X160293914Y-92404574D01*
X160353182Y-92432741D01*
X160422881Y-92468980D01*
X160575871Y-92551700D01*
X160758127Y-92428425D01*
X160811973Y-92391921D01*
X160912126Y-92323716D01*
X161011975Y-92255402D01*
X161096289Y-92197383D01*
X161142821Y-92165764D01*
X161203300Y-92126480D01*
X161248143Y-92099588D01*
X161270045Y-92089617D01*
X161279455Y-92093850D01*
G36*
X166337683Y-91534215D02*
G01*
X166544228Y-91626145D01*
X166834741Y-91769784D01*
X167171833Y-91947166D01*
X167954165Y-92370500D01*
X167954999Y-92815000D01*
X167960298Y-92986944D01*
X167983714Y-93182697D01*
X168019334Y-93258480D01*
X168059162Y-93247133D01*
X168218071Y-93173392D01*
X168438778Y-93053931D01*
X168794722Y-92850402D01*
X169221232Y-93076118D01*
X169647742Y-93301833D01*
X169648455Y-94283808D01*
X169649167Y-95265782D01*
X169306410Y-95420344D01*
X169214059Y-95463772D01*
X169018704Y-95569470D01*
X168921044Y-95643849D01*
X168932684Y-95682599D01*
X169053026Y-95781733D01*
X169263801Y-95900017D01*
X169649167Y-96087242D01*
X169647346Y-96599538D01*
X169645525Y-97111833D01*
X168379377Y-97802224D01*
X167113228Y-98492615D01*
X166688576Y-98267891D01*
X166263925Y-98043166D01*
X166261992Y-97577500D01*
X166260060Y-97111833D01*
X165406204Y-96640839D01*
X164567738Y-97097189D01*
X163764834Y-96655997D01*
X163754228Y-96222833D01*
X165161834Y-96222833D01*
X165443513Y-96222833D01*
X165574503Y-96217121D01*
X165674647Y-96178454D01*
X165756170Y-96074977D01*
X165843418Y-95874842D01*
X165960734Y-95546202D01*
X166005218Y-95421950D01*
X166114363Y-95146523D01*
X166202981Y-94963008D01*
X166255175Y-94905973D01*
X166263826Y-94915143D01*
X166324512Y-95040981D01*
X166413522Y-95277360D01*
X166514860Y-95582604D01*
X166598314Y-95843705D01*
X166680281Y-96059429D01*
X166757374Y-96172367D01*
X166854627Y-96215756D01*
X166997073Y-96222833D01*
X167278500Y-96222833D01*
X167278500Y-93936833D01*
X166748659Y-93936833D01*
X166800520Y-94720000D01*
X166817029Y-94993639D01*
X166822620Y-95243882D01*
X166801583Y-95338043D01*
X166747088Y-95275016D01*
X166652306Y-95053694D01*
X166510407Y-94672968D01*
X166496399Y-94635016D01*
X166367675Y-94348475D01*
X166249437Y-94221468D01*
X166132853Y-94255986D01*
X166009091Y-94454021D01*
X165869321Y-94817566D01*
X165858911Y-94848289D01*
X165756343Y-95136171D01*
X165670578Y-95352530D01*
X165619256Y-95452566D01*
X165607826Y-95439800D01*
X165599511Y-95304072D01*
X165606033Y-95052834D01*
X165627033Y-94720000D01*
X165687810Y-93936833D01*
X165161834Y-93936833D01*
X165161834Y-96222833D01*
X163754228Y-96222833D01*
X163741038Y-95684130D01*
X163717243Y-94712263D01*
X164143205Y-94480426D01*
X164569167Y-94248588D01*
X164569720Y-93936833D01*
X164572497Y-92370500D01*
X165353998Y-91933520D01*
X165601461Y-91799302D01*
X165906731Y-91646081D01*
X166139336Y-91543997D01*
X166262500Y-91510186D01*
X166337683Y-91534215D01*
G37*
G36*
X117345251Y-117212356D02*
G01*
X117591536Y-117287066D01*
X117818514Y-117408388D01*
X118017462Y-117571661D01*
X118180734Y-117770608D01*
X118302056Y-117997586D01*
X118376766Y-118243872D01*
X118401992Y-118500000D01*
X118376766Y-118756128D01*
X118302056Y-119002414D01*
X118180734Y-119229392D01*
X118017462Y-119428339D01*
X117818514Y-119591612D01*
X117591536Y-119712934D01*
X117345251Y-119787644D01*
X117089122Y-119812870D01*
X110910878Y-119812870D01*
X110654749Y-119787644D01*
X110408464Y-119712934D01*
X110181486Y-119591612D01*
X109982538Y-119428339D01*
X109859712Y-119278675D01*
X110911147Y-119278675D01*
X111050485Y-119396607D01*
X111210016Y-119478998D01*
X111379241Y-119527464D01*
X111547658Y-119543619D01*
X111783522Y-119508078D01*
X111983845Y-119401454D01*
X112122779Y-119222132D01*
X112174475Y-118971729D01*
X112135703Y-118773021D01*
X112032310Y-118587237D01*
X111962305Y-118503231D01*
X112500808Y-118503231D01*
X112512116Y-118748384D01*
X112546042Y-118960420D01*
X112602585Y-119139338D01*
X112681745Y-119285137D01*
X112819243Y-119428738D01*
X112990486Y-119514899D01*
X113195477Y-119543619D01*
X113403698Y-119515078D01*
X113576019Y-119429456D01*
X113712439Y-119286753D01*
X113716762Y-119278675D01*
X114142165Y-119278675D01*
X114281502Y-119396607D01*
X114441034Y-119478998D01*
X114610258Y-119527464D01*
X114778675Y-119543619D01*
X115014540Y-119508078D01*
X115214863Y-119401454D01*
X115353796Y-119222132D01*
X115405493Y-118971729D01*
X115366721Y-118773021D01*
X115263328Y-118587237D01*
X115117932Y-118412763D01*
X115019062Y-118315832D01*
X115767367Y-118315832D01*
X115788772Y-118589661D01*
X115852989Y-118829564D01*
X115956785Y-119034733D01*
X116096931Y-119204362D01*
X116271405Y-119337641D01*
X116478191Y-119433764D01*
X116713247Y-119491922D01*
X116972536Y-119511309D01*
X116995153Y-119172052D01*
X116743134Y-119146204D01*
X116516963Y-119070275D01*
X116337641Y-118932956D01*
X116226171Y-118722940D01*
X116345719Y-118763328D01*
X116449111Y-118777868D01*
X116610258Y-118764943D01*
X116744750Y-118726171D01*
X116943457Y-118587237D01*
X117054927Y-118383683D01*
X117088853Y-118138126D01*
X117051696Y-117902262D01*
X116936995Y-117682553D01*
X116739903Y-117519386D01*
X116609047Y-117472132D01*
X116455574Y-117456381D01*
X116249327Y-117479537D01*
X116078621Y-117549004D01*
X115943457Y-117664782D01*
X115845629Y-117829743D01*
X115786932Y-118046760D01*
X115767367Y-118315832D01*
X115019062Y-118315832D01*
X114953150Y-118251212D01*
X114856220Y-118159128D01*
X114752827Y-118049273D01*
X114670436Y-117934572D01*
X114636511Y-117827948D01*
X115495961Y-117827948D01*
X115495961Y-117498384D01*
X114190630Y-117498384D01*
X114182553Y-117579160D01*
X114184168Y-117647011D01*
X114199111Y-117802100D01*
X114243942Y-117944265D01*
X114311793Y-118074717D01*
X114395800Y-118194669D01*
X114491115Y-118305331D01*
X114592892Y-118407916D01*
X114694669Y-118504443D01*
X114789984Y-118596931D01*
X114941842Y-118771405D01*
X115001616Y-118942649D01*
X114927302Y-119131664D01*
X114739903Y-119197900D01*
X114542811Y-119152666D01*
X114339257Y-119000808D01*
X114142165Y-119278675D01*
X113716762Y-119278675D01*
X113790186Y-119141458D01*
X113845719Y-118962439D01*
X113879039Y-118749697D01*
X113890145Y-118503231D01*
X113879039Y-118255250D01*
X113845719Y-118041195D01*
X113790186Y-117861066D01*
X113712439Y-117714863D01*
X113576019Y-117571262D01*
X113403698Y-117485101D01*
X113195477Y-117456381D01*
X112987255Y-117485101D01*
X112814934Y-117571262D01*
X112678514Y-117714863D01*
X112600767Y-117861066D01*
X112545234Y-118041195D01*
X112511914Y-118255250D01*
X112500808Y-118503231D01*
X111962305Y-118503231D01*
X111886914Y-118412763D01*
X111722132Y-118251212D01*
X111625202Y-118159128D01*
X111521809Y-118049273D01*
X111439418Y-117934572D01*
X111405493Y-117827948D01*
X112264943Y-117827948D01*
X112264943Y-117498384D01*
X110959612Y-117498384D01*
X110951535Y-117579160D01*
X110953150Y-117647011D01*
X110968094Y-117802100D01*
X111012924Y-117944265D01*
X111080775Y-118074717D01*
X111164782Y-118194669D01*
X111260097Y-118305331D01*
X111361874Y-118407916D01*
X111463651Y-118504443D01*
X111558966Y-118596931D01*
X111710824Y-118771405D01*
X111770598Y-118942649D01*
X111696284Y-119131664D01*
X111508885Y-119197900D01*
X111311793Y-119152666D01*
X111108239Y-119000808D01*
X110911147Y-119278675D01*
X109859712Y-119278675D01*
X109819266Y-119229392D01*
X109697944Y-119002414D01*
X109623234Y-118756128D01*
X109598008Y-118500000D01*
X109623234Y-118243872D01*
X109697944Y-117997586D01*
X109819266Y-117770608D01*
X109982538Y-117571661D01*
X110181486Y-117408388D01*
X110408464Y-117287066D01*
X110654749Y-117212356D01*
X110910878Y-117187130D01*
X117089122Y-117187130D01*
X117345251Y-117212356D01*
G37*
G36*
X116562197Y-117831179D02*
G01*
X116641357Y-117911955D01*
X116686591Y-118018578D01*
X116701131Y-118131664D01*
X116633279Y-118365913D01*
X116540388Y-118427706D01*
X116397415Y-118448304D01*
X116271405Y-118435380D01*
X116164782Y-118399838D01*
X116159935Y-118341680D01*
X116158320Y-118280291D01*
X116171244Y-118100969D01*
X116216478Y-117947496D01*
X116305331Y-117839257D01*
X116445880Y-117798869D01*
X116562197Y-117831179D01*
G37*
G36*
X113445880Y-117978191D02*
G01*
X113493448Y-118116227D01*
X113521989Y-118291240D01*
X113531502Y-118503231D01*
X113521989Y-118713427D01*
X113493448Y-118887363D01*
X113445880Y-119025040D01*
X113340468Y-119159532D01*
X113195477Y-119204362D01*
X113052504Y-119159532D01*
X112946688Y-119025040D01*
X112898223Y-118887363D01*
X112869144Y-118713427D01*
X112860941Y-118535541D01*
X113017771Y-118535541D01*
X113066236Y-118687399D01*
X113198708Y-118752019D01*
X113326333Y-118687399D01*
X113376414Y-118535541D01*
X113326333Y-118385299D01*
X113198708Y-118322294D01*
X113066236Y-118385299D01*
X113017771Y-118535541D01*
X112860941Y-118535541D01*
X112859451Y-118503231D01*
X112869144Y-118291240D01*
X112898223Y-118116227D01*
X112946688Y-117978191D01*
X113052504Y-117843700D01*
X113195477Y-117798869D01*
X113198708Y-117799868D01*
X113340468Y-117843700D01*
X113445880Y-117978191D01*
G37*
G36*
X154163133Y-111000000D02*
G01*
X153518006Y-111967690D01*
X150804557Y-111967690D01*
X150615770Y-111949096D01*
X150434238Y-111894029D01*
X150266937Y-111804605D01*
X150120297Y-111684260D01*
X149999952Y-111537620D01*
X149910528Y-111370319D01*
X149855461Y-111188787D01*
X149836867Y-111000000D01*
X149855461Y-110811213D01*
X149910528Y-110629681D01*
X149999952Y-110462380D01*
X150120297Y-110315740D01*
X150125106Y-110311793D01*
X150804759Y-110311793D01*
X150865341Y-110558966D01*
X151001043Y-110510501D01*
X151093733Y-110494144D01*
X151207021Y-110488691D01*
X151351205Y-110508078D01*
X151440866Y-110557754D01*
X151485696Y-110626817D01*
X151497812Y-110706785D01*
X151477215Y-110821890D01*
X151394824Y-110911551D01*
X151219137Y-110969709D01*
X151087675Y-110985158D01*
X150921076Y-110990307D01*
X150942885Y-111191741D01*
X150959848Y-111388934D01*
X150972570Y-111580674D01*
X150981657Y-111765751D01*
X151747408Y-111765751D01*
X151963079Y-111765751D01*
X152278103Y-111765751D01*
X152296278Y-111640044D01*
X152321722Y-111495557D01*
X152352316Y-111339257D01*
X152385938Y-111178110D01*
X152422287Y-111015751D01*
X152461060Y-110855816D01*
X152500740Y-110705271D01*
X152539816Y-110571082D01*
X152578588Y-110703453D01*
X152617360Y-110853393D01*
X152654921Y-111013328D01*
X152690058Y-111175687D01*
X152722772Y-111337137D01*
X152753063Y-111494346D01*
X152779719Y-111639742D01*
X152801528Y-111765751D01*
X153114129Y-111765751D01*
X153081718Y-111611874D01*
X153042643Y-111441034D01*
X152997207Y-111257169D01*
X152945712Y-111064216D01*
X152908152Y-110931745D01*
X152868168Y-110797658D01*
X152825761Y-110661955D01*
X152781603Y-110526925D01*
X152736369Y-110394857D01*
X152690058Y-110265751D01*
X152382303Y-110265751D01*
X152322328Y-110443861D01*
X152258717Y-110643780D01*
X152215906Y-110784195D01*
X152174711Y-110924340D01*
X152135131Y-111064216D01*
X152097705Y-111201400D01*
X152062971Y-111333468D01*
X152030930Y-111460420D01*
X151990946Y-111630048D01*
X151963079Y-111765751D01*
X151747408Y-111765751D01*
X151747408Y-111518578D01*
X151231253Y-111518578D01*
X151219137Y-111356220D01*
X151207021Y-111218094D01*
X151390381Y-111193323D01*
X151539816Y-111144857D01*
X151655324Y-111072698D01*
X151737446Y-110977383D01*
X151786719Y-110859451D01*
X151803144Y-110718901D01*
X151766795Y-110526252D01*
X151655324Y-110372375D01*
X151571116Y-110314216D01*
X151468733Y-110270598D01*
X151348176Y-110243336D01*
X151209444Y-110234249D01*
X151090704Y-110241519D01*
X150974387Y-110259693D01*
X150873822Y-110285137D01*
X150804759Y-110311793D01*
X150125106Y-110311793D01*
X150266937Y-110195395D01*
X150434238Y-110105971D01*
X150615770Y-110050904D01*
X150804557Y-110032310D01*
X153518006Y-110032310D01*
X154163133Y-111000000D01*
G37*
G36*
X123730984Y-112500000D02*
G01*
X123074549Y-113484653D01*
X119253669Y-113484653D01*
X119061572Y-113465733D01*
X118876858Y-113409700D01*
X118706625Y-113318709D01*
X118557414Y-113196255D01*
X118434960Y-113047044D01*
X118343968Y-112876810D01*
X118287936Y-112692096D01*
X118269016Y-112500000D01*
X118287936Y-112307904D01*
X118343968Y-112123190D01*
X118434960Y-111952956D01*
X118557414Y-111803745D01*
X118562371Y-111799677D01*
X119253870Y-111799677D01*
X119312029Y-112049273D01*
X119456213Y-111998384D01*
X119553446Y-111978393D01*
X119668249Y-111971729D01*
X119798196Y-111988086D01*
X119882707Y-112037157D01*
X119944501Y-112199515D01*
X119920874Y-112300384D01*
X119849993Y-112365509D01*
X119742764Y-112400949D01*
X119610090Y-112412763D01*
X119518006Y-112412763D01*
X119518006Y-112659935D01*
X119629476Y-112659935D01*
X119721560Y-112669628D01*
X119803951Y-112701131D01*
X119863321Y-112759289D01*
X119886342Y-112851373D01*
X119836665Y-112981018D01*
X119699751Y-113028271D01*
X119531334Y-113000404D01*
X119387150Y-112931341D01*
X119280526Y-113149435D01*
X119453790Y-113237884D01*
X119568592Y-113271506D01*
X119697328Y-113282714D01*
X119815159Y-113274838D01*
X119916633Y-113251212D01*
X119920850Y-113248788D01*
X120397651Y-113248788D01*
X120712675Y-113248788D01*
X120730849Y-113123082D01*
X120756294Y-112978595D01*
X120786887Y-112822294D01*
X120820510Y-112661147D01*
X120856859Y-112498788D01*
X120895631Y-112338853D01*
X120935312Y-112188308D01*
X120974387Y-112054120D01*
X121013160Y-112186490D01*
X121051932Y-112336430D01*
X121089492Y-112496365D01*
X121124630Y-112658724D01*
X121157344Y-112820174D01*
X121187635Y-112977383D01*
X121214291Y-113122779D01*
X121236100Y-113248788D01*
X121548701Y-113248788D01*
X121516290Y-113094911D01*
X121477215Y-112924071D01*
X121431778Y-112740206D01*
X121380284Y-112547254D01*
X121342723Y-112414782D01*
X121302740Y-112280695D01*
X121260333Y-112144992D01*
X121216175Y-112009962D01*
X121170941Y-111877894D01*
X121142884Y-111799677D01*
X121677134Y-111799677D01*
X121735292Y-112049273D01*
X121879476Y-111998384D01*
X121976710Y-111978393D01*
X122091512Y-111971729D01*
X122221459Y-111988086D01*
X122305971Y-112037157D01*
X122367764Y-112199515D01*
X122344137Y-112300384D01*
X122273257Y-112365509D01*
X122166027Y-112400949D01*
X122033354Y-112412763D01*
X121941270Y-112412763D01*
X121941270Y-112659935D01*
X122052740Y-112659935D01*
X122144824Y-112669628D01*
X122227215Y-112701131D01*
X122286585Y-112759289D01*
X122309606Y-112851373D01*
X122259929Y-112981018D01*
X122123014Y-113028271D01*
X121954597Y-113000404D01*
X121810413Y-112931341D01*
X121703790Y-113149435D01*
X121877053Y-113237884D01*
X121991855Y-113271506D01*
X122120591Y-113282714D01*
X122238422Y-113274838D01*
X122339896Y-113251212D01*
X122493774Y-113162763D01*
X122583434Y-113028271D01*
X122612513Y-112861066D01*
X122561625Y-112689015D01*
X122425922Y-112563005D01*
X122529214Y-112503029D01*
X122606455Y-112420032D01*
X122654618Y-112316438D01*
X122670672Y-112194669D01*
X122636746Y-112003231D01*
X122532546Y-111851777D01*
X122452578Y-111794830D01*
X122353224Y-111752423D01*
X122233879Y-111726070D01*
X122093935Y-111717286D01*
X121976407Y-111725767D01*
X121857667Y-111746365D01*
X121752255Y-111773021D01*
X121677134Y-111799677D01*
X121142884Y-111799677D01*
X121124630Y-111748788D01*
X120816875Y-111748788D01*
X120756900Y-111926898D01*
X120693289Y-112126817D01*
X120650478Y-112267232D01*
X120609282Y-112407377D01*
X120569702Y-112547254D01*
X120532277Y-112684437D01*
X120497543Y-112816505D01*
X120465502Y-112943457D01*
X120425518Y-113113086D01*
X120397651Y-113248788D01*
X119920850Y-113248788D01*
X120070510Y-113162763D01*
X120160171Y-113028271D01*
X120189250Y-112861066D01*
X120138362Y-112689015D01*
X120002659Y-112563005D01*
X120105950Y-112503029D01*
X120183192Y-112420032D01*
X120231354Y-112316438D01*
X120247408Y-112194669D01*
X120213483Y-112003231D01*
X120109282Y-111851777D01*
X120029315Y-111794830D01*
X119929961Y-111752423D01*
X119810615Y-111726070D01*
X119670672Y-111717286D01*
X119553144Y-111725767D01*
X119434404Y-111746365D01*
X119328992Y-111773021D01*
X119253870Y-111799677D01*
X118562371Y-111799677D01*
X118706625Y-111681291D01*
X118876858Y-111590300D01*
X119061572Y-111534267D01*
X119253669Y-111515347D01*
X123074549Y-111515347D01*
X123730984Y-112500000D01*
G37*
G36*
X173760265Y-101000000D02*
G01*
X173114331Y-101968901D01*
X169208636Y-101968901D01*
X169019613Y-101950284D01*
X168837854Y-101895148D01*
X168670343Y-101805612D01*
X168523519Y-101685117D01*
X168427613Y-101568255D01*
X169208838Y-101568255D01*
X169313341Y-101656704D01*
X169432990Y-101718498D01*
X169559908Y-101754847D01*
X169686221Y-101766963D01*
X169863119Y-101740307D01*
X170013362Y-101660339D01*
X170117562Y-101525848D01*
X170156334Y-101338045D01*
X170127255Y-101189015D01*
X170049711Y-101049677D01*
X169940664Y-100918821D01*
X169824491Y-100804927D01*
X170381698Y-100804927D01*
X170434404Y-100905796D01*
X170500438Y-101019386D01*
X170576770Y-101140852D01*
X170660373Y-101265347D01*
X170750034Y-101390448D01*
X170844541Y-101513732D01*
X170941471Y-101629746D01*
X171038402Y-101733037D01*
X171304961Y-101733037D01*
X171559404Y-101733037D01*
X171874428Y-101733037D01*
X171892602Y-101607330D01*
X171918047Y-101462843D01*
X171948640Y-101306543D01*
X171982263Y-101145396D01*
X172018612Y-100983037D01*
X172057384Y-100823102D01*
X172097065Y-100672557D01*
X172136140Y-100538368D01*
X172174912Y-100670739D01*
X172213685Y-100820679D01*
X172251245Y-100980614D01*
X172286383Y-101142973D01*
X172319097Y-101304422D01*
X172349387Y-101461632D01*
X172376043Y-101607027D01*
X172397853Y-101733037D01*
X172710454Y-101733037D01*
X172678043Y-101579160D01*
X172638967Y-101408320D01*
X172593531Y-101224455D01*
X172542037Y-101031502D01*
X172504476Y-100899031D01*
X172464492Y-100764943D01*
X172422085Y-100629241D01*
X172377928Y-100494211D01*
X172332694Y-100362143D01*
X172286383Y-100233037D01*
X171978628Y-100233037D01*
X171918652Y-100411147D01*
X171855042Y-100611066D01*
X171812231Y-100751481D01*
X171771035Y-100891626D01*
X171731455Y-101031502D01*
X171694029Y-101168686D01*
X171659296Y-101300754D01*
X171627255Y-101427706D01*
X171587271Y-101597334D01*
X171559404Y-101733037D01*
X171304961Y-101733037D01*
X171304961Y-100831583D01*
X171467320Y-100831583D01*
X171467320Y-100586834D01*
X171304961Y-100586834D01*
X171304961Y-100233037D01*
X171006900Y-100233037D01*
X171006900Y-100586834D01*
X170381698Y-100586834D01*
X170381698Y-100804927D01*
X169824491Y-100804927D01*
X169817077Y-100797658D01*
X169744379Y-100728595D01*
X169666835Y-100646204D01*
X169605042Y-100560178D01*
X169579597Y-100480210D01*
X170224186Y-100480210D01*
X170224186Y-100233037D01*
X169245187Y-100233037D01*
X169239129Y-100293619D01*
X169240341Y-100344507D01*
X169251548Y-100460824D01*
X169285171Y-100567447D01*
X169336060Y-100665287D01*
X169399064Y-100755250D01*
X169470551Y-100838247D01*
X169546883Y-100915186D01*
X169623216Y-100987581D01*
X169694702Y-101056947D01*
X169808596Y-101187803D01*
X169853426Y-101316236D01*
X169797691Y-101457997D01*
X169657142Y-101507674D01*
X169509323Y-101473748D01*
X169356657Y-101359855D01*
X169208838Y-101568255D01*
X168427613Y-101568255D01*
X168403024Y-101538293D01*
X168313488Y-101370783D01*
X168258352Y-101189023D01*
X168239735Y-101000000D01*
X168258352Y-100810977D01*
X168313488Y-100629217D01*
X168403024Y-100461707D01*
X168523519Y-100314883D01*
X168670343Y-100194388D01*
X168837854Y-100104852D01*
X169019613Y-100049716D01*
X169208636Y-100031099D01*
X173114331Y-100031099D01*
X173760265Y-101000000D01*
G37*
G36*
X171006900Y-101359855D02*
G01*
X170917239Y-101241115D01*
X170826366Y-101109047D01*
X170740341Y-100969709D01*
X170667643Y-100831583D01*
X171006900Y-100831583D01*
X171006900Y-101359855D01*
G37*
G36*
X138828009Y-88553574D02*
G01*
X138763389Y-88680796D01*
X138650303Y-88771668D01*
X138480674Y-88805998D01*
X138313065Y-88773687D01*
X138195941Y-88684834D01*
X138123243Y-88555594D01*
X138088914Y-88406159D01*
X138848203Y-88406159D01*
X138828009Y-88553574D01*
G37*
G36*
X142660804Y-87632734D02*
G01*
X142794083Y-87642831D01*
X142794083Y-88079019D01*
X142676959Y-88093154D01*
X142551757Y-88099212D01*
X142402322Y-88089116D01*
X142275101Y-88054786D01*
X142188267Y-87986127D01*
X142155957Y-87869002D01*
X142252888Y-87685238D01*
X142503292Y-87630715D01*
X142660804Y-87632734D01*
G37*
G36*
X114393942Y-87694326D02*
G01*
X114516620Y-87812460D01*
X114590832Y-87994204D01*
X114615569Y-88224414D01*
X114592851Y-88454120D01*
X114524697Y-88634350D01*
X114406058Y-88750969D01*
X114231886Y-88789842D01*
X114061753Y-88750969D01*
X113939075Y-88634350D01*
X113864863Y-88454120D01*
X113840125Y-88224414D01*
X113862843Y-87994204D01*
X113930998Y-87812460D01*
X114049636Y-87694326D01*
X114223809Y-87654947D01*
X114393942Y-87694326D01*
G37*
G36*
X164878594Y-87694326D02*
G01*
X165001272Y-87812460D01*
X165075485Y-87994204D01*
X165100222Y-88224414D01*
X165077504Y-88454120D01*
X165009350Y-88634350D01*
X164890711Y-88750969D01*
X164716539Y-88789842D01*
X164546405Y-88750969D01*
X164423728Y-88634350D01*
X164349515Y-88454120D01*
X164324778Y-88224414D01*
X164347496Y-87994204D01*
X164415650Y-87812460D01*
X164534289Y-87694326D01*
X164708461Y-87654947D01*
X164878594Y-87694326D01*
G37*
G36*
X130549031Y-87694326D02*
G01*
X130671708Y-87812460D01*
X130745921Y-87994204D01*
X130770658Y-88224414D01*
X130747940Y-88454120D01*
X130679786Y-88634350D01*
X130561147Y-88750969D01*
X130386975Y-88789842D01*
X130216842Y-88750969D01*
X130094164Y-88634350D01*
X130019952Y-88454120D01*
X129995214Y-88224414D01*
X130017932Y-87994204D01*
X130086086Y-87812460D01*
X130204725Y-87694326D01*
X130378897Y-87654947D01*
X130549031Y-87694326D01*
G37*
G36*
X172956139Y-87694326D02*
G01*
X173078817Y-87812460D01*
X173153029Y-87994204D01*
X173177767Y-88224414D01*
X173155048Y-88454120D01*
X173086894Y-88634350D01*
X172968255Y-88750969D01*
X172794083Y-88789842D01*
X172623950Y-88750969D01*
X172501272Y-88634350D01*
X172427060Y-88454120D01*
X172402322Y-88224414D01*
X172425040Y-87994204D01*
X172493195Y-87812460D01*
X172611834Y-87694326D01*
X172786006Y-87654947D01*
X172956139Y-87694326D01*
G37*
G36*
X185027524Y-87663025D02*
G01*
X185136571Y-87675141D01*
X185136571Y-88709067D01*
X185007330Y-88763590D01*
X184853857Y-88785804D01*
X184700384Y-88750464D01*
X184595376Y-88644447D01*
X184534794Y-88471789D01*
X184514600Y-88236531D01*
X184538328Y-88005311D01*
X184609511Y-87820537D01*
X184733199Y-87699374D01*
X184914439Y-87658986D01*
X185027524Y-87663025D01*
G37*
G36*
X179014297Y-87694326D02*
G01*
X179136975Y-87812460D01*
X179211187Y-87994204D01*
X179235925Y-88224414D01*
X179213207Y-88454120D01*
X179145052Y-88634350D01*
X179026414Y-88750969D01*
X178852242Y-88789842D01*
X178682108Y-88750969D01*
X178559431Y-88634350D01*
X178485218Y-88454120D01*
X178460481Y-88224414D01*
X178483199Y-87994204D01*
X178551353Y-87812460D01*
X178669992Y-87694326D01*
X178844164Y-87654947D01*
X179014297Y-87694326D01*
G37*
G36*
X122471486Y-87694326D02*
G01*
X122594164Y-87812460D01*
X122668376Y-87994204D01*
X122693114Y-88224414D01*
X122670396Y-88454120D01*
X122602242Y-88634350D01*
X122483603Y-88750969D01*
X122309431Y-88789842D01*
X122139297Y-88750969D01*
X122016620Y-88634350D01*
X121942407Y-88454120D01*
X121917670Y-88224414D01*
X121940388Y-87994204D01*
X122008542Y-87812460D01*
X122127181Y-87694326D01*
X122301353Y-87654947D01*
X122471486Y-87694326D01*
G37*
G36*
X181029140Y-87632734D02*
G01*
X181162419Y-87642831D01*
X181162419Y-88079019D01*
X181045295Y-88093154D01*
X180920093Y-88099212D01*
X180770658Y-88089116D01*
X180643437Y-88054786D01*
X180556603Y-87986127D01*
X180524293Y-87869002D01*
X180621224Y-87685238D01*
X180871628Y-87630715D01*
X181029140Y-87632734D01*
G37*
G36*
X177014600Y-88864560D02*
G01*
X177111531Y-89092750D01*
X177083259Y-89236127D01*
X177006523Y-89320941D01*
X176893437Y-89361329D01*
X176760158Y-89371426D01*
X176643033Y-89367387D01*
X176533986Y-89355271D01*
X176533986Y-88781765D01*
X176727847Y-88781765D01*
X177014600Y-88864560D01*
G37*
G36*
X185837285Y-86270227D02*
G01*
X186038933Y-86300139D01*
X186236678Y-86349672D01*
X186428615Y-86418348D01*
X186612897Y-86505507D01*
X186787749Y-86610309D01*
X186951486Y-86731745D01*
X187102532Y-86868645D01*
X187239432Y-87019691D01*
X187360868Y-87183428D01*
X187465670Y-87358279D01*
X187552829Y-87542561D01*
X187621505Y-87734499D01*
X187671038Y-87932244D01*
X187700949Y-88133891D01*
X187710952Y-88337500D01*
X187700949Y-88541109D01*
X187671038Y-88742756D01*
X187621505Y-88940501D01*
X187552829Y-89132439D01*
X187465670Y-89316721D01*
X187360868Y-89491572D01*
X187239432Y-89655309D01*
X187102532Y-89806355D01*
X186951486Y-89943255D01*
X186787749Y-90064691D01*
X186612897Y-90169493D01*
X186428615Y-90256652D01*
X186236678Y-90325328D01*
X186038933Y-90374861D01*
X185837285Y-90404773D01*
X185633677Y-90414775D01*
X111291323Y-90414775D01*
X111087715Y-90404773D01*
X110886067Y-90374861D01*
X110688322Y-90325328D01*
X110496385Y-90256652D01*
X110312103Y-90169493D01*
X110137251Y-90064691D01*
X110122806Y-90053978D01*
X131538025Y-90053978D01*
X132559834Y-90053978D01*
X139615569Y-90053978D01*
X140637379Y-90053978D01*
X173945133Y-90053978D01*
X174966943Y-90053978D01*
X174966943Y-89742993D01*
X176037217Y-89742993D01*
X176348203Y-89785400D01*
X176683421Y-89803574D01*
X176939883Y-89788934D01*
X177143841Y-89745012D01*
X177422516Y-89591539D01*
X177559834Y-89379503D01*
X177596183Y-89145254D01*
X177574475Y-88977645D01*
X177509350Y-88830230D01*
X177277120Y-88612137D01*
X177490670Y-88503090D01*
X177622435Y-88361733D01*
X177678663Y-88228453D01*
X177955634Y-88228453D01*
X177972294Y-88440994D01*
X178022274Y-88634350D01*
X178102040Y-88804988D01*
X178208057Y-88949374D01*
X178338813Y-89065489D01*
X178492791Y-89151313D01*
X178665448Y-89204321D01*
X178852242Y-89221991D01*
X179041559Y-89204321D01*
X179213712Y-89151313D01*
X179366175Y-89065489D01*
X179496426Y-88949374D01*
X179601939Y-88804988D01*
X179680190Y-88634350D01*
X179728655Y-88440994D01*
X179744810Y-88228453D01*
X179728655Y-88012884D01*
X179689757Y-87856886D01*
X180035602Y-87856886D01*
X180100222Y-88135561D01*
X180273889Y-88317306D01*
X180524293Y-88416256D01*
X180819124Y-88446547D01*
X181001878Y-88438469D01*
X181162419Y-88414237D01*
X181162419Y-88474818D01*
X181073566Y-88711086D01*
X180952403Y-88782270D01*
X180766620Y-88805998D01*
X180494002Y-88785804D01*
X180281967Y-88737338D01*
X180213308Y-89137177D01*
X180475828Y-89195739D01*
X180648485Y-89215428D01*
X180827201Y-89221991D01*
X181041761Y-89208360D01*
X181216943Y-89167468D01*
X181409767Y-89048324D01*
X182236733Y-89048324D01*
X182437157Y-89113954D01*
X182642629Y-89165448D01*
X182868296Y-89198768D01*
X183129301Y-89209875D01*
X183244406Y-89205836D01*
X183403938Y-89191700D01*
X183575586Y-89167468D01*
X183731078Y-89129099D01*
X183642225Y-88668679D01*
X183527120Y-88692912D01*
X183391821Y-88715125D01*
X183258542Y-88729261D01*
X183149495Y-88733300D01*
X182943518Y-88723203D01*
X182737540Y-88684834D01*
X182737540Y-88212298D01*
X184009754Y-88212298D01*
X184031069Y-88500173D01*
X184095017Y-88744518D01*
X184201595Y-88945335D01*
X184349908Y-89094545D01*
X184539057Y-89184072D01*
X184769043Y-89213914D01*
X184966943Y-89191700D01*
X185136571Y-89129099D01*
X185136571Y-89993397D01*
X185633340Y-90078211D01*
X185633340Y-87331846D01*
X185480876Y-87291458D01*
X185298122Y-87259148D01*
X185102242Y-87237944D01*
X184910400Y-87230876D01*
X184638231Y-87260045D01*
X184414080Y-87347552D01*
X184237944Y-87493397D01*
X184111172Y-87689950D01*
X184035108Y-87929584D01*
X184009754Y-88212298D01*
X182737540Y-88212298D01*
X182737540Y-87275303D01*
X182236733Y-87275303D01*
X182236733Y-89048324D01*
X181409767Y-89048324D01*
X181465327Y-89013994D01*
X181598607Y-88771668D01*
X181638994Y-88450586D01*
X181638994Y-87319729D01*
X181315893Y-87263187D01*
X181088712Y-87238954D01*
X180835279Y-87230876D01*
X180506119Y-87263187D01*
X180253695Y-87370214D01*
X180092145Y-87564075D01*
X180035602Y-87856886D01*
X179689757Y-87856886D01*
X179680190Y-87818518D01*
X179602443Y-87647375D01*
X179498445Y-87501474D01*
X179369709Y-87383340D01*
X179217750Y-87295497D01*
X179044588Y-87240973D01*
X178852242Y-87222799D01*
X178659895Y-87240973D01*
X178486733Y-87295497D01*
X178334269Y-87383340D01*
X178204019Y-87501474D01*
X178098506Y-87647375D01*
X178020254Y-87818518D01*
X177971789Y-88012884D01*
X177955634Y-88228453D01*
X177678663Y-88228453D01*
X177690590Y-88200182D01*
X177713308Y-88030553D01*
X177694124Y-87823061D01*
X177636571Y-87652928D01*
X177428574Y-87410602D01*
X177285198Y-87332855D01*
X177117589Y-87281361D01*
X176931300Y-87252585D01*
X176731886Y-87242993D01*
X176563267Y-87247536D01*
X176388590Y-87261167D01*
X176211894Y-87283885D01*
X176037217Y-87315691D01*
X176037217Y-89742993D01*
X174966943Y-89742993D01*
X174966943Y-87994204D01*
X175043679Y-87731684D01*
X175237540Y-87663025D01*
X175487944Y-87703413D01*
X175621224Y-87755917D01*
X175685844Y-87356078D01*
X175631321Y-87327807D01*
X175520254Y-87285400D01*
X175352645Y-87247032D01*
X175128494Y-87230876D01*
X174831644Y-87281866D01*
X174627686Y-87434834D01*
X174509552Y-87685743D01*
X174470174Y-88030553D01*
X174470174Y-89642023D01*
X173945133Y-89642023D01*
X173945133Y-90053978D01*
X140637379Y-90053978D01*
X140637379Y-89254301D01*
X145722193Y-89254301D01*
X145932209Y-89347193D01*
X146158380Y-89472395D01*
X146372435Y-89617791D01*
X146546103Y-89775303D01*
X146885359Y-89775303D01*
X146885359Y-87687258D01*
X147382128Y-87687258D01*
X147382128Y-87352040D01*
X147689075Y-87352040D01*
X147790044Y-87763994D01*
X148016216Y-87683219D01*
X148170699Y-87655957D01*
X148359511Y-87646870D01*
X148599818Y-87679180D01*
X148749253Y-87761975D01*
X148823970Y-87877080D01*
X148844164Y-88010359D01*
X148809834Y-88202201D01*
X148672516Y-88351636D01*
X148379705Y-88448566D01*
X148160602Y-88474313D01*
X147882936Y-88482896D01*
X147919285Y-88818619D01*
X147947557Y-89147274D01*
X147968760Y-89466842D01*
X147983905Y-89775303D01*
X149260158Y-89775303D01*
X149260158Y-89363348D01*
X148399899Y-89363348D01*
X148379705Y-89092750D01*
X148359511Y-88862540D01*
X148665112Y-88821255D01*
X148914169Y-88740480D01*
X149106684Y-88620214D01*
X149243554Y-88461356D01*
X149325675Y-88264802D01*
X149353049Y-88030553D01*
X149292468Y-87709471D01*
X149106684Y-87453009D01*
X148966337Y-87356078D01*
X148795699Y-87283380D01*
X148759981Y-87275303D01*
X149647880Y-87275303D01*
X149787217Y-87511571D01*
X149952807Y-87761975D01*
X150134552Y-88014398D01*
X150318316Y-88252686D01*
X149651918Y-89173526D01*
X150172920Y-89173526D01*
X150592952Y-88579826D01*
X150980674Y-89173526D01*
X151485521Y-89173526D01*
X150871628Y-88260763D01*
X151061450Y-88012379D01*
X151239156Y-87747839D01*
X151392629Y-87493397D01*
X151468543Y-87352040D01*
X151727847Y-87352040D01*
X151828817Y-87763994D01*
X152054988Y-87683219D01*
X152209471Y-87655957D01*
X152398284Y-87646870D01*
X152638590Y-87679180D01*
X152788025Y-87761975D01*
X152862742Y-87877080D01*
X152882936Y-88010359D01*
X152848607Y-88202201D01*
X152711288Y-88351636D01*
X152418477Y-88448566D01*
X152199374Y-88474313D01*
X151921708Y-88482896D01*
X151958057Y-88818619D01*
X151986329Y-89147274D01*
X152007532Y-89466842D01*
X152022678Y-89775303D01*
X153298930Y-89775303D01*
X153298930Y-89363348D01*
X152438671Y-89363348D01*
X152424505Y-89173526D01*
X153751272Y-89173526D01*
X154183421Y-89173526D01*
X154183421Y-89650101D01*
X154680190Y-89730876D01*
X154680190Y-89254301D01*
X155819124Y-89254301D01*
X156029140Y-89347193D01*
X156255311Y-89472395D01*
X156469366Y-89617791D01*
X156643033Y-89775303D01*
X156982290Y-89775303D01*
X156982290Y-87687258D01*
X157479059Y-87687258D01*
X157479059Y-87352040D01*
X157786006Y-87352040D01*
X157886975Y-87763994D01*
X158113146Y-87683219D01*
X158267629Y-87655957D01*
X158456442Y-87646870D01*
X158696749Y-87679180D01*
X158846183Y-87761975D01*
X158920901Y-87877080D01*
X158941094Y-88010359D01*
X158906765Y-88202201D01*
X158769447Y-88351636D01*
X158476636Y-88448566D01*
X158257532Y-88474313D01*
X157979867Y-88482896D01*
X158016216Y-88818619D01*
X158044487Y-89147274D01*
X158065691Y-89466842D01*
X158080836Y-89775303D01*
X159357088Y-89775303D01*
X159357088Y-89363348D01*
X158496830Y-89363348D01*
X158476636Y-89092750D01*
X158456442Y-88862540D01*
X158762042Y-88821255D01*
X159011100Y-88740480D01*
X159203615Y-88620214D01*
X159259290Y-88555594D01*
X160120416Y-88555594D01*
X161227040Y-88555594D01*
X161227040Y-88527322D01*
X161792468Y-88527322D01*
X161813671Y-88821143D01*
X161877282Y-89080634D01*
X161978756Y-89304281D01*
X162113550Y-89490569D01*
X162279140Y-89637985D01*
X162473001Y-89745012D01*
X162690590Y-89810137D01*
X162927363Y-89831846D01*
X163167670Y-89809632D01*
X163355473Y-89759148D01*
X163490771Y-89698566D01*
X163573566Y-89650101D01*
X163444326Y-89254301D01*
X163220174Y-89357290D01*
X162919285Y-89399697D01*
X162691094Y-89357290D01*
X162493195Y-89215933D01*
X162351838Y-88951393D01*
X162310945Y-88765610D01*
X162297314Y-88539439D01*
X162313694Y-88276245D01*
X162324429Y-88228453D01*
X163819931Y-88228453D01*
X163836591Y-88440994D01*
X163886571Y-88634350D01*
X163966337Y-88804988D01*
X164072355Y-88949374D01*
X164203110Y-89065489D01*
X164357088Y-89151313D01*
X164529746Y-89204321D01*
X164716539Y-89221991D01*
X164905856Y-89204321D01*
X165078009Y-89151313D01*
X165146170Y-89112944D01*
X165976636Y-89112944D01*
X166125565Y-89148284D01*
X166305796Y-89181603D01*
X166510258Y-89205836D01*
X166731886Y-89213914D01*
X166938873Y-89198263D01*
X167027715Y-89173526D01*
X167886975Y-89173526D01*
X168319124Y-89173526D01*
X168319124Y-89650101D01*
X168815893Y-89730876D01*
X168815893Y-89173526D01*
X169611531Y-89173526D01*
X169611531Y-89048324D01*
X170120416Y-89048324D01*
X170320840Y-89113954D01*
X170526313Y-89165448D01*
X170751979Y-89198768D01*
X171012985Y-89209875D01*
X171128090Y-89205836D01*
X171287621Y-89191700D01*
X171459269Y-89167468D01*
X171614762Y-89129099D01*
X171525909Y-88668679D01*
X171410804Y-88692912D01*
X171275505Y-88715125D01*
X171142225Y-88729261D01*
X171033179Y-88733300D01*
X170827201Y-88723203D01*
X170621224Y-88684834D01*
X170621224Y-88228453D01*
X171897476Y-88228453D01*
X171914136Y-88440994D01*
X171964115Y-88634350D01*
X172043881Y-88804988D01*
X172149899Y-88949374D01*
X172280654Y-89065489D01*
X172434632Y-89151313D01*
X172607290Y-89204321D01*
X172794083Y-89221991D01*
X172983401Y-89204321D01*
X173155553Y-89151313D01*
X173308017Y-89065489D01*
X173438267Y-88949374D01*
X173543780Y-88804988D01*
X173622031Y-88634350D01*
X173670497Y-88440994D01*
X173686652Y-88228453D01*
X173670497Y-88012884D01*
X173622031Y-87818518D01*
X173544285Y-87647375D01*
X173440287Y-87501474D01*
X173311551Y-87383340D01*
X173159592Y-87295497D01*
X172986430Y-87240973D01*
X172794083Y-87222799D01*
X172601737Y-87240973D01*
X172428574Y-87295497D01*
X172276111Y-87383340D01*
X172145860Y-87501474D01*
X172040347Y-87647375D01*
X171962096Y-87818518D01*
X171913631Y-88012884D01*
X171897476Y-88228453D01*
X170621224Y-88228453D01*
X170621224Y-87275303D01*
X170120416Y-87275303D01*
X170120416Y-89048324D01*
X169611531Y-89048324D01*
X169611531Y-88761571D01*
X168815893Y-88761571D01*
X168815893Y-87994204D01*
X168836086Y-87824576D01*
X168892629Y-87723607D01*
X168981482Y-87675141D01*
X169098607Y-87663025D01*
X169225828Y-87667064D01*
X169338914Y-87681200D01*
X169451999Y-87711490D01*
X169579221Y-87763994D01*
X169647880Y-87335884D01*
X169351030Y-87255109D01*
X169042064Y-87230876D01*
X168735117Y-87259148D01*
X168508946Y-87368195D01*
X168367589Y-87596385D01*
X168331240Y-87766519D01*
X168319124Y-87982088D01*
X168319124Y-88761571D01*
X167886975Y-88761571D01*
X167886975Y-89173526D01*
X167027715Y-89173526D01*
X167107492Y-89151313D01*
X167343760Y-88973607D01*
X167466943Y-88698970D01*
X167494204Y-88530856D01*
X167503292Y-88345578D01*
X167503292Y-87275303D01*
X167006523Y-87275303D01*
X167006523Y-88280957D01*
X166991377Y-88510158D01*
X166945941Y-88664641D01*
X166699576Y-88781765D01*
X166588510Y-88777726D01*
X166473405Y-88765610D01*
X166473405Y-87275303D01*
X165976636Y-87275303D01*
X165976636Y-89112944D01*
X165146170Y-89112944D01*
X165230473Y-89065489D01*
X165360723Y-88949374D01*
X165466236Y-88804988D01*
X165544487Y-88634350D01*
X165592952Y-88440994D01*
X165609107Y-88228453D01*
X165592952Y-88012884D01*
X165544487Y-87818518D01*
X165466741Y-87647375D01*
X165362742Y-87501474D01*
X165234006Y-87383340D01*
X165082048Y-87295497D01*
X164908885Y-87240973D01*
X164716539Y-87222799D01*
X164524192Y-87240973D01*
X164351030Y-87295497D01*
X164198566Y-87383340D01*
X164068316Y-87501474D01*
X163962803Y-87647375D01*
X163884552Y-87818518D01*
X163836086Y-88012884D01*
X163819931Y-88228453D01*
X162324429Y-88228453D01*
X162362832Y-88057478D01*
X162444729Y-87883138D01*
X162639095Y-87711995D01*
X162927363Y-87654947D01*
X163248445Y-87699374D01*
X163452403Y-87788227D01*
X163577605Y-87396466D01*
X163292872Y-87277322D01*
X163099515Y-87236430D01*
X162878897Y-87222799D01*
X162554001Y-87260494D01*
X162284749Y-87373580D01*
X162071143Y-87562056D01*
X161949223Y-87749606D01*
X161862136Y-87973001D01*
X161809885Y-88232239D01*
X161792468Y-88527322D01*
X161227040Y-88527322D01*
X161227040Y-88066902D01*
X160120416Y-88066902D01*
X160120416Y-88555594D01*
X159259290Y-88555594D01*
X159340484Y-88461356D01*
X159422606Y-88264802D01*
X159449980Y-88030553D01*
X159389398Y-87709471D01*
X159203615Y-87453009D01*
X159063267Y-87356078D01*
X158892629Y-87283380D01*
X158691700Y-87237944D01*
X158460481Y-87222799D01*
X158262581Y-87234915D01*
X158068720Y-87265206D01*
X157901111Y-87307613D01*
X157786006Y-87352040D01*
X157479059Y-87352040D01*
X157479059Y-87275303D01*
X155960481Y-87275303D01*
X155960481Y-87687258D01*
X156485521Y-87687258D01*
X156485521Y-89084673D01*
X156227040Y-88941296D01*
X155980674Y-88842347D01*
X155819124Y-89254301D01*
X154680190Y-89254301D01*
X154680190Y-89173526D01*
X155475828Y-89173526D01*
X155475828Y-88761571D01*
X154680190Y-88761571D01*
X154680190Y-87994204D01*
X154700384Y-87824576D01*
X154756926Y-87723607D01*
X154845779Y-87675141D01*
X154962904Y-87663025D01*
X155090125Y-87667064D01*
X155203211Y-87681200D01*
X155316296Y-87711490D01*
X155443518Y-87763994D01*
X155512177Y-87335884D01*
X155215327Y-87255109D01*
X154906361Y-87230876D01*
X154599414Y-87259148D01*
X154373243Y-87368195D01*
X154231886Y-87596385D01*
X154195537Y-87766519D01*
X154183421Y-87982088D01*
X154183421Y-88761571D01*
X153751272Y-88761571D01*
X153751272Y-89173526D01*
X152424505Y-89173526D01*
X152418477Y-89092750D01*
X152398284Y-88862540D01*
X152703884Y-88821255D01*
X152952942Y-88740480D01*
X153145456Y-88620214D01*
X153282326Y-88461356D01*
X153364448Y-88264802D01*
X153391821Y-88030553D01*
X153331240Y-87709471D01*
X153145456Y-87453009D01*
X153005109Y-87356078D01*
X152834471Y-87283380D01*
X152633542Y-87237944D01*
X152402322Y-87222799D01*
X152204422Y-87234915D01*
X152010561Y-87265206D01*
X151842952Y-87307613D01*
X151727847Y-87352040D01*
X151468543Y-87352040D01*
X151509754Y-87275303D01*
X150992791Y-87275303D01*
X150883744Y-87470174D01*
X150774697Y-87642831D01*
X150668679Y-87796305D01*
X150568720Y-87933623D01*
X150453615Y-87774091D01*
X150350626Y-87618599D01*
X150252686Y-87456038D01*
X150152726Y-87275303D01*
X149647880Y-87275303D01*
X148759981Y-87275303D01*
X148594770Y-87237944D01*
X148363550Y-87222799D01*
X148165650Y-87234915D01*
X147971789Y-87265206D01*
X147804180Y-87307613D01*
X147689075Y-87352040D01*
X147382128Y-87352040D01*
X147382128Y-87275303D01*
X145863550Y-87275303D01*
X145863550Y-87687258D01*
X146388590Y-87687258D01*
X146388590Y-89084673D01*
X146130109Y-88941296D01*
X145883744Y-88842347D01*
X145722193Y-89254301D01*
X140637379Y-89254301D01*
X140637379Y-87994204D01*
X140677518Y-87856886D01*
X141667266Y-87856886D01*
X141731886Y-88135561D01*
X141905553Y-88317306D01*
X142155957Y-88416256D01*
X142450788Y-88446547D01*
X142633542Y-88438469D01*
X142794083Y-88414237D01*
X142794083Y-88474818D01*
X142705230Y-88711086D01*
X142584067Y-88782270D01*
X142398284Y-88805998D01*
X142125666Y-88785804D01*
X141913631Y-88737338D01*
X141844972Y-89137177D01*
X142107492Y-89195739D01*
X142280149Y-89215428D01*
X142458865Y-89221991D01*
X142673425Y-89208360D01*
X142848607Y-89167468D01*
X143096991Y-89013994D01*
X143230271Y-88771668D01*
X143270658Y-88450586D01*
X143270658Y-87319729D01*
X142947557Y-87263187D01*
X142720376Y-87238954D01*
X142466943Y-87230876D01*
X142137783Y-87263187D01*
X141885359Y-87370214D01*
X141723809Y-87564075D01*
X141667266Y-87856886D01*
X140677518Y-87856886D01*
X140714115Y-87731684D01*
X140907977Y-87663025D01*
X141158380Y-87703413D01*
X141291660Y-87755917D01*
X141356280Y-87356078D01*
X141301757Y-87327807D01*
X141190691Y-87285400D01*
X141023082Y-87247032D01*
X140798930Y-87230876D01*
X140502080Y-87281866D01*
X140298122Y-87434834D01*
X140179988Y-87685743D01*
X140140610Y-88030553D01*
X140140610Y-89642023D01*
X139615569Y-89642023D01*
X139615569Y-90053978D01*
X132559834Y-90053978D01*
X132559834Y-89738954D01*
X135649495Y-89738954D01*
X135809027Y-89769245D01*
X135984713Y-89789439D01*
X136154342Y-89799536D01*
X136295699Y-89803574D01*
X136499657Y-89791458D01*
X136683421Y-89755109D01*
X136844972Y-89693518D01*
X136982290Y-89605674D01*
X137174132Y-89349212D01*
X137224111Y-89180089D01*
X137240771Y-88983704D01*
X137218558Y-88775707D01*
X137151918Y-88587904D01*
X137033784Y-88431401D01*
X136857088Y-88317306D01*
X136925361Y-88208259D01*
X137575989Y-88208259D01*
X137595174Y-88443518D01*
X137652726Y-88648485D01*
X137741579Y-88822658D01*
X137854665Y-88965529D01*
X137988954Y-89077100D01*
X138141418Y-89157371D01*
X138304988Y-89205836D01*
X138472597Y-89221991D01*
X138730181Y-89194393D01*
X138942890Y-89111598D01*
X139110723Y-88973607D01*
X139231886Y-88782662D01*
X139304584Y-88541009D01*
X139328817Y-88248647D01*
X139326797Y-88147678D01*
X139320739Y-88062863D01*
X138088914Y-88062863D01*
X138127282Y-87896769D01*
X138242387Y-87770053D01*
X138418073Y-87689782D01*
X138638187Y-87663025D01*
X138922920Y-87695335D01*
X139151111Y-87759956D01*
X139219770Y-87335884D01*
X138945133Y-87261167D01*
X138617993Y-87230876D01*
X138388288Y-87246527D01*
X138183825Y-87293477D01*
X138006119Y-87371224D01*
X137856684Y-87479261D01*
X137737036Y-87617084D01*
X137648687Y-87784188D01*
X137594164Y-87981078D01*
X137575989Y-88208259D01*
X136925361Y-88208259D01*
X137002484Y-88085077D01*
X137151918Y-87818518D01*
X137291256Y-87539842D01*
X137406361Y-87275303D01*
X136885359Y-87275303D01*
X136784895Y-87513086D01*
X136669285Y-87741781D01*
X136541559Y-87967447D01*
X136404746Y-88196143D01*
X136146264Y-88196143D01*
X136146264Y-87275303D01*
X135649495Y-87275303D01*
X135649495Y-89738954D01*
X132559834Y-89738954D01*
X132559834Y-88555594D01*
X133868397Y-88555594D01*
X134975020Y-88555594D01*
X134975020Y-88066902D01*
X133868397Y-88066902D01*
X133868397Y-88555594D01*
X132559834Y-88555594D01*
X132559834Y-87994204D01*
X132636571Y-87731684D01*
X132830432Y-87663025D01*
X133080836Y-87703413D01*
X133214115Y-87755917D01*
X133278736Y-87356078D01*
X133224212Y-87327807D01*
X133113146Y-87285400D01*
X132945537Y-87247032D01*
X132721385Y-87230876D01*
X132424536Y-87281866D01*
X132220578Y-87434834D01*
X132102443Y-87685743D01*
X132063065Y-88030553D01*
X132063065Y-89642023D01*
X131538025Y-89642023D01*
X131538025Y-90053978D01*
X110122806Y-90053978D01*
X109973514Y-89943255D01*
X109822468Y-89806355D01*
X109794324Y-89775303D01*
X111291660Y-89775303D01*
X111752080Y-89775303D01*
X111748041Y-89532977D01*
X111744002Y-89282573D01*
X111739964Y-89028635D01*
X111735925Y-88775707D01*
X111731886Y-88526313D01*
X111727847Y-88282977D01*
X111724818Y-88050242D01*
X111723809Y-87832653D01*
X111806603Y-88115368D01*
X111895456Y-88418275D01*
X111974212Y-88692912D01*
X112030755Y-88890812D01*
X112394245Y-88890812D01*
X112442710Y-88700989D01*
X112513389Y-88450586D01*
X112598203Y-88155755D01*
X112689075Y-87832653D01*
X112688065Y-88050242D01*
X112685036Y-88282977D01*
X112680998Y-88525808D01*
X112676959Y-88773687D01*
X112672920Y-89025606D01*
X112668881Y-89280553D01*
X112665852Y-89532472D01*
X112664842Y-89775303D01*
X113125263Y-89775303D01*
X113113146Y-89463813D01*
X113101030Y-89143235D01*
X113087904Y-88819124D01*
X113072758Y-88497032D01*
X113057861Y-88228453D01*
X113335279Y-88228453D01*
X113351939Y-88440994D01*
X113401918Y-88634350D01*
X113481684Y-88804988D01*
X113587702Y-88949374D01*
X113718457Y-89065489D01*
X113872435Y-89151313D01*
X114045093Y-89204321D01*
X114231886Y-89221991D01*
X114421204Y-89204321D01*
X114593356Y-89151313D01*
X114745820Y-89065489D01*
X114765075Y-89048324D01*
X115596991Y-89048324D01*
X115797415Y-89113954D01*
X116002888Y-89165448D01*
X116228554Y-89198768D01*
X116489560Y-89209875D01*
X116604665Y-89205836D01*
X116764196Y-89191700D01*
X116935844Y-89167468D01*
X117091337Y-89129099D01*
X117085881Y-89100828D01*
X117374051Y-89100828D01*
X117685036Y-89169487D01*
X117955634Y-89193720D01*
X118143437Y-89167468D01*
X118286813Y-89080634D01*
X118448364Y-89159390D01*
X118642225Y-89193720D01*
X118900707Y-89145254D01*
X119060238Y-88999859D01*
X119138994Y-88755513D01*
X119154140Y-88595477D01*
X119155997Y-88527322D01*
X119385359Y-88527322D01*
X119406563Y-88821143D01*
X119470174Y-89080634D01*
X119571648Y-89304281D01*
X119706442Y-89490569D01*
X119872031Y-89637985D01*
X120065893Y-89745012D01*
X120283481Y-89810137D01*
X120520254Y-89831846D01*
X120760561Y-89809632D01*
X120948364Y-89759148D01*
X121083663Y-89698566D01*
X121166458Y-89650101D01*
X121037217Y-89254301D01*
X120813065Y-89357290D01*
X120512177Y-89399697D01*
X120283986Y-89357290D01*
X120086086Y-89215933D01*
X119944729Y-88951393D01*
X119903837Y-88765610D01*
X119890206Y-88539439D01*
X119906585Y-88276245D01*
X119917320Y-88228453D01*
X121412823Y-88228453D01*
X121429483Y-88440994D01*
X121479463Y-88634350D01*
X121559229Y-88804988D01*
X121665246Y-88949374D01*
X121796002Y-89065489D01*
X121949980Y-89151313D01*
X122122637Y-89204321D01*
X122309431Y-89221991D01*
X122498748Y-89204321D01*
X122670901Y-89151313D01*
X122739062Y-89112944D01*
X123569527Y-89112944D01*
X123718457Y-89148284D01*
X123898687Y-89181603D01*
X124103150Y-89205836D01*
X124324778Y-89213914D01*
X124531765Y-89198263D01*
X124620607Y-89173526D01*
X125479867Y-89173526D01*
X125912015Y-89173526D01*
X125912015Y-89650101D01*
X126408784Y-89730876D01*
X126408784Y-89173526D01*
X127204422Y-89173526D01*
X127204422Y-89048324D01*
X127713308Y-89048324D01*
X127913732Y-89113954D01*
X128119204Y-89165448D01*
X128344871Y-89198768D01*
X128605876Y-89209875D01*
X128720981Y-89205836D01*
X128880513Y-89191700D01*
X129052161Y-89167468D01*
X129207653Y-89129099D01*
X129118800Y-88668679D01*
X129003695Y-88692912D01*
X128868397Y-88715125D01*
X128735117Y-88729261D01*
X128626070Y-88733300D01*
X128420093Y-88723203D01*
X128214115Y-88684834D01*
X128214115Y-88228453D01*
X129490368Y-88228453D01*
X129507027Y-88440994D01*
X129557007Y-88634350D01*
X129636773Y-88804988D01*
X129742791Y-88949374D01*
X129873546Y-89065489D01*
X130027524Y-89151313D01*
X130200182Y-89204321D01*
X130386975Y-89221991D01*
X130576292Y-89204321D01*
X130748445Y-89151313D01*
X130900909Y-89065489D01*
X131031159Y-88949374D01*
X131136672Y-88804988D01*
X131214923Y-88634350D01*
X131263389Y-88440994D01*
X131279544Y-88228453D01*
X131263389Y-88012884D01*
X131214923Y-87818518D01*
X131137177Y-87647375D01*
X131033179Y-87501474D01*
X130904443Y-87383340D01*
X130752484Y-87295497D01*
X130579321Y-87240973D01*
X130386975Y-87222799D01*
X130194628Y-87240973D01*
X130021466Y-87295497D01*
X129869002Y-87383340D01*
X129738752Y-87501474D01*
X129633239Y-87647375D01*
X129554988Y-87818518D01*
X129506523Y-88012884D01*
X129490368Y-88228453D01*
X128214115Y-88228453D01*
X128214115Y-87275303D01*
X127713308Y-87275303D01*
X127713308Y-89048324D01*
X127204422Y-89048324D01*
X127204422Y-88761571D01*
X126408784Y-88761571D01*
X126408784Y-87994204D01*
X126428978Y-87824576D01*
X126485521Y-87723607D01*
X126574374Y-87675141D01*
X126691498Y-87663025D01*
X126818720Y-87667064D01*
X126931805Y-87681200D01*
X127044891Y-87711490D01*
X127172112Y-87763994D01*
X127240771Y-87335884D01*
X126943922Y-87255109D01*
X126634956Y-87230876D01*
X126328009Y-87259148D01*
X126101838Y-87368195D01*
X125960481Y-87596385D01*
X125924132Y-87766519D01*
X125912015Y-87982088D01*
X125912015Y-88761571D01*
X125479867Y-88761571D01*
X125479867Y-89173526D01*
X124620607Y-89173526D01*
X124700384Y-89151313D01*
X124936652Y-88973607D01*
X125059834Y-88698970D01*
X125087096Y-88530856D01*
X125096183Y-88345578D01*
X125096183Y-87275303D01*
X124599414Y-87275303D01*
X124599414Y-88280957D01*
X124584269Y-88510158D01*
X124538833Y-88664641D01*
X124292468Y-88781765D01*
X124181401Y-88777726D01*
X124066296Y-88765610D01*
X124066296Y-87275303D01*
X123569527Y-87275303D01*
X123569527Y-89112944D01*
X122739062Y-89112944D01*
X122823364Y-89065489D01*
X122953615Y-88949374D01*
X123059128Y-88804988D01*
X123137379Y-88634350D01*
X123185844Y-88440994D01*
X123201999Y-88228453D01*
X123185844Y-88012884D01*
X123137379Y-87818518D01*
X123059632Y-87647375D01*
X122955634Y-87501474D01*
X122826898Y-87383340D01*
X122674939Y-87295497D01*
X122501777Y-87240973D01*
X122309431Y-87222799D01*
X122117084Y-87240973D01*
X121943922Y-87295497D01*
X121791458Y-87383340D01*
X121661208Y-87501474D01*
X121555695Y-87647375D01*
X121477443Y-87818518D01*
X121428978Y-88012884D01*
X121412823Y-88228453D01*
X119917320Y-88228453D01*
X119955724Y-88057478D01*
X120037621Y-87883138D01*
X120231987Y-87711995D01*
X120520254Y-87654947D01*
X120841337Y-87699374D01*
X121045295Y-87788227D01*
X121170497Y-87396466D01*
X120885763Y-87277322D01*
X120692407Y-87236430D01*
X120471789Y-87222799D01*
X120146892Y-87260494D01*
X119877641Y-87373580D01*
X119664035Y-87562056D01*
X119542114Y-87749606D01*
X119455028Y-87973001D01*
X119402777Y-88232239D01*
X119385359Y-88527322D01*
X119155997Y-88527322D01*
X119159188Y-88410198D01*
X119159188Y-87275303D01*
X118755311Y-87275303D01*
X118755311Y-88434431D01*
X118741175Y-88616175D01*
X118704826Y-88721183D01*
X118652322Y-88769649D01*
X118589721Y-88781765D01*
X118512985Y-88775707D01*
X118440287Y-88753494D01*
X118460481Y-88583865D01*
X118468558Y-88377888D01*
X118468558Y-87998243D01*
X118064681Y-87998243D01*
X118064681Y-88434431D01*
X118026313Y-88705028D01*
X117903130Y-88781765D01*
X117844568Y-88777726D01*
X117777928Y-88765610D01*
X117777928Y-87275303D01*
X117374051Y-87275303D01*
X117374051Y-89100828D01*
X117085881Y-89100828D01*
X117002484Y-88668679D01*
X116887379Y-88692912D01*
X116752080Y-88715125D01*
X116618800Y-88729261D01*
X116509754Y-88733300D01*
X116303776Y-88723203D01*
X116097799Y-88684834D01*
X116097799Y-87275303D01*
X115596991Y-87275303D01*
X115596991Y-89048324D01*
X114765075Y-89048324D01*
X114876070Y-88949374D01*
X114981583Y-88804988D01*
X115059834Y-88634350D01*
X115108300Y-88440994D01*
X115124455Y-88228453D01*
X115108300Y-88012884D01*
X115059834Y-87818518D01*
X114982088Y-87647375D01*
X114878090Y-87501474D01*
X114749354Y-87383340D01*
X114597395Y-87295497D01*
X114424233Y-87240973D01*
X114231886Y-87222799D01*
X114039540Y-87240973D01*
X113866377Y-87295497D01*
X113713914Y-87383340D01*
X113583663Y-87501474D01*
X113478150Y-87647375D01*
X113399899Y-87818518D01*
X113351434Y-88012884D01*
X113335279Y-88228453D01*
X113057861Y-88228453D01*
X113055089Y-88178473D01*
X113034390Y-87864964D01*
X113010662Y-87562056D01*
X112983905Y-87275303D01*
X112571951Y-87275303D01*
X112483098Y-87539338D01*
X112394245Y-87822557D01*
X112305392Y-88108805D01*
X112216539Y-88381926D01*
X112125666Y-88116377D01*
X112030755Y-87828615D01*
X111937863Y-87540852D01*
X111853049Y-87275303D01*
X111441094Y-87275303D01*
X111410804Y-87562561D01*
X111384552Y-87866983D01*
X111361834Y-88182007D01*
X111342145Y-88501070D01*
X111325485Y-88823162D01*
X111311854Y-89147274D01*
X111300747Y-89466842D01*
X111291660Y-89775303D01*
X109794324Y-89775303D01*
X109685568Y-89655309D01*
X109564132Y-89491572D01*
X109459330Y-89316721D01*
X109372171Y-89132439D01*
X109303495Y-88940501D01*
X109253962Y-88742756D01*
X109224051Y-88541109D01*
X109214048Y-88337500D01*
X109224051Y-88133891D01*
X109253962Y-87932244D01*
X109303495Y-87734499D01*
X109372171Y-87542561D01*
X109459330Y-87358279D01*
X109564132Y-87183428D01*
X109685568Y-87019691D01*
X109822468Y-86868645D01*
X109973514Y-86731745D01*
X110057459Y-86669487D01*
X143589721Y-86669487D01*
X143682613Y-87085481D01*
X143825989Y-87034996D01*
X143961288Y-87020860D01*
X144195537Y-87117791D01*
X144336894Y-87348001D01*
X144218424Y-87596385D01*
X144099953Y-87867656D01*
X143981482Y-88161813D01*
X143894649Y-88396946D01*
X143811854Y-88643942D01*
X143733098Y-88902802D01*
X143658380Y-89173526D01*
X144175343Y-89173526D01*
X144258138Y-88854463D01*
X144306099Y-88684834D01*
X144357088Y-88515206D01*
X144411107Y-88347092D01*
X144468154Y-88182007D01*
X144587298Y-87877080D01*
X144672112Y-88182007D01*
X144715529Y-88346587D01*
X144756926Y-88513187D01*
X144796809Y-88681300D01*
X144835683Y-88850424D01*
X144906361Y-89173526D01*
X145415246Y-89173526D01*
X145340024Y-88909491D01*
X145267831Y-88650505D01*
X145195638Y-88397072D01*
X145120416Y-88149697D01*
X145041155Y-87907876D01*
X144956846Y-87671103D01*
X144866478Y-87439883D01*
X144769043Y-87214721D01*
X144617589Y-86936046D01*
X144451999Y-86744204D01*
X144250061Y-86633138D01*
X143989560Y-86596789D01*
X143761369Y-86616983D01*
X143589721Y-86669487D01*
X110057459Y-86669487D01*
X110137251Y-86610309D01*
X110312103Y-86505507D01*
X110496385Y-86418348D01*
X110688322Y-86349672D01*
X110886067Y-86300139D01*
X111087715Y-86270227D01*
X111291323Y-86260225D01*
X185633677Y-86260225D01*
X185837285Y-86270227D01*
G37*
G36*
X176937863Y-87689277D02*
G01*
X177081240Y-87741781D01*
X177184229Y-87850828D01*
X177224616Y-88030553D01*
X177109511Y-88291054D01*
X176800545Y-88369810D01*
X176533986Y-88369810D01*
X176533986Y-87691296D01*
X176649091Y-87679180D01*
X176772274Y-87675141D01*
X176937863Y-87689277D01*
G37*
G36*
X136474414Y-88632835D02*
G01*
X136622839Y-88707048D01*
X136735925Y-88987742D01*
X136705634Y-89159390D01*
X136614762Y-89278534D01*
X136474414Y-89348203D01*
X136295699Y-89371426D01*
X136227040Y-89369406D01*
X136146264Y-89359309D01*
X136146264Y-88608098D01*
X136255311Y-88608098D01*
X136474414Y-88632835D01*
G37*
G36*
X167153844Y-107500000D02*
G01*
X166505486Y-108472536D01*
X163818693Y-108472536D01*
X163628960Y-108453849D01*
X163446519Y-108398506D01*
X163278381Y-108308634D01*
X163131006Y-108187687D01*
X163010058Y-108040312D01*
X162920186Y-107872174D01*
X162864843Y-107689732D01*
X162846156Y-107500000D01*
X162858567Y-107373990D01*
X163818895Y-107373990D01*
X163834949Y-107579362D01*
X163883111Y-107759289D01*
X163960959Y-107913166D01*
X164066068Y-108040388D01*
X164196924Y-108140347D01*
X164352013Y-108212439D01*
X164528305Y-108256058D01*
X164722772Y-108270598D01*
X164723418Y-108260905D01*
X164950559Y-108260905D01*
X165265583Y-108260905D01*
X165283757Y-108135198D01*
X165309202Y-107990711D01*
X165339795Y-107834410D01*
X165373418Y-107673263D01*
X165409767Y-107510905D01*
X165448539Y-107350969D01*
X165488220Y-107200424D01*
X165527295Y-107066236D01*
X165566068Y-107198607D01*
X165604840Y-107348546D01*
X165642400Y-107508481D01*
X165677538Y-107670840D01*
X165710252Y-107832290D01*
X165740543Y-107989499D01*
X165767198Y-108134895D01*
X165789008Y-108260905D01*
X166101609Y-108260905D01*
X166069198Y-108107027D01*
X166030123Y-107936187D01*
X165984686Y-107752322D01*
X165933192Y-107559370D01*
X165895631Y-107426898D01*
X165855648Y-107292811D01*
X165813240Y-107157108D01*
X165769083Y-107022079D01*
X165723849Y-106890011D01*
X165677538Y-106760905D01*
X165369783Y-106760905D01*
X165309807Y-106939015D01*
X165246197Y-107138934D01*
X165203386Y-107279348D01*
X165162190Y-107419494D01*
X165122610Y-107559370D01*
X165085184Y-107696554D01*
X165050451Y-107828621D01*
X165018410Y-107955574D01*
X164978426Y-108125202D01*
X164950559Y-108260905D01*
X164723418Y-108260905D01*
X164739735Y-108016155D01*
X164550720Y-107996769D01*
X164381092Y-107939822D01*
X164246601Y-107836834D01*
X164162998Y-107679321D01*
X164252659Y-107709612D01*
X164330203Y-107720517D01*
X164451064Y-107710824D01*
X164551932Y-107681745D01*
X164700963Y-107577544D01*
X164784565Y-107424879D01*
X164810009Y-107240711D01*
X164782142Y-107063813D01*
X164696116Y-106899031D01*
X164548297Y-106776656D01*
X164450155Y-106741216D01*
X164335050Y-106729402D01*
X164180365Y-106746769D01*
X164052336Y-106798869D01*
X163950963Y-106885703D01*
X163877592Y-107009424D01*
X163833569Y-107172186D01*
X163818895Y-107373990D01*
X162858567Y-107373990D01*
X162864843Y-107310268D01*
X162920186Y-107127826D01*
X163010058Y-106959688D01*
X163131006Y-106812313D01*
X163278381Y-106691366D01*
X163446519Y-106601494D01*
X163628960Y-106546151D01*
X163818693Y-106527464D01*
X166505486Y-106527464D01*
X167153844Y-107500000D01*
G37*
G36*
X164415018Y-107010501D02*
G01*
X164474387Y-107071082D01*
X164508313Y-107151050D01*
X164519218Y-107235864D01*
X164468329Y-107411551D01*
X164398660Y-107457896D01*
X164291431Y-107473344D01*
X164196924Y-107463651D01*
X164116956Y-107436995D01*
X164113321Y-107393376D01*
X164112110Y-107347334D01*
X164121803Y-107212843D01*
X164155728Y-107097738D01*
X164222368Y-107016559D01*
X164327780Y-106986268D01*
X164415018Y-107010501D01*
G37*
D14*
X169730000Y-105845000D02*
X169730000Y-110985000D01*
X167070000Y-105845000D02*
X167070000Y-110985000D01*
X169730000Y-105845000D02*
X167070000Y-105845000D01*
X169730000Y-104575000D02*
X169730000Y-103245000D01*
X169730000Y-110985000D02*
X167070000Y-110985000D01*
X169730000Y-103245000D02*
X168400000Y-103245000D01*
X156930000Y-109845000D02*
X156930000Y-114985000D01*
X156930000Y-109845000D02*
X154270000Y-109845000D01*
X156930000Y-114985000D02*
X154270000Y-114985000D01*
X156930000Y-108575000D02*
X156930000Y-107245000D01*
X154270000Y-109845000D02*
X154270000Y-114985000D01*
X156930000Y-107245000D02*
X155600000Y-107245000D01*
G36*
X149258572Y-106838555D02*
G01*
X149421198Y-106897198D01*
X149462500Y-107087500D01*
X149461445Y-107133571D01*
X149402802Y-107296197D01*
X149212500Y-107337500D01*
X149166429Y-107338555D01*
X149003803Y-107397198D01*
X148962500Y-107587500D01*
X148961445Y-107633571D01*
X148902802Y-107796197D01*
X148712500Y-107837500D01*
X148666429Y-107836444D01*
X148503803Y-107777801D01*
X148462500Y-107587500D01*
X148463556Y-107541428D01*
X148522199Y-107378802D01*
X148712500Y-107337500D01*
X148758572Y-107336444D01*
X148921198Y-107277801D01*
X148962500Y-107087500D01*
X148963556Y-107041428D01*
X149022199Y-106878802D01*
X149212500Y-106837500D01*
X149258572Y-106838555D01*
G37*
G36*
X147475926Y-107338419D02*
G01*
X147751994Y-107349841D01*
X147897028Y-107385801D01*
X147953154Y-107460339D01*
X147962500Y-107587500D01*
X147961445Y-107633571D01*
X147902802Y-107796197D01*
X147712500Y-107837500D01*
X147666429Y-107838555D01*
X147503803Y-107897198D01*
X147462500Y-108087500D01*
X147461445Y-108133571D01*
X147402802Y-108296197D01*
X147212500Y-108337500D01*
X147166429Y-108336444D01*
X147003803Y-108277801D01*
X146962500Y-108087500D01*
X146961445Y-108041428D01*
X146902802Y-107878802D01*
X146712500Y-107837500D01*
X146666429Y-107836444D01*
X146503803Y-107777801D01*
X146462500Y-107587500D01*
X146465258Y-107499691D01*
X146499526Y-107407668D01*
X146607404Y-107359324D01*
X146831019Y-107340615D01*
X147212500Y-107337500D01*
X147475926Y-107338419D01*
G37*
G36*
X145663162Y-102839868D02*
G01*
X145863559Y-102865107D01*
X145946289Y-102939127D01*
X145962500Y-103087500D01*
X145957764Y-103187830D01*
X145907285Y-103288029D01*
X145759245Y-103329394D01*
X145462500Y-103337500D01*
X145261839Y-103335131D01*
X145061442Y-103309892D01*
X144978712Y-103235872D01*
X144962500Y-103087500D01*
X144967237Y-102987169D01*
X145017716Y-102886970D01*
X145165756Y-102845605D01*
X145462500Y-102837500D01*
X145663162Y-102839868D01*
G37*
G36*
X139758572Y-102338555D02*
G01*
X139921198Y-102397198D01*
X139962500Y-102587500D01*
X139961445Y-102633571D01*
X139902802Y-102796197D01*
X139712500Y-102837500D01*
X139666429Y-102836444D01*
X139503803Y-102777801D01*
X139462500Y-102587500D01*
X139463556Y-102541428D01*
X139522199Y-102378802D01*
X139712500Y-102337500D01*
X139758572Y-102338555D01*
G37*
G36*
X140663162Y-106839868D02*
G01*
X140863559Y-106865107D01*
X140946289Y-106939127D01*
X140962500Y-107087500D01*
X140963556Y-107133571D01*
X141022199Y-107296197D01*
X141212500Y-107337500D01*
X141258572Y-107338555D01*
X141421198Y-107397198D01*
X141462500Y-107587500D01*
X141461445Y-107633571D01*
X141402802Y-107796197D01*
X141212500Y-107837500D01*
X141166429Y-107836444D01*
X141003803Y-107777801D01*
X140962500Y-107587500D01*
X140961445Y-107541428D01*
X140902802Y-107378802D01*
X140712500Y-107337500D01*
X140666429Y-107338555D01*
X140503803Y-107397198D01*
X140462500Y-107587500D01*
X140461445Y-107633571D01*
X140402802Y-107796197D01*
X140212500Y-107837500D01*
X140112170Y-107832763D01*
X140011971Y-107782284D01*
X139970606Y-107634244D01*
X139962500Y-107337500D01*
X139962500Y-106837500D01*
X140462500Y-106837500D01*
X140663162Y-106839868D01*
G37*
G36*
X150962500Y-108337500D02*
G01*
X150962500Y-107837500D01*
X151462500Y-107837500D01*
X152962500Y-107837500D01*
X152962500Y-106337500D01*
X151462500Y-106337500D01*
X151462500Y-107837500D01*
X150962500Y-107837500D01*
X150962500Y-105837500D01*
X153462500Y-105837500D01*
X153462500Y-108337500D01*
X150962500Y-108337500D01*
G37*
G36*
X149258572Y-98838555D02*
G01*
X149421198Y-98897198D01*
X149462500Y-99087500D01*
X149461445Y-99133571D01*
X149402802Y-99296197D01*
X149212500Y-99337500D01*
X149166429Y-99336444D01*
X149003803Y-99277801D01*
X148962500Y-99087500D01*
X148963556Y-99041428D01*
X149022199Y-98878802D01*
X149212500Y-98837500D01*
X149258572Y-98838555D01*
G37*
G36*
X146800309Y-103340257D02*
G01*
X146892332Y-103374525D01*
X146940676Y-103482403D01*
X146959385Y-103706018D01*
X146962500Y-104087500D01*
X146961581Y-104350925D01*
X146950159Y-104626993D01*
X146914199Y-104772027D01*
X146839661Y-104828153D01*
X146712500Y-104837500D01*
X146624692Y-104834742D01*
X146532669Y-104800474D01*
X146484325Y-104692596D01*
X146465616Y-104468981D01*
X146462500Y-104087500D01*
X146463420Y-103824074D01*
X146474842Y-103548006D01*
X146510802Y-103402972D01*
X146585340Y-103346846D01*
X146712500Y-103337500D01*
X146800309Y-103340257D01*
G37*
G36*
X147163162Y-96339868D02*
G01*
X147363559Y-96365107D01*
X147446289Y-96439127D01*
X147462500Y-96587500D01*
X147457764Y-96687830D01*
X147407285Y-96788029D01*
X147259245Y-96829394D01*
X146962500Y-96837500D01*
X146761839Y-96835131D01*
X146561442Y-96809892D01*
X146478712Y-96735872D01*
X146462500Y-96587500D01*
X146467237Y-96487169D01*
X146517716Y-96386970D01*
X146665756Y-96345605D01*
X146962500Y-96337500D01*
X147163162Y-96339868D01*
G37*
G36*
X150962500Y-95337500D02*
G01*
X150962500Y-94837500D01*
X151462500Y-94837500D01*
X152962500Y-94837500D01*
X152962500Y-93337500D01*
X151462500Y-93337500D01*
X151462500Y-94837500D01*
X150962500Y-94837500D01*
X150962500Y-92837500D01*
X153462500Y-92837500D01*
X153462500Y-95337500D01*
X150962500Y-95337500D01*
G37*
G36*
X141758572Y-103838555D02*
G01*
X141921198Y-103897198D01*
X141962500Y-104087500D01*
X141961445Y-104133571D01*
X141902802Y-104296197D01*
X141712500Y-104337500D01*
X141666429Y-104336444D01*
X141503803Y-104277801D01*
X141462500Y-104087500D01*
X141463556Y-104041428D01*
X141522199Y-103878802D01*
X141712500Y-103837500D01*
X141758572Y-103838555D01*
G37*
G36*
X140758572Y-99838555D02*
G01*
X140921198Y-99897198D01*
X140962500Y-100087500D01*
X140961445Y-100133571D01*
X140902802Y-100296197D01*
X140712500Y-100337500D01*
X140666429Y-100336444D01*
X140503803Y-100277801D01*
X140462500Y-100087500D01*
X140463556Y-100041428D01*
X140522199Y-99878802D01*
X140712500Y-99837500D01*
X140758572Y-99838555D01*
G37*
G36*
X142902802Y-101796197D02*
G01*
X142712500Y-101837500D01*
X142666429Y-101838555D01*
X142503803Y-101897198D01*
X142462500Y-102087500D01*
X142463556Y-102133571D01*
X142522199Y-102296197D01*
X142712500Y-102337500D01*
X142758572Y-102338555D01*
X142921198Y-102397198D01*
X142962500Y-102587500D01*
X142957764Y-102687830D01*
X142907285Y-102788029D01*
X142759245Y-102829394D01*
X142462500Y-102837500D01*
X142261839Y-102839868D01*
X142061442Y-102865107D01*
X141978712Y-102939127D01*
X141962500Y-103087500D01*
X141957764Y-103187830D01*
X141907285Y-103288029D01*
X141759245Y-103329394D01*
X141462500Y-103337500D01*
X140962500Y-103337500D01*
X140962500Y-104337500D01*
X139962500Y-104337500D01*
X139962500Y-103837500D01*
X139964869Y-103636838D01*
X139990108Y-103436441D01*
X140064128Y-103353711D01*
X140212500Y-103337500D01*
X140312831Y-103332763D01*
X140413030Y-103282284D01*
X140454395Y-103134244D01*
X140462500Y-102837500D01*
X140464869Y-102636838D01*
X140490108Y-102436441D01*
X140564128Y-102353711D01*
X140712500Y-102337500D01*
X140758572Y-102338555D01*
X140921198Y-102397198D01*
X140962500Y-102587500D01*
X140967237Y-102687830D01*
X141017716Y-102788029D01*
X141165756Y-102829394D01*
X141462500Y-102837500D01*
X141962500Y-102837500D01*
X141962500Y-101837500D01*
X137962500Y-101837500D01*
X137962500Y-101587500D01*
X141962500Y-101587500D01*
X141963556Y-101633571D01*
X142022199Y-101796197D01*
X142212500Y-101837500D01*
X142258572Y-101836444D01*
X142421198Y-101777801D01*
X142462500Y-101587500D01*
X142461445Y-101541428D01*
X142402802Y-101378802D01*
X142212500Y-101337500D01*
X142166429Y-101338555D01*
X142003803Y-101397198D01*
X141962500Y-101587500D01*
X137962500Y-101587500D01*
X137963556Y-101541428D01*
X138022199Y-101378802D01*
X138212500Y-101337500D01*
X138312831Y-101332763D01*
X138413030Y-101282284D01*
X138454395Y-101134244D01*
X138462500Y-100837500D01*
X138464869Y-100636838D01*
X138471083Y-100587500D01*
X138962500Y-100587500D01*
X138963556Y-100633571D01*
X139022199Y-100796197D01*
X139212500Y-100837500D01*
X139258572Y-100838555D01*
X139421198Y-100897198D01*
X139462500Y-101087500D01*
X139465258Y-101175308D01*
X139499526Y-101267331D01*
X139607404Y-101315675D01*
X139831019Y-101334384D01*
X140212500Y-101337500D01*
X140475926Y-101336580D01*
X140751994Y-101325158D01*
X140897028Y-101289198D01*
X140953154Y-101214660D01*
X140962500Y-101087500D01*
X140963556Y-101041428D01*
X141022199Y-100878802D01*
X141212500Y-100837500D01*
X141258572Y-100836444D01*
X141421198Y-100777801D01*
X141462500Y-100587500D01*
X141463556Y-100541428D01*
X141522199Y-100378802D01*
X141712500Y-100337500D01*
X141758572Y-100336444D01*
X141921198Y-100277801D01*
X141962500Y-100087500D01*
X141957764Y-99987169D01*
X141907285Y-99886970D01*
X141759245Y-99845605D01*
X141462500Y-99837500D01*
X141261839Y-99835131D01*
X141061442Y-99809892D01*
X140978712Y-99735872D01*
X140962500Y-99587500D01*
X140961445Y-99541428D01*
X140902802Y-99378802D01*
X140712500Y-99337500D01*
X140666429Y-99336444D01*
X140503803Y-99277801D01*
X140462500Y-99087500D01*
X140461445Y-99041428D01*
X140402802Y-98878802D01*
X140212500Y-98837500D01*
X140124692Y-98840257D01*
X140032669Y-98874525D01*
X139984325Y-98982403D01*
X139965616Y-99206018D01*
X139962500Y-99587500D01*
X139962500Y-100337500D01*
X139462500Y-100337500D01*
X139261839Y-100339868D01*
X139061442Y-100365107D01*
X138978712Y-100439127D01*
X138962500Y-100587500D01*
X138471083Y-100587500D01*
X138490108Y-100436441D01*
X138564128Y-100353711D01*
X138712500Y-100337500D01*
X138758572Y-100336444D01*
X138921198Y-100277801D01*
X138962500Y-100087500D01*
X138963556Y-100041428D01*
X139022199Y-99878802D01*
X139212500Y-99837500D01*
X139300309Y-99834742D01*
X139392332Y-99800474D01*
X139440676Y-99692596D01*
X139459385Y-99468981D01*
X139462500Y-99087500D01*
X139462500Y-98337500D01*
X139962500Y-98337500D01*
X140163162Y-98339868D01*
X140363559Y-98365107D01*
X140446289Y-98439127D01*
X140462500Y-98587500D01*
X140463556Y-98633571D01*
X140522199Y-98796197D01*
X140712500Y-98837500D01*
X140800309Y-98834742D01*
X140892332Y-98800474D01*
X140940676Y-98692596D01*
X140959385Y-98468981D01*
X140962500Y-98087500D01*
X140961581Y-97824074D01*
X140950159Y-97548006D01*
X140914199Y-97402972D01*
X140839661Y-97346846D01*
X140712500Y-97337500D01*
X140666429Y-97336444D01*
X140503803Y-97277801D01*
X140462500Y-97087500D01*
X140463556Y-97041428D01*
X140522199Y-96878802D01*
X140712500Y-96837500D01*
X140758572Y-96838555D01*
X140921198Y-96897198D01*
X140962500Y-97087500D01*
X140967237Y-97187830D01*
X141017716Y-97288029D01*
X141165756Y-97329394D01*
X141462500Y-97337500D01*
X141663162Y-97339868D01*
X141863559Y-97365107D01*
X141946289Y-97439127D01*
X141962500Y-97587500D01*
X141961445Y-97633571D01*
X141902802Y-97796197D01*
X141712500Y-97837500D01*
X141666429Y-97838555D01*
X141503803Y-97897198D01*
X141462500Y-98087500D01*
X141463556Y-98133571D01*
X141522199Y-98296197D01*
X141712500Y-98337500D01*
X141758572Y-98338555D01*
X141921198Y-98397198D01*
X141962500Y-98587500D01*
X141957764Y-98687830D01*
X141907285Y-98788029D01*
X141759245Y-98829394D01*
X141462500Y-98837500D01*
X141261839Y-98839868D01*
X141061442Y-98865107D01*
X140978712Y-98939127D01*
X140962500Y-99087500D01*
X140962500Y-99337500D01*
X142962500Y-99337500D01*
X142962500Y-99587500D01*
X142963556Y-99633571D01*
X143022199Y-99796197D01*
X143212500Y-99837500D01*
X143312831Y-99842236D01*
X143413030Y-99892715D01*
X143454395Y-100040755D01*
X143455672Y-100087500D01*
X143462500Y-100337500D01*
X143462500Y-100837500D01*
X142962500Y-100837500D01*
X142761839Y-100839868D01*
X142561442Y-100865107D01*
X142478712Y-100939127D01*
X142462500Y-101087500D01*
X142463556Y-101133571D01*
X142522199Y-101296197D01*
X142712500Y-101337500D01*
X142758572Y-101338555D01*
X142921198Y-101397198D01*
X142962500Y-101587500D01*
X142961445Y-101633571D01*
X142902802Y-101796197D01*
G37*
G36*
X147758572Y-100838555D02*
G01*
X147921198Y-100897198D01*
X147962500Y-101087500D01*
X147961445Y-101133571D01*
X147902802Y-101296197D01*
X147712500Y-101337500D01*
X147666429Y-101336444D01*
X147503803Y-101277801D01*
X147462500Y-101087500D01*
X147463556Y-101041428D01*
X147522199Y-100878802D01*
X147712500Y-100837500D01*
X147758572Y-100838555D01*
G37*
G36*
X146758572Y-105338555D02*
G01*
X146921198Y-105397198D01*
X146962500Y-105587500D01*
X146967237Y-105687830D01*
X147017716Y-105788029D01*
X147165756Y-105829394D01*
X147462500Y-105837500D01*
X147663162Y-105839868D01*
X147863559Y-105865107D01*
X147946289Y-105939127D01*
X147962500Y-106087500D01*
X147963556Y-106133571D01*
X148022199Y-106296197D01*
X148212500Y-106337500D01*
X148258572Y-106338555D01*
X148421198Y-106397198D01*
X148462500Y-106587500D01*
X148459743Y-106675308D01*
X148425475Y-106767331D01*
X148317597Y-106815675D01*
X148093982Y-106834384D01*
X147712500Y-106837500D01*
X147449075Y-106836580D01*
X147173007Y-106825158D01*
X147027973Y-106789198D01*
X146971847Y-106714660D01*
X146962500Y-106587500D01*
X146957764Y-106487169D01*
X146907285Y-106386970D01*
X146759245Y-106345605D01*
X146462500Y-106337500D01*
X146261839Y-106335131D01*
X146061442Y-106309892D01*
X145978712Y-106235872D01*
X145962500Y-106087500D01*
X145961445Y-106041428D01*
X145902802Y-105878802D01*
X145712500Y-105837500D01*
X145666429Y-105836444D01*
X145503803Y-105777801D01*
X145462500Y-105587500D01*
X145463556Y-105541428D01*
X145522199Y-105378802D01*
X145712500Y-105337500D01*
X145758572Y-105338555D01*
X145921198Y-105397198D01*
X145962500Y-105587500D01*
X145963556Y-105633571D01*
X146022199Y-105796197D01*
X146212500Y-105837500D01*
X146258572Y-105836444D01*
X146421198Y-105777801D01*
X146462500Y-105587500D01*
X146463556Y-105541428D01*
X146522199Y-105378802D01*
X146712500Y-105337500D01*
X146758572Y-105338555D01*
G37*
G36*
X150522199Y-97796197D02*
G01*
X150712500Y-97837500D01*
X150758572Y-97838555D01*
X150921198Y-97897198D01*
X150962500Y-98087500D01*
X150967237Y-98187830D01*
X151017716Y-98288029D01*
X151165756Y-98329394D01*
X151462500Y-98337500D01*
X151962500Y-98337500D01*
X151962500Y-97837500D01*
X151964869Y-97636838D01*
X151990108Y-97436441D01*
X152064128Y-97353711D01*
X152212500Y-97337500D01*
X152258572Y-97338555D01*
X152421198Y-97397198D01*
X152462500Y-97587500D01*
X152463556Y-97633571D01*
X152522199Y-97796197D01*
X152712500Y-97837500D01*
X152758572Y-97838555D01*
X152921198Y-97897198D01*
X152962500Y-98087500D01*
X152963556Y-98133571D01*
X153022199Y-98296197D01*
X153212500Y-98337500D01*
X153258572Y-98338555D01*
X153421198Y-98397198D01*
X153462500Y-98587500D01*
X153461445Y-98633571D01*
X153402802Y-98796197D01*
X153212500Y-98837500D01*
X153166429Y-98838555D01*
X153003803Y-98897198D01*
X152962500Y-99087500D01*
X152961445Y-99133571D01*
X152902802Y-99296197D01*
X152712500Y-99337500D01*
X152666429Y-99338555D01*
X152503803Y-99397198D01*
X152462500Y-99587500D01*
X152461445Y-99633571D01*
X152402802Y-99796197D01*
X152212500Y-99837500D01*
X152166429Y-99838555D01*
X152003803Y-99897198D01*
X151962500Y-100087500D01*
X151959743Y-100175308D01*
X151925475Y-100267331D01*
X151817597Y-100315675D01*
X151593982Y-100334384D01*
X151212500Y-100337500D01*
X150949075Y-100336580D01*
X150673007Y-100325158D01*
X150527973Y-100289198D01*
X150471847Y-100214660D01*
X150462500Y-100087500D01*
X150461445Y-100041428D01*
X150402802Y-99878802D01*
X150212500Y-99837500D01*
X150124692Y-99840257D01*
X150032669Y-99874525D01*
X149984325Y-99982403D01*
X149965616Y-100206018D01*
X149962500Y-100587500D01*
X149962500Y-101337500D01*
X149212500Y-101337500D01*
X148949075Y-101338419D01*
X148673007Y-101349841D01*
X148527973Y-101385801D01*
X148471847Y-101460339D01*
X148462500Y-101587500D01*
X148467237Y-101687830D01*
X148517716Y-101788029D01*
X148665756Y-101829394D01*
X148962500Y-101837500D01*
X149163162Y-101839868D01*
X149363559Y-101865107D01*
X149446289Y-101939127D01*
X149462500Y-102087500D01*
X149463556Y-102133571D01*
X149522199Y-102296197D01*
X149712500Y-102337500D01*
X149758572Y-102336444D01*
X149921198Y-102277801D01*
X149962500Y-102087500D01*
X149967237Y-101987169D01*
X150017716Y-101886970D01*
X150165756Y-101845605D01*
X150462500Y-101837500D01*
X150663162Y-101835131D01*
X150863559Y-101809892D01*
X150946289Y-101735872D01*
X150962500Y-101587500D01*
X150961445Y-101541428D01*
X150902802Y-101378802D01*
X150712500Y-101337500D01*
X150666429Y-101336444D01*
X150503803Y-101277801D01*
X150462500Y-101087500D01*
X150467237Y-100987169D01*
X150517716Y-100886970D01*
X150665756Y-100845605D01*
X150962500Y-100837500D01*
X151163162Y-100839868D01*
X151363559Y-100865107D01*
X151446289Y-100939127D01*
X151462500Y-101087500D01*
X151463556Y-101133571D01*
X151522199Y-101296197D01*
X151712500Y-101337500D01*
X151758572Y-101336444D01*
X151921198Y-101277801D01*
X151962500Y-101087500D01*
X151963556Y-101041428D01*
X152022199Y-100878802D01*
X152212500Y-100837500D01*
X152258572Y-100838555D01*
X152421198Y-100897198D01*
X152462500Y-101087500D01*
X152461445Y-101133571D01*
X152402802Y-101296197D01*
X152212500Y-101337500D01*
X152166429Y-101338555D01*
X152003803Y-101397198D01*
X151962500Y-101587500D01*
X151963556Y-101633571D01*
X152022199Y-101796197D01*
X152212500Y-101837500D01*
X152312831Y-101842236D01*
X152413030Y-101892715D01*
X152454395Y-102040755D01*
X152462500Y-102337500D01*
X152464869Y-102538161D01*
X152490108Y-102738558D01*
X152564128Y-102821288D01*
X152712500Y-102837500D01*
X152758572Y-102836444D01*
X152921198Y-102777801D01*
X152962500Y-102587500D01*
X152963556Y-102541428D01*
X153022199Y-102378802D01*
X153212500Y-102337500D01*
X153258572Y-102338555D01*
X153421198Y-102397198D01*
X153462500Y-102587500D01*
X153461445Y-102633571D01*
X153402802Y-102796197D01*
X153212500Y-102837500D01*
X153166429Y-102838555D01*
X153003803Y-102897198D01*
X152962500Y-103087500D01*
X152963556Y-103133571D01*
X153022199Y-103296197D01*
X153212500Y-103337500D01*
X153312831Y-103342236D01*
X153413030Y-103392715D01*
X153454395Y-103540755D01*
X153462500Y-103837500D01*
X153460132Y-104038161D01*
X153434893Y-104238558D01*
X153360873Y-104321288D01*
X153212500Y-104337500D01*
X153166429Y-104336444D01*
X153003803Y-104277801D01*
X152962500Y-104087500D01*
X152961445Y-104041428D01*
X152902802Y-103878802D01*
X152712500Y-103837500D01*
X152612170Y-103832763D01*
X152511971Y-103782284D01*
X152470606Y-103634244D01*
X152462500Y-103337500D01*
X152462500Y-102837500D01*
X151462500Y-102837500D01*
X151462500Y-102337500D01*
X151460132Y-102136838D01*
X151434893Y-101936441D01*
X151360873Y-101853711D01*
X151212500Y-101837500D01*
X151166429Y-101838555D01*
X151003803Y-101897198D01*
X150962500Y-102087500D01*
X150957764Y-102187830D01*
X150907285Y-102288029D01*
X150759245Y-102329394D01*
X150462500Y-102337500D01*
X150261839Y-102339868D01*
X150061442Y-102365107D01*
X149978712Y-102439127D01*
X149962500Y-102587500D01*
X149961445Y-102633571D01*
X149902802Y-102796197D01*
X149712500Y-102837500D01*
X149666429Y-102838555D01*
X149503803Y-102897198D01*
X149462500Y-103087500D01*
X149461445Y-103133571D01*
X149402802Y-103296197D01*
X149212500Y-103337500D01*
X149166429Y-103336444D01*
X149003803Y-103277801D01*
X148962500Y-103087500D01*
X148961445Y-103041428D01*
X148902802Y-102878802D01*
X148712500Y-102837500D01*
X148666429Y-102838555D01*
X148503803Y-102897198D01*
X148462500Y-103087500D01*
X148461445Y-103133571D01*
X148402802Y-103296197D01*
X148212500Y-103337500D01*
X148166429Y-103338555D01*
X148003803Y-103397198D01*
X147962500Y-103587500D01*
X147961445Y-103633571D01*
X147902802Y-103796197D01*
X147712500Y-103837500D01*
X147666429Y-103836444D01*
X147503803Y-103777801D01*
X147462500Y-103587500D01*
X147463556Y-103541428D01*
X147522199Y-103378802D01*
X147712500Y-103337500D01*
X147758572Y-103336444D01*
X147921198Y-103277801D01*
X147962500Y-103087500D01*
X147961445Y-103041428D01*
X147902802Y-102878802D01*
X147712500Y-102837500D01*
X147612170Y-102832763D01*
X147511971Y-102782284D01*
X147470606Y-102634244D01*
X147462500Y-102337500D01*
X147460132Y-102136838D01*
X147434893Y-101936441D01*
X147360873Y-101853711D01*
X147212500Y-101837500D01*
X147166429Y-101836444D01*
X147003803Y-101777801D01*
X146962500Y-101587500D01*
X146961445Y-101541428D01*
X146902802Y-101378802D01*
X146712500Y-101337500D01*
X146666429Y-101336444D01*
X146503803Y-101277801D01*
X146462500Y-101087500D01*
X146962500Y-101087500D01*
X146963556Y-101133571D01*
X147022199Y-101296197D01*
X147212500Y-101337500D01*
X147258572Y-101338555D01*
X147421198Y-101397198D01*
X147462500Y-101587500D01*
X147463556Y-101633571D01*
X147522199Y-101796197D01*
X147712500Y-101837500D01*
X147812831Y-101842236D01*
X147913030Y-101892715D01*
X147954395Y-102040755D01*
X147962500Y-102337500D01*
X147964869Y-102538161D01*
X147990108Y-102738558D01*
X148064128Y-102821288D01*
X148212500Y-102837500D01*
X148312831Y-102832763D01*
X148413030Y-102782284D01*
X148454395Y-102634244D01*
X148455672Y-102587500D01*
X148962500Y-102587500D01*
X148963556Y-102633571D01*
X149022199Y-102796197D01*
X149212500Y-102837500D01*
X149258572Y-102836444D01*
X149421198Y-102777801D01*
X149462500Y-102587500D01*
X149461445Y-102541428D01*
X149402802Y-102378802D01*
X149212500Y-102337500D01*
X149166429Y-102338555D01*
X149003803Y-102397198D01*
X148962500Y-102587500D01*
X148455672Y-102587500D01*
X148462500Y-102337500D01*
X148460132Y-102136838D01*
X148434893Y-101936441D01*
X148360873Y-101853711D01*
X148212500Y-101837500D01*
X148166429Y-101836444D01*
X148003803Y-101777801D01*
X147962500Y-101587500D01*
X147963556Y-101541428D01*
X148022199Y-101378802D01*
X148212500Y-101337500D01*
X148258572Y-101336444D01*
X148421198Y-101277801D01*
X148462500Y-101087500D01*
X148467237Y-100987169D01*
X148517716Y-100886970D01*
X148665756Y-100845605D01*
X148962500Y-100837500D01*
X149163162Y-100835131D01*
X149363559Y-100809892D01*
X149446289Y-100735872D01*
X149462500Y-100587500D01*
X149459743Y-100499691D01*
X149425475Y-100407668D01*
X149317597Y-100359324D01*
X149093982Y-100340615D01*
X148712500Y-100337500D01*
X148449075Y-100336580D01*
X148173007Y-100325158D01*
X148027973Y-100289198D01*
X147971847Y-100214660D01*
X147962500Y-100087500D01*
X147961445Y-100041428D01*
X147902802Y-99878802D01*
X147712500Y-99837500D01*
X147612170Y-99842236D01*
X147511971Y-99892715D01*
X147470606Y-100040755D01*
X147462500Y-100337500D01*
X147460132Y-100538161D01*
X147434893Y-100738558D01*
X147360873Y-100821288D01*
X147212500Y-100837500D01*
X147166429Y-100838555D01*
X147003803Y-100897198D01*
X146962500Y-101087500D01*
X146462500Y-101087500D01*
X146463556Y-101041428D01*
X146522199Y-100878802D01*
X146712500Y-100837500D01*
X146812831Y-100832763D01*
X146913030Y-100782284D01*
X146954395Y-100634244D01*
X146962500Y-100337500D01*
X146964869Y-100136838D01*
X146990108Y-99936441D01*
X147064128Y-99853711D01*
X147212500Y-99837500D01*
X147258572Y-99836444D01*
X147421198Y-99777801D01*
X147462500Y-99587500D01*
X147463556Y-99541428D01*
X147522199Y-99378802D01*
X147712500Y-99337500D01*
X147758572Y-99336444D01*
X147921198Y-99277801D01*
X147962500Y-99087500D01*
X147957764Y-98987169D01*
X147907285Y-98886970D01*
X147759245Y-98845605D01*
X147462500Y-98837500D01*
X148462500Y-98837500D01*
X148464869Y-99038161D01*
X148490108Y-99238558D01*
X148564128Y-99321288D01*
X148712500Y-99337500D01*
X148758572Y-99338555D01*
X148921198Y-99397198D01*
X148962500Y-99587500D01*
X148967237Y-99687830D01*
X149017716Y-99788029D01*
X149165756Y-99829394D01*
X149462500Y-99837500D01*
X149962500Y-99837500D01*
X149962500Y-98837500D01*
X150462500Y-98837500D01*
X150663162Y-98839868D01*
X150863559Y-98865107D01*
X150946289Y-98939127D01*
X150962500Y-99087500D01*
X150961445Y-99133571D01*
X150902802Y-99296197D01*
X150712500Y-99337500D01*
X150666429Y-99338555D01*
X150503803Y-99397198D01*
X150462500Y-99587500D01*
X150463556Y-99633571D01*
X150522199Y-99796197D01*
X150712500Y-99837500D01*
X150758572Y-99836444D01*
X150921198Y-99777801D01*
X150962500Y-99587500D01*
X150963556Y-99541428D01*
X151022199Y-99378802D01*
X151212500Y-99337500D01*
X151258572Y-99338555D01*
X151421198Y-99397198D01*
X151462500Y-99587500D01*
X151463556Y-99633571D01*
X151522199Y-99796197D01*
X151712500Y-99837500D01*
X151812831Y-99832763D01*
X151913030Y-99782284D01*
X151954395Y-99634244D01*
X151962500Y-99337500D01*
X151962500Y-98837500D01*
X151462500Y-98837500D01*
X151261839Y-98835131D01*
X151061442Y-98809892D01*
X150978712Y-98735872D01*
X150962500Y-98587500D01*
X152462500Y-98587500D01*
X152463556Y-98633571D01*
X152522199Y-98796197D01*
X152712500Y-98837500D01*
X152758572Y-98836444D01*
X152921198Y-98777801D01*
X152962500Y-98587500D01*
X152961445Y-98541428D01*
X152902802Y-98378802D01*
X152712500Y-98337500D01*
X152666429Y-98338555D01*
X152503803Y-98397198D01*
X152462500Y-98587500D01*
X150962500Y-98587500D01*
X150957764Y-98487169D01*
X150907285Y-98386970D01*
X150759245Y-98345605D01*
X150462500Y-98337500D01*
X150261839Y-98339868D01*
X150061442Y-98365107D01*
X149978712Y-98439127D01*
X149962500Y-98587500D01*
X149961445Y-98633571D01*
X149902802Y-98796197D01*
X149712500Y-98837500D01*
X149666429Y-98836444D01*
X149503803Y-98777801D01*
X149462500Y-98587500D01*
X149457764Y-98487169D01*
X149407285Y-98386970D01*
X149259245Y-98345605D01*
X148962500Y-98337500D01*
X148462500Y-98337500D01*
X148462500Y-98837500D01*
X147462500Y-98837500D01*
X147261839Y-98839868D01*
X147061442Y-98865107D01*
X146978712Y-98939127D01*
X146962500Y-99087500D01*
X146961445Y-99133571D01*
X146902802Y-99296197D01*
X146712500Y-99337500D01*
X146666429Y-99336444D01*
X146503803Y-99277801D01*
X146462500Y-99087500D01*
X146461445Y-99041428D01*
X146402802Y-98878802D01*
X146212500Y-98837500D01*
X146166429Y-98836444D01*
X146003803Y-98777801D01*
X145962500Y-98587500D01*
X146462500Y-98587500D01*
X146463556Y-98633571D01*
X146522199Y-98796197D01*
X146712500Y-98837500D01*
X146758572Y-98836444D01*
X146921198Y-98777801D01*
X146962500Y-98587500D01*
X146961445Y-98541428D01*
X146902802Y-98378802D01*
X146712500Y-98337500D01*
X146666429Y-98338555D01*
X146503803Y-98397198D01*
X146462500Y-98587500D01*
X145962500Y-98587500D01*
X145961445Y-98541428D01*
X145902802Y-98378802D01*
X145712500Y-98337500D01*
X145462500Y-98337500D01*
X145462500Y-96337500D01*
X145212500Y-96337500D01*
X145166429Y-96338555D01*
X145003803Y-96397198D01*
X144962500Y-96587500D01*
X144961445Y-96633571D01*
X144902802Y-96796197D01*
X144712500Y-96837500D01*
X144666429Y-96836444D01*
X144503803Y-96777801D01*
X144462500Y-96587500D01*
X144463556Y-96541428D01*
X144522199Y-96378802D01*
X144712500Y-96337500D01*
X144812831Y-96332763D01*
X144913030Y-96282284D01*
X144954395Y-96134244D01*
X144962500Y-95837500D01*
X144960132Y-95636838D01*
X144953918Y-95587500D01*
X145462500Y-95587500D01*
X145463420Y-95850925D01*
X145474842Y-96126993D01*
X145510802Y-96272027D01*
X145585340Y-96328153D01*
X145712500Y-96337500D01*
X145800309Y-96340257D01*
X145892332Y-96374525D01*
X145940676Y-96482403D01*
X145959385Y-96706018D01*
X145962500Y-97087500D01*
X145963420Y-97350925D01*
X145974842Y-97626993D01*
X146010802Y-97772027D01*
X146085340Y-97828153D01*
X146212500Y-97837500D01*
X146258572Y-97836444D01*
X146421198Y-97777801D01*
X146462500Y-97587500D01*
X146463556Y-97541428D01*
X146522199Y-97378802D01*
X146712500Y-97337500D01*
X146758572Y-97338555D01*
X146921198Y-97397198D01*
X146962500Y-97587500D01*
X146967237Y-97687830D01*
X147017716Y-97788029D01*
X147165756Y-97829394D01*
X147462500Y-97837500D01*
X147663162Y-97835131D01*
X147863559Y-97809892D01*
X147946289Y-97735872D01*
X147962500Y-97587500D01*
X147961445Y-97541428D01*
X147902802Y-97378802D01*
X147712500Y-97337500D01*
X147666429Y-97336444D01*
X147503803Y-97277801D01*
X147462500Y-97087500D01*
X148462500Y-97087500D01*
X148463556Y-97133571D01*
X148522199Y-97296197D01*
X148712500Y-97337500D01*
X148758572Y-97338555D01*
X148921198Y-97397198D01*
X148962500Y-97587500D01*
X148963556Y-97633571D01*
X149022199Y-97796197D01*
X149212500Y-97837500D01*
X149258572Y-97836444D01*
X149421198Y-97777801D01*
X149462500Y-97587500D01*
X149461445Y-97541428D01*
X149402802Y-97378802D01*
X149212500Y-97337500D01*
X149166429Y-97336444D01*
X149003803Y-97277801D01*
X148962500Y-97087500D01*
X148961445Y-97041428D01*
X148902802Y-96878802D01*
X148712500Y-96837500D01*
X148666429Y-96838555D01*
X148503803Y-96897198D01*
X148462500Y-97087500D01*
X147462500Y-97087500D01*
X147463556Y-97041428D01*
X147522199Y-96878802D01*
X147712500Y-96837500D01*
X147800309Y-96834742D01*
X147892332Y-96800474D01*
X147940676Y-96692596D01*
X147959385Y-96468981D01*
X147962500Y-96087500D01*
X147961581Y-95824074D01*
X147951793Y-95587500D01*
X148462500Y-95587500D01*
X148463556Y-95633571D01*
X148522199Y-95796197D01*
X148712500Y-95837500D01*
X148758572Y-95836444D01*
X148921198Y-95777801D01*
X148962500Y-95587500D01*
X148961445Y-95541428D01*
X148902802Y-95378802D01*
X148712500Y-95337500D01*
X148666429Y-95338555D01*
X148503803Y-95397198D01*
X148462500Y-95587500D01*
X147951793Y-95587500D01*
X147950159Y-95548006D01*
X147914199Y-95402972D01*
X147839661Y-95346846D01*
X147712500Y-95337500D01*
X147666429Y-95338555D01*
X147503803Y-95397198D01*
X147462500Y-95587500D01*
X147461445Y-95633571D01*
X147402802Y-95796197D01*
X147212500Y-95837500D01*
X147166429Y-95836444D01*
X147003803Y-95777801D01*
X146962500Y-95587500D01*
X146961445Y-95541428D01*
X146902802Y-95378802D01*
X146712500Y-95337500D01*
X146612170Y-95342236D01*
X146511971Y-95392715D01*
X146470606Y-95540755D01*
X146462500Y-95837500D01*
X146460132Y-96038161D01*
X146434893Y-96238558D01*
X146360873Y-96321288D01*
X146212500Y-96337500D01*
X146124692Y-96334742D01*
X146032669Y-96300474D01*
X145984325Y-96192596D01*
X145965616Y-95968981D01*
X145962500Y-95587500D01*
X145961581Y-95324074D01*
X145950159Y-95048006D01*
X145914199Y-94902972D01*
X145839661Y-94846846D01*
X145712500Y-94837500D01*
X145624692Y-94840257D01*
X145532669Y-94874525D01*
X145484325Y-94982403D01*
X145465616Y-95206018D01*
X145462500Y-95587500D01*
X144953918Y-95587500D01*
X144934893Y-95436441D01*
X144860873Y-95353711D01*
X144712500Y-95337500D01*
X144666429Y-95338555D01*
X144503803Y-95397198D01*
X144462500Y-95587500D01*
X144461445Y-95633571D01*
X144402802Y-95796197D01*
X144212500Y-95837500D01*
X144112170Y-95832763D01*
X144011971Y-95782284D01*
X143970606Y-95634244D01*
X143962500Y-95337500D01*
X143960132Y-95136838D01*
X143934893Y-94936441D01*
X143860873Y-94853711D01*
X143712500Y-94837500D01*
X143624692Y-94834742D01*
X143532669Y-94800474D01*
X143484325Y-94692596D01*
X143465616Y-94468981D01*
X143462500Y-94087500D01*
X143461581Y-93824074D01*
X143450159Y-93548006D01*
X143414199Y-93402972D01*
X143339661Y-93346846D01*
X143212500Y-93337500D01*
X143166429Y-93336444D01*
X143003803Y-93277801D01*
X142962500Y-93087500D01*
X142963556Y-93041428D01*
X143022199Y-92878802D01*
X143212500Y-92837500D01*
X143258572Y-92838555D01*
X143421198Y-92897198D01*
X143462500Y-93087500D01*
X143467237Y-93187830D01*
X143517716Y-93288029D01*
X143665756Y-93329394D01*
X143962500Y-93337500D01*
X144462500Y-93337500D01*
X144462500Y-93837500D01*
X144460132Y-94038161D01*
X144434893Y-94238558D01*
X144360873Y-94321288D01*
X144212500Y-94337500D01*
X144166429Y-94338555D01*
X144003803Y-94397198D01*
X143962500Y-94587500D01*
X143967237Y-94687830D01*
X144017716Y-94788029D01*
X144165756Y-94829394D01*
X144462500Y-94837500D01*
X144663162Y-94835131D01*
X144863559Y-94809892D01*
X144946289Y-94735872D01*
X144962500Y-94587500D01*
X144962500Y-94337500D01*
X147462500Y-94337500D01*
X147462500Y-93837500D01*
X147464869Y-93636838D01*
X147490108Y-93436441D01*
X147564128Y-93353711D01*
X147712500Y-93337500D01*
X147812831Y-93342236D01*
X147913030Y-93392715D01*
X147954395Y-93540755D01*
X147962500Y-93837500D01*
X147960132Y-94038161D01*
X147934893Y-94238558D01*
X147860873Y-94321288D01*
X147712500Y-94337500D01*
X147666429Y-94338555D01*
X147503803Y-94397198D01*
X147462500Y-94587500D01*
X147463556Y-94633571D01*
X147522199Y-94796197D01*
X147712500Y-94837500D01*
X147758572Y-94838555D01*
X147921198Y-94897198D01*
X147962500Y-95087500D01*
X147963556Y-95133571D01*
X148022199Y-95296197D01*
X148212500Y-95337500D01*
X148258572Y-95336444D01*
X148421198Y-95277801D01*
X148462500Y-95087500D01*
X148463556Y-95041428D01*
X148522199Y-94878802D01*
X148712500Y-94837500D01*
X148758572Y-94838555D01*
X148921198Y-94897198D01*
X148962500Y-95087500D01*
X148963556Y-95133571D01*
X149022199Y-95296197D01*
X149212500Y-95337500D01*
X149258572Y-95338555D01*
X149421198Y-95397198D01*
X149462500Y-95587500D01*
X149461445Y-95633571D01*
X149402802Y-95796197D01*
X149212500Y-95837500D01*
X149112170Y-95842236D01*
X149011971Y-95892715D01*
X148970606Y-96040755D01*
X148962500Y-96337500D01*
X148964869Y-96538161D01*
X148990108Y-96738558D01*
X149064128Y-96821288D01*
X149212500Y-96837500D01*
X149258572Y-96838555D01*
X149421198Y-96897198D01*
X149462500Y-97087500D01*
X149467237Y-97187830D01*
X149517716Y-97288029D01*
X149665756Y-97329394D01*
X149962500Y-97337500D01*
X150163162Y-97339868D01*
X150363559Y-97365107D01*
X150446289Y-97439127D01*
X150462500Y-97587500D01*
X150463556Y-97633571D01*
X150522199Y-97796197D01*
G37*
G36*
X139962500Y-106337500D02*
G01*
X139962500Y-105587500D01*
X140462500Y-105587500D01*
X140463556Y-105633571D01*
X140522199Y-105796197D01*
X140712500Y-105837500D01*
X140758572Y-105836444D01*
X140921198Y-105777801D01*
X140962500Y-105587500D01*
X140961445Y-105541428D01*
X140902802Y-105378802D01*
X140712500Y-105337500D01*
X140666429Y-105338555D01*
X140503803Y-105397198D01*
X140462500Y-105587500D01*
X139962500Y-105587500D01*
X139962500Y-104837500D01*
X141462500Y-104837500D01*
X141462500Y-106337500D01*
X139962500Y-106337500D01*
G37*
G36*
X139758572Y-97338555D02*
G01*
X139921198Y-97397198D01*
X139962500Y-97587500D01*
X139961445Y-97633571D01*
X139902802Y-97796197D01*
X139712500Y-97837500D01*
X139666429Y-97836444D01*
X139503803Y-97777801D01*
X139462500Y-97587500D01*
X139463556Y-97541428D01*
X139522199Y-97378802D01*
X139712500Y-97337500D01*
X139758572Y-97338555D01*
G37*
G36*
X136962500Y-109337500D02*
G01*
X136962500Y-106337500D01*
X137462500Y-106337500D01*
X137464869Y-106538161D01*
X137490108Y-106738558D01*
X137564128Y-106821288D01*
X137712500Y-106837500D01*
X137812831Y-106832763D01*
X137913030Y-106782284D01*
X137954395Y-106634244D01*
X137962500Y-106337500D01*
X137960132Y-106136838D01*
X137934893Y-105936441D01*
X137860873Y-105853711D01*
X137712500Y-105837500D01*
X137612170Y-105842236D01*
X137511971Y-105892715D01*
X137470606Y-106040755D01*
X137462500Y-106337500D01*
X136962500Y-106337500D01*
X136962500Y-103587500D01*
X137462500Y-103587500D01*
X137467237Y-103687830D01*
X137517716Y-103788029D01*
X137665756Y-103829394D01*
X137962500Y-103837500D01*
X138163162Y-103839868D01*
X138363559Y-103865107D01*
X138446289Y-103939127D01*
X138462500Y-104087500D01*
X138461445Y-104133571D01*
X138402802Y-104296197D01*
X138212500Y-104337500D01*
X138112170Y-104342236D01*
X138011971Y-104392715D01*
X137970606Y-104540755D01*
X137962500Y-104837500D01*
X137964869Y-105038161D01*
X137990108Y-105238558D01*
X138064128Y-105321288D01*
X138212500Y-105337500D01*
X138312831Y-105332763D01*
X138413030Y-105282284D01*
X138454395Y-105134244D01*
X138462500Y-104837500D01*
X138464869Y-104636838D01*
X138490108Y-104436441D01*
X138564128Y-104353711D01*
X138712500Y-104337500D01*
X138800309Y-104340257D01*
X138892332Y-104374525D01*
X138940676Y-104482403D01*
X138959385Y-104706018D01*
X138962500Y-105087500D01*
X138961581Y-105350925D01*
X138950159Y-105626993D01*
X138914199Y-105772027D01*
X138839661Y-105828153D01*
X138712500Y-105837500D01*
X138666429Y-105838555D01*
X138503803Y-105897198D01*
X138462500Y-106087500D01*
X138467237Y-106187830D01*
X138517716Y-106288029D01*
X138665756Y-106329394D01*
X138962500Y-106337500D01*
X139163162Y-106339868D01*
X139363559Y-106365107D01*
X139446289Y-106439127D01*
X139462500Y-106587500D01*
X139457764Y-106687830D01*
X139407285Y-106788029D01*
X139259245Y-106829394D01*
X138962500Y-106837500D01*
X138761839Y-106839868D01*
X138561442Y-106865107D01*
X138478712Y-106939127D01*
X138462500Y-107087500D01*
X138463556Y-107133571D01*
X138522199Y-107296197D01*
X138712500Y-107337500D01*
X138758572Y-107338555D01*
X138921198Y-107397198D01*
X138962500Y-107587500D01*
X138957764Y-107687830D01*
X138907285Y-107788029D01*
X138759245Y-107829394D01*
X138462500Y-107837500D01*
X138261839Y-107835131D01*
X138061442Y-107809892D01*
X137978712Y-107735872D01*
X137962500Y-107587500D01*
X137961445Y-107541428D01*
X137902802Y-107378802D01*
X137712500Y-107337500D01*
X137612170Y-107342236D01*
X137511971Y-107392715D01*
X137470606Y-107540755D01*
X137462500Y-107837500D01*
X137462500Y-108337500D01*
X139462500Y-108337500D01*
X139462500Y-108087500D01*
X139463556Y-108041428D01*
X139522199Y-107878802D01*
X139712500Y-107837500D01*
X139758572Y-107838555D01*
X139921198Y-107897198D01*
X139962500Y-108087500D01*
X139963556Y-108133571D01*
X140022199Y-108296197D01*
X140212500Y-108337500D01*
X140258572Y-108338555D01*
X140421198Y-108397198D01*
X140462500Y-108587500D01*
X140462500Y-108837500D01*
X142462500Y-108837500D01*
X142462500Y-108587500D01*
X142457764Y-108487169D01*
X142407285Y-108386970D01*
X142259245Y-108345605D01*
X141962500Y-108337500D01*
X141761839Y-108335131D01*
X141561442Y-108309892D01*
X141478712Y-108235872D01*
X141462500Y-108087500D01*
X141463556Y-108041428D01*
X141522199Y-107878802D01*
X141712500Y-107837500D01*
X141812831Y-107832763D01*
X141913030Y-107782284D01*
X141954395Y-107634244D01*
X141962500Y-107337500D01*
X141964869Y-107136838D01*
X141990108Y-106936441D01*
X142064128Y-106853711D01*
X142212500Y-106837500D01*
X142258572Y-106838555D01*
X142421198Y-106897198D01*
X142462500Y-107087500D01*
X142467237Y-107187830D01*
X142517716Y-107288029D01*
X142665756Y-107329394D01*
X142962500Y-107337500D01*
X143163162Y-107339868D01*
X143363559Y-107365107D01*
X143446289Y-107439127D01*
X143462500Y-107587500D01*
X143463556Y-107633571D01*
X143522199Y-107796197D01*
X143712500Y-107837500D01*
X143758572Y-107838555D01*
X143921198Y-107897198D01*
X143962500Y-108087500D01*
X143961445Y-108133571D01*
X143902802Y-108296197D01*
X143712500Y-108337500D01*
X143666429Y-108338555D01*
X143503803Y-108397198D01*
X143462500Y-108587500D01*
X143467237Y-108687830D01*
X143517716Y-108788029D01*
X143665756Y-108829394D01*
X143962500Y-108837500D01*
X144462500Y-108837500D01*
X144462500Y-108587500D01*
X144962500Y-108587500D01*
X144963556Y-108633571D01*
X145022199Y-108796197D01*
X145212500Y-108837500D01*
X145258572Y-108836444D01*
X145421198Y-108777801D01*
X145462500Y-108587500D01*
X145461445Y-108541428D01*
X145402802Y-108378802D01*
X145212500Y-108337500D01*
X145166429Y-108338555D01*
X145003803Y-108397198D01*
X144962500Y-108587500D01*
X144462500Y-108587500D01*
X144462500Y-108337500D01*
X144464869Y-108136838D01*
X144490108Y-107936441D01*
X144564128Y-107853711D01*
X144712500Y-107837500D01*
X144758572Y-107836444D01*
X144921198Y-107777801D01*
X144962500Y-107587500D01*
X144963556Y-107541428D01*
X145022199Y-107378802D01*
X145212500Y-107337500D01*
X145258572Y-107338555D01*
X145421198Y-107397198D01*
X145462500Y-107587500D01*
X145467237Y-107687830D01*
X145517716Y-107788029D01*
X145665756Y-107829394D01*
X145962500Y-107837500D01*
X146163162Y-107839868D01*
X146363559Y-107865107D01*
X146446289Y-107939127D01*
X146462500Y-108087500D01*
X146461445Y-108133571D01*
X146402802Y-108296197D01*
X146212500Y-108337500D01*
X146166429Y-108338555D01*
X146003803Y-108397198D01*
X145962500Y-108587500D01*
X145962500Y-108837500D01*
X147962500Y-108837500D01*
X147962500Y-108337500D01*
X147964869Y-108136838D01*
X147990108Y-107936441D01*
X148064128Y-107853711D01*
X148212500Y-107837500D01*
X148312831Y-107842236D01*
X148413030Y-107892715D01*
X148454395Y-108040755D01*
X148462500Y-108337500D01*
X148464869Y-108538161D01*
X148490108Y-108738558D01*
X148564128Y-108821288D01*
X148712500Y-108837500D01*
X148812831Y-108832763D01*
X148913030Y-108782284D01*
X148954395Y-108634244D01*
X148962500Y-108337500D01*
X148964869Y-108136838D01*
X148990108Y-107936441D01*
X149064128Y-107853711D01*
X149212500Y-107837500D01*
X149312831Y-107842236D01*
X149413030Y-107892715D01*
X149454395Y-108040755D01*
X149462500Y-108337500D01*
X149464869Y-108538161D01*
X149490108Y-108738558D01*
X149564128Y-108821288D01*
X149712500Y-108837500D01*
X150462500Y-108837500D01*
X153962500Y-108837500D01*
X153962500Y-105337500D01*
X150462500Y-105337500D01*
X150462500Y-108837500D01*
X149712500Y-108837500D01*
X149812831Y-108832763D01*
X149913030Y-108782284D01*
X149954395Y-108634244D01*
X149962500Y-108337500D01*
X149960132Y-108136838D01*
X149934893Y-107936441D01*
X149860873Y-107853711D01*
X149712500Y-107837500D01*
X149666429Y-107836444D01*
X149503803Y-107777801D01*
X149462500Y-107587500D01*
X149463556Y-107541428D01*
X149522199Y-107378802D01*
X149712500Y-107337500D01*
X149812831Y-107332763D01*
X149913030Y-107282284D01*
X149954395Y-107134244D01*
X149962500Y-106837500D01*
X149962500Y-106337500D01*
X149462500Y-106337500D01*
X149261839Y-106335131D01*
X149061442Y-106309892D01*
X148978712Y-106235872D01*
X148962500Y-106087500D01*
X148961445Y-106041428D01*
X148902802Y-105878802D01*
X148712500Y-105837500D01*
X148666429Y-105836444D01*
X148503803Y-105777801D01*
X148462500Y-105587500D01*
X148457764Y-105487169D01*
X148407285Y-105386970D01*
X148259245Y-105345605D01*
X147962500Y-105337500D01*
X147761839Y-105335131D01*
X147561442Y-105309892D01*
X147478712Y-105235872D01*
X147462500Y-105087500D01*
X147465258Y-104999691D01*
X147499526Y-104907668D01*
X147607404Y-104859324D01*
X147831019Y-104840615D01*
X148212500Y-104837500D01*
X148475926Y-104838419D01*
X148751994Y-104849841D01*
X148897028Y-104885801D01*
X148953154Y-104960339D01*
X148962500Y-105087500D01*
X148967237Y-105187830D01*
X149017716Y-105288029D01*
X149165756Y-105329394D01*
X149462500Y-105337500D01*
X149663162Y-105335131D01*
X149863559Y-105309892D01*
X149946289Y-105235872D01*
X149962500Y-105087500D01*
X149965258Y-104999691D01*
X149999526Y-104907668D01*
X150107404Y-104859324D01*
X150331019Y-104840615D01*
X150712500Y-104837500D01*
X150975926Y-104836580D01*
X151251994Y-104825158D01*
X151397028Y-104789198D01*
X151453154Y-104714660D01*
X151462500Y-104587500D01*
X151457764Y-104487169D01*
X151407285Y-104386970D01*
X151259245Y-104345605D01*
X150962500Y-104337500D01*
X150761839Y-104335131D01*
X150561442Y-104309892D01*
X150478712Y-104235872D01*
X150462500Y-104087500D01*
X150463556Y-104041428D01*
X150522199Y-103878802D01*
X150712500Y-103837500D01*
X150758572Y-103836444D01*
X150921198Y-103777801D01*
X150962500Y-103587500D01*
X150961445Y-103541428D01*
X150902802Y-103378802D01*
X150712500Y-103337500D01*
X150666429Y-103338555D01*
X150503803Y-103397198D01*
X150462500Y-103587500D01*
X150461445Y-103633571D01*
X150402802Y-103796197D01*
X150212500Y-103837500D01*
X150166429Y-103838555D01*
X150003803Y-103897198D01*
X149962500Y-104087500D01*
X149959743Y-104175308D01*
X149925475Y-104267331D01*
X149817597Y-104315675D01*
X149593982Y-104334384D01*
X149212500Y-104337500D01*
X148462500Y-104337500D01*
X148462500Y-103837500D01*
X148464869Y-103636838D01*
X148490108Y-103436441D01*
X148564128Y-103353711D01*
X148712500Y-103337500D01*
X148758572Y-103338555D01*
X148921198Y-103397198D01*
X148962500Y-103587500D01*
X148963556Y-103633571D01*
X149022199Y-103796197D01*
X149212500Y-103837500D01*
X149258572Y-103836444D01*
X149421198Y-103777801D01*
X149462500Y-103587500D01*
X149463556Y-103541428D01*
X149522199Y-103378802D01*
X149712500Y-103337500D01*
X149758572Y-103336444D01*
X149921198Y-103277801D01*
X149962500Y-103087500D01*
X149965258Y-102999691D01*
X149999526Y-102907668D01*
X150107404Y-102859324D01*
X150331019Y-102840615D01*
X150712500Y-102837500D01*
X151462500Y-102837500D01*
X151462500Y-103337500D01*
X151464869Y-103538161D01*
X151490108Y-103738558D01*
X151564128Y-103821288D01*
X151712500Y-103837500D01*
X151758572Y-103838555D01*
X151921198Y-103897198D01*
X151962500Y-104087500D01*
X151967237Y-104187830D01*
X152017716Y-104288029D01*
X152165756Y-104329394D01*
X152462500Y-104337500D01*
X152663162Y-104339868D01*
X152863559Y-104365107D01*
X152946289Y-104439127D01*
X152962500Y-104587500D01*
X152967237Y-104687830D01*
X153017716Y-104788029D01*
X153165756Y-104829394D01*
X153462500Y-104837500D01*
X153962500Y-104837500D01*
X153962500Y-102337500D01*
X153712500Y-102337500D01*
X153666429Y-102336444D01*
X153503803Y-102277801D01*
X153462500Y-102087500D01*
X153463556Y-102041428D01*
X153522199Y-101878802D01*
X153712500Y-101837500D01*
X153800309Y-101834742D01*
X153892332Y-101800474D01*
X153940676Y-101692596D01*
X153959385Y-101468981D01*
X153962500Y-101087500D01*
X153961581Y-100824074D01*
X153950159Y-100548006D01*
X153914199Y-100402972D01*
X153839661Y-100346846D01*
X153712500Y-100337500D01*
X153666429Y-100338555D01*
X153503803Y-100397198D01*
X153462500Y-100587500D01*
X153461445Y-100633571D01*
X153402802Y-100796197D01*
X153212500Y-100837500D01*
X153124692Y-100834742D01*
X153032669Y-100800474D01*
X152984325Y-100692596D01*
X152965616Y-100468981D01*
X152962500Y-100087500D01*
X152962500Y-99337500D01*
X153962500Y-99337500D01*
X153962500Y-97337500D01*
X152462500Y-97337500D01*
X152462500Y-96587500D01*
X152962500Y-96587500D01*
X152967237Y-96687830D01*
X153017716Y-96788029D01*
X153165756Y-96829394D01*
X153462500Y-96837500D01*
X153663162Y-96835131D01*
X153863559Y-96809892D01*
X153946289Y-96735872D01*
X153962500Y-96587500D01*
X153957764Y-96487169D01*
X153907285Y-96386970D01*
X153759245Y-96345605D01*
X153462500Y-96337500D01*
X153261839Y-96339868D01*
X153061442Y-96365107D01*
X152978712Y-96439127D01*
X152962500Y-96587500D01*
X152462500Y-96587500D01*
X152462500Y-96337500D01*
X151962500Y-96337500D01*
X151761839Y-96339868D01*
X151561442Y-96365107D01*
X151478712Y-96439127D01*
X151462500Y-96587500D01*
X151463556Y-96633571D01*
X151522199Y-96796197D01*
X151712500Y-96837500D01*
X151758572Y-96838555D01*
X151921198Y-96897198D01*
X151962500Y-97087500D01*
X151959743Y-97175308D01*
X151925475Y-97267331D01*
X151817597Y-97315675D01*
X151593982Y-97334384D01*
X151212500Y-97337500D01*
X150949075Y-97336580D01*
X150673007Y-97325158D01*
X150527973Y-97289198D01*
X150471847Y-97214660D01*
X150462500Y-97087500D01*
X150463556Y-97041428D01*
X150522199Y-96878802D01*
X150712500Y-96837500D01*
X150758572Y-96836444D01*
X150921198Y-96777801D01*
X150962500Y-96587500D01*
X150961445Y-96541428D01*
X150902802Y-96378802D01*
X150712500Y-96337500D01*
X150666429Y-96338555D01*
X150503803Y-96397198D01*
X150462500Y-96587500D01*
X150457764Y-96687830D01*
X150407285Y-96788029D01*
X150259245Y-96829394D01*
X149962500Y-96837500D01*
X149761839Y-96835131D01*
X149561442Y-96809892D01*
X149478712Y-96735872D01*
X149462500Y-96587500D01*
X149463556Y-96541428D01*
X149522199Y-96378802D01*
X149712500Y-96337500D01*
X149812831Y-96332763D01*
X149913030Y-96282284D01*
X149954395Y-96134244D01*
X149962500Y-95837500D01*
X150462500Y-95837500D01*
X153962500Y-95837500D01*
X153962500Y-92337500D01*
X150462500Y-92337500D01*
X150462500Y-95837500D01*
X149962500Y-95837500D01*
X149960132Y-95636838D01*
X149934893Y-95436441D01*
X149860873Y-95353711D01*
X149712500Y-95337500D01*
X149666429Y-95336444D01*
X149503803Y-95277801D01*
X149462500Y-95087500D01*
X149461445Y-95041428D01*
X149402802Y-94878802D01*
X149212500Y-94837500D01*
X149112170Y-94832763D01*
X149011971Y-94782284D01*
X148970606Y-94634244D01*
X148962500Y-94337500D01*
X148964869Y-94136838D01*
X148990108Y-93936441D01*
X149064128Y-93853711D01*
X149212500Y-93837500D01*
X149258572Y-93836444D01*
X149421198Y-93777801D01*
X149462500Y-93587500D01*
X149461445Y-93541428D01*
X149402802Y-93378802D01*
X149212500Y-93337500D01*
X149166429Y-93338555D01*
X149003803Y-93397198D01*
X148962500Y-93587500D01*
X148961445Y-93633571D01*
X148902802Y-93796197D01*
X148712500Y-93837500D01*
X148612170Y-93832763D01*
X148511971Y-93782284D01*
X148470606Y-93634244D01*
X148462500Y-93337500D01*
X148462500Y-92837500D01*
X149212500Y-92837500D01*
X149475926Y-92836580D01*
X149751994Y-92825158D01*
X149897028Y-92789198D01*
X149953154Y-92714660D01*
X149962500Y-92587500D01*
X149962500Y-92337500D01*
X147962500Y-92337500D01*
X147962500Y-92587500D01*
X147961445Y-92633571D01*
X147902802Y-92796197D01*
X147712500Y-92837500D01*
X147666429Y-92836444D01*
X147503803Y-92777801D01*
X147462500Y-92587500D01*
X147461445Y-92541428D01*
X147402802Y-92378802D01*
X147212500Y-92337500D01*
X147166429Y-92338555D01*
X147003803Y-92397198D01*
X146962500Y-92587500D01*
X146963556Y-92633571D01*
X147022199Y-92796197D01*
X147212500Y-92837500D01*
X147258572Y-92838555D01*
X147421198Y-92897198D01*
X147462500Y-93087500D01*
X147461445Y-93133571D01*
X147402802Y-93296197D01*
X147212500Y-93337500D01*
X147166429Y-93338555D01*
X147003803Y-93397198D01*
X146962500Y-93587500D01*
X146962500Y-93837500D01*
X144962500Y-93837500D01*
X144962500Y-93587500D01*
X144961445Y-93541428D01*
X144902802Y-93378802D01*
X144712500Y-93337500D01*
X144666429Y-93336444D01*
X144503803Y-93277801D01*
X144462500Y-93087500D01*
X144467237Y-92987169D01*
X144517716Y-92886970D01*
X144665756Y-92845605D01*
X144962500Y-92837500D01*
X145163162Y-92839868D01*
X145363559Y-92865107D01*
X145446289Y-92939127D01*
X145462500Y-93087500D01*
X145463556Y-93133571D01*
X145522199Y-93296197D01*
X145712500Y-93337500D01*
X145758572Y-93336444D01*
X145921198Y-93277801D01*
X145962500Y-93087500D01*
X145961445Y-93041428D01*
X145902802Y-92878802D01*
X145712500Y-92837500D01*
X145666429Y-92836444D01*
X145503803Y-92777801D01*
X145462500Y-92587500D01*
X145457764Y-92487169D01*
X145407285Y-92386970D01*
X145259245Y-92345605D01*
X144962500Y-92337500D01*
X144761839Y-92339868D01*
X144561442Y-92365107D01*
X144478712Y-92439127D01*
X144462500Y-92587500D01*
X144457764Y-92687830D01*
X144407285Y-92788029D01*
X144259245Y-92829394D01*
X143962500Y-92837500D01*
X143761839Y-92835131D01*
X143561442Y-92809892D01*
X143478712Y-92735872D01*
X143462500Y-92587500D01*
X143461445Y-92541428D01*
X143402802Y-92378802D01*
X143212500Y-92337500D01*
X143166429Y-92338555D01*
X143003803Y-92397198D01*
X142962500Y-92587500D01*
X142961445Y-92633571D01*
X142902802Y-92796197D01*
X142712500Y-92837500D01*
X142666429Y-92838555D01*
X142503803Y-92897198D01*
X142462500Y-93087500D01*
X142463556Y-93133571D01*
X142522199Y-93296197D01*
X142712500Y-93337500D01*
X142812831Y-93342236D01*
X142913030Y-93392715D01*
X142954395Y-93540755D01*
X142962500Y-93837500D01*
X142960132Y-94038161D01*
X142934893Y-94238558D01*
X142860873Y-94321288D01*
X142712500Y-94337500D01*
X142666429Y-94336444D01*
X142503803Y-94277801D01*
X142462500Y-94087500D01*
X142461445Y-94041428D01*
X142402802Y-93878802D01*
X142212500Y-93837500D01*
X142124692Y-93834742D01*
X142032669Y-93800474D01*
X141984325Y-93692596D01*
X141965616Y-93468981D01*
X141962500Y-93087500D01*
X141961581Y-92824074D01*
X141950159Y-92548006D01*
X141914199Y-92402972D01*
X141839661Y-92346846D01*
X141712500Y-92337500D01*
X141624692Y-92340257D01*
X141532669Y-92374525D01*
X141484325Y-92482403D01*
X141465616Y-92706018D01*
X141462500Y-93087500D01*
X141463420Y-93350925D01*
X141474842Y-93626993D01*
X141510802Y-93772027D01*
X141585340Y-93828153D01*
X141712500Y-93837500D01*
X141758572Y-93838555D01*
X141921198Y-93897198D01*
X141962500Y-94087500D01*
X141963556Y-94133571D01*
X142022199Y-94296197D01*
X142212500Y-94337500D01*
X142258572Y-94338555D01*
X142421198Y-94397198D01*
X142462500Y-94587500D01*
X142461445Y-94633571D01*
X142402802Y-94796197D01*
X142212500Y-94837500D01*
X142166429Y-94838555D01*
X142003803Y-94897198D01*
X141962500Y-95087500D01*
X141961445Y-95133571D01*
X141902802Y-95296197D01*
X141712500Y-95337500D01*
X141666429Y-95338555D01*
X141503803Y-95397198D01*
X141462500Y-95587500D01*
X141463556Y-95633571D01*
X141522199Y-95796197D01*
X141712500Y-95837500D01*
X141758572Y-95836444D01*
X141921198Y-95777801D01*
X141962500Y-95587500D01*
X141963556Y-95541428D01*
X142022199Y-95378802D01*
X142212500Y-95337500D01*
X142258572Y-95338555D01*
X142421198Y-95397198D01*
X142462500Y-95587500D01*
X142463556Y-95633571D01*
X142522199Y-95796197D01*
X142712500Y-95837500D01*
X142758572Y-95836444D01*
X142921198Y-95777801D01*
X142962500Y-95587500D01*
X142961445Y-95541428D01*
X142902802Y-95378802D01*
X142712500Y-95337500D01*
X142666429Y-95336444D01*
X142503803Y-95277801D01*
X142462500Y-95087500D01*
X142467237Y-94987169D01*
X142517716Y-94886970D01*
X142665756Y-94845605D01*
X142962500Y-94837500D01*
X143462500Y-94837500D01*
X143462500Y-95587500D01*
X143463420Y-95850925D01*
X143474842Y-96126993D01*
X143510802Y-96272027D01*
X143585340Y-96328153D01*
X143712500Y-96337500D01*
X143812831Y-96342236D01*
X143913030Y-96392715D01*
X143954395Y-96540755D01*
X143962500Y-96837500D01*
X143962500Y-97337500D01*
X144962500Y-97337500D01*
X144962500Y-97837500D01*
X144964869Y-98038161D01*
X144971083Y-98087500D01*
X144990108Y-98238558D01*
X145064128Y-98321288D01*
X145212500Y-98337500D01*
X145300309Y-98340257D01*
X145392332Y-98374525D01*
X145440676Y-98482403D01*
X145459385Y-98706018D01*
X145462500Y-99087500D01*
X145463420Y-99350925D01*
X145474842Y-99626993D01*
X145510802Y-99772027D01*
X145585340Y-99828153D01*
X145712500Y-99837500D01*
X145758572Y-99838555D01*
X145921198Y-99897198D01*
X145962500Y-100087500D01*
X145963556Y-100133571D01*
X146022199Y-100296197D01*
X146212500Y-100337500D01*
X146258572Y-100338555D01*
X146421198Y-100397198D01*
X146462500Y-100587500D01*
X146457764Y-100687830D01*
X146407285Y-100788029D01*
X146259245Y-100829394D01*
X145962500Y-100837500D01*
X145761839Y-100839868D01*
X145561442Y-100865107D01*
X145478712Y-100939127D01*
X145462500Y-101087500D01*
X145463556Y-101133571D01*
X145522199Y-101296197D01*
X145712500Y-101337500D01*
X145758572Y-101338555D01*
X145921198Y-101397198D01*
X145962500Y-101587500D01*
X145961445Y-101633571D01*
X145902802Y-101796197D01*
X145712500Y-101837500D01*
X145666429Y-101838555D01*
X145503803Y-101897198D01*
X145462500Y-102087500D01*
X145461445Y-102133571D01*
X145402802Y-102296197D01*
X145212500Y-102337500D01*
X145166429Y-102338555D01*
X145003803Y-102397198D01*
X144962500Y-102587500D01*
X144957764Y-102687830D01*
X144907285Y-102788029D01*
X144759245Y-102829394D01*
X144462500Y-102837500D01*
X144261839Y-102839868D01*
X144061442Y-102865107D01*
X143978712Y-102939127D01*
X143962500Y-103087500D01*
X143967237Y-103187830D01*
X144017716Y-103288029D01*
X144165756Y-103329394D01*
X144462500Y-103337500D01*
X144962500Y-103337500D01*
X144962500Y-103837500D01*
X144964869Y-104038161D01*
X144971083Y-104087500D01*
X144990108Y-104238558D01*
X145064128Y-104321288D01*
X145212500Y-104337500D01*
X145312831Y-104342236D01*
X145413030Y-104392715D01*
X145454395Y-104540755D01*
X145462500Y-104837500D01*
X145462500Y-105337500D01*
X144712500Y-105337500D01*
X144449075Y-105338419D01*
X144173007Y-105349841D01*
X144027973Y-105385801D01*
X143971847Y-105460339D01*
X143962500Y-105587500D01*
X143961445Y-105633571D01*
X143902802Y-105796197D01*
X143712500Y-105837500D01*
X143666429Y-105838555D01*
X143503803Y-105897198D01*
X143462500Y-106087500D01*
X143465258Y-106175308D01*
X143499526Y-106267331D01*
X143607404Y-106315675D01*
X143831019Y-106334384D01*
X144212500Y-106337500D01*
X144475926Y-106336580D01*
X144751994Y-106325158D01*
X144897028Y-106289198D01*
X144953154Y-106214660D01*
X144962500Y-106087500D01*
X144963556Y-106041428D01*
X145022199Y-105878802D01*
X145212500Y-105837500D01*
X145258572Y-105838555D01*
X145421198Y-105897198D01*
X145462500Y-106087500D01*
X145463556Y-106133571D01*
X145522199Y-106296197D01*
X145712500Y-106337500D01*
X145812831Y-106342236D01*
X145913030Y-106392715D01*
X145954395Y-106540755D01*
X145962500Y-106837500D01*
X145960132Y-107038161D01*
X145934893Y-107238558D01*
X145860873Y-107321288D01*
X145712500Y-107337500D01*
X145666429Y-107336444D01*
X145503803Y-107277801D01*
X145462500Y-107087500D01*
X145461445Y-107041428D01*
X145402802Y-106878802D01*
X145212500Y-106837500D01*
X145166429Y-106838555D01*
X145003803Y-106897198D01*
X144962500Y-107087500D01*
X144961445Y-107133571D01*
X144902802Y-107296197D01*
X144712500Y-107337500D01*
X144666429Y-107336444D01*
X144503803Y-107277801D01*
X144462500Y-107087500D01*
X144459743Y-106999691D01*
X144425475Y-106907668D01*
X144317597Y-106859324D01*
X144093982Y-106840615D01*
X143712500Y-106837500D01*
X143449075Y-106836580D01*
X143173007Y-106825158D01*
X143027973Y-106789198D01*
X142971847Y-106714660D01*
X142962500Y-106587500D01*
X142961445Y-106541428D01*
X142902802Y-106378802D01*
X142712500Y-106337500D01*
X142612170Y-106332763D01*
X142511971Y-106282284D01*
X142470606Y-106134244D01*
X142462500Y-105837500D01*
X142460132Y-105636838D01*
X142434893Y-105436441D01*
X142360873Y-105353711D01*
X142212500Y-105337500D01*
X142112170Y-105332763D01*
X142011971Y-105282284D01*
X141970606Y-105134244D01*
X141969329Y-105087500D01*
X142962500Y-105087500D01*
X142963556Y-105133571D01*
X143022199Y-105296197D01*
X143212500Y-105337500D01*
X143258572Y-105336444D01*
X143421198Y-105277801D01*
X143462500Y-105087500D01*
X143463556Y-105041428D01*
X143522199Y-104878802D01*
X143712500Y-104837500D01*
X143758572Y-104836444D01*
X143921198Y-104777801D01*
X143962500Y-104587500D01*
X143963556Y-104541428D01*
X144022199Y-104378802D01*
X144212500Y-104337500D01*
X144258572Y-104336444D01*
X144421198Y-104277801D01*
X144462500Y-104087500D01*
X144457764Y-103987169D01*
X144407285Y-103886970D01*
X144259245Y-103845605D01*
X143962500Y-103837500D01*
X143462500Y-103837500D01*
X143462500Y-104337500D01*
X143460132Y-104538161D01*
X143434893Y-104738558D01*
X143360873Y-104821288D01*
X143212500Y-104837500D01*
X143166429Y-104838555D01*
X143003803Y-104897198D01*
X142962500Y-105087500D01*
X141969329Y-105087500D01*
X141962500Y-104837500D01*
X141964869Y-104636838D01*
X141990108Y-104436441D01*
X142064128Y-104353711D01*
X142212500Y-104337500D01*
X142312831Y-104332763D01*
X142413030Y-104282284D01*
X142454395Y-104134244D01*
X142462500Y-103837500D01*
X142464869Y-103636838D01*
X142490108Y-103436441D01*
X142564128Y-103353711D01*
X142712500Y-103337500D01*
X142758572Y-103336444D01*
X142921198Y-103277801D01*
X142962500Y-103087500D01*
X142963556Y-103041428D01*
X143022199Y-102878802D01*
X143212500Y-102837500D01*
X143258572Y-102836444D01*
X143421198Y-102777801D01*
X143462500Y-102587500D01*
X143461445Y-102541428D01*
X143402802Y-102378802D01*
X143212500Y-102337500D01*
X143166429Y-102336444D01*
X143003803Y-102277801D01*
X142962500Y-102087500D01*
X142967237Y-101987169D01*
X143017716Y-101886970D01*
X143165756Y-101845605D01*
X143462500Y-101837500D01*
X143663162Y-101839868D01*
X143863559Y-101865107D01*
X143946289Y-101939127D01*
X143962500Y-102087500D01*
X143963556Y-102133571D01*
X144022199Y-102296197D01*
X144212500Y-102337500D01*
X144258572Y-102336444D01*
X144421198Y-102277801D01*
X144462500Y-102087500D01*
X144463556Y-102041428D01*
X144522199Y-101878802D01*
X144712500Y-101837500D01*
X144812831Y-101832763D01*
X144913030Y-101782284D01*
X144954395Y-101634244D01*
X144962500Y-101337500D01*
X144960132Y-101136838D01*
X144934893Y-100936441D01*
X144860873Y-100853711D01*
X144712500Y-100837500D01*
X144666429Y-100838555D01*
X144503803Y-100897198D01*
X144462500Y-101087500D01*
X144461445Y-101133571D01*
X144402802Y-101296197D01*
X144212500Y-101337500D01*
X144112170Y-101332763D01*
X144011971Y-101282284D01*
X143970606Y-101134244D01*
X143962500Y-100837500D01*
X143964869Y-100636838D01*
X143990108Y-100436441D01*
X144064128Y-100353711D01*
X144212500Y-100337500D01*
X144258572Y-100336444D01*
X144421198Y-100277801D01*
X144462500Y-100087500D01*
X144463556Y-100041428D01*
X144522199Y-99878802D01*
X144712500Y-99837500D01*
X144812831Y-99832763D01*
X144913030Y-99782284D01*
X144954395Y-99634244D01*
X144962500Y-99337500D01*
X144960132Y-99136838D01*
X144934893Y-98936441D01*
X144860873Y-98853711D01*
X144712500Y-98837500D01*
X144666429Y-98838555D01*
X144503803Y-98897198D01*
X144462500Y-99087500D01*
X144461445Y-99133571D01*
X144402802Y-99296197D01*
X144212500Y-99337500D01*
X144166429Y-99338555D01*
X144003803Y-99397198D01*
X143962500Y-99587500D01*
X143961445Y-99633571D01*
X143902802Y-99796197D01*
X143712500Y-99837500D01*
X143666429Y-99836444D01*
X143503803Y-99777801D01*
X143462500Y-99587500D01*
X143461445Y-99541428D01*
X143402802Y-99378802D01*
X143212500Y-99337500D01*
X143112170Y-99332763D01*
X143011971Y-99282284D01*
X142970606Y-99134244D01*
X142962500Y-98837500D01*
X142960132Y-98636838D01*
X142934893Y-98436441D01*
X142860873Y-98353711D01*
X142712500Y-98337500D01*
X142624692Y-98334742D01*
X142532669Y-98300474D01*
X142484325Y-98192596D01*
X142465616Y-97968981D01*
X142462500Y-97587500D01*
X142962500Y-97587500D01*
X142963556Y-97633571D01*
X143022199Y-97796197D01*
X143212500Y-97837500D01*
X143312831Y-97842236D01*
X143413030Y-97892715D01*
X143454395Y-98040755D01*
X143462500Y-98337500D01*
X143464869Y-98538161D01*
X143490108Y-98738558D01*
X143564128Y-98821288D01*
X143712500Y-98837500D01*
X143758572Y-98836444D01*
X143921198Y-98777801D01*
X143962500Y-98587500D01*
X143963556Y-98541428D01*
X144022199Y-98378802D01*
X144212500Y-98337500D01*
X144258572Y-98336444D01*
X144421198Y-98277801D01*
X144462500Y-98087500D01*
X144457764Y-97987169D01*
X144407285Y-97886970D01*
X144259245Y-97845605D01*
X143962500Y-97837500D01*
X143761839Y-97835131D01*
X143561442Y-97809892D01*
X143478712Y-97735872D01*
X143462500Y-97587500D01*
X143461445Y-97541428D01*
X143402802Y-97378802D01*
X143212500Y-97337500D01*
X143166429Y-97338555D01*
X143003803Y-97397198D01*
X142962500Y-97587500D01*
X142462500Y-97587500D01*
X142463420Y-97324074D01*
X142474842Y-97048006D01*
X142510802Y-96902972D01*
X142585340Y-96846846D01*
X142712500Y-96837500D01*
X142758572Y-96836444D01*
X142921198Y-96777801D01*
X142962500Y-96587500D01*
X142961445Y-96541428D01*
X142902802Y-96378802D01*
X142712500Y-96337500D01*
X142666429Y-96338555D01*
X142503803Y-96397198D01*
X142462500Y-96587500D01*
X142459743Y-96675308D01*
X142425475Y-96767331D01*
X142317597Y-96815675D01*
X142093982Y-96834384D01*
X141712500Y-96837500D01*
X141449075Y-96836580D01*
X141173007Y-96825158D01*
X141027973Y-96789198D01*
X140971847Y-96714660D01*
X140962500Y-96587500D01*
X140961445Y-96541428D01*
X140902802Y-96378802D01*
X140712500Y-96337500D01*
X140666429Y-96338555D01*
X140503803Y-96397198D01*
X140462500Y-96587500D01*
X140457764Y-96687830D01*
X140407285Y-96788029D01*
X140259245Y-96829394D01*
X139962500Y-96837500D01*
X139761839Y-96839868D01*
X139561442Y-96865107D01*
X139478712Y-96939127D01*
X139462500Y-97087500D01*
X139461445Y-97133571D01*
X139402802Y-97296197D01*
X139212500Y-97337500D01*
X139166429Y-97338555D01*
X139003803Y-97397198D01*
X138962500Y-97587500D01*
X138961445Y-97633571D01*
X138902802Y-97796197D01*
X138712500Y-97837500D01*
X138666429Y-97838555D01*
X138503803Y-97897198D01*
X138462500Y-98087500D01*
X138457764Y-98187830D01*
X138407285Y-98288029D01*
X138259245Y-98329394D01*
X137962500Y-98337500D01*
X137761839Y-98339868D01*
X137561442Y-98365107D01*
X137478712Y-98439127D01*
X137462500Y-98587500D01*
X137467237Y-98687830D01*
X137517716Y-98788029D01*
X137665756Y-98829394D01*
X137962500Y-98837500D01*
X138163162Y-98835131D01*
X138363559Y-98809892D01*
X138446289Y-98735872D01*
X138462500Y-98587500D01*
X138463556Y-98541428D01*
X138522199Y-98378802D01*
X138712500Y-98337500D01*
X138800309Y-98340257D01*
X138892332Y-98374525D01*
X138940676Y-98482403D01*
X138959385Y-98706018D01*
X138962500Y-99087500D01*
X138961581Y-99350925D01*
X138950159Y-99626993D01*
X138914199Y-99772027D01*
X138839661Y-99828153D01*
X138712500Y-99837500D01*
X138666429Y-99838555D01*
X138503803Y-99897198D01*
X138462500Y-100087500D01*
X138461445Y-100133571D01*
X138402802Y-100296197D01*
X138212500Y-100337500D01*
X138166429Y-100336444D01*
X138003803Y-100277801D01*
X137962500Y-100087500D01*
X137961445Y-100041428D01*
X137902802Y-99878802D01*
X137712500Y-99837500D01*
X137462500Y-99837500D01*
X137462500Y-102337500D01*
X137962500Y-102337500D01*
X138163162Y-102339868D01*
X138363559Y-102365107D01*
X138446289Y-102439127D01*
X138462500Y-102587500D01*
X138461445Y-102633571D01*
X138402802Y-102796197D01*
X138212500Y-102837500D01*
X138166429Y-102838555D01*
X138003803Y-102897198D01*
X137962500Y-103087500D01*
X137961445Y-103133571D01*
X137902802Y-103296197D01*
X137712500Y-103337500D01*
X137666429Y-103338555D01*
X137503803Y-103397198D01*
X137462500Y-103587500D01*
X136962500Y-103587500D01*
X136962500Y-97587500D01*
X137462500Y-97587500D01*
X137463556Y-97633571D01*
X137522199Y-97796197D01*
X137712500Y-97837500D01*
X137758572Y-97836444D01*
X137921198Y-97777801D01*
X137962500Y-97587500D01*
X137963556Y-97541428D01*
X138022199Y-97378802D01*
X138212500Y-97337500D01*
X138258572Y-97336444D01*
X138421198Y-97277801D01*
X138462500Y-97087500D01*
X138461445Y-97041428D01*
X138402802Y-96878802D01*
X138212500Y-96837500D01*
X138166429Y-96836444D01*
X138003803Y-96777801D01*
X137962500Y-96587500D01*
X137961445Y-96541428D01*
X137902802Y-96378802D01*
X137712500Y-96337500D01*
X137666429Y-96338555D01*
X137503803Y-96397198D01*
X137462500Y-96587500D01*
X137463556Y-96633571D01*
X137522199Y-96796197D01*
X137712500Y-96837500D01*
X137758572Y-96838555D01*
X137921198Y-96897198D01*
X137962500Y-97087500D01*
X137961445Y-97133571D01*
X137902802Y-97296197D01*
X137712500Y-97337500D01*
X137666429Y-97338555D01*
X137503803Y-97397198D01*
X137462500Y-97587500D01*
X136962500Y-97587500D01*
X136962500Y-95837500D01*
X137462500Y-95837500D01*
X140962500Y-95837500D01*
X140962500Y-92337500D01*
X137462500Y-92337500D01*
X137462500Y-95837500D01*
X136962500Y-95837500D01*
X136962500Y-91837500D01*
X154462500Y-91837500D01*
X154462500Y-109337500D01*
X136962500Y-109337500D01*
G37*
G36*
X146258572Y-101838555D02*
G01*
X146421198Y-101897198D01*
X146462500Y-102087500D01*
X146463556Y-102133571D01*
X146522199Y-102296197D01*
X146712500Y-102337500D01*
X146758572Y-102338555D01*
X146921198Y-102397198D01*
X146962500Y-102587500D01*
X146961445Y-102633571D01*
X146902802Y-102796197D01*
X146712500Y-102837500D01*
X146666429Y-102836444D01*
X146503803Y-102777801D01*
X146462500Y-102587500D01*
X146461445Y-102541428D01*
X146402802Y-102378802D01*
X146212500Y-102337500D01*
X146166429Y-102336444D01*
X146003803Y-102277801D01*
X145962500Y-102087500D01*
X145963556Y-102041428D01*
X146022199Y-101878802D01*
X146212500Y-101837500D01*
X146258572Y-101838555D01*
G37*
G36*
X137962500Y-95337500D02*
G01*
X137962500Y-94837500D01*
X138462500Y-94837500D01*
X139962500Y-94837500D01*
X139962500Y-93337500D01*
X138462500Y-93337500D01*
X138462500Y-94837500D01*
X137962500Y-94837500D01*
X137962500Y-92837500D01*
X140462500Y-92837500D01*
X140462500Y-95337500D01*
X137962500Y-95337500D01*
G37*
G36*
X139462500Y-103837500D02*
G01*
X139460132Y-104038161D01*
X139434893Y-104238558D01*
X139360873Y-104321288D01*
X139212500Y-104337500D01*
X139166429Y-104336444D01*
X139003803Y-104277801D01*
X138962500Y-104087500D01*
X138961445Y-104041428D01*
X138902802Y-103878802D01*
X138712500Y-103837500D01*
X138666429Y-103836444D01*
X138503803Y-103777801D01*
X138462500Y-103587500D01*
X138467237Y-103487169D01*
X138517716Y-103386970D01*
X138665756Y-103345605D01*
X138962500Y-103337500D01*
X139462500Y-103337500D01*
X139462500Y-103837500D01*
G37*
X126367500Y-111230000D02*
X126367500Y-116370000D01*
X123707500Y-111230000D02*
X123707500Y-116370000D01*
X126367500Y-116370000D02*
X123707500Y-116370000D01*
X126367500Y-109960000D02*
X126367500Y-108630000D01*
X126367500Y-111230000D02*
X123707500Y-111230000D01*
X126367500Y-108630000D02*
X125037500Y-108630000D01*
X176530000Y-99630000D02*
X173870000Y-99630000D01*
X176530000Y-104770000D02*
X173870000Y-104770000D01*
X173870000Y-99630000D02*
X173870000Y-104770000D01*
X176530000Y-97030000D02*
X175200000Y-97030000D01*
X176530000Y-98360000D02*
X176530000Y-97030000D01*
X176530000Y-99630000D02*
X176530000Y-104770000D01*
G36*
X181462036Y-117978191D02*
G01*
X181509603Y-118116227D01*
X181538144Y-118291240D01*
X181547658Y-118503231D01*
X181538144Y-118713427D01*
X181509603Y-118887363D01*
X181462036Y-119025040D01*
X181356624Y-119159532D01*
X181211632Y-119204362D01*
X181068659Y-119159532D01*
X180962843Y-119025040D01*
X180914378Y-118887363D01*
X180885299Y-118713427D01*
X180877096Y-118535541D01*
X181033926Y-118535541D01*
X181082391Y-118687399D01*
X181214863Y-118752019D01*
X181342488Y-118687399D01*
X181392569Y-118535541D01*
X181342488Y-118385299D01*
X181214863Y-118322294D01*
X181082391Y-118385299D01*
X181033926Y-118535541D01*
X180877096Y-118535541D01*
X180875606Y-118503231D01*
X180885299Y-118291240D01*
X180914378Y-118116227D01*
X180962843Y-117978191D01*
X181068659Y-117843700D01*
X181211632Y-117798869D01*
X181214863Y-117799868D01*
X181356624Y-117843700D01*
X181462036Y-117978191D01*
G37*
G36*
X185426026Y-117212356D02*
G01*
X185672311Y-117287066D01*
X185899289Y-117408388D01*
X186098237Y-117571661D01*
X186261509Y-117770608D01*
X186382832Y-117997586D01*
X186457541Y-118243872D01*
X186482768Y-118500000D01*
X186457541Y-118756128D01*
X186382832Y-119002414D01*
X186261509Y-119229392D01*
X186098237Y-119428339D01*
X185899289Y-119591612D01*
X185672311Y-119712934D01*
X185426026Y-119787644D01*
X185169898Y-119812870D01*
X178830102Y-119812870D01*
X178573974Y-119787644D01*
X178327689Y-119712934D01*
X178100711Y-119591612D01*
X177987113Y-119498384D01*
X178830372Y-119498384D01*
X179250404Y-119498384D01*
X179274637Y-119330775D01*
X179308562Y-119138126D01*
X179349354Y-118929725D01*
X179394184Y-118714863D01*
X179442649Y-118498384D01*
X179494346Y-118285137D01*
X179547254Y-118084410D01*
X179599354Y-117905493D01*
X179651050Y-118081987D01*
X179702746Y-118281906D01*
X179752827Y-118495153D01*
X179799677Y-118711632D01*
X179843296Y-118926898D01*
X179883683Y-119136511D01*
X179919225Y-119330372D01*
X179948304Y-119498384D01*
X180365105Y-119498384D01*
X180321890Y-119293215D01*
X180269790Y-119065428D01*
X180209208Y-118820275D01*
X180140549Y-118563005D01*
X180123601Y-118503231D01*
X180516963Y-118503231D01*
X180528271Y-118748384D01*
X180562197Y-118960420D01*
X180618740Y-119139338D01*
X180697900Y-119285137D01*
X180835398Y-119428738D01*
X181006642Y-119514899D01*
X181211632Y-119543619D01*
X181419853Y-119515078D01*
X181592174Y-119429456D01*
X181728595Y-119286753D01*
X181806341Y-119141458D01*
X181861874Y-118962439D01*
X181895194Y-118749697D01*
X181906301Y-118503231D01*
X181895447Y-118260905D01*
X183722133Y-118260905D01*
X183792407Y-118395396D01*
X183880452Y-118546850D01*
X183982229Y-118708805D01*
X184093700Y-118874798D01*
X184213247Y-119041599D01*
X184339257Y-119205977D01*
X184468498Y-119360662D01*
X184597738Y-119498384D01*
X184953150Y-119498384D01*
X184953150Y-118296446D01*
X185169628Y-118296446D01*
X185169628Y-117970113D01*
X184953150Y-117970113D01*
X184953150Y-117498384D01*
X184555735Y-117498384D01*
X184555735Y-117970113D01*
X183722133Y-117970113D01*
X183722133Y-118260905D01*
X181895447Y-118260905D01*
X181895194Y-118255250D01*
X181861874Y-118041195D01*
X181806341Y-117861066D01*
X181749213Y-117753635D01*
X182539580Y-117753635D01*
X182563813Y-117874798D01*
X182628433Y-117963651D01*
X182720517Y-118018578D01*
X182830372Y-118037964D01*
X183030695Y-117963651D01*
X183117932Y-117753635D01*
X183030695Y-117537157D01*
X182830372Y-117462843D01*
X182720517Y-117482229D01*
X182628433Y-117538772D01*
X182563813Y-117629241D01*
X182539580Y-117753635D01*
X181749213Y-117753635D01*
X181728595Y-117714863D01*
X181592174Y-117571262D01*
X181419853Y-117485101D01*
X181211632Y-117456381D01*
X181003411Y-117485101D01*
X180831090Y-117571262D01*
X180694669Y-117714863D01*
X180616922Y-117861066D01*
X180561389Y-118041195D01*
X180528070Y-118255250D01*
X180516963Y-118503231D01*
X180123601Y-118503231D01*
X180090469Y-118386376D01*
X180037157Y-118207593D01*
X179980614Y-118026656D01*
X179921738Y-117846616D01*
X179861425Y-117670526D01*
X179799677Y-117498384D01*
X179389338Y-117498384D01*
X179309370Y-117735864D01*
X179224556Y-118002423D01*
X179167474Y-118189643D01*
X179112547Y-118376503D01*
X179059774Y-118563005D01*
X179009873Y-118745916D01*
X178963561Y-118922007D01*
X178920840Y-119091276D01*
X178867528Y-119317447D01*
X178830372Y-119498384D01*
X177987113Y-119498384D01*
X177901763Y-119428339D01*
X177738491Y-119229392D01*
X177617168Y-119002414D01*
X177542459Y-118756128D01*
X177517232Y-118500000D01*
X177542459Y-118243872D01*
X177617168Y-117997586D01*
X177738491Y-117770608D01*
X177901763Y-117571661D01*
X178100711Y-117408388D01*
X178327689Y-117287066D01*
X178573974Y-117212356D01*
X178830102Y-117187130D01*
X185169898Y-117187130D01*
X185426026Y-117212356D01*
G37*
G36*
X184555735Y-119000808D02*
G01*
X184436187Y-118842488D01*
X184315024Y-118666397D01*
X184200323Y-118480614D01*
X184103393Y-118296446D01*
X184555735Y-118296446D01*
X184555735Y-119000808D01*
G37*
%LPC*%
G36*
G01*
X153287500Y-80977500D02*
X153287500Y-82237500D01*
G75*
G02*
X153217500Y-82307500I-70000J0D01*
G01*
X151757500Y-82307500D01*
G75*
G02*
X151687500Y-82237500I0J70000D01*
G01*
X151687500Y-80977500D01*
G75*
G02*
X151757500Y-80907500I70000J0D01*
G01*
X153217500Y-80907500D01*
G75*
G02*
X153287500Y-80977500I0J-70000D01*
G01*
G37*
G36*
G01*
X144862500Y-80952500D02*
X144862500Y-82122500D01*
G75*
G02*
X144797500Y-82187500I-65000J0D01*
G01*
X142227500Y-82187500D01*
G75*
G02*
X142162500Y-82122500I0J65000D01*
G01*
X142162500Y-80952500D01*
G75*
G02*
X142227500Y-80887500I65000J0D01*
G01*
X144797500Y-80887500D01*
G75*
G02*
X144862500Y-80952500I0J-65000D01*
G01*
G37*
G36*
G01*
X154362500Y-83952500D02*
X154362500Y-85122500D01*
G75*
G02*
X154297500Y-85187500I-65000J0D01*
G01*
X151727500Y-85187500D01*
G75*
G02*
X151662500Y-85122500I0J65000D01*
G01*
X151662500Y-83952500D01*
G75*
G02*
X151727500Y-83887500I65000J0D01*
G01*
X154297500Y-83887500D01*
G75*
G02*
X154362500Y-83952500I0J-65000D01*
G01*
G37*
G36*
G01*
X144837500Y-83837500D02*
X144837500Y-85097500D01*
G75*
G02*
X144767500Y-85167500I-70000J0D01*
G01*
X143307500Y-85167500D01*
G75*
G02*
X143237500Y-85097500I0J70000D01*
G01*
X143237500Y-83837500D01*
G75*
G02*
X143307500Y-83767500I70000J0D01*
G01*
X144767500Y-83767500D01*
G75*
G02*
X144837500Y-83837500I0J-70000D01*
G01*
G37*
G36*
G01*
X186955000Y-105670000D02*
X183855000Y-105670000D01*
G75*
G02*
X183605000Y-105420000I0J250000D01*
G01*
X183605000Y-104120000D01*
G75*
G02*
X183855000Y-103870000I250000J0D01*
G01*
X186955000Y-103870000D01*
G75*
G02*
X187205000Y-104120000I0J-250000D01*
G01*
X187205000Y-105420000D01*
G75*
G02*
X186955000Y-105670000I-250000J0D01*
G01*
G37*
D15*
X185405000Y-101270000D03*
X185405000Y-97770000D03*
X185405000Y-94270000D03*
D16*
X133262500Y-100537500D03*
D17*
X131565444Y-98840444D03*
X130862500Y-100537500D03*
X133262500Y-98137500D03*
X133262500Y-102937500D03*
X134959556Y-98840444D03*
X134959556Y-102234556D03*
X135662500Y-100537500D03*
X131565444Y-102234556D03*
X163262500Y-102937500D03*
X161565444Y-98840444D03*
X160862500Y-100537500D03*
X163262500Y-98137500D03*
X165662500Y-100537500D03*
X164959556Y-98840444D03*
X164959556Y-102234556D03*
X161565444Y-102234556D03*
D16*
X163262500Y-100537500D03*
G36*
G01*
X109570000Y-93405000D02*
X112670000Y-93405000D01*
G75*
G02*
X112920000Y-93655000I0J-250000D01*
G01*
X112920000Y-94955000D01*
G75*
G02*
X112670000Y-95205000I-250000J0D01*
G01*
X109570000Y-95205000D01*
G75*
G02*
X109320000Y-94955000I0J250000D01*
G01*
X109320000Y-93655000D01*
G75*
G02*
X109570000Y-93405000I250000J0D01*
G01*
G37*
D15*
X111120000Y-97805000D03*
X111120000Y-101305000D03*
X111120000Y-104805000D03*
D18*
X168400000Y-104575000D03*
D19*
X168400000Y-107115000D03*
X168400000Y-109655000D03*
D18*
X155600000Y-108575000D03*
D19*
X155600000Y-111115000D03*
X155600000Y-113655000D03*
D18*
X125037500Y-109960000D03*
D19*
X125037500Y-112500000D03*
X125037500Y-115040000D03*
D18*
X175200000Y-98360000D03*
D19*
X175200000Y-100900000D03*
X175200000Y-103440000D03*
M02*
